<svg width="200" height="150" viewBox="0 0 200 150" fill="none" xmlns="http://www.w3.org/2000/svg">
<g clip-path="url(#clip0)">
<g filter="url(#filter0_d)">
<path d="M0.15947 97.2519L23.3492 44.5944C23.9162 43.3078 25.1619 43.1915 26.1314 44.3351L39.6873 60.3162C40.6571 61.4598 41.4801 62.3759 41.5261 62.362C41.5532 62.354 41.5806 62.3457 41.6088 62.3374C45.2985 61.166 49.253 60.3146 53.5975 59.2675C55.7428 58.7144 58.0749 58.3324 60.439 57.8702C61.6223 57.6476 62.8264 57.4211 64.0492 57.1912C64.6587 57.0776 65.2728 56.963 65.8913 56.8477C66.5196 56.7571 67.1519 56.6662 67.7888 56.5745C70.3244 56.2179 72.9292 55.8506 75.5928 55.4761C78.2659 55.1676 81.0133 54.9404 83.7791 54.6704C86.5343 54.3595 89.3875 54.2924 92.2353 54.1347C93.6585 54.0668 95.0895 53.9981 96.5281 53.9286C97.9701 53.9203 99.4194 53.9123 100.875 53.9032C103.78 53.8981 106.683 53.8337 109.608 53.9989C111.063 54.0569 112.521 54.1152 113.982 54.174C115.437 54.2264 116.89 54.2868 118.341 54.4301C121.243 54.6838 124.129 54.8883 126.984 55.1909C129.82 55.5574 132.643 55.922 135.446 56.2837C138.223 56.7229 140.953 57.2284 143.639 57.6914C144.986 57.9066 146.306 58.1937 147.612 58.4899C148.915 58.7778 150.207 59.0641 151.491 59.348C152.766 59.645 154.043 59.8845 155.276 60.2208C156.507 60.552 157.726 60.88 158.933 61.2048C161.335 61.8616 163.693 62.4481 165.91 63.204C168.129 63.9167 170.289 64.6093 172.377 65.2792C174.406 66.0352 176.366 66.7655 178.247 67.4675C179.212 67.8308 180.158 68.1866 181.082 68.5341C181.929 68.9073 182.756 69.2719 183.563 69.6277C185.176 70.3385 186.706 71.0135 188.145 71.6465C189.574 72.3009 190.947 72.8275 192.156 73.4675C193.362 74.0941 194.471 74.6691 195.47 75.1885C196.861 75.9142 198.042 76.5293 198.988 77.0231C200.471 77.797 200.307 78.0261 198.623 77.5361C197.56 77.2268 196.238 76.8424 194.682 76.3901C193.584 76.0712 192.368 75.7183 191.044 75.3342C189.736 74.9423 188.188 74.6603 186.608 74.2807C185.011 73.9184 183.312 73.5338 181.521 73.1274C180.626 72.9246 179.707 72.7158 178.766 72.5033C177.858 72.3485 176.928 72.1908 175.98 72.0288C174.025 71.6949 171.989 71.3474 169.881 70.9873C167.755 70.72 165.559 70.4441 163.3 70.1602C161.067 69.8357 158.719 69.6948 156.352 69.4954C155.171 69.3997 153.977 69.3032 152.771 69.2059C151.571 69.1027 150.335 69.1003 149.107 69.0423C147.88 68.9974 146.642 68.9514 145.395 68.9057C144.154 68.8517 142.905 68.8084 141.639 68.8386C139.113 68.8656 136.577 68.8552 134.029 68.9108C131.489 69.0399 128.929 69.1709 126.359 69.3016C123.802 69.4914 121.25 69.7769 118.717 70.0044C117.448 70.1017 116.187 70.28 114.933 70.465L111.185 70.9934C108.691 71.292 106.252 71.8082 103.838 72.2517C102.636 72.4765 101.439 72.7 100.246 72.9232C99.074 73.2004 97.9071 73.4768 96.7476 73.7519C94.4408 74.3173 92.1508 74.7736 89.977 75.4545C87.7921 76.0942 85.6425 76.6732 83.5781 77.311C81.5461 78.0031 79.558 78.6794 77.623 79.3389C77.1429 79.5017 76.6652 79.6637 76.1919 79.8249C75.7307 80.0088 75.2716 80.1919 74.8168 80.3737C73.9104 80.7345 73.0183 81.0895 72.1401 81.4387C70.3961 82.1476 68.6828 82.7549 67.1398 83.5141C66.1853 83.9579 65.2443 84.3845 64.3354 84.7981C62.7914 85.5019 62.3405 87.0181 63.3104 88.162L77.2979 104.653C78.2677 105.796 77.6001 106.593 75.8052 106.432L2.38428 99.8695C0.588257 99.7126 -0.406174 98.539 0.15947 97.2519Z" fill="#004688"/>
</g>
</g>
<defs>
<filter id="filter0_d" x="-4.99921" y="38.548" width="220.001" height="82.905" filterUnits="userSpaceOnUse" color-interpolation-filters="sRGB">
<feFlood flood-opacity="0" result="BackgroundImageFix"/>
<feColorMatrix in="SourceAlpha" type="matrix" values="0 0 0 0 0 0 0 0 0 0 0 0 0 0 0 0 0 0 127 0"/>
<feOffset dx="5" dy="5"/>
<feGaussianBlur stdDeviation="5"/>
<feColorMatrix type="matrix" values="0 0 0 0 0.745833 0 0 0 0 0.876654 0 0 0 0 1 0 0 0 1 0"/>
<feBlend mode="normal" in2="BackgroundImageFix" result="effect1_dropShadow"/>
<feBlend mode="normal" in="SourceGraphic" in2="effect1_dropShadow" result="shape"/>
</filter>
<clipPath id="clip0">
<rect width="200" height="150" fill="white" transform="matrix(-1 0 0 1 200 0)"/>
</clipPath>
</defs>
</svg>
