<svg width="17" height="17" viewBox="0 0 17 17" fill="none" xmlns="http://www.w3.org/2000/svg">
<path d="M8.42489 17C8.3321 17 8.24143 16.9632 8.17414 16.8966C8.09056 16.813 8.05372 16.6926 8.0771 16.5771L8.57789 14.0732C8.59206 14.0037 8.62464 13.9407 8.67493 13.8918L14.1843 8.38241C14.598 7.96874 15.2731 7.96874 15.6867 8.38241L16.6883 9.38399C17.1027 9.79837 17.1027 10.472 16.6883 10.8864L11.1789 16.3958C11.13 16.4454 11.067 16.4787 10.9976 16.4928L8.4936 16.9936C8.47093 16.9979 8.44756 17 8.42489 17ZM9.25222 14.3161L8.87681 16.1939L10.7546 15.8185L16.1882 10.3849C16.3263 10.2467 16.3263 10.0222 16.1882 9.88408L15.1866 8.88249C15.0485 8.74437 14.824 8.74437 14.6858 8.88249L9.25222 14.3161ZM10.9288 16.145H10.9359H10.9288Z" fill="#004688"/>
<path d="M6.72917 14.875H1.77083C0.794042 14.875 0 14.081 0 13.1042V3.89583C0 2.91904 0.794042 2.125 1.77083 2.125H3.1875C3.383 2.125 3.54167 2.28367 3.54167 2.47917C3.54167 2.67467 3.383 2.83333 3.1875 2.83333H1.77083C1.18504 2.83333 0.708333 3.31004 0.708333 3.89583V13.1042C0.708333 13.69 1.18504 14.1667 1.77083 14.1667H6.72917C6.92467 14.1667 7.08333 14.3253 7.08333 14.5208C7.08333 14.7163 6.92467 14.875 6.72917 14.875Z" fill="#004688"/>
<path d="M11.6875 8.5C11.492 8.5 11.3333 8.34133 11.3333 8.14583V3.89583C11.3333 3.31004 10.8566 2.83333 10.2708 2.83333H8.85417C8.65867 2.83333 8.5 2.67467 8.5 2.47917C8.5 2.28367 8.65867 2.125 8.85417 2.125H10.2708C11.2476 2.125 12.0417 2.91904 12.0417 3.89583V8.14583C12.0417 8.34133 11.883 8.5 11.6875 8.5Z" fill="#004688"/>
<path d="M8.14587 4.25H3.89587C3.31008 4.25 2.83337 3.77329 2.83337 3.1875V1.77083C2.83337 1.57533 2.99204 1.41667 3.18754 1.41667H4.28546C4.44979 0.609167 5.16592 0 6.02087 0C6.87583 0 7.59196 0.609167 7.75629 1.41667H8.85421C9.04971 1.41667 9.20837 1.57533 9.20837 1.77083V3.1875C9.20837 3.77329 8.73167 4.25 8.14587 4.25ZM3.54171 2.125V3.1875C3.54171 3.38229 3.70108 3.54167 3.89587 3.54167H8.14587C8.34067 3.54167 8.50004 3.38229 8.50004 3.1875V2.125H7.43754C7.24204 2.125 7.08337 1.96633 7.08337 1.77083C7.08337 1.18504 6.60667 0.708333 6.02087 0.708333C5.43508 0.708333 4.95837 1.18504 4.95837 1.77083C4.95837 1.96633 4.79971 2.125 4.60421 2.125H3.54171Z" fill="#004688"/>
<path d="M9.56249 6.37504H2.47917C2.28367 6.37504 2.125 6.21637 2.125 6.02087C2.125 5.82537 2.28367 5.6667 2.47917 5.6667H9.56249C9.75799 5.6667 9.91665 5.82537 9.91665 6.02087C9.91665 6.21637 9.75799 6.37504 9.56249 6.37504Z" fill="#004688"/>
<path d="M9.56249 8.5H2.47917C2.28367 8.5 2.125 8.34133 2.125 8.14583C2.125 7.95033 2.28367 7.79166 2.47917 7.79166H9.56249C9.75799 7.79166 9.91665 7.95033 9.91665 8.14583C9.91665 8.34133 9.75799 8.5 9.56249 8.5Z" fill="#004688"/>
<path d="M9.56249 10.625H2.47917C2.28367 10.625 2.125 10.4664 2.125 10.2709C2.125 10.0754 2.28367 9.9167 2.47917 9.9167H9.56249C9.75799 9.9167 9.91665 10.0754 9.91665 10.2709C9.91665 10.4664 9.75799 10.625 9.56249 10.625Z" fill="#004688"/>
</svg>
