<svg width="40" height="40" viewBox="0 0 40 40" fill="none" xmlns="http://www.w3.org/2000/svg">
<path d="M21.2117 6.1446C21.3621 5.98548 21.4796 5.79831 21.5577 5.59376C21.6357 5.38921 21.6727 5.1713 21.6665 4.95246C21.6603 4.73362 21.611 4.51815 21.5216 4.31834C21.4321 4.11853 21.3042 3.9383 21.1451 3.78793C20.9859 3.63757 20.7988 3.52002 20.5942 3.44199C20.3897 3.36397 20.1717 3.327 19.9529 3.33319C19.7341 3.33938 19.5186 3.38861 19.3188 3.47807C19.119 3.56754 18.9387 3.69548 18.7884 3.8546L4.62171 18.8546C4.32915 19.1641 4.16614 19.5737 4.16614 19.9996C4.16614 20.4255 4.32915 20.8352 4.62171 21.1446L18.7884 36.1463C18.9378 36.3089 19.1179 36.4402 19.3185 36.5326C19.519 36.6249 19.7359 36.6765 19.9566 36.6844C20.1772 36.6922 20.3973 36.6561 20.6039 36.5782C20.8105 36.5003 20.9995 36.3821 21.16 36.2305C21.3206 36.0789 21.4494 35.897 21.539 35.6952C21.6286 35.4934 21.6772 35.2758 21.682 35.055C21.6868 34.8343 21.6477 34.6148 21.567 34.4093C21.4863 34.2038 21.3655 34.0164 21.2117 33.8579L8.12504 19.9996L21.2117 6.1446Z" fill="white"/>
</svg>
