<svg width="40" height="40" viewBox="0 0 40 40" fill="none" xmlns="http://www.w3.org/2000/svg">
<path d="M18.7882 33.8554C18.6378 34.0145 18.5203 34.2017 18.4422 34.4062C18.3642 34.6108 18.3272 34.8287 18.3334 35.0475C18.3396 35.2664 18.3889 35.4819 18.4783 35.6817C18.5678 35.8815 18.6957 36.0617 18.8548 36.2121C19.014 36.3624 19.2011 36.48 19.4057 36.558C19.6102 36.636 19.8281 36.673 20.047 36.6668C20.2658 36.6606 20.4813 36.6114 20.6811 36.5219C20.8809 36.4325 21.0611 36.3045 21.2115 36.1454L35.3782 21.1454C35.6707 20.8359 35.8337 20.4263 35.8337 20.0004C35.8337 19.5745 35.6707 19.1648 35.3782 18.8554L21.2115 3.85373C21.0621 3.69113 20.8819 3.55983 20.6814 3.46745C20.4809 3.37508 20.264 3.32347 20.0433 3.31563C19.8226 3.30779 19.6026 3.34388 19.396 3.42178C19.1894 3.4997 19.0004 3.61788 18.8398 3.76947C18.6793 3.92106 18.5505 4.10304 18.4609 4.30483C18.3713 4.50663 18.3227 4.72422 18.3178 4.94496C18.313 5.1657 18.3521 5.3852 18.4329 5.59071C18.5136 5.79621 18.6344 5.98363 18.7882 6.14206L31.8748 20.0004L18.7882 33.8554Z" fill="white"/>
</svg>
