<svg width="70" height="70" viewBox="0 0 70 70" fill="none" xmlns="http://www.w3.org/2000/svg">
<path d="M8.16309 5.86147C8.16309 6.50547 7.64094 7.02762 6.99693 7.02762C6.35293 7.02762 5.83078 6.50547 5.83078 5.86147C5.83078 5.21746 6.35293 4.69531 6.99693 4.69531C7.64094 4.69531 8.16309 5.21746 8.16309 5.86147Z" fill="white"/>
<path d="M12.8277 5.86147C12.8277 6.50547 12.3056 7.02762 11.6615 7.02762C11.0175 7.02762 10.4954 6.50547 10.4954 5.86147C10.4954 5.21746 11.0175 4.69531 11.6615 4.69531C12.3056 4.69531 12.8277 5.21746 12.8277 5.86147Z" fill="white"/>
<path d="M17.4923 5.86147C17.4923 6.50547 16.9702 7.02762 16.3262 7.02762C15.6822 7.02762 15.16 6.50547 15.16 5.86147C15.16 5.21746 15.6822 4.69531 16.3262 4.69531C16.9702 4.69531 17.4923 5.21746 17.4923 5.86147Z" fill="white"/>
<path d="M24.4892 4.69531C23.8452 4.69531 23.3231 5.21746 23.3231 5.86147C23.3231 6.50547 23.8452 7.02762 24.4892 7.02762H53.6431C54.2871 7.02762 54.8093 6.50547 54.8093 5.86147C54.8093 5.21746 54.2871 4.69531 53.6431 4.69531H24.4892Z" fill="white"/>
<path d="M16.8159 57.1723H2.33231V11.6923H53.6431C54.2871 11.6923 54.8092 11.1702 54.8092 10.5261C54.8092 9.88215 54.2871 9.36 53.6431 9.36H2.33231V2.36307H57.1416V16.8466C57.1416 17.4906 57.6637 18.0128 58.3077 18.0128C58.9517 18.0128 59.4739 17.4906 59.4739 16.8466V1.19692C59.4739 0.552912 58.9517 0.0307617 58.3077 0.0307617H1.16615C0.52215 0.0307617 0 0.552912 0 1.19692V58.3385C0 58.9825 0.52215 59.5046 1.16615 59.5046H16.8159C17.4599 59.5046 17.982 58.9825 17.982 58.3385C17.982 57.6945 17.4599 57.1723 16.8159 57.1723Z" fill="white"/>
<path d="M69.631 64.7056L63.2172 58.3384L66.9724 55.8313C67.3591 55.5785 67.5607 55.1212 67.4855 54.6651C67.4075 54.2107 67.0693 53.8452 66.6223 53.7319L50.9612 49.5689C50.5603 49.4647 50.135 49.5803 49.8423 49.873C49.5496 50.1656 49.434 50.591 49.5382 50.9918L53.6431 66.6529C53.7564 67.0999 54.122 67.4382 54.5758 67.5162C55.0319 67.5913 55.4897 67.3898 55.7419 67.0031L58.3077 63.2479L64.7216 69.6617C64.9414 69.8798 65.2397 70.0016 65.5495 69.9999C65.8593 70.0016 66.1576 69.8798 66.3774 69.6617L69.6777 66.3614C69.8924 66.1365 70.0086 65.8347 69.9994 65.5238C69.9909 65.2129 69.8582 64.9185 69.631 64.7056ZM65.5028 67.1893L58.9022 60.5893C58.6852 60.3735 58.392 60.2522 58.0862 60.251H57.9695C57.6233 60.2864 57.3112 60.4743 57.1182 60.7641L55.2523 63.5514L52.3021 52.3328L63.5207 55.2829L60.7334 57.1722C60.4436 57.3653 60.2557 57.6773 60.2204 58.0235C60.1885 58.3691 60.3126 58.7114 60.5586 58.9562L67.1586 65.5568L65.5028 67.1893Z" fill="#FFA724"/>
<path d="M48.4654 61.265C46.0329 62.2752 43.4455 62.8628 40.8154 63.0029V52.5075C42.5396 52.5479 44.2603 52.684 45.9697 52.9158C46.6137 53.0057 47.2093 52.557 47.2993 51.913C47.3893 51.2685 46.9406 50.6734 46.2966 50.5835C44.4784 50.3454 42.6483 50.2094 40.8154 50.1752V40.846H52.4769C52.4177 42.6749 52.2389 44.4982 51.9406 46.3038C51.8341 46.9478 52.2702 47.5559 52.9143 47.6624C53.5583 47.7683 54.1664 47.3327 54.2729 46.6881C54.5826 44.755 54.762 42.803 54.8093 40.846H62.9723C62.8511 43.4727 62.2833 46.0595 61.2931 48.496C61.0517 49.0882 61.3324 49.7652 61.9229 50.0118C62.063 50.0716 62.2133 50.1034 62.3659 50.1052C62.8436 50.1057 63.2736 49.8148 63.4506 49.3706C64.6959 46.2924 65.3257 43 65.3046 39.6798C65.3075 33.66 63.1847 27.8326 59.3105 23.2255C54.4414 17.4005 47.2418 14.0312 39.6492 14.0244H38.8094C33.1466 14.21 27.7024 16.2599 23.3231 19.8552C22.8237 20.264 22.7508 21.0003 23.1597 21.4996C23.5691 21.9984 24.3047 22.0719 24.8041 21.6625C26.8301 19.9958 29.1197 18.6794 31.5795 17.7677C29.6344 19.8842 28.1073 22.3492 27.0784 25.0328C25.09 24.4686 23.142 23.7716 21.2476 22.9454C20.7852 22.7501 20.2494 22.8719 19.918 23.2489C19.918 23.2489 19.8594 23.2489 19.836 23.3189C16.0631 27.9226 14.0024 33.6924 14.0052 39.6451C14.0058 45.6091 16.0933 51.3846 19.906 55.9712L19.988 56.064C24.8377 61.9233 32.043 65.321 39.6492 65.3352C42.9735 65.3375 46.2658 64.6878 49.3401 63.4225C49.7512 63.2847 50.0518 62.93 50.1201 62.5018C50.189 62.0736 50.0142 61.6426 49.6669 61.3829C49.3196 61.1233 48.8566 61.0783 48.4654 61.265ZM38.4831 62.8981C34.7631 62.3031 31.4862 58.8166 29.3754 53.685C32.3631 52.9824 35.4151 52.5872 38.4831 52.5075V62.8981ZM38.4831 50.1752C35.1395 50.2441 31.8124 50.67 28.5594 51.4461C27.4849 48.012 26.8996 44.4435 26.8215 40.846H38.4831V50.1752ZM16.3842 40.846H24.4892C24.5621 44.6604 25.1748 48.4448 26.3085 52.0878C24.5803 52.5923 22.8829 53.1959 21.2242 53.8952C18.3111 50.1444 16.6217 45.5892 16.3842 40.846ZM49.8531 25.686C46.8876 26.3795 43.8595 26.7701 40.8154 26.8521V16.4735C44.5006 17.0913 47.7423 20.5897 49.8531 25.686ZM38.4831 38.5137H26.8215C26.8944 34.903 27.4838 31.322 28.5708 27.8782C31.8187 28.6657 35.1418 29.1036 38.4831 29.1844V38.5137ZM40.8154 29.1844C44.1317 29.1132 47.4308 28.6907 50.6577 27.9249C51.7407 31.3533 52.3295 34.919 52.4069 38.5137H40.8154V29.1844ZM62.9723 38.5137H54.8093C54.7398 34.7037 54.1311 30.9228 53.0019 27.2837C54.7546 26.7804 56.4759 26.1728 58.1563 25.4645C61.0608 29.218 62.7417 33.7733 62.9723 38.5137ZM56.5585 23.5985C55.1355 24.1708 53.6835 24.669 52.2088 25.0915C51.1861 22.3885 49.6498 19.9093 47.6842 17.7911C51.0261 19.0318 54.0411 21.0179 56.5004 23.5985H56.5585ZM38.4831 16.4615V26.8521C35.4151 26.7758 32.3636 26.3852 29.3754 25.686C31.4862 20.543 34.7631 17.0565 38.4831 16.4615ZM24.4892 38.5137H16.3262C16.567 33.775 18.2474 29.2231 21.1422 25.4645C22.8049 26.1637 24.5069 26.7673 26.2385 27.2718C25.1264 30.9177 24.5376 34.7026 24.4892 38.5137ZM22.7981 55.7611C24.1988 55.1985 25.6275 54.7083 27.0784 54.2915C28.1039 56.9614 29.6231 59.4145 31.5562 61.5219C28.236 60.2942 25.2403 58.3235 22.7981 55.7611Z" fill="white"/>
<path d="M66.5642 28.4616C66.743 28.8972 67.1661 29.1825 67.637 29.1847C67.7901 29.1887 67.9416 29.1568 68.08 29.0914C68.6704 28.8442 68.9512 28.1678 68.7097 27.5756C67.5094 24.6739 65.8735 21.9726 63.8583 19.564C63.4307 19.1813 62.7878 19.1671 62.3431 19.5298C61.899 19.8931 61.7845 20.5263 62.0744 21.0217C63.9381 23.2606 65.4521 25.7694 66.5642 28.4616Z" fill="white"/>
<path d="M15.4282 19.5638C10.7334 25.2163 8.16366 32.3322 8.16309 39.6799C8.16309 40.3239 8.68524 40.8461 9.32924 40.8461C9.97325 40.8461 10.4954 40.3239 10.4954 39.6799C10.4886 32.8652 12.8693 26.2634 17.2241 21.0214C17.6364 20.5255 17.5686 19.7892 17.0727 19.377C16.5767 18.9647 15.8405 19.0331 15.4282 19.529V19.5638Z" fill="white"/>
</svg>
