<svg width="70" height="70" viewBox="0 0 70 70" fill="none" xmlns="http://www.w3.org/2000/svg">
<path d="M5.30881 54.9043C4.55371 54.9043 3.94162 55.5165 3.94162 56.2715V56.2894C3.94162 57.0444 4.55371 57.6566 5.30881 57.6566C6.06391 57.6566 6.676 57.0444 6.676 56.2894V56.2715C6.676 55.5164 6.06391 54.9043 5.30881 54.9043Z" fill="white"/>
<path d="M18.1685 24.6286C17.9142 24.3745 17.5615 24.228 17.2019 24.228C16.8424 24.228 16.4896 24.3743 16.2353 24.6286C15.981 24.8829 15.8347 25.2356 15.8347 25.5952C15.8347 25.9548 15.981 26.3075 16.2353 26.5618C16.4896 26.816 16.8424 26.9624 17.2019 26.9624C17.5629 26.9624 17.9142 26.8161 18.1685 26.5618C18.4228 26.3075 18.5691 25.9548 18.5691 25.5952C18.5691 25.2356 18.4228 24.8829 18.1685 24.6286Z" fill="white"/>
<path d="M69.9967 15.5858C69.9966 15.2302 69.861 14.8806 69.5996 14.6191L55.3808 0.400312C55.1189 0.138359 54.7683 0.00287109 54.4119 0.00328125C54.4127 0.0021875 54.4132 0.00123047 54.4141 0H16.6797C14.4181 0 12.5781 1.83996 12.5781 4.10156V19.3456C12.5781 20.1005 13.1902 20.7128 13.9453 20.7128C14.7004 20.7128 15.3125 20.1005 15.3125 19.3456V4.10156C15.3125 3.3477 15.9258 2.73438 16.6797 2.73438H53.0469V12.8516C53.0469 15.1132 54.8868 16.9531 57.1484 16.9531H67.2656V65.8984C67.2656 66.6523 66.6523 67.2656 65.8984 67.2656H16.6797C15.9258 67.2656 15.3125 66.6523 15.3125 65.8984V62.549C15.8077 62.5942 16.3062 62.6172 16.8072 62.6172H35.2518C37.9546 62.6172 40.1536 60.4183 40.1536 57.7154V57.6472C40.1536 56.8686 39.9703 56.1323 39.646 55.4779C42.3164 55.44 44.4775 53.2573 44.4775 50.578V50.5098C44.4775 49.122 43.8967 47.868 42.9666 46.9752C43.8967 46.0826 44.4775 44.8286 44.4775 43.4406V43.3724C44.4775 41.1284 42.9614 39.2332 40.9002 38.6538C41.2835 37.9555 41.5019 37.1544 41.5019 36.3032V36.235C41.5019 33.5321 39.3031 31.3332 36.6002 31.3332H26.2566L29.3975 24.5448C30.6596 21.8173 30.2127 18.5791 28.2587 16.2952L26.7039 14.478C26.444 14.1742 26.0645 13.9996 25.665 13.9996C25.6613 13.9996 25.6575 13.9996 25.6536 13.9996C25.2502 14.0029 24.8687 14.1844 24.6116 14.4952L19.8589 20.2396C19.3776 20.8214 19.459 21.6833 20.0408 22.1646C20.6225 22.6458 21.4844 22.5645 21.9656 21.9827L25.6825 17.4904L26.1808 18.073C27.4418 19.5468 27.7303 21.6364 26.9157 23.3967L22.8765 32.1264C22.6805 32.5499 22.714 33.0438 22.9653 33.4369C23.2166 33.83 23.6508 34.0677 24.1173 34.0677H36.5999C37.7949 34.0677 38.7673 35.0399 38.7673 36.2351V36.3033C38.7673 37.4984 37.7951 38.4707 36.5999 38.4707H30.0897C29.3347 38.4707 28.7226 39.083 28.7226 39.8379C28.7226 40.5929 29.3347 41.2051 30.0897 41.2051H36.5999H39.5754C40.7705 41.2051 41.7428 42.1775 41.7428 43.3727V43.4409C41.7428 44.6359 40.7706 45.6083 39.5754 45.6083H30.0897C29.3347 45.6083 28.7226 46.2205 28.7226 46.9755C28.7226 47.7304 29.3347 48.3427 30.0897 48.3427H39.5754C40.7705 48.3427 41.7428 49.3149 41.7428 50.5101V50.5783C41.7428 51.7733 40.7706 52.7457 39.5754 52.7457H35.2517H30.0899C29.3348 52.7457 28.7227 53.3579 28.7227 54.1129C28.7227 54.8678 29.3348 55.4801 30.0899 55.4801H35.2517C36.4468 55.4801 37.4191 56.4524 37.4191 57.6476V57.7158C37.4191 58.9109 36.4469 59.8832 35.2517 59.8832H16.8072C15.1007 59.8832 13.4297 59.5671 11.8408 58.9441L10.1172 58.2678V36.3035L14.2959 31.2528C14.7772 30.6709 14.6958 29.8091 14.114 29.3278C13.5323 28.8464 12.6704 28.9279 12.1892 29.5096L9.82488 32.3673C9.57455 32.0487 9.18668 31.8432 8.75 31.8432H1.36719C0.61209 31.8432 0 32.4554 0 33.2104V61.25C0 62.005 0.61209 62.6172 1.36719 62.6172H8.75C9.5051 62.6172 10.1172 62.005 10.1172 61.25V61.2049L10.8425 61.4893C11.4127 61.7129 11.9919 61.9028 12.5781 62.0603V65.8984C12.5781 68.16 14.4181 70 16.6797 70H65.8984C68.16 70 70 68.16 70 65.8984V15.5859C69.9989 15.5859 69.9978 15.5858 69.9967 15.5858ZM57.1484 14.2188C56.3946 14.2188 55.7812 13.6054 55.7812 12.8516V4.66799L65.3321 14.2188H57.1484ZM7.38281 59.8828H2.73438V34.5775H7.38281V59.8828Z" fill="white"/>
<path d="M58.5936 21.7287C58.3393 21.4744 57.9865 21.3281 57.627 21.3281C57.2674 21.3281 56.9146 21.4743 56.6604 21.7287C56.4061 21.983 56.2598 22.3357 56.2598 22.6953C56.2598 23.0549 56.4061 23.4076 56.6604 23.6618C56.9146 23.9161 57.2674 24.0625 57.627 24.0625C57.9865 24.0625 58.3393 23.9162 58.5936 23.6618C58.8479 23.4076 58.9941 23.0549 58.9941 22.6953C58.9941 22.3357 58.8479 21.983 58.5936 21.7287Z" fill="white"/>
<path d="M52.0898 21.3281H34.1797C33.4246 21.3281 32.8125 21.9404 32.8125 22.6953C32.8125 23.4503 33.4246 24.0625 34.1797 24.0625H52.0898C52.8449 24.0625 53.457 23.4503 53.457 22.6953C53.457 21.9404 52.8449 21.3281 52.0898 21.3281Z" fill="#FFA724"/>
<path d="M57.6849 28.4375H42.5879C41.8328 28.4375 41.2207 29.0497 41.2207 29.8047C41.2207 30.5596 41.8328 31.1719 42.5879 31.1719H57.6849C58.44 31.1719 59.0521 30.5596 59.0521 29.8047C59.0521 29.0497 58.44 28.4375 57.6849 28.4375Z" fill="#FFA724"/>
<path d="M57.627 35.6509H48.501C47.7459 35.6509 47.1338 36.2631 47.1338 37.0181C47.1338 37.773 47.7459 38.3853 48.501 38.3853H57.627C58.3821 38.3853 58.9941 37.773 58.9941 37.0181C58.9941 36.2631 58.3821 35.6509 57.627 35.6509Z" fill="white"/>
<path d="M57.6849 42.7603H48.501C47.7459 42.7603 47.1338 43.3725 47.1338 44.1274C47.1338 44.8824 47.7459 45.4946 48.501 45.4946H57.6849C58.44 45.4946 59.0521 44.8824 59.0521 44.1274C59.0521 43.3725 58.44 42.7603 57.6849 42.7603Z" fill="white"/>
<path d="M45.5273 14.2188H34.1797C33.4246 14.2188 32.8125 14.831 32.8125 15.5859C32.8125 16.3409 33.4246 16.9531 34.1797 16.9531H45.5273C46.2824 16.9531 46.8945 16.3409 46.8945 15.5859C46.8945 14.831 46.2824 14.2188 45.5273 14.2188Z" fill="white"/>
</svg>
