<svg width="70" height="70" viewBox="0 0 70 70" fill="none" xmlns="http://www.w3.org/2000/svg">
<path d="M40.7256 22.3884L45.3655 17.749L46.9122 19.2957L42.2723 23.9355L40.7256 22.3884Z" fill="white"/>
<path d="M45.0819 27.5201L51.4217 25.8213L51.9878 27.9346L45.648 29.6329L45.0819 27.5201Z" fill="white"/>
<path d="M35.0278 19.0126L36.7266 12.6738L38.8393 13.2399L37.141 19.5787L35.0278 19.0126Z" fill="white"/>
<path d="M17.5 8.58203H19.6875V21.707H17.5V8.58203Z" fill="white"/>
<path d="M21.875 8.58203H24.0625V17.332H21.875V8.58203Z" fill="white"/>
<path d="M26.25 8.58203H28.4375V12.957H26.25V8.58203Z" fill="white"/>
<path d="M50.3125 41.3945H52.5V54.5195H50.3125V41.3945Z" fill="white"/>
<path d="M45.9375 45.7695H48.125V54.5195H45.9375V45.7695Z" fill="white"/>
<path d="M41.5625 50.1445H43.75V54.5195H41.5625V50.1445Z" fill="white"/>
<path d="M67.8125 61.0818V29.363C67.8088 26.344 65.3628 23.8975 62.3438 23.8943H57.9688V3.09006L53.7502 0.136719L50.6255 2.32422L47.5018 0.136719L44.3754 2.32422L41.2517 0.136719L38.1269 2.32422L35 0.136719L31.8763 2.32422L28.7505 0.136719L25.6257 2.32422L22.4993 0.136719L19.3745 2.32422L16.2476 0.136719L12.0312 3.09006V23.8943H7.65625C4.63722 23.8975 2.19124 26.344 2.1875 29.363V61.0818H0V64.363C0.00373841 67.3815 2.44972 69.828 5.46875 69.8318H64.5312C67.5503 69.828 69.9963 67.3815 70 64.363V61.0818H67.8125ZM57.9688 32.6443H60.1562V56.7068H57.9688V32.6443ZM14.2188 4.22974L16.2498 2.80754L19.3767 4.99504L22.502 2.80754L25.6278 4.99504L28.7526 2.80754L31.8784 4.99504L35.0021 2.80754L38.1269 4.99504L41.2517 2.80754L44.3754 4.99504L47.5018 2.80754L50.6255 4.99504L53.7502 2.80754L55.7812 4.22974V56.7068H14.2188V4.22974ZM4.375 29.363C4.375 27.5504 5.84419 26.0818 7.65625 26.0818H12.0312V30.4568H7.65625V58.8943H62.3438V30.4568H57.9688V26.0818H62.3438C64.1558 26.0818 65.625 27.5504 65.625 29.363V61.0818H39.375V62.1755C39.375 62.7795 38.8853 63.2693 38.2812 63.2693H31.7188C31.1147 63.2693 30.625 62.7795 30.625 62.1755V61.0818H4.375V29.363ZM12.0312 32.6443V56.7068H9.84375V32.6443H12.0312ZM67.8125 64.363C67.8125 66.1751 66.3433 67.6443 64.5312 67.6443H5.46875C3.65669 67.6443 2.1875 66.1751 2.1875 64.363V63.2693H28.6244C29.0896 64.5793 30.3286 65.4546 31.7188 65.4568H38.2812C39.6714 65.4546 40.9104 64.5793 41.3756 63.2693H67.8125V64.363Z" fill="white"/>
<path d="M45.781 33.629L31.0277 18.8799L26.6383 30.2884L24.4833 32.4433L19.0707 37.8582L26.8033 45.5913L28.3499 44.0447L32.2176 47.9113C33.4988 49.193 35.5762 49.1935 36.8585 47.9123C38.1403 46.6311 38.1408 44.5531 36.8596 43.2714L32.993 39.4048L34.3768 38.0216L45.781 33.629ZM26.8033 42.498L22.1639 37.8582L25.2567 34.7644L29.8976 39.4048L26.8033 42.498ZM35.3108 44.818C35.5949 45.0925 35.7092 45.4995 35.6088 45.8818C35.509 46.2642 35.2099 46.5628 34.8275 46.6626C34.4451 46.763 34.0387 46.6487 33.7642 46.3646L29.8965 42.498L31.4442 40.9568L35.3108 44.818ZM31.4442 37.8571L26.8033 33.2167L28.5139 31.5061L31.8608 22.8063L41.8557 32.8006L33.1538 36.1444L31.4442 37.8571Z" fill="#FFA724"/>
<path d="M17.523 42.4978L19.0696 40.9512L23.7106 45.5911L22.1639 47.1377L17.523 42.4978Z" fill="white"/>
</svg>
