<svg width="70" height="70" viewBox="0 0 70 70" fill="none" xmlns="http://www.w3.org/2000/svg">
<path d="M53.4449 21.677V17.5715H51.3944V29.862H18.5912V7.3132H51.3944V15.5311H53.4449V5.2627H16.5406V21.6769H0V38.0762H2.05051V23.7274H16.5406V25.767H4.114V52.4296H65.8845V25.767H53.4449V23.7274H67.9496V62.6865H63.8381V64.737H70V21.677H53.4449ZM63.834 27.8175V50.3791H6.16451V27.8175H16.5406V31.9125H53.4449V27.8175H63.834Z" fill="white"/>
<path d="M59.7371 62.6865H61.7876V64.737H59.7371V62.6865Z" fill="white"/>
<path d="M2.05051 40.127H0V64.7373H57.6866V62.6868H2.05051V40.127Z" fill="white"/>
<path d="M37.0451 60.6359C38.3816 60.6359 39.5213 59.7787 39.9444 58.5853L65.8887 58.581L65.8885 56.5305L39.9444 56.5347C39.5212 55.3416 38.3816 54.4844 37.0452 54.4844C35.7088 54.4844 34.5692 55.3415 34.1459 56.5347L12.3029 56.5305L12.3027 58.581L34.1458 58.5853C34.5688 59.7787 35.7085 60.6359 37.0451 60.6359ZM37.0451 56.535C37.6104 56.535 38.0703 56.9949 38.0703 57.5603C38.0703 58.1256 37.6104 58.5855 37.0451 58.5855C36.4797 58.5855 36.0198 58.1256 36.0198 57.5603C36.0198 56.9949 36.4797 56.535 37.0451 56.535Z" fill="white"/>
<path d="M4.114 54.48H6.16451V60.6314H4.114V54.48Z" fill="white"/>
<path d="M8.20626 54.48H10.2568V60.6314H8.20626V54.48Z" fill="white"/>
<path d="M42.2484 18.5836L28.8567 12.9639V24.2505L42.2484 18.5836ZM30.907 16.0481L36.9681 18.5916L30.907 21.1565V16.0481Z" fill="#FFA724"/>
<path d="M20.6437 9.36963H22.6942V11.4201H20.6437V9.36963Z" fill="white"/>
<path d="M20.6437 13.481H22.6942V15.5315H20.6437V13.481Z" fill="white"/>
<path d="M8.2019 29.874H10.2524V31.9245H8.2019V29.874Z" fill="white"/>
<path d="M8.2019 33.9751H10.2524V36.0256H8.2019V33.9751Z" fill="white"/>
</svg>
