<svg width="70" height="70" viewBox="0 0 70 70" fill="none" xmlns="http://www.w3.org/2000/svg">
<path d="M66.0665 0H3.93352C1.76503 0 0.000946045 1.76422 0.000946045 3.93271V21.6937C0.000946045 23.8644 1.76503 25.6303 3.93352 25.6303H6.90018L6.93778 31.3601C6.9412 31.8735 7.23173 32.3416 7.69028 32.5724C7.88456 32.6702 8.09511 32.7183 8.30483 32.7183C8.58989 32.7183 8.87358 32.6292 9.11229 32.4546L18.4401 25.6301H29.4112L33.8712 32.1249C34.1262 32.4963 34.5479 32.7182 34.9983 32.7182C35.4488 32.7182 35.8703 32.4963 36.1255 32.1249L40.5855 25.6301H51.5603L60.8841 32.4543C61.2982 32.7575 61.8474 32.8029 62.3059 32.5726C62.7644 32.3419 63.0551 31.8741 63.0588 31.3608L63.0995 25.6301H66.0669C68.2354 25.6301 69.9994 23.8641 69.9994 21.6936V3.93271C69.999 1.76422 68.2349 0 66.0665 0V0ZM67.2647 21.6937C67.2647 22.3567 66.7271 22.8959 66.0665 22.8959H61.7416C60.9904 22.8959 60.3798 23.5021 60.3744 24.2534L60.343 28.6702L52.8143 23.1599C52.58 22.9884 52.2972 22.8959 52.0068 22.8959H39.8655C39.415 22.8959 38.9935 23.1178 38.7384 23.4891L34.9981 28.936L31.2577 23.4891C31.0027 23.1178 30.5811 22.8959 30.1306 22.8959H17.9931C17.7029 22.8959 17.4201 22.9883 17.1858 23.1596L9.65452 28.6699L9.62553 24.2543C9.62061 23.5026 9.00989 22.896 8.25835 22.896H3.93352C3.27276 22.896 2.73532 22.3567 2.73532 21.6938V3.93271C2.73532 3.27195 3.2729 2.73438 3.93352 2.73438H66.0665C66.7272 2.73438 67.2647 3.27195 67.2647 3.93271V21.6937Z" fill="white"/>
<path d="M65.2531 56.8449C65.9333 55.7175 66.3253 54.3976 66.3253 52.9876C66.3253 48.8553 62.9651 45.4934 58.8351 45.4934C54.7028 45.4934 51.341 48.8553 51.341 52.9876C51.341 54.3978 51.7334 55.7178 52.414 56.8453C51.4205 57.3023 50.5374 57.9555 49.81 58.7501C48.7538 55.6861 46.3695 53.1826 43.3163 52.0064C44.4658 50.3618 45.1427 48.3638 45.1427 46.2095C45.1427 40.6155 40.5918 36.0645 34.9979 36.0645C29.4041 36.0645 24.8531 40.6155 24.8531 46.2095C24.8531 48.3641 25.5303 50.3625 26.6801 52.0072C23.6266 53.1837 21.2424 55.6867 20.186 58.7503C19.4588 57.9556 18.5758 57.3026 17.5823 56.8456C18.2626 55.7181 18.6549 54.3979 18.6549 52.9878C18.6549 48.8555 15.2947 45.4935 11.1646 45.4935C7.03239 45.4935 3.67061 48.8555 3.67061 52.9878C3.67061 54.3979 4.063 55.7179 4.74358 56.8454C1.93264 58.1385 0.000671387 60.9983 0.000671387 64.2034V68.6326C0.000671387 69.3877 0.612761 69.9998 1.36786 69.9998H28.8593C29.6144 69.9998 30.2265 69.3877 30.2265 68.6326C30.2265 67.8775 29.6144 67.2655 28.8593 67.2655H22.3248V64.2031V62.2848C22.3248 58.4284 25.0623 55.0608 28.7813 54.2181C30.4999 55.5552 32.6566 56.3546 34.9978 56.3546C37.3392 56.3546 39.4963 55.5551 41.215 54.2176C44.9334 55.0595 47.6708 58.4277 47.6708 62.2848V64.2031V67.2655H41.1363C40.3812 67.2655 39.7691 67.8775 39.7691 68.6326C39.7691 69.3877 40.3812 69.9998 41.1363 69.9998H68.6316C69.3867 69.9998 69.9988 69.3877 69.9988 68.6326V64.2031C69.999 60.9976 68.0658 58.1377 65.2531 56.8449ZM11.1649 48.2276C13.7873 48.2276 15.9207 50.3629 15.9207 52.9875C15.9207 55.61 13.7873 57.7435 11.1649 57.7435C8.5404 57.7435 6.40526 55.61 6.40526 52.9875C6.40526 50.363 8.5404 48.2276 11.1649 48.2276ZM2.73532 67.2655V64.2031C2.73532 61.7683 4.41969 59.6349 6.73503 59.0243C7.97684 59.9372 9.50864 60.4779 11.1649 60.4779C12.8201 60.4779 14.3508 59.9372 15.5919 59.0246C17.9067 59.6356 19.5906 61.7687 19.5906 64.2031V67.2655H2.73532ZM27.5876 46.2095C27.5876 42.1233 30.912 38.7988 34.9981 38.7988C39.0842 38.7988 42.4085 42.1231 42.4085 46.2095C42.4085 50.2958 39.0842 53.6201 34.9981 53.6201C30.912 53.6201 27.5876 50.2956 27.5876 46.2095ZM58.8351 48.2276C61.4575 48.2276 63.5909 50.3629 63.5909 52.9875C63.5909 55.61 61.4575 57.7435 58.8351 57.7435C56.2107 57.7435 54.0754 55.61 54.0754 52.9875C54.0754 50.363 56.2107 48.2276 58.8351 48.2276ZM50.4055 64.2031C50.4055 61.7683 52.0898 59.6349 54.4052 59.0243C55.647 59.9372 57.1788 60.4779 58.835 60.4779C60.4902 60.4779 62.0211 59.9372 63.2622 59.0245C65.579 59.635 67.2645 61.7683 67.2645 64.203V67.2655H50.4055V64.2031Z" fill="white"/>
<path d="M61.5013 7.63086H25.8989C25.1438 7.63086 24.5317 8.24295 24.5317 8.99805C24.5317 9.75315 25.1438 10.3652 25.8989 10.3652H61.5014C62.2565 10.3652 62.8686 9.75315 62.8686 8.99805C62.8686 8.24295 62.2564 7.63086 61.5013 7.63086Z" fill="#FFA724"/>
<path d="M8.49475 10.3652H18.6598C19.4149 10.3652 20.027 9.75315 20.027 8.99805C20.027 8.24295 19.4149 7.63086 18.6598 7.63086H8.49475C7.73965 7.63086 7.12756 8.24295 7.12756 8.99805C7.12756 9.75315 7.73965 10.3652 8.49475 10.3652Z" fill="white"/>
<path d="M61.5013 15.2612H51.3402C50.5851 15.2612 49.973 15.8733 49.973 16.6284C49.973 17.3835 50.5851 17.9956 51.3402 17.9956H61.5013C62.2564 17.9956 62.8685 17.3835 62.8685 16.6284C62.8685 15.8733 62.2564 15.2612 61.5013 15.2612Z" fill="white"/>
<path d="M44.0973 15.2612H8.49475C7.73965 15.2612 7.12756 15.8733 7.12756 16.6284C7.12756 17.3835 7.73965 17.9956 8.49475 17.9956H44.0973C44.8524 17.9956 45.4645 17.3835 45.4645 16.6284C45.4645 15.8733 44.8524 15.2612 44.0973 15.2612Z" fill="white"/>
<path d="M34.9981 67.2656C34.243 67.2656 33.6309 67.8777 33.6309 68.6328C33.6309 69.3879 34.243 70 34.9981 70H35.0059C35.761 70 36.3692 69.3879 36.3692 68.6328C36.3692 67.8777 35.7532 67.2656 34.9981 67.2656Z" fill="white"/>
</svg>
