<svg width="70" height="70" viewBox="0 0 70 70" fill="none" xmlns="http://www.w3.org/2000/svg">
<path d="M44.8438 33.7192C44.8438 31.4092 42.9647 29.5312 40.6569 29.5312C39.538 29.5312 38.4869 29.9666 37.6961 30.7584L27.9923 40.4622C26.6777 41.7769 25.1037 42.8148 23.392 43.5291C24.4945 42.0634 25.1562 40.25 25.1562 38.2812C25.1562 33.4567 21.2308 29.5312 16.4062 29.5312C11.5817 29.5312 7.65625 33.4567 7.65625 38.2812C7.65625 41.0134 8.91625 43.4547 10.8839 45.0614C5.31891 46.1147 1.09375 51.007 1.09375 56.875V68.9062H26.25V54.8745C26.25 54.3408 26.4578 53.8377 26.8352 53.4603L43.6177 36.6789C44.4084 35.8881 44.8438 34.837 44.8438 33.7192ZM17.5 47.0312L18.4833 46.8945C18.2022 48.2202 17.3698 49.2188 16.4062 49.2188C15.4755 49.2188 14.6672 48.2891 14.3577 47.0312H17.5ZM9.84375 38.2812C9.84375 34.662 12.787 31.7188 16.4062 31.7188C20.0255 31.7188 22.9688 34.662 22.9688 38.2812C22.9688 41.9005 20.0255 44.8438 16.4062 44.8438C12.787 44.8438 9.84375 41.9005 9.84375 38.2812ZM42.0711 35.1334L25.2886 51.9148C24.4978 52.7056 24.0625 53.7567 24.0625 54.8745V66.7188H8.75V53.5938H6.5625V66.7188H3.28125V56.875C3.28125 51.7825 7.16844 47.5814 12.1308 47.0816C12.553 49.5491 14.3073 51.4062 16.4062 51.4062C18.6484 51.4062 20.4794 49.28 20.7309 46.5609C24.0461 45.9856 27.1589 44.3877 29.5389 42.0077L39.2427 32.3039C39.6156 31.932 40.1297 31.7188 40.6569 31.7188C41.7594 31.7188 42.6562 32.6156 42.6562 33.7192C42.6562 34.253 42.4484 34.755 42.0711 35.1334Z" fill="white"/>
<path d="M62.3612 45.0877C64.3486 43.482 65.625 41.0288 65.625 38.2812C65.625 33.4567 61.6995 29.5312 56.875 29.5312C52.0505 29.5312 48.125 33.4567 48.125 38.2812C48.125 42.4462 51.053 45.9353 54.9566 46.8125C53.6277 47.9073 52.6127 49.3883 52.1369 51.1328L50.5706 56.875H39.9219C37.8109 56.875 36.0938 58.5922 36.0938 60.7031C36.0938 62.8141 37.8109 64.5312 39.9219 64.5312H50.3125V68.9062H68.9062V53.3794C68.9062 49.3588 66.1095 45.9878 62.3612 45.0877ZM50.3125 38.2812C50.3125 34.662 53.2558 31.7188 56.875 31.7188C60.4942 31.7188 63.4375 34.662 63.4375 38.2812C63.4375 41.9005 60.4942 44.8438 56.875 44.8438C53.2558 44.8438 50.3125 41.9005 50.3125 38.2812ZM66.7188 66.7188H52.5V64.5312H53.4166C55.3033 64.5312 56.9702 63.3292 57.5662 61.5398L61.1931 50.6581L59.1194 49.9658L55.4925 60.8475C55.1928 61.7433 54.3594 62.3438 53.4166 62.3438H39.9219C39.0173 62.3438 38.2812 61.6077 38.2812 60.7031C38.2812 59.7986 39.0173 59.0625 39.9219 59.0625H52.2419L54.2478 51.7081C54.9981 48.9541 57.517 47.0312 60.3706 47.0312C63.8706 47.0312 66.7188 49.8794 66.7188 53.3794V66.7188Z" fill="white"/>
<path d="M14.2188 12.0312H16.4062V14.2188H14.2188V12.0312Z" fill="white"/>
<path d="M18.5938 12.0312H31.7188V14.2188H18.5938V12.0312Z" fill="white"/>
<path d="M14.2188 16.4062H31.7188V18.5938H14.2188V16.4062Z" fill="#FFA724"/>
<path d="M14.2188 20.7812H31.7188V22.9688H14.2188V20.7812Z" fill="white"/>
<path d="M62.3438 9.84375H64.5312V12.0312H62.3438V9.84375Z" fill="white"/>
<path d="M38.2812 9.84375H60.1562V12.0312H38.2812V9.84375Z" fill="white"/>
<path d="M38.2812 14.2188H64.5312V16.4062H38.2812V14.2188Z" fill="#FFA724"/>
<path d="M38.2812 18.5938H64.5312V20.7812H38.2812V18.5938Z" fill="white"/>
<path d="M63.4375 1.09375H39.375C36.3595 1.09375 33.9062 3.54703 33.9062 6.5625V7.65625H14.2188C11.8059 7.65625 9.84375 9.61844 9.84375 12.0313V22.9688C9.84375 25.3816 11.8059 27.3438 14.2188 27.3438H24.0625V32.6692L32.0502 27.3438H33.9062C35.5928 27.3438 37.0891 26.3517 37.8131 24.9014C38.3119 25.0513 38.8292 25.1563 39.375 25.1563H42.3248L50.3125 30.4817V25.1563H63.4375C66.453 25.1563 68.9062 22.703 68.9062 19.6875V6.5625C68.9062 3.54703 66.453 1.09375 63.4375 1.09375ZM33.9062 25.1563H31.3873L26.25 28.5808V25.1563H14.2188C13.0123 25.1563 12.0312 24.1752 12.0312 22.9688V12.0313C12.0312 10.8248 13.0123 9.84375 14.2188 9.84375H33.9062V19.6875C33.9062 21.373 34.6883 22.8627 35.8903 23.8667C35.5425 24.6291 34.7758 25.1563 33.9062 25.1563ZM66.7188 19.6875C66.7188 21.4966 65.2466 22.9688 63.4375 22.9688H48.125V26.3933L42.9877 22.9688H39.375C37.5659 22.9688 36.0938 21.4966 36.0938 19.6875V6.5625C36.0938 4.75344 37.5659 3.28125 39.375 3.28125H63.4375C65.2466 3.28125 66.7188 4.75344 66.7188 6.5625V19.6875Z" fill="white"/>
<path d="M38.2812 5.46875H40.4688V7.65625H38.2812V5.46875Z" fill="white"/>
<path d="M42.6562 5.46875H44.8438V7.65625H42.6562V5.46875Z" fill="white"/>
<path d="M47.0312 5.46875H64.5312V7.65625H47.0312V5.46875Z" fill="white"/>
</svg>
