<svg width="70" height="70" viewBox="0 0 70 70" fill="none" xmlns="http://www.w3.org/2000/svg">
<path d="M66.185 23.0252H62.2622V9.7676C62.2622 6.72862 59.7897 4.25635 56.7508 4.25635H9.26348C6.22451 4.25635 3.75223 6.72862 3.75223 9.7676V43.4153C3.75223 44.6812 4.19848 45.8712 4.94811 46.8192H1.77447C0.795973 46.8191 0 47.6184 0 48.6008V51.2022C0 53.7028 2.01919 55.7371 4.50104 55.7371H29.931C30.4975 55.7371 30.9564 55.278 30.9564 54.7117C30.9564 54.1454 30.4975 53.6863 29.931 53.6863H4.50104C3.14999 53.6863 2.05077 52.572 2.05077 51.2022V48.8698H45.2484V53.6863H34.7162C34.1497 53.6863 33.6908 54.1454 33.6908 54.7117C33.6908 55.278 34.1497 55.7371 34.7162 55.7371H45.2484V61.9287C45.2484 64.0324 46.9598 65.7439 49.0634 65.7439H66.1849C68.2886 65.7439 69.9999 64.0324 69.9999 61.9287C69.9999 60.3617 69.9999 27.9614 69.9999 26.8403C70 24.7366 68.2886 23.0252 66.185 23.0252ZM45.2484 46.8191H8.64333C7.01884 46.5211 5.80314 45.0713 5.80314 43.4152V9.7676C5.80314 7.85942 7.35544 6.30712 9.26362 6.30712H56.7509C58.6591 6.30712 60.2115 7.85942 60.2115 9.7676V23.0253H58.2323C58.2323 21.5913 58.2323 11.66 58.2323 10.0863C58.2323 9.07717 57.4113 8.25604 56.4021 8.25604C56.1228 8.25604 11.0381 8.25604 9.61252 8.25604C8.60327 8.25604 7.78227 9.07703 7.78227 10.0863V43.0463C7.78227 44.0554 8.60327 44.8766 9.61252 44.8766H45.2485V46.8191H45.2484ZM56.1813 10.3067V13.0291H15.0647V10.3067H56.1813ZM13.0139 10.3067V13.0291H9.83291V10.3067H13.0139ZM45.2484 26.8401V42.8257H9.83291V15.0799H56.1813V23.0252H49.0635C46.9598 23.0252 45.2484 24.7366 45.2484 26.8401ZM47.2992 30.8658H49.361V32.9191H47.2992V30.8658ZM67.9492 61.9287C67.9492 62.9016 67.1578 63.6931 66.185 63.6931H49.0634C48.0906 63.6931 47.2992 62.9016 47.2992 61.9287V58.99H67.9492V61.9287ZM67.9492 56.9392H47.2992C47.2992 48.5686 47.2992 43.3316 47.2992 34.9698H67.9492V56.9392ZM67.9492 32.9191H51.4118V30.8658H67.9492V32.9191ZM67.9492 28.815C66.9026 28.815 48.2324 28.815 47.2992 28.815V26.8401C47.2992 25.8674 48.0906 25.0759 49.0634 25.0759H66.1849C67.1576 25.0759 67.9491 25.8674 67.9491 26.8401V28.815H67.9492Z" fill="white"/>
<path d="M56.5344 62.1509H58.7141C59.2805 62.1509 59.7395 61.6918 59.7395 61.1255C59.7395 60.5592 59.2805 60.1001 58.7141 60.1001H56.5344C55.9679 60.1001 55.509 60.5592 55.509 61.1255C55.509 61.6918 55.9679 62.1509 56.5344 62.1509Z" fill="white"/>
<path d="M36.3906 27.2178L31.9904 24.2175C30.5979 23.2679 28.7068 24.267 28.7068 25.9526V31.9533C28.7068 33.6385 30.5973 34.6382 31.9904 33.6884L36.3906 30.6881C37.6123 29.8551 37.612 28.0506 36.3906 27.2178ZM35.2352 28.9938L30.835 31.9942C30.8217 32.0031 30.8104 32.011 30.784 31.9971C30.7578 31.9832 30.7578 31.9693 30.7578 31.9533V25.9526C30.7578 25.9366 30.7578 25.9228 30.784 25.9089C30.7944 25.9034 30.8025 25.9012 30.8093 25.9012C30.8197 25.9012 30.8271 25.9063 30.835 25.9117L35.2352 28.912C35.2443 28.9183 35.2568 28.9268 35.2568 28.9529C35.2568 28.9792 35.2443 28.9876 35.2352 28.9938Z" fill="white"/>
<path d="M32.3237 19.353C27.0302 19.353 22.7236 23.6597 22.7236 28.953C22.7236 34.2463 27.0302 38.553 32.3237 38.553C37.6172 38.553 41.9237 34.2465 41.9237 28.953C41.9237 23.6595 37.6172 19.353 32.3237 19.353ZM32.3237 36.5023C28.161 36.5023 24.7744 33.1158 24.7744 28.9531C24.7744 24.7905 28.161 21.4039 32.3237 21.4039C36.4863 21.4039 39.8729 24.7906 39.8729 28.9531C39.8729 33.1157 36.4863 36.5023 32.3237 36.5023Z" fill="#FFA724"/>
<path d="M57.409 41.5862C56.1064 40.6981 54.3434 41.6364 54.3434 43.2063V48.429C54.3434 50.0118 56.1172 50.9298 57.4091 50.049L61.2386 47.4376C62.3794 46.66 62.3791 44.9752 61.2387 44.1975L57.409 41.5862ZM56.3942 48.2588V43.3764L59.9743 45.8176L56.3942 48.2588Z" fill="white"/>
<path d="M57.6242 54.3063C61.1924 54.3063 64.4021 52.0513 65.6113 48.695C65.8032 48.1622 65.5271 47.5747 64.9941 47.3827C64.4615 47.1911 63.8739 47.4671 63.6819 47.9999C62.7648 50.5453 60.3303 52.2555 57.624 52.2555C54.0744 52.2555 51.1866 49.3676 51.1866 45.8181C51.1866 42.2686 54.0744 39.3807 57.624 39.3807C60.444 39.3807 62.9104 41.1857 63.7616 43.8721C63.9325 44.412 64.5092 44.711 65.0487 44.5399C65.5886 44.3689 65.8876 43.7926 65.7166 43.2527C64.5944 39.7102 61.3422 37.3301 57.6242 37.3301C52.9439 37.3301 49.136 41.138 49.136 45.8183C49.136 50.4986 52.9439 54.3063 57.6242 54.3063Z" fill="#FFA724"/>
</svg>
