<svg width="70" height="70" viewBox="0 0 70 70" fill="none" xmlns="http://www.w3.org/2000/svg">
<path d="M2.83784 27.4322C2.6384 27.4324 2.444 27.3696 2.2824 27.2527C2.12081 27.1358 2.00029 26.9708 1.93808 26.7813C1.87586 26.5918 1.87512 26.3875 1.93597 26.1976C1.99682 26.0077 2.11615 25.8418 2.2769 25.7238L13.6282 17.3815C13.728 17.304 13.8423 17.2473 13.9644 17.2147C14.0864 17.1821 14.2138 17.1742 14.3389 17.1917C14.4641 17.2091 14.5844 17.2514 14.6929 17.3161C14.8015 17.3808 14.8959 17.4666 14.9707 17.5684C15.0455 17.6702 15.0992 17.7859 15.1286 17.9088C15.1579 18.0317 15.1623 18.1592 15.1416 18.2838C15.1209 18.4085 15.0754 18.5277 15.0078 18.6344C14.9403 18.7412 14.852 18.8333 14.7482 18.9054L3.3969 27.2486C3.23501 27.3681 3.03904 27.4324 2.83784 27.4322Z" fill="white"/>
<path d="M67.1622 68.1081H53.3892C53.1383 68.1081 52.8977 68.0084 52.7203 67.831C52.5429 67.6536 52.4432 67.413 52.4432 67.1621C52.4432 66.9113 52.5429 66.6707 52.7203 66.4933C52.8977 66.3159 53.1383 66.2162 53.3892 66.2162H66.2162V26.4865C66.2162 26.2356 66.3159 25.995 66.4933 25.8176C66.6707 25.6402 66.9113 25.5405 67.1622 25.5405C67.4131 25.5405 67.6537 25.6402 67.8311 25.8176C68.0085 25.995 68.1081 26.2356 68.1081 26.4865V67.1621C68.1081 67.413 68.0085 67.6536 67.8311 67.831C67.6537 68.0084 67.4131 68.1081 67.1622 68.1081Z" fill="white"/>
<path d="M37.3649 68.1082H34.5838C34.3329 68.1082 34.0923 68.0085 33.9149 67.8311C33.7375 67.6537 33.6378 67.4131 33.6378 67.1623C33.6378 66.9114 33.7375 66.6708 33.9149 66.4934C34.0923 66.316 34.3329 66.2163 34.5838 66.2163H37.3649C37.6157 66.2163 37.8563 66.316 38.0337 66.4934C38.2111 66.6708 38.3108 66.9114 38.3108 67.1623C38.3108 67.4131 38.2111 67.6537 38.0337 67.8311C37.8563 68.0085 37.6157 68.1082 37.3649 68.1082Z" fill="#FFA724"/>
<path d="M27.9622 68.1081H2.83784C2.58696 68.1081 2.34635 68.0084 2.16895 67.831C1.99155 67.6536 1.89189 67.413 1.89189 67.1621V26.4865C1.89189 26.2356 1.99155 25.995 2.16895 25.8176C2.34635 25.6402 2.58696 25.5405 2.83784 25.5405C3.08872 25.5405 3.32932 25.6402 3.50672 25.8176C3.68412 25.995 3.78378 26.2356 3.78378 26.4865V66.2162H27.9622C28.213 66.2162 28.4536 66.3159 28.631 66.4933C28.8084 66.6707 28.9081 66.9113 28.9081 67.1621C28.9081 67.413 28.8084 67.6536 28.631 67.831C28.4536 68.0084 28.213 68.1081 27.9622 68.1081Z" fill="white"/>
<path d="M46.7676 68.1082H43.9865C43.7356 68.1082 43.495 68.0085 43.3176 67.8311C43.1402 67.6537 43.0405 67.4131 43.0405 67.1623C43.0405 66.9114 43.1402 66.6708 43.3176 66.4934C43.495 66.316 43.7356 66.2163 43.9865 66.2163H46.7676C47.0185 66.2163 47.2591 66.316 47.4365 66.4934C47.6139 66.6708 47.7135 66.9114 47.7135 67.1623C47.7135 67.4131 47.6139 67.6537 47.4365 67.8311C47.2591 68.0085 47.0185 68.1082 46.7676 68.1082Z" fill="#FFA724"/>
<path d="M35 51.3982C32.8064 51.4012 30.6802 50.6403 28.9866 49.2462L2.23622 27.217C2.04254 27.0574 1.92017 26.8274 1.89605 26.5777C1.87192 26.3279 1.94801 26.0788 2.10757 25.8851C2.26713 25.6914 2.49709 25.569 2.74687 25.5449C2.99665 25.5208 3.24578 25.5969 3.43946 25.7564L30.1899 47.7856C31.5457 48.8989 33.2457 49.5074 35 49.5074C36.7543 49.5074 38.4543 48.8989 39.8101 47.7856L66.5605 25.7564C66.7542 25.5969 67.0034 25.5208 67.2531 25.5449C67.5029 25.569 67.7329 25.6914 67.8924 25.8851C68.052 26.0788 68.1281 26.3279 68.104 26.5777C68.0798 26.8274 67.9575 27.0574 67.7638 27.217L41.0134 49.2462C39.3198 50.6403 37.1936 51.4012 35 51.3982Z" fill="white"/>
<path d="M67.1622 68.1079C66.9427 68.108 66.73 68.0317 66.5605 67.8922L41.8619 47.5544C41.766 47.4754 41.6866 47.3782 41.6282 47.2686C41.5699 47.1589 41.5337 47.0387 41.5217 46.9151C41.5098 46.7914 41.5223 46.6666 41.5586 46.5477C41.5949 46.4289 41.6542 46.3184 41.7332 46.2225C41.8122 46.1266 41.9094 46.0472 42.0191 45.9888C42.1287 45.9304 42.2489 45.8943 42.3725 45.8823C42.4962 45.8704 42.621 45.8829 42.7399 45.9192C42.8587 45.9555 42.9692 46.0148 43.0651 46.0938L67.7638 66.4317C67.9143 66.5556 68.0228 66.7229 68.0745 66.9108C68.1263 67.0987 68.1187 67.298 68.0529 67.4815C67.987 67.6649 67.8661 67.8236 67.7067 67.9357C67.5473 68.0478 67.3571 68.108 67.1622 68.1079Z" fill="white"/>
<path d="M2.83785 68.1079C2.64294 68.108 2.45277 68.0478 2.29334 67.9357C2.13391 67.8236 2.013 67.6649 1.94716 67.4815C1.88132 67.298 1.87375 67.0987 1.92549 66.9108C1.97723 66.7229 2.08576 66.5556 2.23623 66.4317L26.9349 46.0938C27.1286 45.9343 27.3777 45.8582 27.6275 45.8823C27.8772 45.9064 28.1072 46.0288 28.2668 46.2225C28.4263 46.4162 28.5024 46.6653 28.4783 46.9151C28.4542 47.1648 28.3318 47.3948 28.1381 47.5544L3.43947 67.8922C3.27003 68.0317 3.05734 68.108 2.83785 68.1079Z" fill="white"/>
<path d="M67.1622 27.4322C66.961 27.4324 66.765 27.3681 66.6031 27.2486L55.2518 18.9054C55.148 18.8333 55.0597 18.7412 54.9922 18.6344C54.9246 18.5277 54.8791 18.4085 54.8584 18.2838C54.8377 18.1592 54.8421 18.0317 54.8714 17.9088C54.9008 17.7859 54.9545 17.6702 55.0293 17.5684C55.1041 17.4666 55.1986 17.3808 55.3071 17.3161C55.4156 17.2514 55.536 17.2091 55.6611 17.1917C55.7862 17.1742 55.9136 17.1821 56.0356 17.2147C56.1577 17.2473 56.272 17.304 56.3718 17.3815L67.7231 25.7238C67.8839 25.8418 68.0032 26.0077 68.064 26.1976C68.1249 26.3875 68.1242 26.5918 68.0619 26.7813C67.9997 26.9708 67.8792 27.1358 67.7176 27.2527C67.556 27.3696 67.3616 27.4324 67.1622 27.4322Z" fill="white"/>
<path d="M45.2531 11.3227C45.0519 11.323 44.8559 11.2587 44.694 11.1392L35 4.01153L25.3059 11.1392C25.2062 11.2167 25.0919 11.2734 24.9698 11.3061C24.8478 11.3387 24.7204 11.3465 24.5953 11.3291C24.4701 11.3116 24.3498 11.2693 24.2413 11.2046C24.1327 11.1399 24.0383 11.0542 23.9635 10.9523C23.8887 10.8505 23.835 10.7348 23.8056 10.6119C23.7763 10.489 23.7718 10.3615 23.7926 10.2369C23.8133 10.1123 23.8588 9.99305 23.9264 9.8863C23.9939 9.77954 24.0822 9.6874 24.186 9.61531L34.44 2.07517C34.6024 1.95591 34.7985 1.8916 35 1.8916C35.2014 1.8916 35.3976 1.95591 35.56 2.07517L45.814 9.61531C45.9744 9.73349 46.0933 9.89926 46.1539 10.089C46.2145 10.2788 46.2137 10.4828 46.1515 10.672C46.0894 10.8613 45.969 11.0261 45.8077 11.1429C45.6464 11.2598 45.4523 11.3227 45.2531 11.3227Z" fill="white"/>
<path d="M55.8108 36.7785C55.5599 36.7785 55.3193 36.6788 55.1419 36.5014C54.9645 36.324 54.8649 36.0834 54.8649 35.8325V11.323H15.1351V35.8325C15.1351 36.0834 15.0355 36.324 14.8581 36.5014C14.6807 36.6788 14.4401 36.7785 14.1892 36.7785C13.9383 36.7785 13.6977 36.6788 13.5203 36.5014C13.3429 36.324 13.2432 36.0834 13.2432 35.8325V10.3771C13.2432 10.1262 13.3429 9.88561 13.5203 9.70821C13.6977 9.53081 13.9383 9.43115 14.1892 9.43115H55.8108C56.0617 9.43115 56.3023 9.53081 56.4797 9.70821C56.6571 9.88561 56.7568 10.1262 56.7568 10.3771V35.8325C56.7568 36.0834 56.6571 36.324 56.4797 36.5014C56.3023 36.6788 56.0617 36.7785 55.8108 36.7785Z" fill="white"/>
<path d="M48.7749 19.0892H21.2251C20.9743 19.0892 20.7337 18.9895 20.5563 18.8121C20.3789 18.6347 20.2792 18.3941 20.2792 18.1432C20.2792 17.8923 20.3789 17.6517 20.5563 17.4743C20.7337 17.2969 20.9743 17.1973 21.2251 17.1973H48.7749C49.0257 17.1973 49.2664 17.2969 49.4438 17.4743C49.6212 17.6517 49.7208 17.8923 49.7208 18.1432C49.7208 18.3941 49.6212 18.6347 49.4438 18.8121C49.2664 18.9895 49.0257 19.0892 48.7749 19.0892Z" fill="white"/>
<path d="M48.7749 26.2464H21.2251C20.9743 26.2464 20.7337 26.1467 20.5563 25.9693C20.3789 25.7919 20.2792 25.5513 20.2792 25.3004C20.2792 25.0496 20.3789 24.809 20.5563 24.6316C20.7337 24.4542 20.9743 24.3545 21.2251 24.3545H48.7749C49.0257 24.3545 49.2664 24.4542 49.4438 24.6316C49.6212 24.809 49.7208 25.0496 49.7208 25.3004C49.7208 25.5513 49.6212 25.7919 49.4438 25.9693C49.2664 26.1467 49.0257 26.2464 48.7749 26.2464Z" fill="#FFA724"/>
<path d="M48.7749 33.4031H21.2251C20.9743 33.4031 20.7337 33.3035 20.5563 33.1261C20.3789 32.9487 20.2792 32.7081 20.2792 32.4572C20.2792 32.2063 20.3789 31.9657 20.5563 31.7883C20.7337 31.6109 20.9743 31.5112 21.2251 31.5112H48.7749C49.0257 31.5112 49.2664 31.6109 49.4438 31.7883C49.6212 31.9657 49.7208 32.2063 49.7208 32.4572C49.7208 32.7081 49.6212 32.9487 49.4438 33.1261C49.2664 33.3035 49.0257 33.4031 48.7749 33.4031Z" fill="white"/>
</svg>
