<svg width="70" height="70" viewBox="0 0 70 70" fill="none" xmlns="http://www.w3.org/2000/svg">
<path d="M8.75 10.9375H10.9375V13.125H8.75V10.9375Z" fill="white"/>
<path d="M13.125 10.9375H15.3125V13.125H13.125V10.9375Z" fill="white"/>
<path d="M17.5 10.9375H19.6875V13.125H17.5V10.9375Z" fill="white"/>
<path d="M22.9688 21.875H9.84375C9.55367 21.875 9.27547 21.9902 9.07035 22.1954C8.86523 22.4005 8.75 22.6787 8.75 22.9688V33.9062C8.75 34.1963 8.86523 34.4745 9.07035 34.6796C9.27547 34.8848 9.55367 35 9.84375 35H22.9688C23.2588 35 23.537 34.8848 23.7421 34.6796C23.9473 34.4745 24.0625 34.1963 24.0625 33.9062V22.9688C24.0625 22.6787 23.9473 22.4005 23.7421 22.1954C23.537 21.9902 23.2588 21.875 22.9688 21.875ZM21.875 32.8125H10.9375V24.0625H21.875V32.8125Z" fill="#FFA724"/>
<path d="M28.4375 21.875H32.8125V24.0625H28.4375V21.875Z" fill="white"/>
<path d="M35 21.875H52.5V24.0625H35V21.875Z" fill="white"/>
<path d="M28.4375 26.25H52.5V28.4375H28.4375V26.25Z" fill="white"/>
<path d="M28.4375 30.625H39.375V32.8125H28.4375V30.625Z" fill="white"/>
<path d="M41.5625 30.625H48.125V32.8125H41.5625V30.625Z" fill="white"/>
<path d="M8.75 39.375H24.0625V41.5625H8.75V39.375Z" fill="white"/>
<path d="M8.75 43.75H24.0625V45.9375H8.75V43.75Z" fill="white"/>
<path d="M8.75 48.125H24.0625V50.3125H8.75V48.125Z" fill="white"/>
<path d="M8.75 52.5H24.0625V54.6875H8.75V52.5Z" fill="white"/>
<path d="M64.5312 20.8808C63.7028 20.3896 62.7566 20.1324 61.7935 20.1367C60.8305 20.1409 59.8866 20.4064 59.0625 20.9048V9.84375C59.0625 8.97351 58.7168 8.13891 58.1014 7.52356C57.4861 6.9082 56.6515 6.5625 55.7812 6.5625H5.46875C4.59851 6.5625 3.76391 6.9082 3.14856 7.52356C2.5332 8.13891 2.1875 8.97351 2.1875 9.84375V60.1562C2.1875 61.0265 2.5332 61.8611 3.14856 62.4764C3.76391 63.0918 4.59851 63.4375 5.46875 63.4375H55.7812C56.6515 63.4375 57.4861 63.0918 58.1014 62.4764C58.7168 61.8611 59.0625 61.0265 59.0625 60.1562V41.2902L66.5328 28.3511C67.2565 27.0947 67.4522 25.6025 67.077 24.202C66.7017 22.8015 65.7862 21.607 64.5312 20.8808ZM42.4867 52.5H30.625V41.5625H46.2755L43.3891 46.5631C43.2808 46.7499 43.2305 46.9646 43.2447 47.18L43.4766 50.7894L42.4867 52.5ZM43.8966 54.4338L44.9903 52.5394L46.8847 53.6331L45.7909 55.5275C45.6449 55.7767 45.4062 55.9579 45.1269 56.0318C44.8477 56.1056 44.5506 56.066 44.3005 55.9215C44.0504 55.7771 43.8675 55.5396 43.7918 55.2609C43.7162 54.9822 43.7538 54.6848 43.8966 54.4338ZM48.4192 51.9925L45.6433 50.3902L45.4748 47.7652L50.7752 50.8277L48.4192 51.9925ZM52.0603 49.0394L50.1659 47.9456L58.3691 33.7378L56.4747 32.6441L48.2716 46.8519L46.3772 45.7581L55.6741 29.6559L61.3616 32.9372L52.0603 49.0394ZM56.7634 27.7616L57.3103 26.8155L62.9978 30.0967L62.4509 31.0439L56.7634 27.7616ZM5.46875 8.75H55.7812C56.0713 8.75 56.3495 8.86523 56.5546 9.07035C56.7598 9.27547 56.875 9.55367 56.875 9.84375V15.3475H4.375V9.84375C4.375 9.55367 4.49023 9.27547 4.69535 9.07035C4.90047 8.86523 5.17867 8.75 5.46875 8.75ZM56.875 60.1562C56.875 60.4463 56.7598 60.7245 56.5546 60.9296C56.3495 61.1348 56.0713 61.25 55.7812 61.25H5.46875C5.17867 61.25 4.90047 61.1348 4.69535 60.9296C4.49023 60.7245 4.375 60.4463 4.375 60.1562V17.535H56.875V23.205L47.5387 39.375H29.5312C29.2412 39.375 28.963 39.4902 28.7579 39.6954C28.5527 39.9005 28.4375 40.1787 28.4375 40.4688V53.5938C28.4375 53.8838 28.5527 54.162 28.7579 54.3671C28.963 54.5723 29.2412 54.6875 29.5312 54.6875H41.5844C41.5209 55.4298 41.7119 56.1715 42.1259 56.7908C42.54 57.4101 43.1524 57.8701 43.8626 58.0951C44.5728 58.3201 45.3384 58.2968 46.0335 58.0289C46.7286 57.7611 47.312 57.2646 47.6875 56.6213L49.1619 54.0662L52.3994 52.465C52.5936 52.3683 52.7546 52.216 52.862 52.0275L56.875 45.0789V60.1562ZM64.6406 27.2573L64.0938 28.2045L58.4062 24.9233L58.9531 23.9761C59.3882 23.2219 60.1052 22.6714 60.9461 22.4458C61.7871 22.2202 62.6833 22.3378 63.4375 22.773C64.1917 23.2081 64.7422 23.925 64.9678 24.766C65.1934 25.607 65.0757 26.5031 64.6406 27.2573Z" fill="white"/>
</svg>
