<svg width="70" height="70" viewBox="0 0 70 70" fill="none" xmlns="http://www.w3.org/2000/svg">
<g clip-path="url(#clip0)">
<path d="M66.2125 5.80057H51.7696V3.78752C51.7696 1.69914 50.0705 0 47.9821 0H3.78752C1.69914 0 0 1.69914 0 3.78752V14.2338C0 14.8001 0.458965 15.2592 1.02539 15.2592C1.59182 15.2592 2.05078 14.8001 2.05078 14.2338V10.6135H49.7191V37.2094C49.7191 38.1675 48.9403 38.9471 47.9828 38.9471H3.78711C2.82967 38.9471 2.05078 38.1675 2.05078 37.2094V19.0189C2.05078 18.4527 1.59182 17.9936 1.02539 17.9936C0.458965 17.9936 0 18.4527 0 19.0189V37.2094C0 39.2983 1.69887 40.9979 3.78711 40.9979H7.18156V51.0206C7.18156 53.1091 8.8807 54.8082 10.9691 54.8082H29.6354L27.4593 62.4246H26.161C24.0729 62.4246 22.374 64.1241 22.374 66.213V68.9747C22.374 69.541 22.833 70.0001 23.3994 70.0001H53.7824C54.3488 70.0001 54.8078 69.541 54.8078 68.9747V66.213C54.8078 64.1241 53.1089 62.4246 51.0207 62.4246H49.7223L47.5461 54.8082H66.2125C68.3009 54.8082 70 53.1091 70 51.0206V9.58809C70 7.49957 68.3009 5.80057 66.2125 5.80057ZM2.05078 8.5627V3.78752C2.05078 2.82994 2.8298 2.05078 3.78752 2.05078H47.9821C48.9398 2.05078 49.7189 2.82994 49.7189 3.78752V8.5627H2.05078ZM47.5895 62.4244H45.4986C44.9322 62.4244 44.4732 62.8835 44.4732 63.4498C44.4732 64.0161 44.9322 64.4752 45.4986 64.4752H51.0207C51.9781 64.4752 52.757 65.2548 52.757 66.2129V67.9492H24.4248V66.2129C24.4248 65.2548 25.2037 64.4752 26.161 64.4752H40.7133C41.2798 64.4752 41.7387 64.0161 41.7387 63.4498C41.7387 62.8835 41.2798 62.4244 40.7133 62.4244H29.5921L31.7682 54.8081H45.4132L47.5895 62.4244ZM67.9492 51.0206C67.9492 51.9783 67.1702 52.7574 66.2125 52.7574H10.9691C10.0114 52.7574 9.23234 51.9783 9.23234 51.0206V40.9979H11.6006V45.2197C11.6006 45.786 12.0596 46.2451 12.626 46.2451H64.5545C65.1209 46.2451 65.5799 45.786 65.5799 45.2197V28.5537C65.5799 27.9874 65.1209 27.5283 64.5545 27.5283C63.9881 27.5283 63.5291 27.9874 63.5291 28.5537V44.1943H13.6514V40.9979H47.9828C50.0711 40.9979 51.7699 39.2983 51.7699 37.2094V12.2705H63.5291V23.7686C63.5291 24.3348 63.9881 24.7939 64.5545 24.7939C65.1209 24.7939 65.5799 24.3348 65.5799 23.7686V11.2451C65.5799 10.6788 65.1209 10.2197 64.5545 10.2197H51.7699L51.7696 7.85135H66.2125C67.1702 7.85135 67.9492 8.63051 67.9492 9.58809V51.0206Z" fill="white"/>
<path d="M5.44482 19.4521H19.2557C19.8222 19.4521 20.2811 18.993 20.2811 18.4268V14.0073C20.2811 13.441 19.8222 12.9819 19.2557 12.9819H5.44482C4.87839 12.9819 4.41943 13.441 4.41943 14.0073V18.4268C4.41943 18.993 4.87853 19.4521 5.44482 19.4521ZM6.47021 15.0327H18.2303V17.4014H6.47021V15.0327Z" fill="white"/>
<path d="M5.44482 23.8223H20.6367C21.2032 23.8223 21.6621 23.3632 21.6621 22.7969C21.6621 22.2306 21.2032 21.7715 20.6367 21.7715H5.44482C4.87839 21.7715 4.41943 22.2306 4.41943 22.7969C4.41943 23.3632 4.87853 23.8223 5.44482 23.8223Z" fill="white"/>
<path d="M5.44482 28.2422H24.78C25.3464 28.2422 25.8054 27.7831 25.8054 27.2168C25.8054 26.6505 25.3464 26.1914 24.78 26.1914H5.44482C4.87839 26.1914 4.41943 26.6505 4.41943 27.2168C4.41943 27.7831 4.87853 28.2422 5.44482 28.2422Z" fill="white"/>
<path d="M5.44482 32.6221H24.78C25.3464 32.6221 25.8054 32.163 25.8054 31.5967C25.8054 31.0304 25.3464 30.5713 24.78 30.5713H5.44482C4.87839 30.5713 4.41943 31.0304 4.41943 31.5967C4.41943 32.163 4.87853 32.6221 5.44482 32.6221Z" fill="white"/>
<path d="M45.22 6.4118C45.8302 6.4118 46.3248 5.91715 46.3248 5.30697C46.3248 4.69679 45.8302 4.20215 45.22 4.20215C44.6098 4.20215 44.1152 4.69679 44.1152 5.30697C44.1152 5.91715 44.6098 6.4118 45.22 6.4118Z" fill="white"/>
<path d="M40.8006 6.4118C41.4107 6.4118 41.9054 5.91715 41.9054 5.30697C41.9054 4.69679 41.4107 4.20215 40.8006 4.20215C40.1904 4.20215 39.6957 4.69679 39.6957 5.30697C39.6957 5.91715 40.1904 6.4118 40.8006 6.4118Z" fill="white"/>
<path d="M36.3811 6.4118C36.9913 6.4118 37.486 5.91715 37.486 5.30697C37.486 4.69679 36.9913 4.20215 36.3811 4.20215C35.771 4.20215 35.2763 4.69679 35.2763 5.30697C35.2763 5.91715 35.771 6.4118 36.3811 6.4118Z" fill="white"/>
<path d="M29.0958 31.2363C29.2898 31.4301 29.5512 31.5366 29.821 31.5366C29.878 31.5366 29.9355 31.5319 29.9927 31.5222L36.69 30.3844L38.9093 35.933C39.0656 36.3234 39.4435 36.5775 39.8612 36.5775C39.8763 36.5775 39.8918 36.5772 39.9071 36.5765C40.3427 36.5571 40.7184 36.2644 40.8436 35.8468L47.307 14.302C47.4154 13.9407 47.3166 13.549 47.05 13.2824C46.7831 13.0156 46.3918 12.9167 46.0302 13.0253L24.4854 19.4889C24.0677 19.6142 23.7751 19.9898 23.7557 20.4254C23.7362 20.861 23.9944 21.2611 24.3992 21.423L29.9477 23.6424L28.8101 30.3398C28.7544 30.6671 28.8611 31.0014 29.0958 31.2363ZM39.7229 32.445L36.7557 25.0266L44.1741 17.6082L39.7229 32.445ZM42.7238 16.1581L35.3054 23.5766L27.8871 20.6093L42.7238 16.1581ZM34.7636 25.5686L35.9108 28.4367L31.0738 29.2584L31.8955 24.4214L34.7636 25.5686Z" fill="#FFA724"/>
</g>
<defs>
<clipPath id="clip0">
<rect width="70" height="70" fill="white"/>
</clipPath>
</defs>
</svg>
