<svg width="100" height="100" viewBox="0 0 100 100" fill="none" xmlns="http://www.w3.org/2000/svg">
<g filter="url(#filter0_d)">
<circle cx="45" cy="45" r="40" fill="#004688"/>
</g>
<path d="M50.4289 45.7812H55.2023C55.593 49.2914 58.575 52.0312 62.1875 52.0312C66.0641 52.0312 69.2188 48.8766 69.2188 45C69.2188 41.1234 66.0641 37.9688 62.1875 37.9688C58.575 37.9688 55.593 40.7086 55.2023 44.2188H50.4289C50.2672 42.4352 49.5609 40.8078 48.475 39.5047L53.5594 34.4203C54.3031 34.6898 55.1016 34.8438 55.9375 34.8438C59.8141 34.8438 62.9688 31.6891 62.9688 27.8125C62.9688 23.9359 59.8141 20.7812 55.9375 20.7812C52.0609 20.7812 48.9062 23.9359 48.9062 27.8125C48.9062 30.2664 50.1727 32.4281 52.0836 33.6867L47.3703 38.4C45.8789 37.157 43.9633 36.4062 41.875 36.4062C40.7203 36.4062 39.6203 36.6383 38.6141 37.0531C37.5602 34.8539 35.6883 33.1758 33.4555 32.3297C35.2234 31.2242 36.4062 29.2656 36.4062 27.0312C36.4062 23.5852 33.6023 20.7812 30.1562 20.7812C26.7102 20.7812 23.9062 23.5852 23.9062 27.0312C23.9062 29.2656 25.0891 31.2242 26.857 32.3297C23.3133 33.6687 20.7812 37.0867 20.7812 41.0938V48.9062C20.7812 50.6297 22.1828 52.0312 23.9062 52.0312H24.6875V66.0938C24.6875 67.8172 26.0891 69.2188 27.8125 69.2188C28.75 69.2188 29.5828 68.7953 30.1562 68.1391C30.7297 68.7953 31.5625 69.2188 32.5 69.2188C34.2234 69.2188 35.625 67.8172 35.625 66.0938V50.8797C37.1938 52.5461 39.4117 53.5938 41.875 53.5938C43.9633 53.5938 45.8789 52.843 47.3703 51.6L52.0836 56.3133C50.1727 57.5719 48.9062 59.7336 48.9062 62.1875C48.9062 66.0641 52.0609 69.2188 55.9375 69.2188C59.8141 69.2188 62.9688 66.0641 62.9688 62.1875C62.9688 58.3109 59.8141 55.1562 55.9375 55.1562C55.1016 55.1562 54.3031 55.3102 53.5594 55.5789L48.475 50.4945C49.5617 49.1922 50.2672 47.5648 50.4289 45.7812ZM52.5617 32.1062C53.2531 30.9078 54.525 30.1562 55.9375 30.1562C57.35 30.1562 58.6219 30.9078 59.3133 32.1062C58.3828 32.8398 57.2117 33.2812 55.9375 33.2812C54.6633 33.2812 53.4922 32.8398 52.5617 32.1062ZM54.375 27.0312C54.375 26.1695 55.0758 25.4688 55.9375 25.4688C56.7992 25.4688 57.5 26.1695 57.5 27.0312C57.5 27.893 56.7992 28.5938 55.9375 28.5938C55.0758 28.5938 54.375 27.893 54.375 27.0312ZM55.9375 22.3438C58.9531 22.3438 61.4062 24.7969 61.4062 27.8125C61.4062 28.9781 61.0367 30.057 60.4133 30.9453C59.8602 30.1477 59.1203 29.5125 58.2547 29.1086C58.7508 28.5555 59.0625 27.832 59.0625 27.0312C59.0625 25.3078 57.6609 23.9062 55.9375 23.9062C54.2141 23.9062 52.8125 25.3078 52.8125 27.0312C52.8125 27.832 53.1242 28.5555 53.6203 29.1086C52.7547 29.5125 52.0148 30.1477 51.4617 30.9453C50.8383 30.057 50.4688 28.9781 50.4688 27.8125C50.4688 24.7969 52.9219 22.3438 55.9375 22.3438ZM52.5617 66.4812C53.2531 65.2828 54.525 64.5312 55.9375 64.5312C57.35 64.5312 58.6219 65.2828 59.3133 66.4812C58.3828 67.2148 57.2117 67.6562 55.9375 67.6562C54.6633 67.6562 53.4922 67.2148 52.5617 66.4812ZM54.375 61.4062C54.375 60.5445 55.0758 59.8438 55.9375 59.8438C56.7992 59.8438 57.5 60.5445 57.5 61.4062C57.5 62.268 56.7992 62.9688 55.9375 62.9688C55.0758 62.9688 54.375 62.268 54.375 61.4062ZM61.4062 62.1875C61.4062 63.3531 61.0367 64.432 60.4133 65.3203C59.8602 64.5227 59.1203 63.8875 58.2547 63.4836C58.7508 62.9305 59.0625 62.207 59.0625 61.4062C59.0625 59.6828 57.6609 58.2812 55.9375 58.2812C54.2141 58.2812 52.8125 59.6828 52.8125 61.4062C52.8125 62.207 53.1242 62.9305 53.6203 63.4836C52.7547 63.8875 52.0148 64.5227 51.4617 65.3203C50.8383 64.432 50.4688 63.3531 50.4688 62.1875C50.4688 59.1719 52.9219 56.7188 55.9375 56.7188C58.9531 56.7188 61.4062 59.1719 61.4062 62.1875ZM58.8117 49.2937C59.5031 48.0953 60.775 47.3438 62.1875 47.3438C63.6 47.3438 64.8719 48.0953 65.5633 49.2937C64.6328 50.0273 63.4617 50.4688 62.1875 50.4688C60.9133 50.4688 59.7422 50.0273 58.8117 49.2937ZM60.625 44.2188C60.625 43.357 61.3258 42.6562 62.1875 42.6562C63.0492 42.6562 63.75 43.357 63.75 44.2188C63.75 45.0805 63.0492 45.7812 62.1875 45.7812C61.3258 45.7812 60.625 45.0805 60.625 44.2188ZM62.1875 39.5312C65.2031 39.5312 67.6562 41.9844 67.6562 45C67.6562 46.1656 67.2867 47.2445 66.6633 48.1328C66.1102 47.3352 65.3703 46.7 64.5047 46.2961C65.0008 45.743 65.3125 45.0195 65.3125 44.2188C65.3125 42.4953 63.9109 41.0938 62.1875 41.0938C60.4641 41.0938 59.0625 42.4953 59.0625 44.2188C59.0625 45.0195 59.3742 45.743 59.8703 46.2961C59.0047 46.7 58.2648 47.3352 57.7117 48.1328C57.0883 47.2445 56.7188 46.1656 56.7188 45C56.7188 41.9844 59.1719 39.5312 62.1875 39.5312ZM27.4898 33.7602C27.7891 33.6508 28.0953 33.5578 28.4102 33.4852L28.1977 36.4617C27.8922 35.5797 27.6547 34.6758 27.4898 33.7602ZM29.9906 33.2898C30.0461 33.2883 30.1 33.2812 30.1562 33.2812C30.2117 33.2812 30.2664 33.2867 30.3219 33.2875L30.7633 39.4703C30.5703 39.8086 30.3703 40.1422 30.1555 40.4664C29.9414 40.1398 29.7414 39.8039 29.5484 39.4641L29.9906 33.2898ZM32.118 36.4961L31.9023 33.4828C32.2234 33.557 32.5367 33.6555 32.8438 33.7688C32.6742 34.6938 32.4305 35.6062 32.118 36.4961ZM25.4688 27.0312C25.4688 24.4461 27.5711 22.3438 30.1562 22.3438C32.7414 22.3438 34.8438 24.4461 34.8438 27.0312C34.8438 29.6164 32.7414 31.7188 30.1562 31.7188C27.5711 31.7188 25.4688 29.6164 25.4688 27.0312ZM34.0625 66.0938C34.0625 66.9555 33.3617 67.6562 32.5 67.6562C31.6383 67.6562 30.9375 66.9555 30.9375 66.0938V52.0312V51.4398C30.9375 51.0227 31.1 50.6297 31.3953 50.3344L32.2711 49.4586L31.1664 48.3539L30.2906 49.2297C29.7 49.8195 29.375 50.6047 29.375 51.4398V52.0312V66.0938C29.375 66.9555 28.6742 67.6562 27.8125 67.6562C26.9508 67.6562 26.25 66.9555 26.25 66.0938V37.1875H24.6875V50.4688H23.9062C23.0445 50.4688 22.3438 49.768 22.3438 48.9062V41.0938C22.3438 38.3016 23.8211 35.8539 26.0297 34.4719C26.5344 36.9469 27.5234 39.3344 28.9227 41.4336L30.1562 43.2836L31.4203 41.3883C32.8078 39.3063 33.793 36.9391 34.3016 34.4852C35.5547 35.2719 36.5859 36.4047 37.232 37.7805C36.6422 38.1609 36.1047 38.6117 35.6258 39.1203V37.1875H34.0633V41.4406C33.5664 42.5266 33.282 43.7297 33.282 45C33.282 46.2703 33.5664 47.4734 34.0633 48.5594V66.0938H34.0625ZM41.875 52.0312C37.9984 52.0312 34.8438 48.8766 34.8438 45C34.8438 41.1234 37.9984 37.9688 41.875 37.9688C45.7516 37.9688 48.9062 41.1234 48.9062 45C48.9062 48.8766 45.7516 52.0312 41.875 52.0312Z" fill="white"/>
<path d="M42.6562 42.6562C43.0867 42.6562 43.4375 43.007 43.4375 43.4375H45C45 42.1453 43.9484 41.0938 42.6562 41.0938V39.5312H41.0938V41.0938H38.75V43.4375C38.75 44.7297 39.8016 45.7812 41.0938 45.7812H42.6562C43.0867 45.7812 43.4375 46.132 43.4375 46.5625V47.3438H41.0938C40.6633 47.3438 40.3125 46.993 40.3125 46.5625H38.75C38.75 47.8547 39.8016 48.9062 41.0938 48.9062V50.4688H42.6562V48.9062H45V46.5625C45 45.2703 43.9484 44.2188 42.6562 44.2188H41.0938C40.6633 44.2188 40.3125 43.868 40.3125 43.4375V42.6562H42.6562Z" fill="white"/>
<defs>
<filter id="filter0_d" x="0" y="0" width="100" height="100" filterUnits="userSpaceOnUse" color-interpolation-filters="sRGB">
<feFlood flood-opacity="0" result="BackgroundImageFix"/>
<feColorMatrix in="SourceAlpha" type="matrix" values="0 0 0 0 0 0 0 0 0 0 0 0 0 0 0 0 0 0 127 0"/>
<feOffset dx="5" dy="5"/>
<feGaussianBlur stdDeviation="5"/>
<feColorMatrix type="matrix" values="0 0 0 0 0.625 0 0 0 0 0.818015 0 0 0 0 1 0 0 0 1 0"/>
<feBlend mode="normal" in2="BackgroundImageFix" result="effect1_dropShadow"/>
<feBlend mode="normal" in="SourceGraphic" in2="effect1_dropShadow" result="shape"/>
</filter>
</defs>
</svg>
