<svg width="100" height="100" viewBox="0 0 100 100" fill="none" xmlns="http://www.w3.org/2000/svg">
<g filter="url(#filter0_d)">
<circle cx="45" cy="45" r="40" fill="#004688"/>
</g>
<path d="M68.6094 41.875C68.9844 41.4594 69.2188 40.9148 69.2188 40.3125C69.2188 39.0203 68.1672 37.9688 66.875 37.9688H66.0938V25.4688H48.9062V35.1102C48.2672 35.3125 47.6617 35.6195 47.1336 36.0422L44.7258 37.9688H38.2922L38.1047 37.7812C38.9422 37.4234 39.5312 36.5922 39.5312 35.625C39.5312 34.8297 39.1312 34.1273 38.5234 33.7039L41.0938 32.1609V31.7188C41.0938 29.5242 39.5227 27.6695 37.3586 27.3094L37.1531 27.275L37.2625 26.782L36.9586 26.4789C36.7758 26.2953 35.1148 24.6875 33.2812 24.6875C31.4477 24.6875 29.7867 26.2953 29.6039 26.4789L29.3 26.782L29.4094 27.275L29.2039 27.3094C27.0398 27.6695 25.4688 29.5242 25.4688 31.7188V32.1609L28.0391 33.7031C27.4313 34.1273 27.0312 34.8297 27.0312 35.625C27.0312 36.5922 27.6203 37.4234 28.4578 37.7812L24.4422 41.7969C22.0812 44.157 20.7812 47.2961 20.7812 50.6352V51.25C20.7812 58.1422 26.3891 63.75 33.2812 63.75C40.1734 63.75 45.7812 58.1422 45.7812 51.25V50.6352C45.7812 50.5445 45.7703 50.4555 45.768 50.3648L46.4164 50.8836C47.1359 51.4594 48 51.8266 48.9062 51.9641V64.5312H66.0938V52.0312H66.875C68.1672 52.0312 69.2188 50.9797 69.2188 49.6875C69.2188 49.0852 68.9836 48.5406 68.6094 48.125C68.9844 47.7094 69.2188 47.1648 69.2188 46.5625C69.2188 45.9602 68.9836 45.4156 68.6094 45C68.9844 44.5844 69.2188 44.0398 69.2188 43.4375C69.2188 42.8352 68.9836 42.2906 68.6094 41.875ZM67.6562 46.5625C67.6562 46.993 67.3063 47.3438 66.875 47.3438H65.3125C64.8812 47.3438 64.5312 46.993 64.5312 46.5625C64.5312 46.132 64.8812 45.7812 65.3125 45.7812H66.875C67.3063 45.7812 67.6562 46.132 67.6562 46.5625ZM59.9062 62.9688H55.0938C54.7492 60.5789 52.8586 58.6883 50.4688 58.3438V49.9258C52.025 52.1398 54.5938 53.5938 57.5 53.5938C59.7805 53.5938 61.8984 52.7086 63.4922 51.1461C63.7617 51.482 64.118 51.7398 64.5312 51.8875V58.3438C62.1414 58.6883 60.2508 60.5789 59.9062 62.9688ZM50.4688 40.8117C50.9164 40.4703 51.3156 40.0594 51.6375 39.5766L51.668 39.5312H55.1562C56.3 39.5312 57.2914 38.907 57.8359 37.9883C59.8719 38.0836 61.7289 39.0305 63.0008 40.6352C63.0672 41.1094 63.2719 41.5359 63.5781 41.8758C63.2031 42.2914 62.9688 42.8359 62.9688 43.4383C62.9688 44.0406 63.2039 44.5852 63.5781 45.0008C63.2031 45.4164 62.9688 45.9609 62.9688 46.5633C62.9688 47.1656 63.2039 47.7102 63.5781 48.1258C63.2719 48.4656 63.0672 48.8922 63.0008 49.3664C61.6586 51.0586 59.668 52.0312 57.5 52.0312C53.6227 52.0312 50.4688 48.8766 50.4688 45V40.8117ZM65.3125 44.2188C64.8812 44.2188 64.5312 43.868 64.5312 43.4375C64.5312 43.007 64.8812 42.6562 65.3125 42.6562H66.875C67.3063 42.6562 67.6562 43.007 67.6562 43.4375C67.6562 43.868 67.3063 44.2188 66.875 44.2188H65.3125ZM67.6562 40.3125C67.6562 40.743 67.3063 41.0938 66.875 41.0938H65.3125C64.8812 41.0938 64.5312 40.743 64.5312 40.3125C64.5312 39.882 64.8812 39.5312 65.3125 39.5312H66.875C67.3063 39.5312 67.6562 39.882 67.6562 40.3125ZM64.5312 30.0773C63.0031 29.7656 61.7969 28.5594 61.4852 27.0312H64.5312V30.0773ZM53.5148 27.0312C53.2031 28.5594 51.9969 29.7656 50.4688 30.0773V27.0312H53.5148ZM50.4688 31.6562C52.8586 31.3117 54.7492 29.4211 55.0938 27.0312H59.9062C60.2508 29.4211 62.1414 31.3117 64.5312 31.6562V38.1125C64.118 38.2602 63.7617 38.518 63.4922 38.8539C62.0812 37.4711 60.2594 36.6266 58.2766 36.4508C58.2773 36.4359 58.2812 36.4219 58.2812 36.4062C58.2812 35.5445 57.5805 34.8438 56.7188 34.8438H50.55C50.5227 34.8438 50.4961 34.85 50.4688 34.8508V31.6562ZM37.1875 34.8438C37.6187 34.8438 37.9688 35.1945 37.9688 35.625C37.9688 36.0555 37.6187 36.4062 37.1875 36.4062H29.375C28.9438 36.4062 28.5938 36.0555 28.5938 35.625C28.5938 35.1945 28.9438 34.8438 29.375 34.8438H37.1875ZM37.1023 28.8508C38.368 29.0617 39.3219 30.0586 39.5008 31.2945L36.1898 33.2812H35.818L36.8133 28.8023L37.1023 28.8508ZM33.2812 26.25C34.0898 26.25 35.0164 26.8695 35.5445 27.307L34.2172 33.2812H32.3461L31.018 27.307C31.5461 26.8695 32.4727 26.25 33.2812 26.25ZM29.4602 28.8508L29.7492 28.8023L30.7445 33.2812H30.3727L27.0617 31.2945C27.2414 30.0586 28.1945 29.0617 29.4602 28.8508ZM44.2188 51.25C44.2188 57.2812 39.3125 62.1875 33.2812 62.1875C27.25 62.1875 22.3438 57.2812 22.3438 51.25V50.6352C22.3438 47.7133 23.4812 44.9664 25.5477 42.9008L30.4797 37.9688H36.0828L41.0148 42.9008C43.0812 44.9664 44.2188 47.7133 44.2188 50.6352V51.25ZM47.393 49.6641L45.5414 48.1828C45.0656 45.7781 43.8914 43.568 42.1195 41.7961L39.8547 39.5312H45.2742L48.1109 37.2625C48.8 36.7102 49.6672 36.4062 50.55 36.4062H56.7188C56.7188 37.268 56.018 37.9688 55.1562 37.9688H50.832L50.3375 38.7102C49.6688 39.7133 48.5492 40.3125 47.3438 40.3125V41.875C47.8828 41.875 48.407 41.782 48.9062 41.6234V50.3734C48.357 50.2531 47.8352 50.018 47.393 49.6641ZM50.4688 59.9227C51.9969 60.2344 53.2031 61.4406 53.5148 62.9688H50.4688V59.9227ZM61.4852 62.9688C61.7969 61.4406 63.0031 60.2344 64.5312 59.9227V62.9688H61.4852ZM66.875 50.4688H65.3125C64.8812 50.4688 64.5312 50.118 64.5312 49.6875C64.5312 49.257 64.8812 48.9062 65.3125 48.9062H66.875C67.3063 48.9062 67.6562 49.257 67.6562 49.6875C67.6562 50.118 67.3063 50.4688 66.875 50.4688Z" fill="white"/>
<path d="M57.5 47.3438C57.0688 47.3438 56.7188 46.993 56.7188 46.5625H55.1562C55.1562 47.5797 55.8117 48.4391 56.7188 48.7625V50.4688H58.2812V48.7625C59.1883 48.4391 59.8438 47.5797 59.8438 46.5625C59.8438 45.2703 58.7922 44.2188 57.5 44.2188C57.0688 44.2188 56.7188 43.868 56.7188 43.4375C56.7188 43.007 57.0688 42.6562 57.5 42.6562C57.9313 42.6562 58.2812 43.007 58.2812 43.4375H59.8438C59.8438 42.4203 59.1883 41.5609 58.2812 41.2375V39.5312H56.7188V41.2375C55.8117 41.5609 55.1562 42.4203 55.1562 43.4375C55.1562 44.7297 56.2078 45.7812 57.5 45.7812C57.9313 45.7812 58.2812 46.132 58.2812 46.5625C58.2812 46.993 57.9313 47.3438 57.5 47.3438Z" fill="white"/>
<path d="M36.1219 58.5281L36.6914 59.9828C40.2594 58.5852 42.6563 55.0758 42.6563 51.25H41.0938C41.0938 54.4383 39.0953 57.3633 36.1219 58.5281Z" fill="white"/>
<path d="M33.2812 59.0628V60.6253C33.8531 60.6253 34.4273 60.5729 34.9859 60.4698L34.7023 58.9331C34.2375 59.019 33.7586 59.0628 33.2812 59.0628Z" fill="white"/>
<defs>
<filter id="filter0_d" x="0" y="0" width="100" height="100" filterUnits="userSpaceOnUse" color-interpolation-filters="sRGB">
<feFlood flood-opacity="0" result="BackgroundImageFix"/>
<feColorMatrix in="SourceAlpha" type="matrix" values="0 0 0 0 0 0 0 0 0 0 0 0 0 0 0 0 0 0 127 0"/>
<feOffset dx="5" dy="5"/>
<feGaussianBlur stdDeviation="5"/>
<feColorMatrix type="matrix" values="0 0 0 0 0.625 0 0 0 0 0.818015 0 0 0 0 1 0 0 0 1 0"/>
<feBlend mode="normal" in2="BackgroundImageFix" result="effect1_dropShadow"/>
<feBlend mode="normal" in="SourceGraphic" in2="effect1_dropShadow" result="shape"/>
</filter>
</defs>
</svg>
