<svg width="100" height="100" viewBox="0 0 100 100" fill="none" xmlns="http://www.w3.org/2000/svg">
<g filter="url(#filter0_d)">
<circle cx="45" cy="45" r="40" fill="#004688"/>
</g>
<path d="M68.9891 28.8219L61.1781 21.0109C61.0367 20.8688 60.8414 20.7812 60.625 20.7812H40.3125C39.8805 20.7812 39.5312 21.1313 39.5312 21.5625V48.118L32.8875 44.3219C32.6477 44.1844 32.3516 44.1844 32.1125 44.3219L21.175 50.5719C20.9312 50.7109 20.7812 50.9695 20.7812 51.25V62.1875C20.7812 62.468 20.9312 62.7266 21.175 62.8656L32.1125 69.1156C32.232 69.1844 32.3664 69.2188 32.5 69.2188C32.6336 69.2188 32.768 69.1844 32.8875 69.1156L43.825 62.8656C44.0688 62.7266 44.2188 62.468 44.2188 62.1875V59.8438H59.8438V66.0938C59.8438 67.8172 61.2453 69.2188 62.9688 69.2188C64.6922 69.2188 66.0938 67.8172 66.0938 66.0938V59.8438H68.4375C68.8695 59.8438 69.2188 59.4938 69.2188 59.0625V29.375C69.2188 29.1586 69.1313 28.9633 68.9891 28.8219ZM61.4062 23.4484L66.5516 28.5938H61.4062V23.4484ZM32.5 45.9L41.8625 51.25L39.4336 52.6383L30.0711 47.2883L32.5 45.9ZM36.7938 54.4781L27.1406 48.9625L28.4961 48.1883L38.75 54.0469V57.0172L37.1875 57.7984V55.1562C37.1875 54.8758 37.0375 54.6172 36.7938 54.4781ZM25.5664 49.8617L34.9297 55.2117L32.5 56.6L23.1375 51.25L25.5664 49.8617ZM22.3438 52.5961L31.7188 57.9531V67.0914L22.3438 61.7344V52.5961ZM33.2812 67.0914V57.9531L35.625 56.6141V59.0625C35.625 59.3336 35.7656 59.5844 35.9961 59.7273C36.1211 59.8047 36.2633 59.8438 36.4062 59.8438C36.5258 59.8438 36.6453 59.8164 36.7555 59.7617L39.8805 58.1992C40.1453 58.0664 40.3125 57.7961 40.3125 57.5V53.9359L42.6562 52.5969V61.7344L33.2812 67.0914ZM62.1875 46.9805V62.9688H61.4062V46.4594L62.1875 46.9805ZM63.75 46.9805L64.5312 46.4594V62.9688H63.75V46.9805ZM62.9688 45.6234L61.5742 44.6938L62.9688 40.975L64.3633 44.6938L62.9688 45.6234ZM62.9688 67.6562C62.107 67.6562 61.4062 66.9555 61.4062 66.0938V64.5312H64.5312V66.0938C64.5312 66.9555 63.8305 67.6562 62.9688 67.6562ZM67.6562 58.2812H66.0938V45C66.0938 44.9062 66.0773 44.8133 66.0445 44.7258L63.7008 38.4758C63.5859 38.1711 63.2945 37.9688 62.9688 37.9688C62.643 37.9688 62.3516 38.1711 62.2367 38.4758L59.893 44.7258C59.8602 44.8133 59.8438 44.9062 59.8438 45V58.2812H44.2188V51.25C44.2188 50.9695 44.0688 50.7109 43.825 50.5719L41.0938 49.0109V22.3438H59.8438V29.375C59.8438 29.8062 60.193 30.1562 60.625 30.1562H67.6562V58.2812Z" fill="white"/>
<path d="M42.6562 31.7188H44.2188V33.2812H42.6562V31.7188Z" fill="white"/>
<path d="M45.7812 31.7188H66.0938V33.2812H45.7812V31.7188Z" fill="white"/>
<path d="M64.5312 34.8438H66.0938V36.4062H64.5312V34.8438Z" fill="white"/>
<path d="M42.6562 34.8438H62.9688V36.4062H42.6562V34.8438Z" fill="white"/>
<path d="M42.6562 37.9688H58.2812V39.5312H42.6562V37.9688Z" fill="white"/>
<path d="M42.6562 41.0938H58.2812V42.6562H42.6562V41.0938Z" fill="white"/>
<defs>
<filter id="filter0_d" x="0" y="0" width="100" height="100" filterUnits="userSpaceOnUse" color-interpolation-filters="sRGB">
<feFlood flood-opacity="0" result="BackgroundImageFix"/>
<feColorMatrix in="SourceAlpha" type="matrix" values="0 0 0 0 0 0 0 0 0 0 0 0 0 0 0 0 0 0 127 0"/>
<feOffset dx="5" dy="5"/>
<feGaussianBlur stdDeviation="5"/>
<feColorMatrix type="matrix" values="0 0 0 0 0.625 0 0 0 0 0.818015 0 0 0 0 1 0 0 0 1 0"/>
<feBlend mode="normal" in2="BackgroundImageFix" result="effect1_dropShadow"/>
<feBlend mode="normal" in="SourceGraphic" in2="effect1_dropShadow" result="shape"/>
</filter>
</defs>
</svg>
