<svg width="100" height="100" viewBox="0 0 100 100" fill="none" xmlns="http://www.w3.org/2000/svg">
<g filter="url(#filter0_d)">
<circle cx="45" cy="45" r="40" fill="#004688"/>
</g>
<path d="M65.6086 50.9905L56.0312 41.4134C54.9056 40.2878 53.5891 39.4389 52.1141 38.8858C51.561 37.4108 50.7121 36.0942 49.5866 34.9686L40.0093 25.3913C37.9235 23.3055 35.1502 22.1567 32.2004 22.1567C29.2506 22.1567 26.4772 23.3055 24.3913 25.3913C22.3051 27.4771 21.1564 30.2505 21.1564 33.2003C21.1564 36.1501 22.3051 38.9236 24.3911 41.0093L33.9683 50.5866C35.094 51.7122 36.4106 52.5609 37.8856 53.1141C38.4387 54.5891 39.2875 55.9057 40.4132 57.0314L49.9905 66.6086C52.0763 68.6945 54.8497 69.8432 57.7995 69.8432C60.7493 69.8432 63.5227 68.6945 65.6085 66.6085C69.9145 62.3027 69.9145 55.2964 65.6086 50.9905ZM35.0327 49.5227L25.455 39.9456C23.6533 38.1439 22.6611 35.7484 22.6611 33.2004C22.6611 30.6525 23.6534 28.257 25.455 26.4552C27.2567 24.6535 29.6523 23.6613 32.2003 23.6613C34.7483 23.6613 37.1437 24.6536 38.9454 26.4552L48.5227 36.0324C49.2189 36.7287 49.7927 37.5093 50.2377 38.3636C50.1869 38.3542 50.1356 38.3463 50.0847 38.3376C50.0505 38.3317 50.0165 38.3257 49.9822 38.3201C49.8491 38.2986 49.7156 38.2792 49.5816 38.2626C49.569 38.261 49.5562 38.2598 49.5435 38.2584C49.4207 38.2436 49.2975 38.2313 49.174 38.2207C49.1406 38.2178 49.1073 38.2152 49.0738 38.2126C48.9538 38.2034 48.8335 38.1958 48.7129 38.1906C48.6962 38.1899 48.6796 38.1886 48.663 38.188C48.5265 38.1826 48.3896 38.18 48.2526 38.1797C48.2423 38.1797 48.2323 38.1791 48.222 38.1791C48.2041 38.1791 48.1859 38.1801 48.1679 38.1802C48.037 38.1809 47.9058 38.1839 47.7745 38.1891C47.7486 38.1901 47.7229 38.1907 47.697 38.192C47.6837 38.1926 47.6705 38.1927 47.6571 38.1933C47.4467 37.9145 47.2167 37.6497 46.9697 37.4027L37.5748 28.0077C36.1635 26.5965 34.2873 25.8194 32.2915 25.8194C30.259 25.8194 28.3579 26.6216 26.9386 28.0783C24.1013 30.9903 24.1643 35.7306 27.0789 38.6454L36.4031 47.9695C36.6473 48.2138 36.91 48.4403 37.1856 48.6487L37.184 48.6665L37.5575 48.9145C37.632 48.9641 37.7073 49.0121 37.7833 49.0588C38.311 49.3825 38.8745 49.6371 39.4612 49.8195C39.4663 49.8211 39.4716 49.823 39.4768 49.8246C39.5461 49.846 39.616 49.8657 39.686 49.8849C39.7015 49.8892 39.7168 49.8942 39.7325 49.8984C39.7971 49.9159 39.8623 49.9316 39.9276 49.9472C39.9487 49.9523 39.9695 49.9582 39.9907 49.963C40.0509 49.9769 40.1117 49.9892 40.1725 50.0016C40.1989 50.007 40.2249 50.0133 40.2514 50.0184C40.303 50.0285 40.3549 50.0368 40.4068 50.0457C40.4428 50.0519 40.4785 50.059 40.5147 50.0646C40.5562 50.0712 40.5982 50.0762 40.6399 50.0821C40.6865 50.0886 40.7331 50.096 40.78 50.1015C40.8132 50.1055 40.8466 50.1083 40.8799 50.1119C40.9356 50.1179 40.9911 50.1243 41.047 50.1291C41.0735 50.1313 41.1 50.1325 41.1265 50.1344C41.1895 50.139 41.2524 50.1439 41.3155 50.147C41.3343 50.1478 41.3531 50.1479 41.3719 50.1487C41.442 50.1516 41.5121 50.1545 41.5824 50.1553L41.5876 50.1554L42.3581 50.1521L42.3578 50.127C44.1016 49.9746 45.7187 49.2202 46.9698 47.9691C48.2119 46.727 48.9607 45.1293 49.1232 43.4026C49.1378 43.4046 49.1524 43.4066 49.1669 43.4087C49.2292 43.4176 49.2914 43.4276 49.3532 43.4384C49.3761 43.4424 49.3992 43.4462 49.4222 43.4504C49.5057 43.466 49.5887 43.483 49.6712 43.5021C49.6739 43.5027 49.6764 43.5033 49.6791 43.5041C49.7582 43.5226 49.8371 43.5432 49.9154 43.5648C49.9388 43.5713 49.9623 43.5783 49.9857 43.585C50.0456 43.6024 50.1052 43.6207 50.1645 43.64C50.1879 43.6476 50.2115 43.6551 50.2347 43.6629C50.3081 43.6878 50.3809 43.7138 50.4533 43.7415C50.4595 43.744 50.4658 43.746 50.472 43.7485C50.5506 43.7788 50.6285 43.8114 50.7057 43.8451C50.7266 43.8542 50.7473 43.864 50.7681 43.8734C50.8256 43.8993 50.8828 43.9261 50.9395 43.9539C50.9622 43.9651 50.985 43.9763 51.0076 43.9877C51.0701 44.0194 51.1321 44.0521 51.1935 44.0861C51.2037 44.0916 51.2141 44.097 51.2242 44.1027C50.9377 46.1463 49.9888 48.0561 48.5228 49.5222C46.9474 51.0976 44.8598 52.0758 42.6441 52.2765C42.3576 52.3025 42.0663 52.3158 41.7784 52.3158C41.5955 52.3158 41.4131 52.3087 41.2313 52.2983C40.3737 52.2496 39.5294 52.0881 38.715 51.8128C37.3199 51.3416 36.0809 50.571 35.0327 49.5227ZM45.8721 38.4334C43.8161 38.8818 41.9136 39.9129 40.4131 41.4133C38.9127 42.9138 37.8816 44.8163 37.4332 46.8723L28.1426 37.5818C25.8069 35.2461 25.7501 31.4539 28.0159 29.1287C29.1496 27.9651 30.668 27.3244 32.2913 27.3244C33.8852 27.3244 35.3837 27.9451 36.5107 29.0721L45.8721 38.4334ZM42.3899 48.6088C42.5443 47.2813 43.1335 46.0545 44.0938 45.0943C45.0526 44.1355 46.2816 43.5451 47.6097 43.3904C47.4554 44.7182 46.8662 45.9456 45.9057 46.9061C44.9469 47.8648 43.7192 48.453 42.3899 48.6088ZM52.5665 45.1277L61.8571 54.4183C64.1928 56.7539 64.2496 60.546 61.9837 62.8714C60.8501 64.0349 59.3317 64.6756 57.7084 64.6756C56.1144 64.6756 54.6159 64.055 53.4889 62.9278L44.1275 53.5666C46.1835 53.1181 48.086 52.0869 49.5865 50.5865C51.087 49.0861 52.1181 47.1837 52.5665 45.1277ZM64.5447 65.5449C62.7429 67.3466 60.3474 68.3388 57.7995 68.3388C55.2516 68.3388 52.856 67.3465 51.0542 65.5449L41.477 55.9676C40.7807 55.2714 40.2069 54.491 39.7618 53.6365C39.8125 53.6458 39.8634 53.6538 39.9142 53.6624C39.9492 53.6683 39.9841 53.6746 40.0192 53.6802C40.1504 53.7013 40.2821 53.7205 40.4141 53.7368C40.4341 53.7393 40.4542 53.741 40.4742 53.7434C40.5879 53.7569 40.7019 53.7684 40.8159 53.7782C40.8564 53.7817 40.8968 53.7849 40.9372 53.788C41.045 53.7961 41.1529 53.8028 41.2611 53.8078C41.289 53.809 41.3168 53.811 41.3448 53.8121C41.476 53.8171 41.6074 53.8196 41.7391 53.8201C41.7522 53.8201 41.7651 53.8208 41.7779 53.8208C41.778 53.8208 41.778 53.8208 41.7781 53.8208C41.8549 53.8208 41.9319 53.8199 42.009 53.8182C42.0119 53.8182 42.0149 53.8182 42.0176 53.8181C42.1168 53.816 42.216 53.8122 42.3152 53.8075C42.3242 53.8071 42.3333 53.807 42.3424 53.8065C42.5526 54.0853 42.7827 54.35 43.0297 54.5971L52.4246 63.9921C53.8359 65.4032 55.7122 66.1804 57.708 66.1804C59.7405 66.1804 61.6416 65.3782 63.0609 63.9216C65.8983 61.0096 65.8353 56.2693 62.9206 53.3544L53.5964 44.0302C53.3522 43.786 53.0895 43.5595 52.8139 43.3511L52.8155 43.3335L52.4421 43.0854C52.3677 43.036 52.2924 42.9879 52.2164 42.9412C52.1893 42.9246 52.1615 42.909 52.1341 42.8927C52.0851 42.8634 52.0362 42.8338 51.9865 42.8058C51.9466 42.7833 51.9061 42.7622 51.8659 42.7405C51.828 42.72 51.7905 42.6988 51.7523 42.6789C51.7041 42.6539 51.6554 42.6306 51.6068 42.6067C51.5759 42.5915 51.5452 42.5755 51.5142 42.5608C51.4627 42.5364 51.4107 42.5136 51.3587 42.4904C51.3298 42.4776 51.3012 42.4638 51.2722 42.4512C51.2184 42.4281 51.164 42.4065 51.1097 42.3846C51.0819 42.3735 51.0545 42.3615 51.0267 42.3506C50.9728 42.3296 50.9185 42.3104 50.8642 42.2907C50.8353 42.2802 50.8066 42.2689 50.7777 42.2587C50.7236 42.2399 50.669 42.2226 50.6145 42.2051C50.5848 42.1955 50.5554 42.1852 50.5256 42.1759C50.4717 42.1593 50.4173 42.1442 50.363 42.1288C50.3322 42.1201 50.3014 42.1105 50.2705 42.1022C50.2195 42.0884 50.168 42.0762 50.1168 42.0636C50.082 42.055 50.0473 42.0455 50.0124 42.0374C49.9641 42.0262 49.9155 42.0165 49.867 42.0064C49.8287 41.9983 49.7904 41.9894 49.7519 41.9819C49.7064 41.9731 49.6605 41.9657 49.6148 41.9576C49.5729 41.9502 49.531 41.9421 49.4889 41.9355C49.4474 41.9289 49.4054 41.9238 49.3638 41.9179C49.3171 41.9113 49.2706 41.9041 49.2237 41.8985C49.1868 41.894 49.1496 41.8909 49.1126 41.8869C49.0606 41.8814 49.0087 41.8753 48.9566 41.8708C48.9241 41.868 48.8914 41.8665 48.8588 41.8641C48.802 41.86 48.7451 41.8555 48.6879 41.8527C48.6592 41.8513 48.6303 41.851 48.6016 41.8498C48.5434 41.8476 48.4853 41.8451 48.4269 41.8441L48.4156 41.844C48.4154 41.844 48.4152 41.844 48.415 41.844C48.4147 41.844 48.4143 41.844 48.414 41.844C48.3805 41.8435 48.3469 41.8433 48.3133 41.8433C46.3169 41.8433 44.4406 42.62 43.0304 44.0302C41.7861 45.2744 41.0371 46.8749 40.8762 48.5966C40.8613 48.5945 40.8465 48.5926 40.8317 48.5903C40.7702 48.5815 40.7092 48.5718 40.6482 48.561C40.6243 48.5568 40.6003 48.5529 40.5765 48.5485C40.4938 48.533 40.4114 48.5162 40.3295 48.4973C40.3241 48.4961 40.3188 48.4944 40.3134 48.4933C40.237 48.4753 40.1612 48.4557 40.0856 48.4348C40.061 48.4279 40.0366 48.4207 40.0121 48.4136C39.9534 48.3965 39.8951 48.3786 39.8371 48.3597C39.8127 48.3517 39.7884 48.344 39.7641 48.3357C39.6923 48.3113 39.6207 48.2858 39.5499 48.2587C39.5424 48.2558 39.5348 48.2533 39.5273 48.2504C39.4492 48.2201 39.3717 48.1878 39.2948 48.1542C39.2733 48.1448 39.2519 48.1349 39.2306 48.1252C39.1739 48.0996 39.1174 48.0731 39.0615 48.0458C39.0381 48.0344 39.0147 48.0228 38.9914 48.0111C38.9299 47.9801 38.8691 47.9478 38.8086 47.9144C38.7977 47.9084 38.7866 47.9027 38.7757 47.8966C39.0621 45.8529 40.0111 43.9431 41.4771 42.4771C43.0524 40.9017 45.1401 39.9235 47.3559 39.7228C47.6425 39.6967 47.9339 39.6836 48.2218 39.6836C48.4833 39.6836 48.7436 39.6941 49.0027 39.7152C49.1422 39.7265 49.2812 39.7415 49.42 39.7589C50.0537 39.8386 50.6777 39.9811 51.2851 40.1865C52.6804 40.658 53.9194 41.4287 54.9676 42.477L64.5449 52.0543C68.264 55.7738 68.2639 61.8256 64.5447 65.5449Z" fill="white"/>
<path d="M62.2488 27.6859L56.5787 33.356L57.6425 34.4198L63.3126 28.7497L62.2488 27.6859Z" fill="white"/>
<path d="M49.4465 21H47.942V29.0189H49.4465V21Z" fill="white"/>
<path d="M70 41.5537H61.9811V43.0582H70V41.5537Z" fill="white"/>
<path d="M32.3545 57.5775L26.6845 63.2476L27.7483 64.3114L33.4184 58.6413L32.3545 57.5775Z" fill="white"/>
<path d="M28.0189 48.9419H20V50.4464H28.0189V48.9419Z" fill="white"/>
<path d="M42.0582 62.981H40.5537V70.9998H42.0582V62.981Z" fill="white"/>
<defs>
<filter id="filter0_d" x="0" y="0" width="100" height="100" filterUnits="userSpaceOnUse" color-interpolation-filters="sRGB">
<feFlood flood-opacity="0" result="BackgroundImageFix"/>
<feColorMatrix in="SourceAlpha" type="matrix" values="0 0 0 0 0 0 0 0 0 0 0 0 0 0 0 0 0 0 127 0"/>
<feOffset dx="5" dy="5"/>
<feGaussianBlur stdDeviation="5"/>
<feColorMatrix type="matrix" values="0 0 0 0 0.625 0 0 0 0 0.818015 0 0 0 0 1 0 0 0 1 0"/>
<feBlend mode="normal" in2="BackgroundImageFix" result="effect1_dropShadow"/>
<feBlend mode="normal" in="SourceGraphic" in2="effect1_dropShadow" result="shape"/>
</filter>
</defs>
</svg>
