<svg width="100" height="100" viewBox="0 0 100 100" fill="none" xmlns="http://www.w3.org/2000/svg">
<g filter="url(#filter0_d)">
<circle cx="45" cy="45" r="40" fill="#004688"/>
</g>
<g clip-path="url(#clip0)">
<path d="M44.9992 36.2593C49.4817 36.2593 53.1286 32.6124 53.1286 28.1299C53.1286 24.8216 51.1522 21.8698 48.0935 20.6102C47.7195 20.4563 47.2914 20.6345 47.1374 21.0085C46.9834 21.3825 47.1617 21.8105 47.5357 21.9646C50.0434 22.9974 51.6638 25.4174 51.6638 28.1299C51.6638 31.8047 48.674 34.7944 44.9992 34.7944C41.3244 34.7944 38.3347 31.8047 38.3347 28.1299C38.3347 24.4551 41.3244 21.4653 44.9992 21.4653C45.4037 21.4653 45.7316 21.1374 45.7316 20.7329C45.7316 20.3284 45.4037 20.0005 44.9992 20.0005C40.5167 20.0005 36.8698 23.6474 36.8698 28.1299C36.8698 32.6124 40.5167 36.2593 44.9992 36.2593ZM42.3977 28.4017C42.1117 28.1156 41.6479 28.1156 41.362 28.4017C41.076 28.6877 41.076 29.1515 41.362 29.4374L42.8357 30.9111C43.1118 31.1872 43.4743 31.3252 43.8369 31.3252C44.1995 31.3252 44.5622 31.1871 44.8382 30.9111L48.6364 27.1129C48.9224 26.8269 48.9224 26.3631 48.6364 26.0771C48.3504 25.7911 47.8866 25.7911 47.6007 26.0771L43.837 29.8409L42.3977 28.4017ZM69.7849 42.9604C69.4991 42.6743 69.0353 42.674 68.7491 42.96L65.9812 45.725L54.6394 34.1557L67.5609 21.2512C67.8472 20.9653 67.8474 20.5016 67.5616 20.2154C67.2758 19.9292 66.812 19.9288 66.5259 20.2147L50.6582 36.0614C49.9083 36.8104 49.527 37.8156 49.5924 38.8756H48.6137C47.1378 38.8756 45.7267 39.5059 44.7426 40.6049L44.6011 40.763C43.2516 40.0874 41.7678 39.7078 40.2587 39.6541C40.614 38.3787 40.2443 36.9825 39.2946 36.0583L23.2693 20.2719C22.981 19.9879 22.5173 19.9915 22.2336 20.2797C21.9497 20.5679 21.9531 21.0315 22.2414 21.3154L35.9258 34.7958L26.0601 44.8591C25.7769 45.1479 25.7815 45.6117 26.0704 45.8948C26.3592 46.1778 26.8228 46.1735 27.1061 45.8846L36.9692 35.8237L38.2683 37.1035C38.6905 37.5166 38.9247 38.0692 38.9277 38.6595C38.9307 39.2497 38.7023 39.8048 38.2845 40.2222L29.9505 48.5478C29.0937 49.4037 27.6995 49.4038 26.8426 48.5478L21.2492 42.96C20.9631 42.6741 20.4993 42.6743 20.2134 42.9604C19.9275 43.2467 19.9277 43.7104 20.2139 43.9963L25.8072 49.584C26.5212 50.2973 27.4587 50.6537 28.3965 50.6537C28.736 50.6537 29.0754 50.6063 29.4044 50.5127C29.4227 51.0094 29.4766 51.5043 29.5649 51.9949C29.233 52.1474 28.9221 52.3598 28.649 52.6326L27.0412 54.2388C26.4415 54.8378 26.1113 55.6342 26.1113 56.4814C26.1113 57.3288 26.4415 58.1252 27.0412 58.7242C27.732 59.4134 28.6614 59.722 29.5778 59.6377C29.4909 60.5762 29.8235 61.5052 30.4938 62.1734C31.1125 62.7915 31.9251 63.1005 32.7378 63.1005C32.8354 63.1005 32.9331 63.0958 33.0304 63.0868C32.9434 64.0253 33.2768 64.9536 33.9465 65.6226C34.6367 66.312 35.5667 66.6201 36.483 66.536C36.3961 67.4745 36.7287 68.4035 37.3991 69.0719C38.0178 69.6899 38.8304 69.9989 39.6431 69.9989C40.4557 69.9989 41.2683 69.6899 41.8871 69.0719L42.9449 68.0151L44.0027 69.0719C44.6214 69.6899 45.434 69.9989 46.2467 69.9989C47.0594 69.9989 47.8721 69.6898 48.4907 69.0718C49.1591 68.404 49.4922 67.4729 49.4068 66.536C50.3266 66.6207 51.2508 66.3145 51.9433 65.6226C52.6118 64.9549 52.9448 64.0236 52.8595 63.0868C53.7791 63.1714 54.7034 62.8653 55.3961 62.1733C56.0644 61.5057 56.3974 60.5744 56.3121 59.6376C57.2317 59.7222 58.156 59.4158 58.8486 58.724C59.4483 58.125 59.7785 57.3286 59.7785 56.4813C59.7785 55.634 59.4483 54.8376 58.8487 54.2386L57.9619 53.3526C58.588 52.875 59.1604 52.3321 59.669 51.7298C59.9947 51.344 60.2937 50.9333 60.5634 50.5042C60.9017 50.6035 61.2517 50.6533 61.6017 50.6533C62.5394 50.6533 63.4771 50.2968 64.191 49.5836L69.7844 43.996C70.0706 43.7104 70.0708 43.2467 69.7849 42.9604ZM30.4939 57.688C29.8275 58.3539 28.7432 58.3538 28.0766 57.688C27.7541 57.3656 27.5764 56.9372 27.5764 56.4815C27.5764 56.0259 27.754 55.5975 28.0766 55.2751L29.6845 53.6689C30.0177 53.336 30.4554 53.1696 30.8931 53.1696C31.3308 53.1696 31.7685 53.336 32.1017 53.6689C32.4243 53.9913 32.602 54.4197 32.602 54.8754C32.602 55.3311 32.4244 55.7595 32.1017 56.0818L30.4939 57.688ZM31.5292 61.1372C31.2066 60.8148 31.029 60.3864 31.029 59.9308C31.029 59.4751 31.2066 59.0466 31.5293 58.7243L33.1371 57.1182C33.8036 56.4525 34.8881 56.4525 35.5546 57.1182C35.8771 57.4405 36.0549 57.8689 36.0549 58.3246C36.0549 58.7803 35.8772 59.2087 35.5546 59.5311L33.9468 61.1373C33.2802 61.8029 32.1957 61.8029 31.5292 61.1372ZM34.9818 64.5863C34.6593 64.264 34.4815 63.8355 34.4815 63.3799C34.4815 62.9242 34.6592 62.4958 34.9818 62.1734L36.5896 60.5672C36.9229 60.2343 37.3606 60.0679 37.7983 60.0679C38.236 60.0679 38.6738 60.2344 39.007 60.5672C39.3297 60.8896 39.5073 61.318 39.5073 61.7736C39.5073 62.2293 39.3297 62.6578 39.007 62.9801L37.3992 64.5862C36.7328 65.2521 35.6484 65.252 34.9818 64.5863ZM42.4599 66.4294L40.852 68.0356C40.1855 68.7013 39.1011 68.7013 38.4346 68.0356V68.0355C38.112 67.7132 37.9343 67.2848 37.9343 66.8291C37.9343 66.3734 38.1119 65.945 38.4346 65.6227L40.0424 64.0165C40.3756 63.6836 40.8134 63.5172 41.2511 63.5172C41.6888 63.5172 42.1266 63.6836 42.4598 64.0165C42.7824 64.3389 42.96 64.7673 42.96 65.2229C42.96 65.6786 42.7824 66.107 42.4599 66.4294ZM58.3139 56.4815C58.3139 56.9372 58.1362 57.3656 57.8136 57.688C57.1472 58.3538 56.0627 58.3539 55.3963 57.688L50.1482 52.4452C49.8621 52.1594 49.3983 52.1595 49.1124 52.4457C48.8265 52.7319 48.8267 53.1957 49.1129 53.4814L54.3609 58.7242C54.6835 59.0466 54.8612 59.475 54.8612 59.9307C54.8612 60.3863 54.6836 60.8148 54.3609 61.1371C53.6946 61.8026 52.6104 61.8027 51.9439 61.1374C51.9438 61.1373 51.9437 61.1372 51.9436 61.1371L46.6956 55.8942C46.4095 55.6083 45.9457 55.6086 45.6598 55.8947C45.3739 56.181 45.3741 56.6447 45.6602 56.9305L50.9084 62.1733C51.2309 62.4957 51.4087 62.9241 51.4087 63.3798C51.4087 63.8355 51.231 64.264 50.9084 64.5862C50.2418 65.252 49.1573 65.252 48.491 64.5862L43.243 59.3435C42.9568 59.0575 42.4931 59.0578 42.2071 59.3439C41.9213 59.6302 41.9215 60.0939 42.2076 60.3797L47.4557 65.6225C47.7783 65.9448 47.956 66.3732 47.956 66.8289C47.956 67.2847 47.7784 67.7132 47.4557 68.0354C46.7891 68.7012 45.7047 68.7011 45.0384 68.0354L43.9284 66.9266C44.2514 66.4222 44.4252 65.8359 44.4251 65.2227C44.4251 64.3754 44.0949 63.579 43.4953 62.98C42.8023 62.2876 41.8659 61.9832 40.9588 62.0664C40.9676 61.9695 40.9725 61.872 40.9725 61.7735C40.9725 60.9263 40.6424 60.1298 40.0427 59.5308C39.3497 58.8385 38.4133 58.5342 37.5061 58.6174C37.5149 58.5205 37.5199 58.4229 37.5199 58.3244C37.5199 57.4771 37.1897 56.6807 36.59 56.0816C35.8971 55.3894 34.9606 55.0851 34.0535 55.1683C34.0623 55.0714 34.0673 54.9737 34.0673 54.8753C34.0673 54.0279 33.7371 53.2315 33.1375 52.6325C32.5464 52.0419 31.7781 51.7342 31.002 51.7078C30.8841 51.0416 30.8409 50.3663 30.8734 49.6909C30.9115 49.656 30.9493 49.6207 30.9862 49.5838L39.3202 41.2583C39.3642 41.2144 39.4069 41.1694 39.4484 41.1237C40.8682 41.0543 42.2891 41.3246 43.582 41.9012L38.9509 47.0721C38.1458 47.9711 38.1839 49.3435 39.0377 50.1963C40.658 51.815 43.2942 51.815 44.9144 50.1963L48.3047 46.8095C48.5901 46.5243 49.0546 46.5243 49.3399 46.8095L56.3102 53.7729L57.8139 55.275C58.1361 55.5975 58.3139 56.0258 58.3139 56.4815ZM58.55 50.785C58.0678 51.3562 57.5196 51.8666 56.9157 52.3076L50.3748 45.7732C49.5184 44.918 48.1253 44.9179 47.2689 45.7733L43.8787 49.1602C42.8294 50.2083 41.122 50.2085 40.0725 49.1602C39.769 48.8569 39.7555 48.369 40.0417 48.0495L45.8338 41.5822C46.5405 40.7931 47.5537 40.3405 48.6137 40.3405H49.9978C50.1685 40.6671 50.3893 40.9695 50.6575 41.2375L59.0125 49.584C59.0937 49.6651 59.1782 49.741 59.2649 49.813C59.0468 50.1519 58.8091 50.4782 58.55 50.785ZM63.1558 48.5477C62.299 49.4037 60.9048 49.4037 60.0478 48.5477L51.6929 40.2011C51.2779 39.7865 51.0495 39.2355 51.0496 38.6494C51.0497 38.0634 51.2782 37.5123 51.6932 37.0979L53.6029 35.1908L64.9449 46.7603L63.1558 48.5477Z" fill="white"/>
</g>
<defs>
<filter id="filter0_d" x="0" y="0" width="100" height="100" filterUnits="userSpaceOnUse" color-interpolation-filters="sRGB">
<feFlood flood-opacity="0" result="BackgroundImageFix"/>
<feColorMatrix in="SourceAlpha" type="matrix" values="0 0 0 0 0 0 0 0 0 0 0 0 0 0 0 0 0 0 127 0"/>
<feOffset dx="5" dy="5"/>
<feGaussianBlur stdDeviation="5"/>
<feColorMatrix type="matrix" values="0 0 0 0 0.625 0 0 0 0 0.818015 0 0 0 0 1 0 0 0 1 0"/>
<feBlend mode="normal" in2="BackgroundImageFix" result="effect1_dropShadow"/>
<feBlend mode="normal" in="SourceGraphic" in2="effect1_dropShadow" result="shape"/>
</filter>
<clipPath id="clip0">
<rect width="50" height="50" fill="white" transform="translate(20 20)"/>
</clipPath>
</defs>
</svg>
