<svg width="318" height="343" viewBox="0 0 318 343" fill="none" xmlns="http://www.w3.org/2000/svg">
<g filter="url(#filter0_d)">
<rect x="136" y="149" width="172" height="48" rx="24" stroke="#369EFF" stroke-width="2"/>
<rect x="61" y="211" width="134" height="36" rx="18" stroke="#369EFF" stroke-width="2"/>
<rect x="28" y="124" width="104" height="28" rx="14" stroke="#369EFF" stroke-width="2"/>
<path d="M177.364 166.344C179.764 166.344 181.696 167.064 183.16 168.504C184.648 169.944 185.392 172.08 185.392 174.912V186H179.776V175.776C179.776 174.24 179.44 173.1 178.768 172.356C178.096 171.588 177.124 171.204 175.852 171.204C174.436 171.204 173.308 171.648 172.468 172.536C171.628 173.4 171.208 174.696 171.208 176.424V186H165.592V159.288H171.208V168.648C171.952 167.904 172.852 167.34 173.908 166.956C174.964 166.548 176.116 166.344 177.364 166.344ZM202.975 185.064C202.423 185.472 201.739 185.784 200.923 186C200.131 186.192 199.291 186.288 198.403 186.288C196.099 186.288 194.311 185.7 193.039 184.524C191.791 183.348 191.167 181.62 191.167 179.34V171.384H188.179V167.064H191.167V162.348H196.783V167.064H201.607V171.384H196.783V179.268C196.783 180.084 196.987 180.72 197.395 181.176C197.827 181.608 198.427 181.824 199.195 181.824C200.083 181.824 200.839 181.584 201.463 181.104L202.975 185.064ZM218.197 185.064C217.645 185.472 216.961 185.784 216.145 186C215.353 186.192 214.513 186.288 213.625 186.288C211.321 186.288 209.533 185.7 208.261 184.524C207.013 183.348 206.389 181.62 206.389 179.34V171.384H203.401V167.064H206.389V162.348H212.005V167.064H216.829V171.384H212.005V179.268C212.005 180.084 212.209 180.72 212.617 181.176C213.049 181.608 213.649 181.824 214.417 181.824C215.305 181.824 216.061 181.584 216.685 181.104L218.197 185.064ZM232.798 166.344C234.598 166.344 236.23 166.764 237.694 167.604C239.182 168.42 240.346 169.584 241.186 171.096C242.026 172.584 242.446 174.324 242.446 176.316C242.446 178.308 242.026 180.06 241.186 181.572C240.346 183.06 239.182 184.224 237.694 185.064C236.23 185.88 234.598 186.288 232.798 186.288C230.326 186.288 228.382 185.508 226.966 183.948V192.984H221.35V166.632H226.714V168.864C228.106 167.184 230.134 166.344 232.798 166.344ZM231.826 181.68C233.266 181.68 234.442 181.2 235.354 180.24C236.29 179.256 236.758 177.948 236.758 176.316C236.758 174.684 236.29 173.388 235.354 172.428C234.442 171.444 233.266 170.952 231.826 170.952C230.386 170.952 229.198 171.444 228.262 172.428C227.35 173.388 226.894 174.684 226.894 176.316C226.894 177.948 227.35 179.256 228.262 180.24C229.198 181.2 230.386 181.68 231.826 181.68ZM248.329 173.364C247.345 173.364 246.517 173.028 245.845 172.356C245.173 171.684 244.837 170.844 244.837 169.836C244.837 168.804 245.173 167.976 245.845 167.352C246.517 166.704 247.345 166.38 248.329 166.38C249.313 166.38 250.141 166.704 250.813 167.352C251.485 167.976 251.821 168.804 251.821 169.836C251.821 170.844 251.485 171.684 250.813 172.356C250.141 173.028 249.313 173.364 248.329 173.364ZM248.329 186.288C247.345 186.288 246.517 185.952 245.845 185.28C245.173 184.608 244.837 183.768 244.837 182.76C244.837 181.728 245.173 180.9 245.845 180.276C246.517 179.628 247.345 179.304 248.329 179.304C249.313 179.304 250.141 179.628 250.813 180.276C251.485 180.9 251.821 181.728 251.821 182.76C251.821 183.768 251.485 184.608 250.813 185.28C250.141 185.952 249.313 186.288 248.329 186.288ZM265.626 155.688H270.63L258.75 189.6H253.746L265.626 155.688ZM277.087 155.688H282.091L270.211 189.6H265.207L277.087 155.688Z" fill="#369EFF"/>
<path d="M97.374 223.804C99.1073 223.804 100.503 224.324 101.56 225.364C102.635 226.404 103.172 227.947 103.172 229.992V238H99.116V230.616C99.116 229.507 98.8733 228.683 98.388 228.146C97.9027 227.591 97.2007 227.314 96.282 227.314C95.2593 227.314 94.4447 227.635 93.838 228.276C93.2313 228.9 92.928 229.836 92.928 231.084V238H88.872V218.708H92.928V225.468C93.4653 224.931 94.1153 224.523 94.878 224.246C95.6407 223.951 96.4727 223.804 97.374 223.804ZM115.871 237.324C115.472 237.619 114.978 237.844 114.389 238C113.817 238.139 113.21 238.208 112.569 238.208C110.905 238.208 109.613 237.783 108.695 236.934C107.793 236.085 107.343 234.837 107.343 233.19V227.444H105.185V224.324H107.343V220.918H111.399V224.324H114.883V227.444H111.399V233.138C111.399 233.727 111.546 234.187 111.841 234.516C112.153 234.828 112.586 234.984 113.141 234.984C113.782 234.984 114.328 234.811 114.779 234.464L115.871 237.324ZM126.865 237.324C126.466 237.619 125.972 237.844 125.383 238C124.811 238.139 124.204 238.208 123.563 238.208C121.899 238.208 120.607 237.783 119.689 236.934C118.787 236.085 118.337 234.837 118.337 233.19V227.444H116.179V224.324H118.337V220.918H122.393V224.324H125.877V227.444H122.393V233.138C122.393 233.727 122.54 234.187 122.835 234.516C123.147 234.828 123.58 234.984 124.135 234.984C124.776 234.984 125.322 234.811 125.773 234.464L126.865 237.324ZM137.41 223.804C138.71 223.804 139.888 224.107 140.946 224.714C142.02 225.303 142.861 226.144 143.468 227.236C144.074 228.311 144.378 229.567 144.378 231.006C144.378 232.445 144.074 233.71 143.468 234.802C142.861 235.877 142.02 236.717 140.946 237.324C139.888 237.913 138.71 238.208 137.41 238.208C135.624 238.208 134.22 237.645 133.198 236.518V243.044H129.142V224.012H133.016V225.624C134.021 224.411 135.486 223.804 137.41 223.804ZM136.708 234.88C137.748 234.88 138.597 234.533 139.256 233.84C139.932 233.129 140.27 232.185 140.27 231.006C140.27 229.827 139.932 228.891 139.256 228.198C138.597 227.487 137.748 227.132 136.708 227.132C135.668 227.132 134.81 227.487 134.134 228.198C133.475 228.891 133.146 229.827 133.146 231.006C133.146 232.185 133.475 233.129 134.134 233.84C134.81 234.533 135.668 234.88 136.708 234.88ZM148.627 228.874C147.916 228.874 147.318 228.631 146.833 228.146C146.347 227.661 146.105 227.054 146.105 226.326C146.105 225.581 146.347 224.983 146.833 224.532C147.318 224.064 147.916 223.83 148.627 223.83C149.337 223.83 149.935 224.064 150.421 224.532C150.906 224.983 151.149 225.581 151.149 226.326C151.149 227.054 150.906 227.661 150.421 228.146C149.935 228.631 149.337 228.874 148.627 228.874ZM148.627 238.208C147.916 238.208 147.318 237.965 146.833 237.48C146.347 236.995 146.105 236.388 146.105 235.66C146.105 234.915 146.347 234.317 146.833 233.866C147.318 233.398 147.916 233.164 148.627 233.164C149.337 233.164 149.935 233.398 150.421 233.866C150.906 234.317 151.149 234.915 151.149 235.66C151.149 236.388 150.906 236.995 150.421 237.48C149.935 237.965 149.337 238.208 148.627 238.208ZM161.118 216.108H164.732L156.152 240.6H152.538L161.118 216.108ZM169.396 216.108H173.01L164.43 240.6H160.816L169.396 216.108Z" fill="#369EFF"/>
<path d="M56.98 133.08C58.3133 133.08 59.3867 133.48 60.2 134.28C61.0267 135.08 61.44 136.267 61.44 137.84V144H58.32V138.32C58.32 137.467 58.1333 136.833 57.76 136.42C57.3867 135.993 56.8467 135.78 56.14 135.78C55.3533 135.78 54.7267 136.027 54.26 136.52C53.7933 137 53.56 137.72 53.56 138.68V144H50.44V129.16H53.56V134.36C53.9733 133.947 54.4733 133.633 55.06 133.42C55.6467 133.193 56.2867 133.08 56.98 133.08ZM71.2081 143.48C70.9015 143.707 70.5215 143.88 70.0681 144C69.6281 144.107 69.1615 144.16 68.6681 144.16C67.3881 144.16 66.3948 143.833 65.6881 143.18C64.9948 142.527 64.6481 141.567 64.6481 140.3V135.88H62.9881V133.48H64.6481V130.86H67.7681V133.48H70.4481V135.88H67.7681V140.26C67.7681 140.713 67.8815 141.067 68.1081 141.32C68.3481 141.56 68.6815 141.68 69.1081 141.68C69.6015 141.68 70.0215 141.547 70.3681 141.28L71.2081 143.48ZM79.6652 143.48C79.3585 143.707 78.9785 143.88 78.5252 144C78.0852 144.107 77.6185 144.16 77.1252 144.16C75.8452 144.16 74.8518 143.833 74.1452 143.18C73.4518 142.527 73.1052 141.567 73.1052 140.3V135.88H71.4452V133.48H73.1052V130.86H76.2252V133.48H78.9052V135.88H76.2252V140.26C76.2252 140.713 76.3385 141.067 76.5652 141.32C76.8052 141.56 77.1385 141.68 77.5652 141.68C78.0585 141.68 78.4785 141.547 78.8252 141.28L79.6652 143.48ZM87.7766 133.08C88.7766 133.08 89.6832 133.313 90.4966 133.78C91.3232 134.233 91.9699 134.88 92.4366 135.72C92.9032 136.547 93.1366 137.513 93.1366 138.62C93.1366 139.727 92.9032 140.7 92.4366 141.54C91.9699 142.367 91.3232 143.013 90.4966 143.48C89.6832 143.933 88.7766 144.16 87.7766 144.16C86.4032 144.16 85.3232 143.727 84.5366 142.86V147.88H81.4166V133.24H84.3966V134.48C85.1699 133.547 86.2966 133.08 87.7766 133.08ZM87.2366 141.6C88.0366 141.6 88.6899 141.333 89.1966 140.8C89.7166 140.253 89.9766 139.527 89.9766 138.62C89.9766 137.713 89.7166 136.993 89.1966 136.46C88.6899 135.913 88.0366 135.64 87.2366 135.64C86.4366 135.64 85.7766 135.913 85.2566 136.46C84.7499 136.993 84.4966 137.713 84.4966 138.62C84.4966 139.527 84.7499 140.253 85.2566 140.8C85.7766 141.333 86.4366 141.6 87.2366 141.6ZM96.4052 136.98C95.8585 136.98 95.3985 136.793 95.0252 136.42C94.6518 136.047 94.4652 135.58 94.4652 135.02C94.4652 134.447 94.6518 133.987 95.0252 133.64C95.3985 133.28 95.8585 133.1 96.4052 133.1C96.9518 133.1 97.4118 133.28 97.7852 133.64C98.1585 133.987 98.3452 134.447 98.3452 135.02C98.3452 135.58 98.1585 136.047 97.7852 136.42C97.4118 136.793 96.9518 136.98 96.4052 136.98ZM96.4052 144.16C95.8585 144.16 95.3985 143.973 95.0252 143.6C94.6518 143.227 94.4652 142.76 94.4652 142.2C94.4652 141.627 94.6518 141.167 95.0252 140.82C95.3985 140.46 95.8585 140.28 96.4052 140.28C96.9518 140.28 97.4118 140.46 97.7852 140.82C98.1585 141.167 98.3452 141.627 98.3452 142.2C98.3452 142.76 98.1585 143.227 97.7852 143.6C97.4118 143.973 96.9518 144.16 96.4052 144.16ZM106.014 127.16H108.794L102.194 146H99.4142L106.014 127.16ZM112.381 127.16H115.161L108.561 146H105.781L112.381 127.16Z" fill="#369EFF"/>
<path d="M302 198.36L276.88 189C276.701 188.933 276.506 188.919 276.319 188.959C276.132 188.999 275.961 189.092 275.825 189.227C275.689 189.361 275.595 189.532 275.553 189.719C275.511 189.906 275.524 190.1 275.59 190.28L285 215.44C285.073 215.635 285.205 215.802 285.378 215.918C285.55 216.035 285.755 216.094 285.963 216.089C286.171 216.083 286.372 216.013 286.538 215.888C286.704 215.762 286.827 215.588 286.89 215.39L289.58 206.64L298.7 215.54C298.887 215.726 299.141 215.831 299.405 215.831C299.669 215.831 299.923 215.726 300.11 215.54L302.46 213.19C302.646 213.003 302.751 212.749 302.751 212.485C302.751 212.221 302.646 211.967 302.46 211.78L293.37 202.92L302 200.25C302.196 200.182 302.367 200.054 302.487 199.885C302.608 199.716 302.673 199.513 302.673 199.305C302.673 199.097 302.608 198.894 302.487 198.725C302.367 198.556 302.196 198.428 302 198.36Z" fill="#369EFF"/>
<path d="M190.944 253.927L172.802 247.167C172.673 247.118 172.532 247.108 172.397 247.137C172.262 247.166 172.138 247.233 172.04 247.33C171.942 247.428 171.874 247.551 171.844 247.686C171.814 247.821 171.823 247.961 171.871 248.091L178.667 266.262C178.719 266.403 178.815 266.524 178.939 266.608C179.064 266.692 179.212 266.735 179.362 266.731C179.512 266.727 179.658 266.676 179.778 266.586C179.898 266.495 179.986 266.369 180.032 266.226L181.974 259.907L188.561 266.334C188.696 266.469 188.879 266.544 189.07 266.544C189.261 266.544 189.444 266.469 189.579 266.334L191.277 264.637C191.411 264.502 191.487 264.319 191.487 264.128C191.487 263.937 191.411 263.754 191.277 263.619L184.712 257.22L190.944 255.292C191.086 255.243 191.209 255.15 191.297 255.028C191.384 254.906 191.43 254.759 191.43 254.609C191.43 254.459 191.384 254.313 191.297 254.19C191.209 254.068 191.086 253.976 190.944 253.927Z" fill="#369EFF"/>
<path d="M129.306 154.523L116.048 149.583C115.953 149.548 115.851 149.54 115.752 149.562C115.653 149.583 115.563 149.632 115.491 149.703C115.419 149.774 115.369 149.864 115.347 149.963C115.325 150.061 115.332 150.164 115.367 150.259L120.333 163.538C120.372 163.641 120.442 163.729 120.533 163.79C120.624 163.852 120.732 163.883 120.841 163.88C120.951 163.877 121.057 163.84 121.145 163.774C121.233 163.708 121.298 163.616 121.331 163.511L122.751 158.893L127.564 163.591C127.663 163.689 127.797 163.744 127.936 163.744C128.075 163.744 128.209 163.689 128.308 163.591L129.548 162.35C129.647 162.251 129.702 162.118 129.702 161.978C129.702 161.839 129.647 161.705 129.548 161.606L124.751 156.93L129.306 155.521C129.409 155.485 129.499 155.418 129.563 155.328C129.626 155.239 129.661 155.132 129.661 155.022C129.661 154.912 129.626 154.805 129.563 154.716C129.499 154.627 129.409 154.559 129.306 154.523Z" fill="#369EFF"/>
</g>
<path d="M138.467 104.402C139.241 104.697 140.108 104.307 140.402 103.533L145.201 90.9148C145.495 90.1404 145.106 89.274 144.332 88.9796C143.557 88.6851 142.691 89.0741 142.396 89.8484L138.131 101.065L126.915 96.7994C126.14 96.5049 125.274 96.894 124.98 97.6683C124.685 98.4426 125.074 99.309 125.848 99.6035L138.467 104.402ZM93.6316 5.61439L137.632 103.614L140.368 102.386L96.3684 4.38561L93.6316 5.61439Z" fill="#004688"/>
<path d="M96.4476 282.393C96.6646 281.593 96.1924 280.769 95.3929 280.552L82.3643 277.016C81.5648 276.799 80.7408 277.271 80.5238 278.071C80.3068 278.87 80.779 279.694 81.5785 279.911L93.1595 283.055L90.016 294.636C89.799 295.435 90.2712 296.259 91.0707 296.476C91.8702 296.693 92.6943 296.221 92.9113 295.422L96.4476 282.393ZM6.74578 334.301L95.7458 283.301L94.2542 280.699L5.25422 331.699L6.74578 334.301Z" fill="#004688"/>
<path d="M300.908 75.5174C301.194 74.7398 300.795 73.8778 300.017 73.5921L287.346 68.9355C286.568 68.6498 285.706 69.0485 285.421 69.8261C285.135 70.6037 285.534 71.4657 286.311 71.7514L297.575 75.8906L293.436 87.1541C293.15 87.9317 293.548 88.7937 294.326 89.0794C295.104 89.3652 295.966 88.9665 296.251 88.1889L300.908 75.5174ZM198.63 123.31L300.13 76.3614L298.87 73.6386L197.37 120.587L198.63 123.31Z" fill="#004688"/>
<defs>
<filter id="filter0_d" x="26" y="122" width="292" height="158" filterUnits="userSpaceOnUse" color-interpolation-filters="sRGB">
<feFlood flood-opacity="0" result="BackgroundImageFix"/>
<feColorMatrix in="SourceAlpha" type="matrix" values="0 0 0 0 0 0 0 0 0 0 0 0 0 0 0 0 0 0 127 0"/>
<feOffset dx="4" dy="4"/>
<feGaussianBlur stdDeviation="2.5"/>
<feColorMatrix type="matrix" values="0 0 0 0 0.579861 0 0 0 0 0.711011 0 0 0 0 0.833333 0 0 0 1 0"/>
<feBlend mode="normal" in2="BackgroundImageFix" result="effect1_dropShadow"/>
<feBlend mode="normal" in="SourceGraphic" in2="effect1_dropShadow" result="shape"/>
</filter>
</defs>
</svg>
