<svg width="224" height="218" viewBox="0 0 224 218" fill="none" xmlns="http://www.w3.org/2000/svg">
<path opacity="0.15" d="M18.4559 190.451C27.6114 190.451 35.0334 189.037 35.0334 187.293C35.0334 185.549 27.6114 184.135 18.4559 184.135C9.30036 184.135 1.87836 185.549 1.87836 187.293C1.87836 189.037 9.30036 190.451 18.4559 190.451Z" fill="#1F3C88"/>
<path d="M10.8651 181.151C7.27042 181.151 3.29182 175.898 3.29182 172.338C3.29182 168.726 6.17107 165.777 9.71342 165.777C13.2558 165.777 16.135 168.726 16.135 172.338C16.135 175.758 14.7041 181.151 10.8651 181.151ZM9.71342 167.976C7.37512 167.976 5.47307 169.948 5.47307 172.356C5.47307 175.026 8.70132 178.987 10.8651 178.987C12.8544 178.987 13.9538 175.06 13.9538 172.356C13.9538 169.93 12.0517 167.976 9.71342 167.976Z" fill="#1F3C88"/>
<path d="M23.2546 186.839H13.8142C12.2437 186.839 10.9349 185.635 10.8128 184.082L8.85835 160.542H28.5943L26.256 184.117C26.099 185.653 24.8077 186.839 23.2546 186.839Z" fill="#1F3C88"/>
<path d="M11.1618 132.343C10.4987 134.559 10.202 136.828 10.5859 139.026C10.7779 140.126 11.092 141.19 11.5108 142.202C11.947 143.214 12.5054 144.191 13.1336 145.134C13.7793 146.059 14.4773 146.949 15.2451 147.786C15.437 147.978 15.629 148.24 15.8384 148.484C16.0303 148.729 16.2397 148.955 16.4317 149.217L16.9552 150.02C17.1297 150.282 17.2518 150.613 17.3914 150.892C17.5485 151.171 17.6183 151.521 17.7055 151.835C17.8102 152.149 17.8277 152.498 17.88 152.829C17.8975 153.004 17.8975 153.161 17.88 153.335L17.8451 153.841C17.8277 154.016 17.7753 154.173 17.7404 154.33C17.7055 154.487 17.6706 154.661 17.6008 154.819L17.4089 155.29C17.3391 155.429 17.2518 155.569 17.1646 155.726C17.0948 155.866 16.9901 156.005 16.8854 156.127C16.7807 156.249 16.6934 156.389 16.5887 156.511C16.1525 157 15.6813 157.384 15.1055 157.698L14.739 157.122C15.5417 156.407 16.2048 155.447 16.4317 154.47C16.484 154.347 16.484 154.225 16.5015 154.103C16.5189 153.981 16.5364 153.859 16.5364 153.737L16.5189 153.37C16.5189 153.248 16.5189 153.126 16.484 153.004C16.4317 152.759 16.4142 152.515 16.2921 152.271C16.2048 152.027 16.135 151.782 15.9954 151.555C15.8558 151.329 15.7686 151.084 15.5941 150.875L15.1229 150.212C14.9484 150.002 14.7565 149.81 14.582 149.601L14.0061 148.973C13.5873 148.537 13.186 148.083 12.8021 147.612C12.4007 147.158 12.0517 146.652 11.7027 146.146C11.0396 145.116 10.4114 144.034 9.97517 142.883C9.53892 141.714 9.22482 140.492 9.12012 139.253C8.85837 136.758 9.45167 134.262 10.551 132.134L11.1618 132.343Z" fill="#D3DFFF"/>
<path d="M19.7297 131.662C20.9512 132.657 21.9459 134.053 22.417 135.658C22.6613 136.461 22.766 137.299 22.766 138.119C22.7835 138.956 22.6439 139.759 22.4868 140.562C22.2949 141.347 22.0331 142.115 21.719 142.848L21.5096 143.354C21.4573 143.511 21.37 143.668 21.3177 143.825L21.1781 144.296C21.1257 144.453 21.1257 144.61 21.0908 144.767C21.0559 144.924 21.0734 145.081 21.0559 145.221C21.0385 145.378 21.0734 145.518 21.0908 145.657C21.0908 145.814 21.1606 145.936 21.1955 146.076C21.2653 146.198 21.3002 146.355 21.4049 146.477C21.7016 146.983 22.2949 147.437 22.9056 147.699L22.766 148.362C21.8935 148.275 21.0908 147.908 20.4452 147.228C20.2881 147.071 20.166 146.861 20.0264 146.669C19.9391 146.46 19.7995 146.251 19.7472 146.024C19.6774 145.797 19.6076 145.57 19.6076 145.343C19.5901 145.116 19.5552 144.889 19.5727 144.663C19.5901 144.436 19.5727 144.209 19.625 143.999L19.7472 143.371C19.7995 143.162 19.8693 142.97 19.9391 142.761C20.0089 142.551 20.0787 142.359 20.1311 142.202C20.4103 141.522 20.6022 140.841 20.7767 140.143C20.9338 139.445 21.0385 138.764 21.0908 138.066C21.1257 137.368 21.0734 136.688 20.9512 135.99C20.7069 134.611 20.0613 133.32 19.2237 132.099L19.7297 131.662Z" fill="#D3DFFF"/>
<path opacity="0.15" d="M216.513 187.485C216.513 183.402 180.06 180.069 135.109 180.069C90.1579 180.069 53.7048 183.384 53.7048 187.485C53.7048 190.8 77.6811 193.61 110.731 194.552C114.326 200.45 108.323 207.517 103.717 210.065C95.6372 210.466 89.8264 211.374 90.7338 213.293C95.0614 222.367 131.776 212.718 131.776 212.718C131.776 212.718 146.138 213.607 146.138 212.246C146.138 211.618 143.607 211.042 139.454 210.606L139.768 210.589L124.273 194.831C127.815 194.866 131.445 194.901 135.127 194.901C180.06 194.901 216.513 191.586 216.513 187.485Z" fill="#183E5E"/>
<path d="M223.703 133.076C222.621 150.788 213.704 168.482 199.063 178.219C181.631 189.823 157.236 187.258 137.378 188.741C120.207 190.015 102.896 191.115 85.7256 189.3C71.6609 187.799 57.4566 182.232 50.7384 168.569C44.0027 154.871 43.2698 136.671 50.0055 122.815C52.1518 118.383 55.0311 114.457 58.3989 111.036C58.9573 110.478 59.5157 109.92 60.0916 109.379C60.4929 109.012 60.8768 108.663 61.2956 108.314C61.9238 107.773 62.552 107.25 63.1977 106.744C63.4071 106.569 63.6339 106.412 63.8433 106.255C64.0527 106.098 64.2796 105.924 64.489 105.767C64.6984 105.61 64.9252 105.452 65.1521 105.295C65.3266 105.173 65.4836 105.051 65.6407 104.946C65.9199 104.754 66.1991 104.563 66.4783 104.371C68.9911 102.678 71.626 101.195 74.3482 99.9208C77.0006 98.6644 79.7403 97.6174 82.4799 96.7624C91.519 93.9529 100.942 92.9583 110.278 91.7368C130.066 89.1367 150.203 88.2642 170.149 88.2642C186.43 88.2642 204.752 90.7072 215.623 104.667C221.783 112.502 224.314 122.99 223.703 133.076Z" fill="#F29406"/>
<path d="M190.198 103.166C190.198 103.166 194.404 99.2228 196.62 96.9369C198.836 94.6509 193.985 94.5811 191.594 97.4255C189.204 100.27 190.198 103.166 190.198 103.166Z" fill="#F9B384"/>
<path d="M74.3831 99.8685C71.6609 101.142 69.0085 102.626 66.5131 104.318C66.2339 104.51 65.9547 104.702 65.6755 104.894C65.5185 105.016 65.344 105.121 65.1869 105.243C64.9601 105.4 64.7507 105.557 64.5238 105.714C64.297 105.871 64.0876 106.046 63.8782 106.203C63.6513 106.36 63.4419 106.534 63.2325 106.691C62.6043 107.197 61.9761 107.721 61.3654 108.244L61.3305 108.262C60.9291 108.611 60.5278 108.977 60.1264 109.326C59.5506 109.867 58.9747 110.408 58.4338 110.984C58.4861 111.455 58.7828 111.892 59.2714 111.996C62.552 112.659 64.1923 115.783 66.8272 117.563C68.7816 118.889 71.1025 119.238 73.3186 118.488C70.928 123.548 69.6192 128.556 70.6488 134.21C70.9629 135.92 71.5038 137.578 72.2542 139.166C69.183 136.88 66.2339 132.011 65.0124 127.056C64.8379 126.358 64.1225 125.921 63.4245 126.096C62.7265 126.27 62.2902 126.968 62.4647 127.684C63.9654 133.809 67.8044 139.689 71.783 141.993C72.7253 142.534 73.6851 142.883 74.6448 143.057C75.4301 144.069 76.32 145.012 77.2798 145.849L83.1604 147.489L87.9592 116.516L74.3831 99.8685Z" fill="#8D5500"/>
<path d="M91.4317 120.669C79.2691 115.94 70.8233 110.897 65.9373 107.546C62.7614 105.365 61.156 101.544 61.8016 97.7396L68.0662 61.1993C68.7118 57.4301 71.2072 54.2367 74.7146 52.736C84.7658 48.4259 94.5727 45.9654 103.21 44.7614C103.21 44.7614 108.044 44.3775 114.221 44.9882C118.287 45.3896 127.588 48.1292 133.504 49.9615C136.837 50.991 139.524 53.5038 140.798 56.767C143.276 63.1537 147.307 73.9552 148.58 79.7835C153.013 99.9208 152.297 98.4376 152.297 98.4376L156.887 129.411L108.236 132.134L95.7942 126.462L91.4317 120.669Z" fill="#94CDFC"/>
<path d="M121.533 9.96598C121.533 9.96598 117.223 1.13627 105.776 5.16722C97.487 3.36987 91.1526 13.1768 97.2602 26.5435L108.76 29.2133L121.533 9.96598Z" fill="#152C3F"/>
<path d="M115.426 34.9544V50.5722C115.426 54.2367 112.459 57.2032 108.812 57.2032C103.856 57.2032 99.8428 53.1897 99.8428 48.2339V34.9544H115.426Z" fill="#F9B384"/>
<path d="M115.426 41.4284V49.944C108.481 49.9789 103.856 40.9922 103.856 40.9922L115.426 41.4284Z" fill="#E28B6D"/>
<path d="M122.301 32.9825C121.882 35.1463 121.289 37.3625 120.416 39.3169C118.916 42.7371 116.63 45.3546 113.122 45.4244C104.938 45.5989 98.6213 34.4134 98.6213 34.4134L99.93 19.1447L106.142 12.1647L123.261 22.7394C123.278 22.7394 123.313 27.6952 122.301 32.9825Z" fill="#F9B384"/>
<path d="M99.6508 29.9288C99.6508 29.9288 101.343 23.0535 107.224 18.5863C107.224 18.5863 115.792 29.7717 124.831 24.3622C133.87 18.9527 129.961 8.32569 121.498 9.96599L111.796 8.86664L99.6334 12.7405L97.5568 22.2857L99.6508 29.9288Z" fill="#152C3F"/>
<path opacity="0.4" d="M108.254 109.117C99.9997 91.3005 89.5995 99.7987 87.0693 93.2549C83.5095 84.0936 84.1726 73.7109 84.1551 70.5699L79.1819 98.5422C79.1819 98.5422 90.2801 99.5893 94.3808 106.273L108.254 109.117Z" fill="#183E5E"/>
<path d="M84.3994 70.0987C84.0853 72.4894 83.7189 74.88 83.3524 77.2532C82.986 79.6439 82.5497 81.9996 82.1658 84.3903C81.747 86.7635 81.3108 89.1367 80.8571 91.5099L80.1416 95.0522C79.8799 96.2388 79.653 97.408 79.3738 98.5946L79.0074 98.5248C79.147 97.3207 79.3389 96.1341 79.496 94.9475L80.0369 91.3703C80.4034 88.9971 80.8222 86.6064 81.241 84.2332C81.6772 81.86 82.096 79.4868 82.5672 77.1311C83.0383 74.7579 83.5094 72.4021 84.0329 70.0464L84.3994 70.0987Z" fill="#183E5E"/>
<path d="M132.596 65.6664C133.26 68.7725 133.87 71.8961 134.464 75.0196C135.074 78.1432 135.615 81.2667 136.191 84.3903C136.75 87.5138 137.29 90.6548 137.814 93.7784L138.582 98.4899C138.809 100.06 139.07 101.631 139.28 103.201L138.948 103.254C138.617 101.701 138.303 100.148 137.988 98.5946L137.081 93.918C136.488 90.7944 135.912 87.6709 135.354 84.5473C134.813 81.4238 134.254 78.3002 133.748 75.1592C133.225 72.0182 132.719 68.8947 132.265 65.7537L132.596 65.6664Z" fill="#183E5E"/>
<path opacity="0.4" d="M134.9 80.0976C135.476 85.7688 134.603 115.137 120.94 115.573L121.079 121.978L142.595 120.669L134.9 80.0976Z" fill="#183E5E"/>
<path d="M106.805 114.788C116.508 110.635 118.375 110.792 119.683 110.862C124.151 111.089 130.59 120.023 130.59 120.023L130.485 121.664H105.933L106.805 114.788Z" fill="#E28B6D"/>
<path d="M144.131 120.058H113.925V124.647H144.131V120.058Z" fill="white"/>
<path d="M185.226 124.63H132.719L144.497 77.7244H197.004L185.226 124.63Z" fill="#CECECE"/>
<path d="M189.972 105.452C184.772 104.685 167.985 101.195 133.382 122.274L132.579 125.188L185.226 124.647L189.972 105.452Z" fill="#A3A3A3"/>
<path d="M190.966 115.87C190.635 118.086 190.53 121.332 183.689 120.913L181.665 119.884L183.567 117.79L187.686 115.696L190.966 115.87Z" fill="#F9B384"/>
<path d="M191.612 109.902C191.612 109.902 195.364 114.788 191.594 116.306C187.511 117.947 183.585 117.772 183.585 117.772C185.33 112.869 191.001 113.183 191.001 113.183L191.612 109.902Z" fill="#F9B384"/>
<path d="M191.734 106.744C191.734 106.744 196.899 111.543 192.1 112.886C185.33 114.788 183.236 114.928 183.236 114.928C182.869 111.333 189.605 108.995 189.605 108.995L191.734 106.744Z" fill="#F9B384"/>
<path d="M190.67 102.573C190.67 102.573 197.719 106.866 191.106 109.257C184.492 111.647 182.922 111.612 182.922 111.612C182.555 108.018 189.64 106.779 189.64 106.779L190.67 102.573Z" fill="#F9B384"/>
<path d="M182.922 111.612C182.922 111.612 190.617 110.513 192.903 108.663" stroke="#E28B6D" stroke-width="2.5" stroke-miterlimit="10"/>
<path d="M183.218 114.928C183.218 114.928 191.21 113.794 193.723 112.049" stroke="#E28B6D" stroke-width="2.5" stroke-miterlimit="10"/>
<path d="M183.585 117.772C183.585 117.772 188.331 117.929 191.001 116.62" stroke="#E28B6D" stroke-width="2.5" stroke-miterlimit="10"/>
<path d="M109.091 186.543C109.894 186.106 122.545 188.863 136.575 178.463L118.462 173.298L109.091 186.543Z" fill="#152C3F"/>
<path d="M189.483 126.497C190.094 125.642 190.6 124.368 189.85 123.653C189.065 122.885 187.773 123.566 186.936 124.281C185.47 125.537 184.144 126.916 182.922 128.382L152.35 134.07L110.47 144.244L117.677 153.44C138.617 154.976 150.535 155.359 163.64 153.039C170.323 151.852 176.291 150.648 180.741 147.018C181.805 146.146 182.8 144.697 182.12 143.511C181.648 142.708 180.689 142.499 179.711 142.516C181.945 141.993 184.126 141.225 186.185 140.213C187.11 139.759 188.14 139.079 188.105 138.049C188.087 137.316 187.494 136.688 186.814 136.426C186.133 136.164 185.383 136.182 184.65 136.234C181.858 136.444 179.101 137.054 176.483 138.032C181.265 134.699 186.116 131.244 189.483 126.497ZM176.431 138.066C176.431 138.066 176.431 138.049 176.448 138.049C176.466 138.049 176.483 138.049 176.501 138.032C176.466 138.049 176.448 138.066 176.431 138.066Z" fill="#8D5500"/>
<path d="M119.352 130.493C119.352 130.493 160.15 111.071 173.447 111.944C186.744 112.816 186.325 129.394 181.299 136.601C176.274 143.808 164.495 153.405 121.097 150.561L119.352 130.493Z" fill="#152C3F"/>
<path d="M139.751 210.589C137.535 211.217 134.411 211.356 130.101 210.676C130.101 210.676 124.517 212.124 119.02 213.258C115.303 214.026 111.622 214.654 109.737 214.602C109.58 214.602 109.423 214.585 109.248 214.567C105.636 214.305 101.099 212.438 98.6736 209.734C98.6736 209.734 98.6736 209.716 98.6562 209.716C97.9931 208.966 97.487 208.163 97.2253 207.325C95.9165 203.242 98.6736 198.304 113.663 199.316C113.663 199.316 118.602 198.164 119.771 194.517C120.94 190.888 112.354 173.438 112.354 173.438L124.569 165.149L136.575 178.463C136.575 178.463 138.39 190.469 138.39 194.395C138.39 194.395 143.485 201.672 144.201 204.865C144.672 206.907 143.66 209.489 139.751 210.589Z" fill="#D3DFFF"/>
<path d="M71.0851 100.095C72.4811 99.5544 73.912 99.1181 75.3429 98.7168C76.0583 98.5248 76.7912 98.3329 77.5241 98.1933C77.8906 98.1235 78.2745 98.0537 78.6409 98.0013C78.8329 97.9839 79.0248 97.949 79.2168 97.949C79.4262 97.9316 79.6356 97.949 79.8275 97.9664C81.398 98.1235 82.8115 98.6295 84.2249 99.153C85.6209 99.694 86.9995 100.287 88.3606 100.933C89.7217 101.579 91.0304 102.294 92.3217 103.027C93.613 103.777 94.8869 104.563 96.1258 105.4C98.5863 107.093 100.959 108.96 102.984 111.159L102.722 111.42C101.623 110.426 100.488 109.484 99.3017 108.611C98.1151 107.721 96.9111 106.883 95.6547 106.098C93.1768 104.475 90.5767 103.062 87.9418 101.753C86.6156 101.09 85.2719 100.497 83.9108 99.9558C82.5497 99.4497 81.1363 98.8913 79.7577 98.7168C79.5832 98.6993 79.4262 98.6819 79.2517 98.6819C79.0772 98.6819 78.9027 98.6993 78.7107 98.7168C78.3443 98.7517 77.9953 98.804 77.6288 98.8738C76.9134 98.996 76.1805 99.153 75.465 99.3101C74.0167 99.6416 72.5858 100.026 71.1723 100.462L71.0851 100.095Z" fill="#183E5E"/>
<path d="M78.3443 157.209C83.2477 156.878 88.0814 157.227 91.5714 156.005C95.3231 154.696 105.095 155.569 105.095 155.569L99.7205 147.821L77.908 153.283L78.3443 157.209Z" fill="#B35341"/>
<path d="M78.5537 142.918C73.5281 134.838 73.5281 118.924 79.8624 111.717C87.0867 103.498 102.547 100.375 110.627 109.972C118.706 119.57 133.539 154.696 136.592 178.463C136.592 178.463 120.224 173.001 109.109 186.543C109.109 186.543 94.4855 153.161 91.4318 140.946L83.143 147.49L78.5537 142.918Z" fill="#183E5E"/>
<path d="M91.4318 140.963C91.4318 140.963 89.2505 140.16 86.1968 142.202C86.1968 142.202 62.3426 141.696 57.0378 147.071C51.733 152.445 55.7989 159.652 63.5816 160.455C70.1079 161.118 82.794 156.057 86.6854 154.417C87.4706 154.086 88.3257 153.876 89.1807 153.824L95.6372 153.405L91.4318 140.963Z" fill="#D3DFFF"/>
<path d="M100.942 30.365C100.942 30.365 99.3367 25.0602 95.8292 26.3864C92.3044 27.7126 94.1889 34.6054 101.134 36.5249L100.942 30.365Z" fill="#F9B384"/>
<path d="M97.2078 59.6113C98.9528 60.8328 100.803 61.8973 102.757 62.6302C104.711 63.3631 106.788 63.8342 108.864 63.7819C110.941 63.7644 112.983 63.2409 114.832 62.2986L115.53 61.9496C115.757 61.8275 115.967 61.6704 116.193 61.5308C116.63 61.2342 117.083 60.9724 117.467 60.606L118.078 60.1174L118.392 59.8731C118.497 59.7858 118.584 59.6811 118.671 59.5939C119.038 59.2274 119.422 58.8435 119.806 58.4771L120.067 58.7039C119.718 59.1227 119.369 59.5241 119.02 59.9429C118.933 60.0476 118.846 60.1523 118.759 60.2395L118.462 60.5187L117.869 61.0771C117.485 61.461 117.031 61.7751 116.595 62.0892C116.368 62.2463 116.159 62.4208 115.932 62.5604L115.216 62.9617C113.297 64.0436 111.098 64.6195 108.899 64.6369C106.701 64.6369 104.502 64.1658 102.513 63.3107C100.506 62.4557 98.6561 61.2865 97.0333 59.8731L97.2078 59.6113Z" fill="#183E5E"/>
<path d="M87.8022 127.021L89.6868 133.634C90.3324 135.833 90.9257 138.049 91.6063 140.23C92.2694 142.429 92.915 144.61 93.613 146.791C93.962 147.873 94.2935 148.973 94.6774 150.055C94.8694 150.596 95.0264 151.137 95.2184 151.677C95.4103 152.218 95.6023 152.759 95.7942 153.3L95.4801 153.44C94.9915 152.393 94.5378 151.346 94.1016 150.264C93.6653 149.2 93.2814 148.118 92.8801 147.036C92.1123 144.872 91.4143 142.673 90.7687 140.475C90.1405 138.258 89.5123 136.06 88.9713 133.826C88.4129 131.593 87.8894 129.359 87.4532 127.108L87.8022 127.021Z" fill="#152C3F"/>
<path opacity="0.1" d="M139.751 210.589C137.535 211.217 134.411 211.356 130.101 210.676C130.101 210.676 120.87 213.049 115.024 213.974C121.027 212.77 129.752 205.354 128.775 200.66C137.395 203.504 139.734 207.814 139.751 210.589Z" fill="#183E5E"/>
<path opacity="0.4" d="M116.56 211.409C115.443 212.77 113.785 213.712 112.058 214.166C111.15 214.41 110.208 214.55 109.266 214.567C105.654 214.305 101.117 212.438 98.6911 209.734C98.6911 209.734 98.6911 209.716 98.6736 209.716C98.4119 209.367 98.1676 209.001 97.9582 208.634C99.2495 209.821 100.645 210.798 102.146 211.548C102.897 211.897 103.664 212.246 104.467 212.491C104.851 212.648 105.252 212.735 105.654 212.84C106.055 212.962 106.456 213.014 106.875 213.084C110.138 213.642 113.611 213.311 116.56 211.409Z" fill="#183E5E"/>
<path d="M99.3716 31.1328C99.2843 30.6617 99.0749 30.208 98.7957 29.8066C98.534 29.4053 98.2024 29.0388 97.836 28.7771C97.4695 28.5153 97.0682 28.3932 96.7192 28.5677C96.3702 28.7422 96.0735 29.1784 95.8292 29.6147L95.5849 29.5274C95.6896 29.0039 95.8816 28.4455 96.4225 28.0616C96.6843 27.8697 97.0507 27.8173 97.3648 27.8697C97.6789 27.922 97.9581 28.0616 98.2024 28.2361C98.6736 28.5851 99.0226 29.0388 99.2669 29.5274C99.5112 30.016 99.6857 30.5744 99.6159 31.1328H99.3716Z" fill="#E28B6D"/>
<path d="M120.12 30.9932C119.963 31.7435 119.404 32.267 118.846 32.1623C118.305 32.0576 117.973 31.3422 118.13 30.5919C118.287 29.8415 118.846 29.318 119.404 29.4227C119.963 29.5449 120.277 30.2429 120.12 30.9932Z" fill="#152C3F"/>
<path d="M111.63 30.6568C111.754 29.8958 111.408 29.206 110.856 29.1161C110.304 29.0261 109.757 29.5701 109.632 30.3311C109.508 31.0921 109.855 31.7819 110.407 31.8718C110.958 31.9617 111.506 31.4178 111.63 30.6568Z" fill="#152C3F"/>
<path d="M115.234 31.6912C115.286 32.302 115.304 32.9302 115.321 33.5235C115.338 33.7503 115.461 33.9597 115.653 34.1691C115.844 34.3785 116.071 34.5879 116.281 34.902C116.385 35.0591 116.473 35.251 116.508 35.4255C116.542 35.6175 116.56 35.792 116.542 35.9839C116.508 36.3504 116.385 36.6994 116.141 36.996C116.019 37.1356 115.862 37.2578 115.687 37.3625C115.513 37.4323 115.321 37.4846 115.129 37.4846C114.763 37.4672 114.431 37.3276 114.169 37.1356L114.291 36.9088C114.571 36.996 114.85 37.0658 115.112 37.0309C115.356 36.996 115.548 36.8564 115.687 36.6645C115.949 36.2631 116.002 35.6524 115.74 35.2685C115.6 35.0591 115.391 34.8497 115.164 34.5879C114.955 34.3436 114.745 33.9597 114.763 33.5584C114.815 32.9302 114.885 32.302 114.989 31.6912H115.234Z" fill="#E28B6D"/>
<path d="M108.201 28.0267C108.55 27.6777 108.969 27.3985 109.423 27.1891C109.877 26.9797 110.418 26.875 110.941 26.8925C111.465 26.9274 111.988 27.1193 112.407 27.4334C112.826 27.7475 113.157 28.1314 113.384 28.5677L113.175 28.7247C112.808 28.4106 112.459 28.1314 112.093 27.922C111.709 27.7126 111.307 27.573 110.889 27.5556C110.051 27.4858 109.179 27.8348 108.341 28.2361L108.201 28.0267Z" fill="#152C3F"/>
<path d="M117.083 28.7771C117.223 28.3059 117.607 27.9395 118.043 27.7301C118.479 27.5032 118.951 27.416 119.439 27.416C119.91 27.4334 120.399 27.5556 120.818 27.7999C121.237 28.0442 121.586 28.4106 121.76 28.8469L121.551 28.9865C120.957 28.3932 120.207 28.0965 119.422 28.0791C118.654 28.0616 117.834 28.271 117.328 28.8992L117.083 28.7771Z" fill="#152C3F"/>
<path d="M111.116 39.0203L116.909 39.4391C116.909 39.4391 113.681 43.7143 111.116 39.0203Z" fill="white"/>
<path opacity="0.4" d="M122.301 32.9825C121.882 35.1463 121.289 37.3625 120.416 39.3168C119.282 38.7759 118.497 37.6242 118.497 36.298C118.497 34.4483 119.998 32.9651 121.847 32.9651C122.004 32.9476 122.144 32.9476 122.301 32.9825Z" fill="#EE6F57"/>
<path opacity="0.4" d="M108.872 38.616C110.578 37.8995 111.38 35.9357 110.664 34.2296C109.947 32.5236 107.983 31.7214 106.277 32.4378C104.571 33.1543 103.769 35.1181 104.486 36.8242C105.202 38.5302 107.166 39.3324 108.872 38.616Z" fill="#EE6F57"/>
<path d="M53.952 56.2763V68.9483H3.168V58.8683L29.088 34.3883C31.84 31.7643 33.696 29.5243 34.656 27.6683C35.616 25.7483 36.096 23.8603 36.096 22.0043C36.096 19.3163 35.168 17.2683 33.312 15.8603C31.52 14.3883 28.864 13.6523 25.344 13.6523C22.4 13.6523 19.744 14.2283 17.376 15.3803C15.008 16.4683 13.024 18.1323 11.424 20.3723L0.096 13.0763C2.72 9.1723 6.336 6.1323 10.944 3.9563C15.552 1.7163 20.832 0.596302 26.784 0.596302C31.776 0.596302 36.128 1.4283 39.84 3.0923C43.616 4.6923 46.528 6.9963 48.576 10.0043C50.688 12.9483 51.744 16.4363 51.744 20.4683C51.744 24.1163 50.976 27.5403 49.44 30.7403C47.904 33.9403 44.928 37.5883 40.512 41.6843L25.056 56.2763H53.952Z" fill="#004688"/>
</svg>
