<svg width="378" height="378" viewBox="0 0 378 378" fill="none" xmlns="http://www.w3.org/2000/svg">
<path d="M378 0H0V378H378V0Z" fill="white"/>
<path d="M176.469 315.63C176.356 311.869 176.224 308.108 176.053 304.347C175.713 296.749 175.184 289.132 174.107 281.591C172.311 268.966 167.624 257.74 164.317 245.549C163.013 240.711 161.992 235.816 161.198 230.864C159.743 221.641 159.157 212.38 159.232 203.081C159.308 193.952 159.97 184.748 163.183 176.129C164.921 171.442 166.849 165.564 170.667 162.124C171.272 161.576 172.349 160.99 172.84 160.48C172.84 160.48 172.84 160.48 172.84 160.461C173.029 160.31 173.219 160.178 173.389 160.008C173.521 159.157 173.672 158.326 173.804 157.475C173.823 157.418 173.823 157.343 173.823 157.286C171.858 157.135 169.684 158.552 167.945 159.308C163.825 161.104 159.592 162.635 155.471 164.468C153.581 165.319 151.654 166.207 149.801 167.095C148.006 167.965 146.588 169.458 144.774 170.327C142.752 171.31 140.71 172.293 138.65 173.219C137.101 173.918 135.532 174.598 133.982 175.317C135.097 178.303 136.534 181.176 138.272 183.859C138.216 184.048 138.159 184.237 138.102 184.445C136.571 189.303 133.585 193.498 131.563 198.148C131.071 199.282 130.637 200.454 130.24 201.607C131.166 202.117 131.204 203.251 131.525 204.234C134.152 212.38 129.843 217.086 128.652 224.684C127.707 230.788 129.975 236.288 129.73 242.242C129.559 246.078 127.443 249.367 126.441 252.996C126.006 254.621 125.685 256.284 125.458 257.947C123.247 273.842 119.675 289.643 116.556 305.424C115.819 309.204 115.158 313.287 114.194 317.275C115.195 329.465 115.328 341.939 115.233 354.262H176.337C176.602 348.762 176.809 343.243 176.828 337.724C176.904 330.297 176.696 323.02 176.469 315.63ZM162.975 294.292C162.086 292.327 163.258 289.681 165.545 289.529C166.604 289.454 167.246 289.492 168.134 290.191C170.024 291.665 169.231 294.084 167.908 295.634C166.604 297.184 163.674 295.842 162.975 294.292ZM170.062 331.109C168.758 332.659 165.829 331.336 165.129 329.768C164.241 327.802 165.413 325.156 167.7 325.005C168.758 324.929 169.401 324.967 170.289 325.666C172.179 327.14 171.385 329.541 170.062 331.109Z" fill="#004688"/>
<path d="M130.675 76.016C131.26 76.394 131.298 77.2445 130.788 77.6414C130.183 78.1328 129.484 78.2084 128.747 78.1139C127.726 77.9816 126.668 77.906 125.647 77.8493C124.438 77.7926 123.247 77.7737 122.037 77.7359C121.168 77.6981 119.618 77.8682 118.919 77.2256C118.03 76.4129 118.786 75.6191 119.731 75.4112C120.582 75.2411 121.47 75.4112 122.321 75.449C122.944 75.4679 123.568 75.5057 124.192 75.5246C125.534 75.5624 126.857 75.5435 128.199 75.5624C129.03 75.6002 129.956 75.5624 130.675 76.016Z" fill="#FFA724"/>
<path d="M122.321 56.6245C123.455 56.7001 123.379 57.9475 122.68 58.5145C122.585 58.8925 121.981 59.0059 121.678 59.2327C121.225 59.5729 118.711 61.5196 118.333 61.9354C117.993 62.3134 117.558 62.5024 117.142 62.7859C116.594 63.1828 114.78 64.5625 114.213 63.4852C114.043 63.1639 114.156 62.7481 114.326 62.4646C114.704 61.8409 115.403 61.3873 116.046 61.0471C116.632 60.7447 117.293 60.31 117.709 59.7808C118.106 59.2894 120.658 57.5128 121.13 57.1348C121.47 56.8702 121.867 56.6056 122.321 56.6245Z" fill="#FFA724"/>
<path d="M122.321 96.6359C122.472 97.3163 121.905 97.94 121.243 97.8833C120.469 97.8077 119.92 97.373 119.467 96.7871C118.843 95.9744 118.144 95.1806 117.445 94.4246C116.632 93.5363 115.781 92.6858 114.95 91.7975C114.345 91.1549 113.135 90.191 113.098 89.246C113.041 88.0364 114.137 88.0175 114.95 88.5278C115.687 89.0003 116.178 89.7563 116.764 90.38C117.18 90.8336 117.615 91.3061 118.049 91.7597C118.975 92.7236 119.939 93.6497 120.865 94.6136C121.451 95.1806 122.132 95.8043 122.321 96.6359Z" fill="#FFA724"/>
<path d="M109.658 77.4707C109.941 79.2095 107.938 79.1528 106.653 79.0772C107.031 78.3212 107.503 77.6219 108.165 77.0738C108.788 76.5257 109.507 76.5068 109.658 77.4707Z" fill="#FFA724"/>
<path d="M106.501 100.567C106.501 100.623 106.331 100.548 106.218 100.51C106.029 100.453 105.84 100.378 105.651 100.302C105.216 100.132 104.914 99.9996 104.479 99.8862C102.419 99.3948 100.359 98.6577 98.3556 98.0151H98.2989C98.2989 97.4481 98.3367 96.8622 98.28 96.2763C98.2611 95.9172 98.1288 95.5014 98.1099 95.1045H98.1477C98.1477 95.2935 101.852 96.5598 102.211 96.6732C103.553 97.0701 104.933 97.3536 106.199 97.9773C106.35 98.0529 106.577 98.2608 106.728 98.223H106.804C106.804 99.0168 106.766 99.8106 106.634 100.585L106.501 100.567Z" fill="#DEDEDE"/>
<path d="M106.237 100.51C106.331 100.548 106.52 100.623 106.52 100.567L106.634 100.586C106.596 100.793 106.558 100.982 106.52 101.19C106.369 101.795 106.275 102.4 105.972 102.948C105.878 103.099 105.783 103.25 105.689 103.402L105.67 103.383C105.122 103.156 104.574 102.854 103.988 102.665C102.192 102.079 100.378 101.285 98.6391 100.548H98.4501C98.4501 100.019 98.469 99.4893 98.3934 98.979C98.3556 98.6577 98.3367 98.3364 98.3367 98.0151H98.3934C100.416 98.6577 102.457 99.3948 104.517 99.8862C104.971 99.9996 105.273 100.132 105.689 100.302C105.84 100.378 106.048 100.453 106.237 100.51Z" fill="#DEDEDE"/>
<path d="M100.661 94.1785C100.643 94.1785 100.643 94.1785 100.643 94.1785C100.491 92.0995 99.8487 90.0961 99.5274 88.036C99.1305 85.4467 98.9037 82.7062 97.9965 80.2303C97.8453 79.8334 97.6941 79.4554 97.5051 79.0774C97.6563 79.0585 97.8075 79.0585 97.9209 79.0585C98.4123 79.0396 98.9415 78.8506 99.3951 78.6805C99.9243 78.4915 100.359 78.1324 100.756 77.7733C101.134 77.4331 101.606 77.1118 101.89 76.6771C101.928 76.6204 101.947 76.5826 101.984 76.5259C102.646 77.5087 103.591 78.2647 104.744 78.6805C105.197 78.8506 105.727 79.0207 106.218 79.0585C106.35 79.0585 106.483 79.0774 106.634 79.0774C106.445 79.4554 106.275 79.8523 106.142 80.2303C105.235 82.7062 105.008 85.4467 104.612 88.036C104.328 89.9071 103.667 91.7971 103.648 93.6871C103.648 93.8572 103.667 94.0462 103.685 94.2163C102.684 94.2352 101.663 94.1974 100.661 94.1785Z" fill="#FFA724"/>
<path d="M105.632 103.383L105.651 103.402C105.405 103.742 105.141 104.025 104.819 104.29C104.045 104.914 102.816 105.008 101.871 104.876C100.737 104.725 99.7353 104.025 99.1305 103.062C98.8281 102.57 98.6013 102.022 98.5068 101.455C98.4501 101.153 98.4501 100.85 98.4312 100.548H98.6202C100.359 101.285 102.173 102.079 103.969 102.665C104.536 102.854 105.084 103.175 105.632 103.383Z" fill="#DEDEDE"/>
<path d="M102.684 73.4645C102.703 74.504 102.533 75.6191 101.984 76.5263C101.512 75.827 101.172 74.9954 101.021 74.126C100.888 73.4267 100.888 72.1604 101.625 71.7446C102.381 71.3477 102.684 73.0676 102.684 73.4645Z" fill="#FFA724"/>
<path d="M102.57 48.9322C102.816 49.2346 102.533 49.7827 102.514 50.1607C102.495 50.7277 102.476 53.9029 102.57 54.4699C102.646 54.9802 102.533 55.4149 102.514 55.9252C102.476 56.5867 102.457 58.8736 101.247 58.6657C100.888 58.609 100.643 58.2499 100.51 57.9475C100.246 57.2671 100.321 56.4355 100.454 55.7362C100.567 55.0747 100.643 54.2998 100.491 53.6383C100.34 53.0146 100.529 49.915 100.51 49.3102C100.51 48.8755 100.529 48.403 100.832 48.0628C101.606 47.2123 102.551 48.0439 102.57 48.9322Z" fill="#FFA724"/>
<path d="M100.661 94.1787C100.661 94.1977 100.661 94.2166 100.643 94.2545C100.643 94.2356 100.643 94.2166 100.643 94.1787C100.643 94.1787 100.643 94.1787 100.661 94.1787Z" fill="#8CC295"/>
<path d="M98.6769 94.122L98.4501 94.2354L98.3934 94.0653C98.1099 93.2904 97.8075 92.61 97.335 91.9107C96.2388 90.2286 94.4244 89.4537 92.9313 88.2441C89.3403 85.3146 87.129 80.6841 86.8833 76.0158C86.5053 68.4936 92.232 61.3683 99.9621 61.1982C103.326 61.1226 107.125 61.8408 109.866 63.8631C112.493 65.7909 114.534 68.5314 115.517 71.6688C116.518 74.8818 116.424 78.3783 115.29 81.5535C114.723 83.1411 113.91 84.6342 112.871 85.9761C111.775 87.4125 110.13 88.3008 108.996 89.6616C107.976 90.909 106.539 92.1564 106.407 93.8763L106.388 94.0653L106.294 94.1031C105.443 94.1787 104.574 94.2165 103.685 94.2165C103.685 94.0464 103.648 93.8574 103.648 93.6873C103.666 91.7973 104.328 89.8884 104.611 88.0362C105.008 85.4469 105.235 82.7064 106.142 80.2305C106.294 79.8336 106.445 79.4556 106.634 79.0776C107.9 79.1532 109.903 79.2099 109.639 77.4711C109.488 76.5072 108.769 76.5261 108.146 77.0742C107.503 77.6223 107.012 78.3216 106.634 79.0776C106.483 79.0587 106.331 79.0587 106.218 79.0587C105.727 79.0398 105.197 78.8508 104.744 78.6807C103.591 78.2649 102.646 77.5089 101.984 76.5261C102.532 75.6189 102.703 74.5038 102.684 73.4643C102.684 73.0674 102.381 71.3475 101.625 71.7633C100.888 72.1602 100.888 73.4454 101.02 74.1447C101.172 75.0141 101.512 75.8268 101.984 76.545C101.947 76.6017 101.928 76.6395 101.89 76.6962C101.606 77.1309 101.134 77.4522 100.756 77.7924C100.34 78.1515 99.9054 78.5106 99.3951 78.6996C98.9415 78.8697 98.4123 79.0398 97.9209 79.0776C97.7886 79.0776 97.6563 79.0965 97.5051 79.0965C97.1271 78.3405 96.6546 77.6412 95.9931 77.0931C95.3694 76.545 94.6512 76.5261 94.5 77.49C94.2165 79.2288 96.2199 79.1721 97.5051 79.0965C97.6941 79.4745 97.8642 79.8714 97.9965 80.2494C98.9037 82.7253 99.1305 85.4658 99.5274 88.0551C99.8487 90.1152 100.491 92.1186 100.642 94.1976C99.981 94.1598 99.3195 94.122 98.6769 94.122Z" fill="#FFA724"/>
<path d="M98.1477 95.124H98.1099C98.091 94.8027 98.1666 94.4814 98.4501 94.2357L98.6769 94.1223C99.3195 94.1412 99.9621 94.1601 100.624 94.179C100.624 94.1979 100.624 94.2168 100.624 94.2546C100.643 94.2357 100.643 94.2168 100.643 94.179C101.644 94.2168 102.665 94.2357 103.667 94.2357C104.536 94.2357 105.405 94.1979 106.275 94.1223L106.369 94.0845C106.766 94.3302 106.785 94.9161 106.785 95.3319C106.785 95.8989 106.747 96.4659 106.766 97.0329C106.785 97.4487 106.785 97.8456 106.785 98.2614H106.709C106.558 98.3181 106.331 98.1102 106.18 98.0157C104.914 97.3731 103.534 97.1085 102.192 96.7116C101.852 96.5793 98.1477 95.313 98.1477 95.124Z" fill="#DEDEDE"/>
<path d="M95.9931 77.0738C96.6357 77.6219 97.1271 78.3212 97.5051 79.0772C96.2388 79.1528 94.2354 79.2095 94.5 77.4707C94.6512 76.5068 95.3694 76.5257 95.9931 77.0738Z" fill="#FFA724"/>
<path d="M87.9417 88.5277C88.7544 87.9985 89.8506 88.0363 89.7939 89.2459C89.7372 90.1909 88.5276 91.1548 87.9417 91.7974C87.1101 92.6668 86.2596 93.5362 85.4469 94.4245C84.7665 95.1805 84.0483 95.9743 83.4246 96.787C82.971 97.3729 82.4229 97.8076 81.648 97.8832C80.9865 97.9588 80.4195 97.3162 80.5707 96.6358C80.7597 95.8042 81.4401 95.1805 82.026 94.6135C82.971 93.6685 83.9349 92.7424 84.8421 91.7596C85.2768 91.306 85.6926 90.8335 86.1273 90.3799C86.6943 89.7562 87.2046 89.0002 87.9417 88.5277Z" fill="#FFA724"/>
<path d="M86.2407 63.2205C86.9022 63.9198 87.0723 64.9971 85.8816 65.1672C84.9366 65.2995 83.7648 64.2789 83.0277 63.8064C82.0071 63.1449 81.0243 62.4645 80.0037 61.8408C79.1343 61.2927 78.2271 60.7446 77.3199 60.291C76.6584 59.9508 76.1292 59.4972 75.9024 58.7412C75.7134 58.1174 76.2237 57.4371 76.923 57.456C77.7735 57.4938 78.5106 58.0419 79.191 58.5144C80.3061 59.2704 81.3834 60.0453 82.4985 60.7635C83.0277 61.1037 83.5569 61.4439 84.0861 61.7652C84.8043 62.2377 85.6359 62.5968 86.2407 63.2205Z" fill="#FFA724"/>
<path d="M83.16 75.4298C84.105 75.6188 84.861 76.4126 83.9727 77.2442C83.2734 77.8868 81.7236 77.7166 80.8542 77.7544C79.6446 77.7922 78.435 77.8111 77.2443 77.8678C76.2237 77.9245 75.1653 77.9812 74.1636 78.1324C73.4265 78.2269 72.7272 78.1513 72.1224 77.6599C71.6121 77.2441 71.6499 76.3937 72.2358 76.0346C72.954 75.581 73.8801 75.6188 74.6928 75.6188C76.0347 75.5999 77.3577 75.6377 78.6996 75.581C79.3233 75.5621 79.947 75.5243 80.5707 75.5054C81.4023 75.4487 82.2906 75.2597 83.16 75.4298Z" fill="#FFA724"/>
<path d="M191.967 148.592V148.46C197.486 148.271 203.931 145.076 208.675 141.372L208.769 141.504C208.562 143.092 208.656 144.85 208.543 146.286C208.316 149.083 208.165 151.994 208.373 154.829C205.103 155.018 201.928 155.868 198.526 155.604C194.727 155.301 190.682 154.319 187.148 152.939C184.029 151.729 181.251 149.707 178.605 147.704C176.791 146.343 175.373 144.698 173.823 143.073C173.54 142.79 173.256 142.393 172.954 141.996C174.749 142.997 176.583 143.961 178.454 144.944C180.741 146.135 183.198 146.929 185.693 147.609C187.715 148.176 189.907 148.535 191.967 148.592Z" fill="#E39476"/>
<path d="M168.134 290.172C170.024 291.646 169.231 294.065 167.908 295.615C166.603 297.165 163.674 295.842 162.975 294.273C162.086 292.307 163.258 289.661 165.545 289.51C166.603 289.453 167.246 289.491 168.134 290.172Z" fill="#37628F"/>
<path d="M264.052 354.243H214.042C214.118 346.588 214.213 338.858 213.532 331.261C212.965 324.872 212.606 318.446 212.795 312.039C212.946 306.766 212.512 301.417 212.701 296.125C212.89 290.191 214.175 284.275 214.42 278.322C214.609 273.88 215.365 269.571 216.31 265.224C217.388 260.234 217.312 255.094 218.692 250.123C220.072 245.095 221.527 240.106 222.529 234.965C223.436 230.278 224.003 225.572 224.948 220.903C227.121 210.357 227.178 199.66 225.458 189.038C224.948 185.938 224.74 182.839 223.965 179.777C222.453 173.767 219.731 167.927 215.025 163.75C213.286 162.2 210.924 161.463 209.223 160.027C209.072 159.195 208.883 158.344 208.732 157.494C208.713 157.437 208.713 157.362 208.694 157.305C210.659 157.078 212.871 158.439 214.628 159.138C218.805 160.801 223.096 162.2 227.254 163.901C229.163 164.676 231.128 165.508 232.999 166.339C234.833 167.152 236.288 168.588 238.14 169.42C240.2 170.346 242.26 171.253 244.339 172.104C248.781 173.918 253.26 175.676 257.437 178.095C262.956 181.289 268.153 184.502 272.557 189.246C276.658 193.687 279.928 199.546 282.782 204.857C285.938 210.735 288.301 217.294 290.436 223.587C290.947 225.118 291.703 226.649 292.005 228.237C292.572 231.223 292.761 234.322 293.215 237.328C293.725 240.73 294.179 244.15 294.613 247.571C295.483 254.527 296.163 261.501 296.768 268.475C297.543 277.377 297.448 286.316 298.393 295.199C299.319 303.893 302.721 311.699 304.177 320.242C305.122 325.78 304.025 331.336 303.666 336.874C303.477 339.86 304.574 342.733 304.536 345.7C304.498 348.554 303.742 351.351 303.647 354.224H264.052V354.243Z" fill="#004688"/>
<path d="M101.984 195.029C101.682 193.612 101.493 192.194 101.228 190.758C100.945 189.246 100.605 187.734 100.265 186.222C98.8281 179.928 97.7508 174.069 99.7353 167.756C101.512 162.086 104.612 156.908 105.953 151.105C106.88 147.118 106.653 143.13 106.539 139.066C106.369 134.095 106.634 129.106 106.672 124.135C106.691 120.658 106.294 115.592 109.733 113.476C110.716 112.871 111.302 112.871 112.361 113.343C115.347 114.685 115.914 119.108 116.027 121.924C116.386 129.843 116.084 137.724 116.065 145.643C116.065 146.078 116.141 146.343 116.159 146.721C117.256 146.683 118.352 146.796 119.372 147.118C123.984 148.516 127.121 152.617 129.956 156.322C130.599 153.619 132.111 150.331 134.927 149.386C135.797 149.102 136.534 148.894 137.384 149.215C138.688 149.688 139.879 150.501 140.503 151.767C141.845 154.507 140.465 157.909 139.86 160.669C139.444 162.559 138.934 164.43 138.953 166.414C138.953 168.569 139.312 170.705 139.369 172.859C139.406 174.617 139.406 176.375 139.274 178.132C139.123 180.268 138.764 182.385 138.121 184.426C136.59 189.283 133.604 193.479 131.582 198.129C131.09 199.263 130.656 200.434 130.259 201.587C129.049 204.933 127.877 208.183 124.835 210.527C120.809 213.608 115.422 212.606 111.34 210.206C109.11 208.902 107.125 207.163 105.538 205.141C104.649 204.007 104.347 203.213 104.082 201.833C103.742 200.038 102.873 198.337 102.381 196.598C102.23 196.05 102.098 195.539 101.984 195.029Z" fill="#F5B49B"/>
<path d="M202.835 116.708C203.78 119.032 201.72 121.659 200.189 123.247C197.637 125.874 194.292 127.405 190.569 126.914C188.471 126.649 186.808 126.176 185.031 125.005C183.425 123.946 181.894 122.68 180.741 121.111C179.834 119.883 179.134 117.671 180.136 116.311C180.968 115.177 182.574 114.78 183.935 114.931C185.182 115.063 186.448 115.082 187.696 115.158C188.868 115.233 190.021 115.196 191.192 115.139C192.723 115.063 194.254 115.139 195.766 114.95C197.146 114.761 198.507 114.194 199.905 114.496C201.19 114.78 202.306 115.422 202.835 116.708Z" fill="white"/>
<path d="M143.621 98.4313C143.413 96.9193 143.243 95.4073 143.054 93.9142C142.865 92.2699 142.714 90.5878 142.204 89.0002C141.183 85.8061 139.198 83.0089 138.121 79.8526C137.611 78.3595 137.327 77.0176 137.346 75.43C137.365 73.7101 137.592 72.0091 137.743 70.2892C137.989 67.4164 138.594 64.6003 139.255 61.822C140.143 58.1554 141.466 54.3565 141.07 50.5387C141.032 50.104 140.956 49.6504 140.918 49.2157C140.559 46.3429 141.523 44.2072 142.846 41.7313C144.887 37.9135 147.911 34.3603 151.805 32.3191C156.076 30.07 161.293 29.314 165.753 27.3862C167.662 26.5546 169.514 25.5529 171.272 24.4189C171.99 23.9464 172.538 23.3605 173.294 22.9636C174.428 22.3777 175.657 21.8863 176.828 21.376C178.246 20.7712 179.739 20.2987 181.251 20.0341C185.863 19.2214 190.833 19.486 195.331 20.7901C199.735 22.0564 204.309 24.7591 205.405 29.5408C205.689 30.7693 206.615 30.6559 207.73 30.6559C211.037 29.8999 214.591 30.6559 217.52 32.2624C221.81 34.606 223.247 38.6884 225.553 42.6574C227.594 46.1917 230.467 49.1401 232.961 52.3342C236.155 56.3977 238.575 60.9904 237.781 66.3013C237.422 68.7772 237.025 71.1019 237.1 73.5967C237.176 76.1293 235.966 78.9832 235.343 81.4213C234.927 82.99 234.776 84.691 234.171 86.1841C232.697 89.7184 232.451 93.4606 232.621 97.2217C232.64 97.4863 232.64 97.7698 232.659 98.0533C232.716 98.9416 232.64 100.17 232.583 101.077C232.527 101.814 232.47 102.495 232.205 103.175C231.997 103.761 231.487 104.687 230.769 104.782C228.406 105.122 228.86 98.2801 228.822 97.0138C228.709 92.8558 227.972 88.1875 225.571 84.6721C224.324 82.8388 223.568 80.533 223.058 78.3784C222.491 75.997 222.34 73.7479 222.34 71.3287C222.34 67.5487 222.623 63.7309 220.582 60.2911C218.73 57.1537 214.931 55.7551 211.453 55.4905C210.622 55.4338 210.092 55.4716 209.28 55.4338C203.666 55.0936 198.129 55.4905 192.912 57.6829C191.268 58.3822 189.454 58.6657 187.677 58.6279C183.103 58.5523 178.775 56.719 174.334 55.7929C172.141 55.3393 170.081 55.2259 167.87 55.3771C165.583 55.5283 163.296 55.6795 161.387 57.1348C159.667 58.4578 158.495 60.3478 157.834 62.389C157.38 63.8065 157.116 65.2618 156.964 66.736C156.775 68.5882 157.305 70.3459 157.153 72.1603C156.889 75.3544 156.303 78.3973 154.753 81.2323C154.356 81.9694 154.073 82.7632 153.751 83.5192C153.449 84.2185 152.977 84.7288 152.58 85.3525C151.672 86.7322 150.671 88.0552 150.047 89.5861C148.611 93.0826 149.518 96.9193 149.575 100.567C149.593 102.06 149.575 103.667 148.611 104.895C147.609 106.161 146.248 105.802 145.284 104.668C144.283 103.497 144.169 101.985 143.905 100.529C143.829 99.7921 143.716 99.1117 143.621 98.4313Z" fill="#1E244A"/>
<path d="M208.675 157.324C208.694 157.381 208.694 157.456 208.713 157.513C208.656 157.475 208.58 157.475 208.562 157.343C208.599 157.324 208.637 157.324 208.675 157.324Z" fill="#8CC295"/>
<path d="M210.433 93.1392C210.697 94.4622 210.263 95.8797 209.525 96.9948C208.713 98.2233 206.917 98.3745 205.575 98.0154C202.589 97.2027 201.72 93.6684 203.799 91.4571C204.914 90.2664 206.804 89.4348 208.354 90.2475C209.318 90.7578 210.225 92.0808 210.433 93.1392Z" fill="#2B1A0F"/>
<path d="M170.289 325.666C172.179 327.14 171.385 329.559 170.062 331.109C168.758 332.659 165.829 331.336 165.129 329.767C164.241 327.801 165.413 325.155 167.7 325.004C168.758 324.929 169.401 324.966 170.289 325.666Z" fill="#37628F"/>
<path d="M131.544 204.196C134.171 212.342 129.862 217.048 128.671 224.645C127.726 230.75 129.994 236.25 129.749 242.204C129.578 246.04 127.462 249.329 126.46 252.958C126.025 254.583 125.704 256.246 125.477 257.909C123.266 273.804 119.694 289.605 116.575 305.386C115.838 309.166 115.177 313.249 114.213 317.237C112.984 322.302 111.227 327.216 108.07 331.166C100.586 340.578 82.593 344.226 73.0863 335.551C67.4163 330.372 65.2239 322.132 64.4679 314.761C62.748 298.412 67.6809 280.892 73.143 265.677C75.0519 260.348 77.6412 255.301 79.5879 249.99C81.4212 244.963 82.6497 240.011 83.1789 234.7C83.5569 230.958 84.4452 227.291 86.2407 223.946C88.3386 220.034 91.9863 217.218 93.2715 212.852C95.0292 206.898 93.8952 200.019 99.9621 196.182C100.643 195.747 101.417 195.539 101.947 195.01C102.06 195.521 102.173 196.031 102.325 196.541C102.835 198.28 103.704 200 104.026 201.776C104.271 203.137 104.574 203.95 105.481 205.084C107.069 207.106 109.053 208.845 111.283 210.149C115.366 212.549 120.752 213.57 124.778 210.47C127.84 208.127 129.011 204.876 130.202 201.531C131.204 202.079 131.242 203.213 131.544 204.196Z" fill="#004688"/>
<path d="M172.803 157.626C172.803 157.494 172.803 157.361 172.822 157.229C172.935 154.564 172.992 151.88 172.841 149.215C172.765 147.873 172.633 146.55 172.444 145.227C172.368 144.66 172.179 144.112 172.085 143.583C171.99 143.092 172.122 142.317 171.782 141.901L172.028 141.466C172.349 141.655 172.67 141.825 172.992 142.014C173.294 142.411 173.597 142.789 173.861 143.092C175.411 144.717 176.828 146.361 178.643 147.722C181.289 149.726 184.067 151.729 187.186 152.958C190.72 154.337 194.765 155.32 198.563 155.622C201.947 155.887 205.122 155.055 208.41 154.848C208.448 155.339 208.486 155.83 208.543 156.303C208.58 156.643 208.637 156.983 208.694 157.323C208.656 157.323 208.618 157.323 208.58 157.342C208.599 157.494 208.656 157.475 208.732 157.512C208.883 158.363 209.072 159.195 209.223 160.045C209.431 161.198 209.601 162.351 209.525 163.56C209.412 165.791 208.788 167.964 207.806 169.949C205.84 173.88 202.419 177.15 198.299 178.756C197.486 179.077 196.692 179.436 195.861 179.72C194.387 180.23 192.704 180.438 191.136 180.363C189.567 180.287 187.885 179.966 186.373 179.569C183.84 178.888 181.724 178.208 179.569 176.62C176.318 174.239 173.804 170.761 172.803 166.849C172.406 165.318 172.387 164.127 172.67 162.634C172.803 161.935 172.841 161.217 172.841 160.499C172.859 159.516 172.784 158.552 172.803 157.626Z" fill="#F5B49B"/>
<path d="M213.948 78.2274C214.572 79.2669 213.986 80.3631 212.852 80.5332C211.793 80.6844 210.754 80.2308 209.771 79.8906C209.317 79.7394 208.845 79.5504 208.391 79.437C207.824 79.3047 207.276 79.4748 206.709 79.4559C205.084 79.3992 203.647 80.0229 202.117 80.5143C201.72 80.6466 201.19 80.6844 200.794 80.4576C199.395 79.6638 200.491 78.2841 201.323 77.547C201.909 77.0178 202.438 76.6965 203.175 76.4319C204.12 76.0728 205.197 75.6759 206.199 75.5247C207.068 75.3924 207.957 75.3357 208.826 75.4302C210.622 75.6192 212.984 76.6398 213.948 78.2274Z" fill="#1E244A"/>
<path d="M177.962 78.2274C178.605 79.2669 178 80.3631 176.866 80.5332C175.808 80.6844 174.768 80.2308 173.785 79.8906C173.332 79.7394 172.859 79.5504 172.406 79.437C171.839 79.3047 171.291 79.4748 170.724 79.4559C169.098 79.3992 167.662 80.0229 166.131 80.5143C165.734 80.6466 165.205 80.6844 164.808 80.4576C163.409 79.6638 164.506 78.2841 165.337 77.547C165.923 77.0178 166.452 76.6965 167.189 76.4319C168.134 76.0728 169.212 75.6759 170.213 75.5247C171.083 75.3924 171.971 75.3357 172.84 75.4302C174.617 75.6192 176.98 76.6398 177.962 78.2274Z" fill="#1E244A"/>
<path d="M174.976 93.1392C175.241 94.4622 174.806 95.8797 174.069 96.9948C173.256 98.2233 171.461 98.3745 170.119 98.0154C167.152 97.2027 166.263 93.6684 168.342 91.4571C169.457 90.2664 171.347 89.4348 172.897 90.2475C173.88 90.7578 174.787 92.0808 174.976 93.1392Z" fill="#2B1A0F"/>
<path d="M172.973 142.014C172.652 141.825 172.33 141.655 172.009 141.466C170.157 140.408 168.361 139.274 166.585 138.026C163.088 135.55 159.346 132.715 156.776 129.257C155.245 127.216 153.676 125.25 152.069 123.247C150.652 121.47 149.726 119.353 148.346 117.539C146.891 115.611 145.228 115.309 143.205 114.156C141.126 112.984 139.199 111.377 137.8 109.431C137.252 108.675 136.685 108.108 136.307 107.238C135.891 106.312 135.494 105.405 135.23 104.422C134.719 102.438 134.681 100.321 135.475 98.412C136.137 96.8433 137.743 95.6526 139.425 95.4825C141.674 95.2557 142.449 96.9 143.621 98.4309C143.716 99.1113 143.81 99.7917 143.942 100.472C144.188 101.927 144.302 103.439 145.322 104.611C146.286 105.745 147.647 106.085 148.649 104.838C149.631 103.609 149.631 102.003 149.612 100.51C149.556 96.8622 148.667 93.0444 150.085 89.529C150.709 87.9981 151.71 86.6562 152.618 85.2954C153.033 84.6717 153.487 84.1614 153.789 83.4621C154.13 82.7061 154.394 81.9123 154.791 81.1752C156.341 78.3402 156.927 75.2973 157.191 72.1032C157.343 70.2699 156.813 68.5122 157.002 66.6789C157.154 65.2047 157.399 63.7305 157.872 62.3319C158.533 60.2907 159.705 58.4007 161.425 57.0777C163.315 55.6224 165.621 55.4712 167.908 55.32C170.119 55.1688 172.179 55.2822 174.371 55.7358C178.813 56.6619 183.141 58.4952 187.715 58.5708C189.491 58.6086 191.306 58.3251 192.95 57.6258C198.167 55.4334 203.704 55.0365 209.318 55.3767C210.13 55.4334 210.659 55.3767 211.491 55.4334C214.969 55.698 218.768 57.0777 220.62 60.234C222.642 63.6738 222.377 67.4916 222.377 71.2716C222.377 73.7097 222.529 75.9399 223.096 78.3213C223.606 80.4759 224.362 82.7817 225.609 84.615C228.01 88.1493 228.747 92.7987 228.86 96.9567C228.898 98.223 228.444 105.065 230.807 104.725C231.525 104.611 232.035 103.704 232.243 103.118C232.489 102.419 232.565 101.757 232.621 101.02C232.697 100.113 232.753 98.8845 232.697 97.9962C232.678 97.7127 232.659 97.4481 232.659 97.1646H232.772C234.776 94.1784 239.085 95.7282 240.276 98.5821C241.088 100.548 241.069 102.74 240.521 104.781C240.257 105.802 239.841 106.747 239.406 107.692C239.009 108.58 238.424 109.166 237.856 109.941C236.42 111.944 234.417 113.608 232.281 114.817C230.712 115.705 229.03 116.424 227.424 117.255L227.31 117.199C225.269 121.867 222.737 126.705 219.599 130.485C217.142 133.453 214.156 136.363 211.378 139.028C210.565 139.803 209.658 140.578 208.694 141.353C203.95 145.038 197.505 148.251 191.986 148.44V148.573C189.926 148.516 187.734 148.157 185.711 147.609C183.217 146.928 180.76 146.134 178.473 144.944C176.602 143.98 174.768 143.016 172.973 142.014ZM212.871 80.5326C214.005 80.3625 214.591 79.2663 213.967 78.2268C212.984 76.6392 210.622 75.6186 208.845 75.4296C207.976 75.3351 207.087 75.3918 206.218 75.5241C205.216 75.6753 204.139 76.0722 203.194 76.4313C202.457 76.7148 201.928 77.0361 201.342 77.5464C200.51 78.3024 199.414 79.6632 200.813 80.457C201.228 80.6838 201.739 80.646 202.136 80.5137C203.648 80.0223 205.103 79.3986 206.728 79.4553C207.295 79.4742 207.843 79.3041 208.41 79.4364C208.864 79.5498 209.336 79.7388 209.79 79.89C210.773 80.2302 211.793 80.6838 212.871 80.5326ZM209.525 96.9945C210.263 95.8794 210.678 94.4808 210.433 93.1389C210.225 92.0805 209.336 90.7575 208.373 90.2472C206.823 89.4156 204.933 90.2661 203.818 91.4568C201.739 93.6681 202.608 97.2024 205.594 98.0151C206.917 98.3742 208.713 98.2041 209.525 96.9945ZM200.17 123.247C201.701 121.659 203.761 119.032 202.816 116.707C202.287 115.422 201.172 114.798 199.886 114.515C198.469 114.212 197.127 114.779 195.747 114.968C194.235 115.157 192.704 115.082 191.174 115.157C190.002 115.214 188.849 115.252 187.677 115.176C186.43 115.082 185.163 115.063 183.916 114.949C182.574 114.817 180.968 115.195 180.117 116.329C179.115 117.69 179.815 119.92 180.722 121.13C181.875 122.68 183.387 123.946 185.012 125.023C186.789 126.195 188.452 126.667 190.55 126.932C194.273 127.386 197.618 125.874 200.17 123.247ZM176.866 80.5326C178 80.3625 178.586 79.2663 177.962 78.2268C176.999 76.6392 174.617 75.6186 172.841 75.4296C171.971 75.3351 171.083 75.3918 170.213 75.5241C169.231 75.6753 168.134 76.0722 167.189 76.4313C166.452 76.7148 165.923 77.0361 165.337 77.5464C164.506 78.3024 163.409 79.6632 164.808 80.457C165.224 80.6838 165.734 80.646 166.131 80.5137C167.662 80.0223 169.098 79.3986 170.724 79.4553C171.291 79.4742 171.839 79.3041 172.406 79.4364C172.859 79.5498 173.332 79.7388 173.786 79.89C174.768 80.2302 175.808 80.6838 176.866 80.5326ZM174.069 96.9945C174.806 95.8794 175.241 94.4808 174.976 93.1389C174.768 92.0805 173.861 90.7575 172.916 90.2472C171.366 89.4156 169.476 90.2661 168.361 91.4568C166.282 93.6681 167.152 97.2024 170.138 98.0151C171.461 98.3742 173.256 98.2041 174.069 96.9945Z" fill="#F5B49B"/>
<path d="M96.201 68.2102C95.2371 68.626 94.1787 69.4009 93.9897 70.2514C93.8952 70.705 94.0275 71.1964 93.9141 71.6689C93.7062 72.4249 92.8935 72.8029 92.2887 73.3321C91.287 74.2204 90.9279 75.7324 91.4004 76.9609C91.7784 77.9437 92.6289 78.7563 92.7423 79.8147C92.8368 80.703 92.4021 81.7614 93.0069 82.4229C93.5172 82.9899 94.4244 82.8576 95.1426 83.1222C96.0687 83.4624 96.6168 84.4452 97.5051 84.8421C98.7903 85.428 100.265 84.6342 101.701 84.5775C102.57 84.5397 103.402 84.7665 104.252 84.8799C105.103 84.9744 106.048 84.9366 106.728 84.4074C107.484 83.8404 107.749 82.8387 108.316 82.0827C108.864 81.3456 109.677 80.8353 110.395 80.2494C111.113 79.6635 111.775 78.8886 111.85 77.9625C111.945 76.7151 110.943 75.6567 110.584 74.4471C110.357 73.6533 110.395 72.8217 110.3 71.9901C110.225 71.2153 109.96 70.2136 109.166 69.9112C108.732 69.7411 108.259 69.7411 107.806 69.6277C106.388 69.2686 105.424 67.8889 104.082 67.3408C103.213 66.9817 102.23 66.9628 101.304 67.1518C100.435 67.3219 99.5463 67.8889 98.658 67.9078C97.7697 67.9456 97.0326 67.8511 96.201 68.2102Z" fill="white"/>
<path d="M182.763 341.788C182.101 339.784 182.139 337.743 181.78 335.645C180.93 330.618 180.363 325.534 179.909 320.45C179.701 318.03 179.833 315.309 179.285 312.946C178.851 311.056 178.737 309.28 178.624 307.333C178.076 297.959 176.45 288.66 173.823 279.645C173.937 280.287 174.031 280.949 174.126 281.61C175.146 288.849 175.676 296.163 176.035 303.459C176.054 303.761 176.072 304.063 176.072 304.366C176.242 308.127 176.375 311.888 176.488 315.649C176.715 323.039 176.923 330.315 176.904 337.724C176.885 343.243 176.677 348.743 176.413 354.262H184.464C184.332 352.599 184.124 350.954 183.878 349.31C183.538 346.891 183.519 344.094 182.763 341.788Z" fill="#EDEDED"/>
<path d="M225.42 189.038C224.91 185.938 224.702 182.839 223.927 179.777C222.415 173.767 219.694 167.927 214.987 163.75C213.249 162.2 210.886 161.463 209.185 160.026C209.393 161.179 209.563 162.332 209.488 163.542C209.374 165.772 208.75 167.945 207.768 169.93C205.802 173.861 202.381 177.131 198.261 178.737C197.448 179.059 196.654 179.418 195.823 179.701C194.349 180.212 192.667 180.419 191.098 180.344C189.529 180.268 187.847 179.947 186.335 179.55C183.802 178.87 181.686 178.189 179.531 176.602C176.28 174.22 173.767 170.743 172.765 166.83C172.368 165.299 172.349 164.109 172.633 162.616C172.765 161.916 172.803 161.198 172.803 160.48C172.311 160.99 171.234 161.595 170.629 162.124C166.811 165.564 164.884 171.442 163.145 176.129C159.951 184.748 159.289 193.971 159.195 203.081C159.119 212.398 159.705 221.659 161.16 230.864C161.935 235.796 162.975 240.71 164.279 245.549C167.397 257.097 171.782 267.794 173.767 279.644C176.413 288.66 178.019 297.959 178.567 307.333C178.681 309.28 178.813 311.075 179.229 312.946C179.777 315.309 179.644 318.03 179.852 320.45C180.306 325.534 180.873 330.618 181.723 335.645C182.083 337.743 182.026 339.765 182.706 341.788C183.481 344.093 183.481 346.891 183.821 349.291C184.048 350.935 184.275 352.598 184.407 354.243H192.194H214.005C214.08 346.588 214.175 338.858 213.494 331.26C212.927 324.872 212.568 318.446 212.757 312.039C212.908 306.766 212.474 301.417 212.663 296.125C212.852 290.191 214.137 284.275 214.383 278.321C214.572 273.88 215.328 269.571 216.273 265.224C217.35 260.234 217.274 255.093 218.654 250.123C220.034 245.095 221.489 240.106 222.491 234.965C223.398 230.278 223.965 225.572 224.91 220.903C227.102 210.357 227.159 199.679 225.42 189.038Z" fill="#FFFBF2"/>
<path d="M196.409 53.2414C196.276 53.2414 196.144 53.1847 196.031 53.0902C195.823 52.8823 195.823 52.5421 196.031 52.3342C199.886 48.4219 201.682 43.2622 202.91 38.7451C202.986 38.4616 203.288 38.2915 203.553 38.3671C203.836 38.4427 204.007 38.7451 203.931 39.0097C201.663 47.3068 199.055 50.7655 196.787 53.0524C196.673 53.1847 196.541 53.2414 196.409 53.2414Z" fill="black"/>
<path d="M204.933 53.4493C204.706 53.4493 204.517 53.317 204.422 53.0902C204.328 52.8067 204.479 52.5043 204.744 52.4098C207.56 51.427 210.092 49.9528 212.266 48.0439C212.493 47.8549 212.814 47.8738 213.022 48.1006C213.211 48.3274 213.192 48.6487 212.965 48.8566C210.678 50.86 208.032 52.3909 205.084 53.4304C205.046 53.4304 204.989 53.4493 204.933 53.4493Z" fill="black"/>
<path d="M180.552 48.2896C180.306 48.2896 180.079 48.1195 180.041 47.8738C178.851 42.3361 175.751 38.1592 171.536 36.4015C171.272 36.2881 171.139 35.9857 171.253 35.7022C171.366 35.4376 171.669 35.3053 171.952 35.4187C176.488 37.3276 179.815 41.7691 181.081 47.647C181.138 47.9305 180.967 48.214 180.665 48.2707C180.627 48.2896 180.589 48.2896 180.552 48.2896Z" fill="black"/>
<path d="M162.672 48.0439C162.578 48.0439 162.502 48.025 162.408 47.9683C159.195 46.1917 156.133 45.4924 153.26 45.8893C152.977 45.9271 152.693 45.7192 152.655 45.4357C152.617 45.1522 152.825 44.8687 153.109 44.8309C156.208 44.3962 159.497 45.1333 162.918 47.0422C163.183 47.1934 163.258 47.5147 163.126 47.7604C163.05 47.9494 162.861 48.0439 162.672 48.0439Z" fill="black"/>
<path d="M192.137 107.976C191.57 107.976 190.984 107.844 190.38 107.579C189.321 107.126 188.546 106.634 187.942 106.029C187.734 105.821 187.734 105.481 187.923 105.273C188.131 105.065 188.471 105.065 188.679 105.254C189.189 105.765 189.869 106.181 190.795 106.577C191.419 106.842 191.986 106.937 192.496 106.861C192.874 106.804 193.271 106.672 193.649 106.502C194.16 106.275 195.691 105.557 194.67 102.268C194.33 101.172 193.952 100.095 193.574 99.0364C193.234 98.0725 192.874 97.0708 192.553 96.0691C192.364 95.4832 192.326 94.9351 192.27 94.387C192.251 94.1224 192.232 93.8767 192.194 93.631C191.929 91.7032 192.1 89.6998 192.307 87.8287C192.345 87.5452 192.61 87.3373 192.893 87.3562C193.177 87.394 193.385 87.6586 193.366 87.9421C193.158 89.7376 192.988 91.6465 193.234 93.4609C193.271 93.7444 193.29 94.009 193.328 94.2736C193.366 94.7839 193.423 95.2564 193.555 95.7289C193.857 96.7117 194.216 97.6945 194.557 98.6584C194.935 99.7357 195.331 100.832 195.672 101.947C196.73 105.406 195.388 106.861 194.065 107.466C193.593 107.693 193.101 107.844 192.629 107.919C192.496 107.957 192.326 107.976 192.137 107.976Z" fill="#AB684D"/>
<path d="M145.228 111.227C145.039 111.227 144.85 111.113 144.755 110.924C144.472 110.376 143.961 110.017 143.413 109.658C142.771 109.223 142.052 108.732 141.693 107.862C141.334 106.974 141.58 106.18 141.807 105.5C141.901 105.197 141.996 104.914 142.034 104.63C142.071 104.347 141.977 104.101 141.863 103.761C141.807 103.61 141.75 103.44 141.693 103.27C141.542 102.703 141.391 102.362 141.07 102.098C140.219 101.399 139.463 101.058 138.934 101.134C138.65 101.172 138.424 101.323 138.216 101.606C138.046 101.852 137.724 101.909 137.479 101.739C137.233 101.569 137.176 101.247 137.346 101.002C137.724 100.472 138.197 100.151 138.783 100.076C139.633 99.9621 140.616 100.359 141.731 101.266C142.336 101.758 142.544 102.381 142.714 102.986C142.752 103.118 142.808 103.251 142.846 103.402C142.997 103.799 143.149 104.234 143.073 104.782C143.016 105.141 142.922 105.481 142.808 105.802C142.619 106.426 142.468 106.917 142.676 107.465C142.903 108.032 143.413 108.373 143.999 108.77C144.604 109.185 145.303 109.658 145.7 110.452C145.832 110.716 145.719 111.038 145.454 111.17C145.398 111.208 145.303 111.227 145.228 111.227Z" fill="#AB684D"/>
<path d="M231.053 111.85C230.977 111.85 230.882 111.831 230.807 111.794C230.542 111.661 230.448 111.34 230.561 111.075C230.977 110.263 231.676 109.771 232.319 109.355C232.924 108.94 233.453 108.581 233.68 108.014C233.906 107.447 233.736 106.917 233.547 106.294C233.434 105.953 233.339 105.613 233.283 105.235C233.207 104.668 233.358 104.215 233.51 103.818C233.566 103.667 233.604 103.534 233.642 103.402C233.812 102.778 234.02 102.136 234.644 101.644C235.778 100.718 236.798 100.302 237.668 100.416C238.253 100.491 238.764 100.813 239.142 101.361C239.312 101.606 239.255 101.928 239.009 102.098C238.764 102.268 238.442 102.211 238.272 101.966C238.064 101.663 237.819 101.493 237.516 101.455C236.968 101.38 236.174 101.739 235.305 102.457C234.965 102.74 234.814 103.081 234.662 103.685C234.606 103.874 234.549 104.026 234.492 104.196C234.379 104.536 234.266 104.801 234.322 105.084C234.36 105.386 234.455 105.67 234.549 105.991C234.776 106.709 235.022 107.503 234.662 108.429C234.303 109.318 233.585 109.79 232.905 110.263C232.338 110.641 231.79 111.019 231.506 111.586C231.431 111.737 231.242 111.85 231.053 111.85Z" fill="#AB684D"/>
<path d="M128.199 173.54C128.085 173.54 127.991 173.521 127.896 173.483C127.859 173.464 127.859 173.464 127.84 173.464C127.556 173.446 127.329 173.181 127.348 172.897C127.367 172.614 127.632 172.387 127.915 172.406C128.048 172.425 128.142 172.444 128.199 172.463C128.255 172.444 128.293 172.444 128.35 172.444C129.767 172.557 130.996 170.8 131.431 169.666C132.168 167.794 132.376 165.621 132.035 163.202C131.752 161.161 131.393 159.044 130.278 157.626C130.07 157.362 129.862 157.078 129.654 156.814C129.484 156.587 129.522 156.247 129.749 156.076C129.975 155.906 130.316 155.944 130.486 156.171C130.694 156.436 130.901 156.719 131.109 156.984C132.376 158.628 132.773 160.896 133.075 163.069C133.434 165.659 133.207 168.021 132.395 170.062C132.054 170.913 131.506 171.745 130.901 172.368C130.108 173.162 129.219 173.559 128.35 173.521C128.312 173.521 128.255 173.54 128.199 173.54Z" fill="#AB684D"/>
<path d="M109.79 149.499C109.62 149.499 109.469 149.424 109.374 149.292C109.204 149.065 109.242 148.725 109.488 148.554C111.226 147.25 113.4 146.419 115.611 146.23C115.895 146.211 116.159 146.419 116.178 146.721C116.197 147.024 115.989 147.269 115.687 147.288C113.665 147.458 111.68 148.214 110.111 149.405C110.017 149.481 109.903 149.499 109.79 149.499Z" fill="#AB684D"/>
<path d="M120.62 181.61C119.902 181.61 119.221 181.421 118.749 180.892C118.711 180.854 118.579 180.797 118.503 180.759C118.219 180.627 117.728 180.4 117.69 179.852C117.671 179.569 117.879 179.304 118.182 179.285C118.446 179.266 118.692 179.436 118.749 179.701C118.805 179.739 118.9 179.777 118.957 179.814C119.146 179.909 119.372 180.003 119.542 180.192C120.336 181.043 122.585 180.268 123.568 179.625C126.309 177.792 128.293 173.256 126.554 168.437C126.346 167.87 125.95 167.284 125.553 166.736C125.401 166.528 125.25 166.301 125.099 166.074C122.793 162.559 120.506 160.536 118.314 160.064C115.97 159.573 113.343 159.969 111.982 160.253C111.699 160.31 111.415 160.121 111.359 159.837C111.302 159.554 111.491 159.27 111.775 159.213C113.211 158.911 116.008 158.495 118.541 159.043C121.054 159.573 123.474 161.689 125.987 165.507C126.12 165.715 126.271 165.923 126.422 166.131C126.857 166.736 127.31 167.359 127.556 168.078C128.992 172.047 128.274 177.754 124.154 180.495C123.398 180.967 121.924 181.61 120.62 181.61Z" fill="#AB684D"/>
<path d="M113.476 187.242C112.512 187.242 111.604 186.789 110.924 185.919C110.376 185.201 110.017 184.332 109.96 183.557C109.941 183.217 109.96 182.895 109.998 182.555C110.036 182.045 110.092 181.572 109.922 181.213C109.488 180.287 108.694 179.645 107.862 178.964L107.579 178.737C107.352 178.548 107.314 178.208 107.503 177.981C107.692 177.755 108.032 177.717 108.259 177.906L108.524 178.133C109.412 178.851 110.338 179.607 110.867 180.76C111.151 181.383 111.094 182.064 111.037 182.65C111.019 182.952 110.981 183.217 111 183.462C111.037 184.029 111.321 184.729 111.737 185.258C112.531 186.279 113.702 186.449 114.817 185.712C116.764 184.407 117.558 181.686 117.634 179.588C117.671 178.511 117.52 177.339 117.142 176.129C116.745 174.863 115.706 173.805 114.704 172.784L114.458 172.538C113.268 171.329 111.964 170.459 110.584 169.93C110.3 169.836 110.168 169.514 110.281 169.25C110.376 168.966 110.697 168.834 110.962 168.947C112.493 169.514 113.929 170.478 115.233 171.801L115.479 172.047C116.518 173.105 117.709 174.315 118.182 175.827C118.597 177.15 118.768 178.435 118.73 179.645C118.597 182.725 117.369 185.315 115.441 186.619C114.817 187.035 114.137 187.242 113.476 187.242Z" fill="#AB684D"/>
<path d="M119.864 188.339C119.807 188.339 119.769 188.339 119.713 188.32C119.429 188.225 119.278 187.942 119.353 187.658C120.128 185.088 121.054 183.179 122.359 181.459C122.585 181.156 122.793 180.873 123.001 180.589C123.304 180.174 123.587 179.796 123.927 179.342C124.097 179.115 124.438 179.059 124.664 179.248C124.891 179.418 124.948 179.758 124.759 179.985C124.419 180.419 124.154 180.797 123.852 181.213C123.644 181.497 123.436 181.78 123.209 182.101C121.999 183.727 121.111 185.541 120.374 187.979C120.298 188.187 120.091 188.339 119.864 188.339Z" fill="#AB684D"/>
<path d="M114.345 317.388C114.307 317.388 114.269 317.388 114.213 317.369C113.929 317.293 113.759 317.01 113.816 316.726C114.439 314.118 114.931 311.453 115.403 308.883C115.63 307.635 115.857 306.464 116.084 305.292C116.859 301.398 117.671 297.429 118.446 293.574C120.828 281.875 123.304 269.798 124.967 257.853C125.231 256.001 125.553 254.356 125.969 252.844C126.347 251.483 126.876 250.142 127.386 248.856C128.274 246.626 129.125 244.528 129.219 242.204C129.333 239.633 128.955 237.082 128.577 234.625C128.104 231.412 127.594 228.085 128.142 224.57C128.539 221.962 129.314 219.713 130.032 217.539C131.468 213.268 132.716 209.582 131.015 204.347C130.939 204.101 130.883 203.855 130.807 203.61C130.637 202.91 130.486 202.306 129.975 202.022C129.711 201.89 129.616 201.569 129.767 201.304C129.9 201.039 130.221 200.945 130.486 201.096C131.412 201.606 131.639 202.532 131.846 203.364C131.903 203.591 131.96 203.818 132.035 204.026C133.831 209.601 132.47 213.608 131.034 217.879C130.316 220.015 129.578 222.207 129.182 224.74C128.671 228.085 129.144 231.336 129.616 234.473C129.994 236.987 130.372 239.595 130.259 242.26C130.145 244.774 129.238 247.061 128.35 249.272C127.84 250.52 127.329 251.824 126.97 253.128C126.573 254.602 126.252 256.208 126.006 258.004C124.343 269.987 121.867 282.083 119.467 293.801C118.673 297.637 117.879 301.606 117.104 305.5C116.878 306.671 116.651 307.843 116.424 309.072C115.951 311.661 115.46 314.326 114.817 316.953C114.799 317.218 114.572 317.388 114.345 317.388Z" fill="white"/>
<path d="M113.381 237.309C113.249 237.309 113.117 237.252 113.003 237.157C108.486 232.621 104.46 227.613 99.792 221.489C99.6219 221.263 99.6597 220.922 99.8865 220.752C100.113 220.582 100.453 220.62 100.624 220.847C105.254 226.932 109.261 231.922 113.74 236.42C113.948 236.628 113.948 236.968 113.74 237.176C113.646 237.252 113.513 237.309 113.381 237.309Z" fill="white"/>
<path d="M104.782 249.329C102.287 249.329 99.6408 248.856 96.6924 247.911C96.4089 247.817 96.2577 247.514 96.3522 247.25C96.4467 246.966 96.7491 246.815 97.0137 246.909C101.512 248.365 105.254 248.648 108.826 247.817C109.11 247.741 109.393 247.93 109.469 248.214C109.544 248.497 109.355 248.781 109.072 248.856C107.673 249.159 106.256 249.329 104.782 249.329Z" fill="white"/>
<path d="M264.052 354.961C264.052 354.961 264.033 354.961 264.052 354.961C263.749 354.961 263.523 354.715 263.523 354.432C263.56 350.784 263.239 347.023 262.918 343.375C262.653 340.219 262.37 336.949 262.332 333.755C262.256 327.896 261.954 321.943 261.67 316.197C261.576 314.118 261.463 311.982 261.368 309.865C260.801 297.391 259.951 285.522 258.76 273.577C257.512 260.99 256.435 248.686 257.21 236.439C257.758 227.575 259.705 218.106 263.182 207.503C263.277 207.22 263.579 207.068 263.844 207.163C264.127 207.257 264.279 207.56 264.184 207.824C260.744 218.333 258.817 227.726 258.268 236.496C257.512 248.667 258.571 260.933 259.818 273.464C261.009 285.428 261.859 297.316 262.426 309.809C262.521 311.907 262.634 314.061 262.729 316.121C263.012 321.886 263.315 327.839 263.39 333.717C263.428 336.855 263.712 340.105 263.976 343.262C264.298 346.928 264.619 350.727 264.581 354.413C264.581 354.734 264.335 354.961 264.052 354.961Z" fill="white"/>
<path d="M280.268 334.455C280.117 334.455 279.966 334.398 279.871 334.266C279.682 334.039 279.72 333.699 279.928 333.51C285.56 328.766 289.491 324.041 291.646 319.448C291.778 319.183 292.081 319.07 292.345 319.183C292.61 319.316 292.723 319.618 292.61 319.883C290.398 324.608 286.354 329.465 280.608 334.303C280.495 334.417 280.381 334.455 280.268 334.455Z" fill="white"/>
<path d="M105.632 103.988C105.556 103.988 105.481 103.969 105.405 103.95C105.178 103.856 104.933 103.742 104.706 103.648C104.385 103.497 104.063 103.345 103.761 103.251C102.098 102.703 100.435 102.003 98.8281 101.323L98.3556 101.134C98.0532 101.002 97.902 100.662 98.0343 100.359C98.1666 100.057 98.5068 99.9056 98.8092 100.038L99.2817 100.227C100.869 100.907 102.514 101.588 104.12 102.117C104.498 102.249 104.857 102.4 105.197 102.57C105.424 102.665 105.632 102.778 105.821 102.854C106.123 102.986 106.275 103.326 106.161 103.629C106.086 103.856 105.878 103.988 105.632 103.988Z" fill="#A19086"/>
<path d="M106.483 101.191C106.331 101.191 106.18 101.134 106.086 101.096L106.029 101.077C105.802 101.002 105.594 100.926 105.424 100.851L105.292 100.794C104.952 100.643 104.687 100.548 104.347 100.473C102.759 100.095 101.191 99.5844 99.6596 99.0741C99.1682 98.904 98.658 98.7528 98.1666 98.5827C97.8453 98.4882 97.6752 98.148 97.7697 97.8267C97.8642 97.5054 98.2043 97.3353 98.5256 97.4298C99.017 97.581 99.5273 97.7511 100.038 97.9212C101.531 98.4126 103.099 98.9229 104.611 99.282C105.046 99.3954 105.367 99.5088 105.745 99.66L105.878 99.7167C106.029 99.7734 106.199 99.849 106.407 99.9057C106.426 99.9057 106.445 99.9246 106.464 99.9246C106.728 99.9057 106.974 100.076 107.068 100.321C107.144 100.548 107.087 100.794 106.917 100.964C106.785 101.134 106.634 101.191 106.483 101.191Z" fill="#A19086"/>
<path d="M106.672 98.8474C106.388 98.8474 106.142 98.6962 106.01 98.6017C105.972 98.5828 105.953 98.5639 105.916 98.545C105.046 98.1103 104.12 97.8457 103.137 97.5811C102.778 97.4866 102.4 97.3732 102.022 97.2598C101.758 97.1842 99.3384 96.3715 98.3178 95.9179C98.0154 95.7856 97.8831 95.4265 98.0154 95.1241C98.1477 94.8217 98.5068 94.6894 98.8092 94.8217C99.7731 95.2375 102.136 96.0502 102.381 96.1258C102.74 96.2392 103.099 96.3337 103.459 96.4282C104.46 96.6928 105.481 96.9763 106.464 97.4677C106.539 97.5055 106.615 97.5622 106.672 97.6C106.69 97.6189 106.709 97.6189 106.728 97.6378C106.974 97.6378 107.201 97.789 107.276 98.0347C107.39 98.356 107.22 98.6773 106.898 98.7907C106.842 98.8285 106.747 98.8474 106.672 98.8474Z" fill="#A19086"/>
<path d="M103.666 94.8968C103.326 94.8968 103.062 94.6322 103.062 94.292C103.062 93.0257 103.345 91.7783 103.629 90.5687C103.78 89.8694 103.931 89.2079 104.044 88.5653C104.12 88.0361 104.196 87.5069 104.271 86.9777C104.555 84.8609 104.857 82.6874 105.613 80.6651C105.67 80.5139 105.727 80.3627 105.783 80.2304C105.349 80.1548 104.933 80.0036 104.574 79.8714C103.553 79.5123 102.684 78.9074 102.003 78.1325C101.833 78.3026 101.644 78.4538 101.474 78.5861C101.38 78.6617 101.266 78.7563 101.172 78.8319C100.756 79.2099 100.246 79.6445 99.603 79.8524C99.2439 79.9847 98.8281 80.117 98.3934 80.2115C98.4501 80.3438 98.5068 80.4951 98.5635 80.6463C99.3006 82.6685 99.603 84.8609 99.9054 86.9588C99.981 87.488 100.057 88.0361 100.132 88.5464C100.246 89.3591 100.435 90.1718 100.605 90.9656C100.831 92.024 101.077 93.1202 101.191 94.2353C101.228 94.5566 100.983 94.859 100.661 94.8968C100.34 94.9346 100.038 94.6889 99.9999 94.3676C99.8865 93.3281 99.6597 92.2697 99.4329 91.2302C99.2628 90.4175 99.0738 89.5859 98.9415 88.7354C98.8659 88.2062 98.7903 87.6581 98.7147 87.1289C98.4312 85.0877 98.1288 82.952 97.4484 81.062C97.3539 80.7974 97.2594 80.5517 97.146 80.306C96.1632 80.3438 94.9725 80.2871 94.3299 79.5689C94.0842 79.2854 93.8007 78.7941 93.933 77.9814C94.0653 77.1498 94.5189 76.8663 94.7835 76.7718C95.2749 76.5828 95.8608 76.7529 96.4089 77.2254C96.9759 77.7168 97.4484 78.3215 97.8642 79.0586C97.8831 79.0586 97.8831 79.0586 97.902 79.0586C98.2989 79.0397 98.7903 78.8696 99.2061 78.7185C99.6408 78.5673 100.019 78.2459 100.378 77.9246C100.491 77.8301 100.605 77.7356 100.699 77.6411C100.907 77.471 101.115 77.301 101.266 77.112C100.869 76.4316 100.586 75.6756 100.435 74.844C100.246 73.8045 100.359 72.387 101.342 71.8389C101.663 71.6688 102.022 71.6499 102.343 71.8389C103.194 72.3303 103.288 74.0502 103.288 74.0502C103.307 74.8818 103.213 76.0346 102.703 77.0741C103.288 77.8112 104.063 78.3782 104.971 78.6995C105.386 78.8507 105.878 79.0209 106.275 79.0398C106.294 79.0398 106.294 79.0398 106.312 79.0398C106.728 78.2838 107.201 77.679 107.768 77.2065C108.297 76.734 108.902 76.5828 109.393 76.7529C109.658 76.8474 110.111 77.1309 110.244 77.9625C110.376 78.7751 110.092 79.2665 109.847 79.55C109.204 80.2682 107.995 80.3249 107.031 80.2871C106.917 80.5139 106.823 80.7785 106.728 81.0431C106.029 82.952 105.745 85.0688 105.462 87.11C105.386 87.6581 105.311 88.1873 105.235 88.7165C105.122 89.4158 104.971 90.134 104.819 90.8144C104.555 91.9673 104.29 93.158 104.29 94.292C104.252 94.6322 103.988 94.8968 103.666 94.8968ZM108.958 77.8869C108.921 77.8869 108.751 77.9246 108.543 78.1136C108.221 78.3971 107.938 78.7185 107.673 79.0964C108.202 79.0775 108.732 79.002 108.958 78.7563C108.996 78.7185 109.129 78.5673 109.053 78.1704C109.034 77.9436 108.977 77.8869 108.958 77.8869ZM95.1804 77.9058C95.1804 77.9058 95.1237 77.9814 95.1048 78.1704C95.0481 78.5862 95.1615 78.7185 95.1993 78.7563C95.4261 79.002 95.9364 79.0775 96.4845 79.0964C96.2199 78.7185 95.9364 78.3971 95.6151 78.1136C95.3883 77.9435 95.2182 77.8869 95.1804 77.9058ZM101.814 72.9918C101.569 73.2942 101.493 74.0313 101.606 74.6361C101.682 75.0141 101.776 75.3921 101.909 75.7323C102.06 75.1464 102.079 74.5605 102.079 74.088C102.079 73.8234 101.947 73.2564 101.814 72.9918Z" fill="#A84216"/>
<path d="M166.452 282.801C166.188 282.801 165.961 282.612 165.923 282.347C165.11 276.772 163.485 271.423 161.992 266.944C161.482 265.394 160.858 263.787 160.253 262.237C158.968 258.911 157.626 255.471 157.135 251.956C157.097 251.672 157.286 251.389 157.588 251.351C157.872 251.313 158.155 251.502 158.193 251.805C158.684 255.188 159.989 258.571 161.255 261.859C161.86 263.409 162.483 265.035 162.994 266.603C164.487 271.139 166.131 276.526 166.963 282.177C167 282.46 166.811 282.744 166.509 282.782C166.509 282.801 166.49 282.801 166.452 282.801Z" fill="white"/>
<path d="M266.169 203.969C266.093 203.969 266.036 203.95 265.961 203.931C265.696 203.818 265.564 203.515 265.677 203.232C266.547 201.115 267.756 199.187 268.947 197.335C269.741 196.069 270.572 194.764 271.272 193.441C271.404 193.177 271.725 193.082 271.99 193.215C272.254 193.347 272.349 193.668 272.217 193.933C271.498 195.294 270.667 196.617 269.854 197.902C268.701 199.735 267.492 201.606 266.679 203.629C266.566 203.855 266.377 203.969 266.169 203.969Z" fill="white"/>
<rect x="258" y="107" width="109" height="30" rx="15" stroke="#369EFF" stroke-width="2"/>
<path d="M289.98 117.08C291.313 117.08 292.387 117.48 293.2 118.28C294.027 119.08 294.44 120.267 294.44 121.84V128H291.32V122.32C291.32 121.467 291.133 120.833 290.76 120.42C290.387 119.993 289.847 119.78 289.14 119.78C288.353 119.78 287.727 120.027 287.26 120.52C286.793 121 286.56 121.72 286.56 122.68V128H283.44V113.16H286.56V118.36C286.973 117.947 287.473 117.633 288.06 117.42C288.647 117.193 289.287 117.08 289.98 117.08ZM304.208 127.48C303.901 127.707 303.521 127.88 303.068 128C302.628 128.107 302.161 128.16 301.668 128.16C300.388 128.16 299.395 127.833 298.688 127.18C297.995 126.527 297.648 125.567 297.648 124.3V119.88H295.988V117.48H297.648V114.86H300.768V117.48H303.448V119.88H300.768V124.26C300.768 124.713 300.881 125.067 301.108 125.32C301.348 125.56 301.681 125.68 302.108 125.68C302.601 125.68 303.021 125.547 303.368 125.28L304.208 127.48ZM312.665 127.48C312.358 127.707 311.978 127.88 311.525 128C311.085 128.107 310.618 128.16 310.125 128.16C308.845 128.16 307.852 127.833 307.145 127.18C306.452 126.527 306.105 125.567 306.105 124.3V119.88H304.445V117.48H306.105V114.86H309.225V117.48H311.905V119.88H309.225V124.26C309.225 124.713 309.338 125.067 309.565 125.32C309.805 125.56 310.138 125.68 310.565 125.68C311.058 125.68 311.478 125.547 311.825 125.28L312.665 127.48ZM320.777 117.08C321.777 117.08 322.683 117.313 323.497 117.78C324.323 118.233 324.97 118.88 325.437 119.72C325.903 120.547 326.137 121.513 326.137 122.62C326.137 123.727 325.903 124.7 325.437 125.54C324.97 126.367 324.323 127.013 323.497 127.48C322.683 127.933 321.777 128.16 320.777 128.16C319.403 128.16 318.323 127.727 317.537 126.86V131.88H314.417V117.24H317.397V118.48C318.17 117.547 319.297 117.08 320.777 117.08ZM320.237 125.6C321.037 125.6 321.69 125.333 322.197 124.8C322.717 124.253 322.977 123.527 322.977 122.62C322.977 121.713 322.717 120.993 322.197 120.46C321.69 119.913 321.037 119.64 320.237 119.64C319.437 119.64 318.777 119.913 318.257 120.46C317.75 120.993 317.497 121.713 317.497 122.62C317.497 123.527 317.75 124.253 318.257 124.8C318.777 125.333 319.437 125.6 320.237 125.6ZM329.405 120.98C328.858 120.98 328.398 120.793 328.025 120.42C327.652 120.047 327.465 119.58 327.465 119.02C327.465 118.447 327.652 117.987 328.025 117.64C328.398 117.28 328.858 117.1 329.405 117.1C329.952 117.1 330.412 117.28 330.785 117.64C331.158 117.987 331.345 118.447 331.345 119.02C331.345 119.58 331.158 120.047 330.785 120.42C330.412 120.793 329.952 120.98 329.405 120.98ZM329.405 128.16C328.858 128.16 328.398 127.973 328.025 127.6C327.652 127.227 327.465 126.76 327.465 126.2C327.465 125.627 327.652 125.167 328.025 124.82C328.398 124.46 328.858 124.28 329.405 124.28C329.952 124.28 330.412 124.46 330.785 124.82C331.158 125.167 331.345 125.627 331.345 126.2C331.345 126.76 331.158 127.227 330.785 127.6C330.412 127.973 329.952 128.16 329.405 128.16ZM339.014 111.16H341.794L335.194 130H332.414L339.014 111.16ZM345.381 111.16H348.161L341.561 130H338.781L345.381 111.16Z" fill="#369EFF"/>
<path d="M343.528 145.897L327.479 139.917C327.364 139.874 327.24 139.865 327.121 139.89C327.001 139.916 326.891 139.975 326.805 140.061C326.718 140.147 326.658 140.257 326.631 140.376C326.605 140.495 326.613 140.62 326.655 140.734L332.667 156.809C332.713 156.933 332.798 157.04 332.908 157.114C333.018 157.189 333.149 157.227 333.282 157.223C333.415 157.22 333.543 157.175 333.649 157.095C333.756 157.015 333.834 156.904 333.874 156.777L335.593 151.187L341.419 156.873C341.539 156.992 341.701 157.058 341.87 157.058C342.039 157.058 342.201 156.992 342.32 156.873L343.822 155.371C343.941 155.252 344.007 155.09 344.007 154.921C344.007 154.752 343.941 154.59 343.822 154.47L338.014 148.81L343.528 147.104C343.653 147.061 343.762 146.979 343.839 146.871C343.916 146.763 343.958 146.633 343.958 146.5C343.958 146.368 343.916 146.238 343.839 146.13C343.762 146.022 343.653 145.94 343.528 145.897Z" fill="#369EFF"/>
</svg>
