<svg width="97" height="89" viewBox="0 0 97 89" fill="none" xmlns="http://www.w3.org/2000/svg">
<path fill-rule="evenodd" clip-rule="evenodd" d="M85.3211 55.1505C65.2074 28.8729 39.903 16.2208 15.572 15.2476L0 43.796C20.7625 45.0936 54.8261 56.1238 69.1003 87.9164L85.3211 55.1505Z" fill="#FFA724"/>
<path fill-rule="evenodd" clip-rule="evenodd" d="M79.1573 51.9063C60.0169 28.2241 39.2544 19.4649 16.8698 17.8428L5.83972 38.2809C7.13738 38.9297 7.46179 40.5518 7.46179 42.1739C27.5755 44.7692 52.8798 55.4749 68.7761 81.7525L79.8062 59.3678C78.5085 58.0702 77.5352 54.5017 79.1573 51.9063Z" fill="#FBEAD2"/>
<path fill-rule="evenodd" clip-rule="evenodd" d="M52.5553 31.1438C55.475 32.7659 57.4214 36.01 58.3947 39.2541C59.3679 42.4983 59.0436 46.0668 57.7459 48.9866C56.1238 51.9063 53.8529 53.5284 50.9332 54.1772C48.0135 54.8261 44.7693 54.1772 41.8495 52.2307C38.9298 50.2842 36.6589 47.6889 35.6857 44.7691C34.7124 41.8494 34.7125 38.6053 36.3345 35.6856C37.9566 32.7658 40.5519 30.8194 43.4716 29.8461C46.3913 28.8729 49.6355 29.1973 52.5553 31.1438Z" fill="#FFA724"/>
<path fill-rule="evenodd" clip-rule="evenodd" d="M22.7091 21.4113C21.7358 23.3578 20.4382 25.3043 19.4649 27.2508C18.8161 27.2508 18.1673 26.9263 17.5184 26.9263C18.1673 25.6287 18.8161 24.3311 19.7894 23.0334C19.465 23.0334 18.8161 23.3578 18.4917 23.3578C18.1673 23.3578 17.5185 23.6822 17.1941 23.6822C17.5185 23.3578 17.8429 22.709 17.8429 22.3845C18.8161 22.3845 19.465 22.0601 19.7894 22.0601C20.4382 21.7357 20.7626 21.7358 21.087 21.4113C21.4114 21.0869 22.0602 21.0869 22.7091 21.4113ZM23.0335 24.6555C22.7091 24.9799 22.7091 25.6287 22.3846 25.9531C22.3846 26.2775 22.3846 26.6019 22.3846 26.9263C22.3846 27.2507 22.7091 27.5752 23.0335 27.8996C23.3579 28.224 23.6823 28.224 24.3312 28.5484C25.3044 28.8728 26.2777 28.8729 26.9265 28.2241C27.5754 27.8996 28.2241 27.2508 28.8729 25.9531C29.1973 25.6287 29.1974 24.9799 29.5218 24.6555C29.5218 24.3311 29.5218 24.331 29.5218 24.0066C29.5218 23.6822 29.5218 23.6823 29.1974 23.3578C29.1974 23.0334 28.873 23.0334 28.5486 22.709C28.2242 22.3846 27.8997 22.3845 27.5753 22.3845C26.6021 22.0601 25.6288 22.0601 24.98 22.3845C24.3312 22.709 23.6823 23.6822 23.0335 24.6555ZM24.98 25.3043C25.3044 24.6554 25.6288 24.0066 25.9532 23.6822C26.2776 23.3578 26.6021 23.3578 26.9265 23.3578C27.2509 23.3578 27.2509 23.6822 27.5753 24.0066C27.5753 24.331 27.2509 24.9799 26.9265 25.6287C26.6021 26.2775 26.2777 26.6019 26.2777 26.9263C25.9532 27.2507 25.9532 27.2508 25.6288 27.2508C25.3044 27.2508 25.3044 27.2508 24.98 27.2508C24.6556 27.2508 24.6556 26.9264 24.6556 26.602C24.6556 26.602 24.6556 25.9531 24.98 25.3043ZM29.5218 26.602C30.1706 25.6287 30.8195 24.6555 31.4683 24.3311C32.1171 24.0066 33.0903 24.0066 34.0636 24.3311C34.388 24.3311 34.7125 24.6555 35.0369 24.9799C35.3613 25.3043 35.3612 25.3043 35.3612 25.6287C35.3612 25.9531 35.3612 25.9531 35.3612 26.2776C35.3612 26.602 35.3612 26.6019 35.3612 26.9263C35.3612 27.5752 35.0369 27.8996 34.7125 28.2241C34.0636 29.1973 33.4148 29.8461 32.7659 30.4949C32.1171 30.8193 31.1439 30.8193 30.1707 30.4949C29.5218 30.1705 29.1973 30.1706 28.8729 29.8461C28.5485 29.5217 28.5486 29.1972 28.2242 28.8728C28.2242 28.5484 28.2242 28.224 28.2242 27.8996C29.1974 27.2508 29.5218 26.9264 29.5218 26.602ZM31.4683 26.9263C31.1439 27.5752 30.8194 28.224 30.8194 28.5484C30.8194 28.8728 30.8195 29.1973 31.1439 29.1973C31.4683 29.1973 31.4683 29.1973 31.7927 29.1973C32.1172 29.1973 32.1171 28.8728 32.4415 28.8728C32.7659 28.5484 32.766 28.224 33.0904 27.5752C33.4148 26.9264 33.7391 26.2775 33.7391 25.9531C33.7391 25.6287 33.7392 25.3043 33.4148 25.3043C33.0904 25.3043 32.7659 25.3043 32.4415 25.6287C32.1171 25.9531 31.7927 26.2775 31.4683 26.9263Z" fill="#FFA724"/>
<path fill-rule="evenodd" clip-rule="evenodd" d="M61.3144 55.4749C60.3411 57.4214 59.3679 59.6923 58.3947 61.6387C57.7458 60.9899 57.4214 60.6655 56.7726 60.3411C57.4214 59.0434 58.0703 57.7457 58.7191 56.1237C58.3947 56.1237 58.0703 56.1237 57.7459 56.1237C57.4215 56.1237 57.097 55.7993 56.7726 55.7993C57.097 55.4749 57.097 54.826 57.4215 54.5016C58.0703 54.826 58.3947 54.826 59.0435 54.826C59.3679 54.826 59.6923 54.826 60.3412 54.5016C60.3412 54.5016 60.99 55.1505 61.3144 55.4749ZM61.3144 60.0167C60.99 60.3411 60.99 60.9899 60.6656 61.3143C60.6656 61.6387 60.3412 62.2875 60.6656 62.6119C60.6656 63.2608 60.6656 63.5853 60.99 63.9097C61.3144 64.2341 61.6388 64.8829 61.9632 65.2073C62.6121 66.1806 63.2609 66.5049 63.9097 66.1805C64.5586 65.8561 64.883 65.2073 65.5318 64.234C65.8562 63.5852 65.8562 63.2608 66.1806 62.6119C66.1806 62.2875 66.1806 61.9632 66.1806 61.6387C66.1806 61.3143 66.1806 60.99 66.1806 60.6655C66.1806 60.3411 65.8562 60.0167 65.8562 59.6922C65.5318 59.3678 65.5318 59.0434 65.2074 58.719C64.5585 58.0702 63.9097 57.7457 63.2609 57.7457C62.612 58.3946 61.9632 59.0434 61.3144 60.0167ZM62.9364 61.6387C63.2609 60.9899 63.5853 60.3411 63.9097 60.3411C64.2342 60.0167 64.5585 60.0167 64.5585 60.3411C64.8829 60.6655 64.8829 60.9899 64.8829 61.3143C64.8829 61.6387 64.5586 62.2876 64.2342 63.2608C63.9098 63.9096 63.5853 64.234 63.5853 64.5585C63.2609 64.8829 63.2609 64.8829 62.9364 64.8829C62.612 64.8829 62.6121 64.8829 62.6121 64.5585C62.2877 64.234 62.2877 63.9097 62.2877 63.5853C62.2877 62.9364 62.2876 62.2876 62.9364 61.6387ZM66.1806 65.2073C66.8294 63.9097 67.1538 63.2608 67.8027 63.2608C68.4515 63.2608 69.1003 63.5852 69.7492 64.234C70.0736 64.5584 70.398 64.8829 70.398 65.5318C70.7224 65.8562 70.7225 66.1805 70.7225 66.505C70.7225 66.8294 70.7225 67.1538 70.7225 67.4782C70.7225 67.8026 70.7225 68.1271 70.7225 68.4515C70.7225 69.1003 70.398 69.7491 70.0736 70.0735C69.4248 71.3712 69.1004 72.02 68.4515 72.02C67.8027 72.3445 67.1538 71.6956 66.505 70.7223C66.1806 70.0735 65.8562 69.7491 65.5318 69.1002C65.2074 68.7758 65.2074 68.127 65.2074 67.4782C65.2074 67.1538 65.2074 66.8294 65.5318 66.1805C65.8562 66.1805 65.8562 65.5317 66.1806 65.2073ZM67.4783 66.8294C67.1539 67.4782 66.8294 68.1271 66.8294 68.7759C66.8294 69.1003 66.8295 69.4247 67.1539 69.7491C67.1539 70.0735 67.4783 70.0735 67.4783 70.0735C67.8027 70.0735 67.8027 70.0735 68.1271 69.7491C68.4515 69.4247 68.4515 69.1003 68.776 68.4515C69.1004 67.4782 69.4247 66.8294 69.4247 66.505C69.4247 66.1805 69.4248 65.8562 69.1004 65.5318C68.776 65.2073 68.7759 65.2073 68.4515 65.5318C68.1271 65.5318 67.8027 65.8562 67.4783 66.8294Z" fill="#FFA724"/>
<path fill-rule="evenodd" clip-rule="evenodd" d="M44.1204 40.8763C44.1204 41.5251 44.4448 42.1739 44.7692 42.8228C45.0936 43.4716 45.418 43.796 45.7424 43.796C46.0668 44.1204 46.3912 44.1204 46.7156 44.1204C47.0401 44.1204 47.3645 43.796 47.3645 43.4715C47.6889 43.1471 47.6889 42.8227 47.3645 42.4983C47.3645 42.1739 47.0401 41.8495 46.3913 41.2007C45.7425 40.2275 45.0936 39.5786 45.0936 38.6053C45.0936 37.9565 45.0936 37.3077 45.418 36.3345C45.7424 35.3612 46.3913 34.7124 47.3645 34.7124C48.0133 34.388 48.9865 34.7123 49.9598 35.0367L50.2842 34.0635L50.9331 34.7124L50.6087 35.6856C50.9331 36.01 51.2574 36.3344 51.5819 36.6588C51.9063 36.9832 51.9063 37.6321 52.2307 37.9566L50.6087 39.5786C50.6087 39.2542 50.2842 38.6053 49.9598 38.2809C49.6354 37.9565 49.6354 37.6321 49.311 37.3077C48.9866 36.9833 48.6621 36.9832 48.6621 36.9832C48.3377 36.9832 48.3378 37.3077 48.0134 37.3077C48.0134 37.6321 48.0134 37.9566 48.0134 37.9566C48.0134 38.281 48.3377 38.6053 48.6621 38.9298C49.311 39.903 49.9598 40.8763 49.9598 41.2007C49.9598 41.5251 49.9598 42.1739 49.9598 42.4983C49.9598 42.8227 49.6354 43.4716 49.6354 43.796C49.311 44.7692 48.6622 45.4181 47.6889 45.7425C47.0401 46.0669 46.0668 46.0669 45.0936 45.418L44.1204 47.0401L43.4715 46.3912L44.4448 44.7692C43.796 44.4448 43.4716 43.7959 43.1472 43.1471C42.8227 42.4983 42.4983 41.8495 42.4983 41.2007L44.1204 40.8763Z" fill="#FBEAD2"/>
<path fill-rule="evenodd" clip-rule="evenodd" d="M91.8094 59.3678C77.8596 29.1973 55.7993 11.6789 32.1171 5.83942L10.7058 30.4949C30.4951 36.01 61.6389 54.1772 68.776 88.2408L91.8094 59.3678Z" fill="#FFA724"/>
<path fill-rule="evenodd" clip-rule="evenodd" d="M86.6187 54.826C72.6689 27.5752 54.5016 14.9231 33.0903 8.43481L17.8428 25.9532C18.816 26.9264 19.1405 28.5485 18.4916 29.8462C37.6321 36.6589 60.0167 52.2308 70.0735 81.4281L85.321 61.9632C84.6722 60.6655 84.3478 57.0969 86.6187 54.826Z" fill="#FBEAD2"/>
<path fill-rule="evenodd" clip-rule="evenodd" d="M65.2075 28.8728C67.8028 31.1437 69.1005 34.7123 69.1005 37.9565C69.4249 41.525 68.4516 44.7692 66.1807 47.3645C63.9098 49.9598 61.3145 51.2575 58.3947 50.933C55.475 50.933 52.5553 49.6354 49.9599 47.04C47.3646 44.7691 45.7426 41.525 45.4182 38.6052C45.0938 35.6855 45.7426 32.4414 48.0135 29.8461C50.2844 27.2508 53.2041 25.9531 56.4482 25.6287C59.368 25.6287 62.6121 26.6019 65.2075 28.8728Z" fill="#FFA724"/>
<path fill-rule="evenodd" clip-rule="evenodd" d="M37.6322 12.9765C36.0101 14.5986 34.7125 16.5451 33.0904 18.1672C32.4416 17.8428 31.7927 17.5183 31.1439 17.5183C32.1172 16.5451 33.0904 15.2474 34.0636 14.2742C33.7392 14.2742 33.0904 14.2742 32.766 14.2742C32.4416 14.2742 31.7928 14.2742 31.4684 14.2742C31.7928 13.9498 32.1171 13.6254 32.4416 12.9765C33.4148 12.9765 34.0637 12.9765 34.3881 12.9765C35.0369 12.9765 35.3613 12.6521 36.0101 12.6521C36.659 12.6521 37.3078 12.9765 37.6322 12.9765ZM37.6322 16.5451C37.3078 16.8695 36.9833 17.1939 36.9833 17.5183C36.6589 17.8427 36.659 18.1672 36.659 18.4916C36.659 18.816 36.6589 19.1404 36.9833 19.4648C37.3078 19.7892 37.6322 20.1136 38.2811 20.438C39.2543 20.7624 40.2275 21.0869 40.8764 20.7625C41.5252 20.438 42.4985 20.1136 43.1473 19.1404C43.4717 18.816 43.7961 18.1672 44.1205 17.8428C44.1205 17.5183 44.4449 17.5183 44.4449 17.1939C44.4449 16.8695 44.4449 16.8695 44.4449 16.5451C44.4449 16.2207 44.1205 16.2207 44.1205 15.8962C43.7961 15.5718 43.4717 15.5719 43.1473 15.2475C42.1741 14.9231 41.5252 14.5986 40.5519 14.923C39.2543 14.923 38.281 15.5719 37.6322 16.5451ZM39.2543 17.1939C39.9031 16.5451 40.2275 16.2207 40.5519 15.8962C40.8763 15.5718 41.2008 15.5718 41.5252 15.8962C41.8496 15.8962 41.8496 16.2207 41.8496 16.5451C41.8496 16.8695 41.5252 17.1939 40.8764 18.1672C40.5519 18.4916 40.2276 18.816 39.9032 19.1404C39.5787 19.4648 39.5787 19.4648 39.2543 19.4648C38.9299 19.4648 38.9298 19.4648 38.6054 19.4648C38.281 19.4648 38.2811 19.1404 38.2811 18.816C38.6055 18.4915 38.9299 17.8427 39.2543 17.1939ZM43.4716 19.4648C44.4449 18.4916 45.0937 17.8428 45.7426 17.8428C46.3914 17.8428 47.3647 17.8428 48.0135 18.4916C48.3379 18.816 48.6623 19.1404 48.9867 19.1404C49.3111 19.4648 49.3111 19.7893 49.3111 19.7893C49.3111 20.1137 49.3111 20.1136 49.3111 20.438C49.3111 20.7624 49.3111 20.7625 48.9867 21.0869C48.6623 21.4113 48.3379 22.0601 48.0135 22.3845C47.3647 23.3578 46.3914 24.0066 45.7426 24.0066C45.0937 24.331 44.1205 24.0067 43.4716 23.3578C42.8228 23.0334 42.4984 22.7089 42.4984 22.3845C42.174 22.0601 42.174 21.7357 42.174 21.4113C42.174 21.0869 42.174 20.7624 42.4984 20.438C42.8228 20.438 43.1472 19.7892 43.4716 19.4648ZM45.4181 20.438C44.7693 21.0869 44.4449 21.4113 44.4449 21.7358C44.4449 22.0602 44.445 22.3845 44.7694 22.3845C45.0938 22.3845 45.0937 22.3845 45.4181 22.3845C45.7426 22.3845 45.7426 22.3845 46.067 22.0601C46.3914 21.7357 46.7158 21.4113 47.0402 21.0869C47.689 20.4381 48.0135 19.7892 48.0135 19.4648C48.0135 19.1404 48.0135 18.816 47.6891 18.816C47.3647 18.4915 47.0402 18.4915 46.7158 18.816C46.3914 19.4648 45.7426 19.7892 45.4181 20.438Z" fill="#FFA724"/>
<path fill-rule="evenodd" clip-rule="evenodd" d="M68.4516 54.5016C67.154 56.4481 65.5319 58.0702 64.2343 60.0167C63.9098 59.3678 63.5854 59.0434 62.9365 58.3946C63.9098 57.0969 64.8831 56.1237 65.8563 54.826C65.5319 54.826 65.2074 54.5016 64.883 54.5016C64.5586 54.5016 64.2342 54.1772 63.9098 53.8528C64.2342 53.5284 64.5586 53.204 64.883 52.5552C65.5319 52.8796 65.8563 53.2039 66.1807 53.2039C66.5051 53.2039 66.8296 53.2039 67.4784 53.2039C67.8028 53.5284 68.1272 54.1772 68.4516 54.5016ZM67.4784 59.0435C67.154 59.3679 66.8295 60.0167 66.8295 60.3411C66.5051 60.6655 66.5051 61.3143 66.5051 61.6387C66.5051 62.2876 66.5051 62.612 66.5051 62.9364C66.5051 63.2608 66.8296 63.9096 67.154 64.5585C67.8028 65.5317 68.1272 66.1805 68.776 65.8561C69.4249 65.8561 70.0737 65.2073 70.7225 64.234C71.047 63.9096 71.3713 63.2608 71.6958 62.6119C71.6958 62.2875 72.0202 61.9632 72.0202 61.6387C72.0202 61.3143 72.0202 60.99 72.0202 60.6655C72.0202 60.3411 72.0202 60.0166 72.0202 59.6922C72.0202 59.3678 71.6957 59.0434 71.3713 58.3946C70.7225 57.4214 70.0737 57.097 69.7492 57.097C68.776 57.7458 68.1272 58.0702 67.4784 59.0435ZM68.4516 60.9899C67.8028 61.6387 67.4784 62.2875 67.4784 62.6119C67.4784 62.9364 67.4784 63.2608 67.4784 63.5852C67.4784 63.9097 67.8027 63.9097 67.8027 63.9097C67.8027 63.9097 68.1272 63.9097 68.4516 63.5852C68.776 63.2608 69.1004 62.9364 69.4248 62.6119C70.0736 61.9631 70.3981 61.3143 70.3981 60.9899C70.3981 60.6655 70.3981 60.3411 70.3981 60.0167C70.0737 59.6923 70.0737 59.6922 69.7492 59.6922C69.4248 59.6922 69.1004 60.0166 68.4516 60.9899ZM71.0469 65.2073C71.6957 64.2341 72.669 63.5852 72.9934 63.5852C73.6422 63.5852 73.9666 64.2341 74.6155 65.2073C74.9399 65.5317 74.9399 66.1805 74.9399 66.505C74.9399 66.8294 74.9399 67.1537 74.9399 67.4782C74.9399 67.8026 74.9399 68.127 74.9399 68.4515C74.9399 68.7759 74.6155 69.1003 74.6155 69.4247C74.291 70.0735 73.9667 70.3979 73.6423 71.0467C72.9934 72.02 72.0202 72.6688 71.6958 72.6688C71.0469 72.6688 70.7225 72.3444 70.0737 71.0467C69.7493 70.3979 69.7492 69.7491 69.4248 69.4247C69.4248 68.7758 69.4248 68.4514 69.4248 67.8026C69.4248 67.4782 69.7492 67.1538 69.7492 66.505C70.3981 65.8561 70.7225 65.5317 71.0469 65.2073ZM72.0202 66.8294C72.669 66.1806 72.9934 65.8562 73.3178 65.5318C73.6422 65.5318 73.9667 65.5317 73.9667 65.8561C73.9667 66.1805 74.2911 66.505 73.9667 66.8294C73.9667 67.1538 73.6422 67.8026 72.9934 68.4515C72.669 69.1003 72.3446 69.4247 72.0202 69.4247C71.6958 69.7491 71.6957 69.7491 71.3713 69.7491C71.3713 69.7491 71.0469 69.7491 71.0469 69.4247C71.0469 69.1003 71.0469 68.7759 71.0469 68.4515C71.0469 68.127 71.3714 67.4782 72.0202 66.8294Z" fill="#FFA724"/>
<path fill-rule="evenodd" clip-rule="evenodd" d="M54.826 36.6588C54.826 37.3076 54.826 37.9565 54.826 38.6053C54.826 39.2541 55.1504 39.5785 55.4748 39.903C55.7992 40.2274 56.1237 40.2274 56.1237 40.2274C56.4481 40.2274 56.7725 40.2274 56.7725 39.903C57.0969 39.5785 57.0969 39.2542 57.0969 38.9298C57.0969 38.6053 56.7724 37.9565 56.448 37.3077C55.7992 36.3344 55.7993 35.3612 55.7993 34.7124C55.7993 34.0636 56.1236 33.4147 56.448 32.7659C57.0969 31.7927 57.7457 31.4683 58.719 31.4683C59.3678 31.4683 60.3411 31.7926 60.9899 32.4415L61.6387 31.4683L62.2876 32.117L61.6387 33.0903C61.9631 33.4147 61.9631 33.7391 62.2876 34.388C62.612 34.7124 62.612 35.3612 62.612 35.6856L60.6655 36.6588C60.6655 36.3344 60.6655 35.6856 60.341 35.3612C60.341 35.0368 60.0166 34.7124 59.6922 34.388C59.3678 34.0636 59.3678 34.0635 59.0434 34.0635C58.719 34.0635 58.719 34.0636 58.3945 34.388C58.0701 34.7124 58.0701 34.7123 58.0701 35.0367C58.0701 35.3612 58.0701 35.6856 58.3945 36.3345C59.0434 37.6321 59.3678 38.2809 59.3678 38.9298C59.3678 39.2542 59.3678 39.903 59.0434 40.2274C59.0434 40.5518 58.719 40.8762 58.3945 41.525C57.7457 42.4983 57.0969 42.8228 56.1237 42.8228C55.1505 42.8228 54.5016 42.4983 53.8528 41.8495L52.5551 43.4715L51.9062 42.8228L53.2039 41.2007C52.8795 40.5519 52.5551 40.2275 52.2307 39.5786C51.9063 38.9298 51.9062 38.2809 51.9062 37.3077L54.826 36.6588Z" fill="#FBEAD2"/>
<path fill-rule="evenodd" clip-rule="evenodd" d="M97 64.5585C89.214 32.4414 71.0469 10.7057 49.3111 0L23.6824 19.7893C42.174 29.1973 68.776 53.204 69.1004 87.9163L97 64.5585Z" fill="#FFA724"/>
<path fill-rule="evenodd" clip-rule="evenodd" d="M92.7827 59.0434C84.6723 29.8461 69.4249 13.3009 49.6356 2.91968L31.1439 17.1939C31.7927 18.1671 31.7927 20.1137 31.1439 21.4113C48.3379 31.7926 67.4783 51.5818 71.3713 82.0768L90.1874 65.8561C89.863 64.5584 90.1874 60.9899 92.7827 59.0434Z" fill="#FBEAD2"/>
<path fill-rule="evenodd" clip-rule="evenodd" d="M76.8864 29.1973C78.8329 32.117 79.4817 35.6855 78.8329 38.9297C78.1841 42.4982 76.5619 45.418 74.291 47.6889C71.6957 49.9598 68.776 50.2842 66.1806 49.6353C63.2609 48.9865 60.6656 47.0401 58.7191 44.1203C56.7727 41.2006 55.7994 37.9565 55.7994 34.7123C56.1239 31.7926 57.4215 28.8729 60.0168 26.602C62.6121 24.6555 65.8563 23.6822 69.1005 24.0066C72.0202 24.9798 74.9399 26.6019 76.8864 29.1973Z" fill="#FFA724"/>
<path fill-rule="evenodd" clip-rule="evenodd" d="M53.2042 8.43479C51.2577 9.73245 49.6357 11.0301 47.6892 12.6521C47.0404 12.3277 46.3916 12.0033 46.0671 11.3545C47.3648 10.3813 48.3381 9.40805 49.6357 8.75922C49.3113 8.75922 48.6624 8.75922 48.338 8.75922C48.0136 8.75922 47.3648 8.43479 47.0403 8.43479C47.3648 8.11038 47.6892 7.7859 48.338 7.46149C48.9868 7.7859 49.9601 7.78592 50.2845 7.78592C50.9333 7.78592 51.2577 7.78592 51.9066 7.78592C52.5554 7.78592 52.8798 8.11038 53.2042 8.43479ZM52.5554 11.6789C52.231 12.0033 51.9065 12.3277 51.5821 12.6521C51.2577 12.9766 51.2578 13.301 51.2578 13.6254C51.2578 13.9499 51.2578 14.2742 51.2578 14.5986C51.2578 14.9231 51.5822 15.2474 52.231 15.5718C53.2042 16.2207 53.853 16.5452 54.8263 16.5452C55.4751 16.5452 56.4484 16.2208 57.4216 15.2475C57.7461 14.9231 58.0704 14.5986 58.3948 14.2742C58.3948 13.9498 58.7193 13.9499 58.7193 13.6254C58.7193 13.301 58.7193 13.301 58.7193 12.9766C58.7193 12.6522 58.7193 12.6521 58.3948 12.3277C58.3948 12.0033 58.0705 11.6789 57.4216 11.3545C56.7728 10.7057 55.7995 10.3813 55.1507 10.3813C54.5019 10.3813 53.5287 11.0301 52.5554 11.6789ZM54.1775 12.9766C53.5287 13.6254 53.2043 13.9498 52.8799 14.2742C52.8799 14.5986 52.8798 14.9231 53.2042 14.9231C53.2042 14.9231 53.5286 15.2475 53.8531 15.2475C54.1775 15.2475 54.1775 15.2475 54.5019 14.9231C54.8263 14.9231 55.1507 14.5986 55.7996 14.2742C56.4484 13.6254 56.7728 13.301 57.0972 12.9766C57.0972 12.6522 57.0972 12.3277 56.7728 12.3277C56.4484 12.0033 56.124 12.0033 55.7996 12.3277C55.1507 12.0033 54.8263 12.3277 54.1775 12.9766ZM57.7461 15.8963C58.7193 15.2475 59.6925 14.5986 60.3414 14.5986C60.9902 14.5986 61.9635 14.923 62.6123 15.5718C62.9367 15.8963 63.2611 16.2207 63.2611 16.5452C63.2611 16.8696 63.5855 17.1939 63.5855 17.1939C63.5855 17.5183 63.5855 17.5184 63.5855 17.8428C63.5855 18.1672 63.2611 18.1672 63.2611 18.4917C62.9366 18.8161 62.6123 19.1404 62.2879 19.4649C61.3146 20.1137 60.3413 20.7625 59.6925 20.7625C59.0437 20.7625 58.0705 20.4381 57.4216 19.7893C57.0972 19.4649 56.7728 19.1404 56.4483 18.816C56.4483 18.4916 56.4483 18.1672 56.4483 17.8428C56.4483 17.5184 56.7728 17.194 57.0972 16.8696C57.0972 16.5452 57.4217 16.2207 57.7461 15.8963ZM59.0437 17.1939C59.6925 16.5451 60.3414 16.2207 60.6658 16.2207C60.9902 16.2207 61.3146 16.2207 61.639 16.5452C61.9634 16.8696 61.9634 16.8695 61.9634 17.1939C61.9634 17.5183 61.3146 17.8428 60.6658 18.4917C60.3414 18.8161 59.6925 19.1404 59.6925 19.1404C59.3681 19.1404 59.0437 19.4648 59.0437 19.1404C58.7193 19.1404 58.7193 19.1404 58.3948 18.816C58.0704 18.4916 58.0704 18.4916 58.3948 18.1672C58.0704 18.1672 58.3949 17.8427 59.0437 17.1939Z" fill="#FFA724"/>
<path fill-rule="evenodd" clip-rule="evenodd" d="M74.9399 55.1505C73.3178 56.7725 71.3713 58.0702 69.7492 59.6922C69.4248 59.0434 69.1004 58.3946 68.776 57.7457C70.0737 56.7725 71.0469 55.7993 72.3446 54.826C72.0202 54.826 71.6957 54.5017 71.3713 54.1772C71.0469 53.8528 70.7225 53.8528 70.7225 53.5284C71.0469 53.204 71.3713 52.8796 72.0201 52.5552C72.3446 53.204 72.9934 53.5284 73.3178 53.5284C73.6422 53.5284 73.9666 53.8528 74.6154 53.5284C74.6154 54.1772 74.9399 54.5016 74.9399 55.1505ZM73.3178 59.3678C72.9934 59.6922 72.669 60.0167 72.3446 60.3411C72.0202 60.6655 71.6957 60.9899 71.6957 61.3143C71.3713 61.6387 71.3713 62.2875 71.3713 62.6119C71.3713 62.9364 71.3713 63.5852 71.6957 64.234C72.0201 65.2073 72.6689 65.8561 72.9933 65.8561C73.6422 65.8561 74.291 65.5317 75.2643 64.5585C75.5887 64.234 75.9131 63.9096 76.5619 63.2608C76.8863 62.9364 76.8864 62.6119 76.8864 62.6119C76.8864 62.2875 77.2108 61.9632 77.2108 61.6387C77.2108 61.3143 77.2108 60.99 77.2108 60.6655C77.2108 60.3411 77.2108 59.6922 76.8864 59.3678C76.5619 58.3946 75.9131 57.7457 75.5887 57.7457C74.9399 58.0701 74.291 58.719 73.3178 59.3678ZM73.9667 61.3143C74.6155 60.6655 75.2643 60.3411 75.2643 60.3411C75.5887 60.3411 75.9131 60.3411 75.9131 60.6655C75.9131 60.99 75.9131 61.3143 75.9131 61.6387C75.5886 61.9632 75.2643 62.612 74.6154 62.9364C74.291 63.2608 73.6422 63.5852 73.6422 63.5852C73.3178 63.5852 73.3178 63.9097 72.9933 63.5852L72.6689 63.2608C72.6689 62.9364 72.6689 62.612 72.6689 62.2876C72.9933 62.2876 73.3178 61.9631 73.9667 61.3143ZM75.5887 65.8561C76.562 64.8828 77.2107 64.5585 77.8596 64.8829C78.5084 64.8829 78.8328 65.5317 79.1572 66.505C79.1572 67.1538 79.4816 67.4782 79.4816 67.8026C79.4816 68.127 79.4816 68.4515 79.4816 68.7759C79.4816 69.1003 79.1572 69.4247 79.1572 69.7491C79.1572 70.0735 78.8329 70.398 78.8329 70.398C78.5085 71.0468 78.184 71.3712 77.5351 71.6956C76.5619 72.6689 75.9131 72.9932 75.2643 72.9932C74.6155 72.9932 74.2911 72.3444 73.9667 71.0467C73.6422 70.3979 73.6422 69.7491 73.6422 69.4247C73.6422 68.7758 73.6422 68.4514 73.9667 67.8026C73.9667 67.4782 74.291 67.1538 74.6154 66.8294C74.9398 66.8294 75.2643 66.1805 75.5887 65.8561ZM76.2375 68.127C75.5887 68.7759 75.2643 69.1003 74.9399 69.7491C74.6154 70.0735 74.6154 70.3979 74.6154 70.7223C74.6154 71.0467 74.9399 71.0467 74.9399 71.0467C74.9399 71.0467 75.2643 71.0467 75.5887 71.0467C75.9131 71.0467 76.2375 70.7224 76.5619 70.0735C77.2108 69.4247 77.8596 69.1003 77.8596 68.4515C78.184 68.1271 78.184 67.8026 77.8596 67.4782C77.8596 67.1537 77.5352 67.1538 77.2108 67.1538C77.2108 67.1538 76.8863 67.4782 76.2375 68.127Z" fill="#FFA724"/>
<path fill-rule="evenodd" clip-rule="evenodd" d="M65.2073 35.0367C64.8828 35.6855 64.8828 36.3344 64.8828 36.9832C64.8828 37.632 64.8828 37.9564 65.2073 38.2808C65.5317 38.6052 65.5317 38.9297 65.8561 38.9297C66.1805 38.9297 66.5049 38.9297 66.8293 38.6053C67.1537 38.2809 67.1538 37.9565 67.4782 37.6321C67.4782 37.3076 67.4782 36.6588 67.1538 36.01C66.8293 34.7123 66.8293 34.0635 66.8293 33.0903C66.8293 32.4415 67.4781 31.7926 68.127 31.1438C68.7758 30.4949 69.7491 30.1705 70.3979 30.1705C71.0467 30.1705 72.0199 30.8194 72.6687 31.4682L73.642 30.8193L73.9665 31.4682L72.9932 32.117C73.3176 32.4414 73.3176 33.0902 73.3176 33.4146C73.3176 33.739 73.3176 34.3879 73.3176 35.0367L71.0467 35.6856C71.0467 35.3611 71.0467 34.7123 71.0467 34.3879C71.0467 34.0635 70.7223 33.739 70.7223 33.4146C70.3979 33.0902 70.3979 32.7658 70.0735 32.7658C69.7491 32.7658 69.749 32.7659 69.4246 33.0903C69.1002 33.4147 69.1003 33.4146 69.1003 33.739C69.1003 34.0635 69.1002 34.3879 69.4246 35.0367C69.749 36.3343 69.749 37.3077 69.749 37.9565C69.749 38.2809 69.4247 38.6053 69.1003 39.2541C68.7758 39.5785 68.4514 39.9029 68.127 40.2273C67.1537 40.8762 66.5049 41.2006 65.5317 41.2006C64.5584 41.2006 63.9096 40.5517 63.2607 39.9029L61.9631 41.2006L61.6387 40.5518L62.9363 39.2541C62.6119 38.6053 62.2875 37.9565 62.2875 37.3076C62.2875 36.6588 62.2875 36.0099 62.2875 35.0367H65.2073Z" fill="#FBEAD2"/>
</svg>
