<svg width="514" height="348" viewBox="0 0 514 348" fill="none" xmlns="http://www.w3.org/2000/svg">
<path d="M-33.715 125.617L31.4453 121.77L-21.1842 89.6746L-33.8343 99.5316V98.8103L-21.4228 89.0736C-21.3035 88.9533 -21.1841 88.9533 -21.0648 89.0736L32.5193 121.77C32.6386 121.89 32.6387 122.01 32.6387 122.131C32.6387 122.251 32.5193 122.371 32.4 122.371L-33.715 126.338V125.617Z" fill="#FFFDFD"/>
<path d="M-33.0003 257.724L0.773159 277.318L26.3121 270.466L-33.1197 247.507V246.906L27.2669 270.226C27.3862 270.226 27.5056 270.346 27.5056 270.466C27.5056 270.587 27.3862 270.707 27.2669 270.707L0.773159 277.799C0.773159 277.799 0.773188 277.799 0.653847 277.799H0.534462L-33.1197 258.325L-33.0003 257.724Z" fill="#FFFDFD"/>
<path d="M250.554 216.734H250.673C250.793 216.734 250.793 216.613 250.793 216.493L253.657 202.549C253.657 202.429 253.657 202.429 253.657 202.309C253.657 202.189 253.538 202.189 253.418 202.189L182.291 193.894C182.172 193.894 182.052 194.014 181.933 194.135C181.933 194.255 181.933 194.375 182.172 194.495L250.554 216.734C250.435 216.734 250.435 216.734 250.554 216.734ZM253.06 202.79L250.315 216.133L185.036 194.856L253.06 202.79Z" fill="#FFFDFD"/>
<path d="M438.874 387.789H438.993L472.767 366.031C472.886 366.031 472.886 365.911 472.886 365.791C472.886 365.671 472.886 365.55 472.767 365.55L415.125 324.8C415.006 324.68 414.886 324.68 414.767 324.8C414.648 324.92 414.648 325.041 414.648 325.161L438.516 387.668C438.635 387.668 438.635 387.668 438.874 387.789C438.755 387.789 438.755 387.789 438.874 387.789ZM472.051 365.791L438.874 387.067L415.483 325.762L472.051 365.791Z" fill="#FFFDFD"/>
<path d="M336.48 389.351L438.874 387.668C438.994 387.668 438.994 387.668 439.113 387.548C439.113 387.428 439.232 387.428 439.113 387.308L415.245 324.8C415.245 324.68 415.125 324.68 415.006 324.68C414.887 324.68 414.767 324.68 414.767 324.68L336.241 388.87C336.122 388.991 336.122 389.111 336.122 389.231C336.241 389.351 336.36 389.351 336.48 389.351ZM438.397 387.188L337.196 388.87L414.767 325.521L438.397 387.188Z" fill="#FFFDFD"/>
<path d="M63.9065 242.338C63.9065 242.338 64.0258 242.338 63.9065 242.338L182.412 194.495C182.531 194.495 182.531 194.375 182.531 194.255C182.531 194.135 182.531 194.014 182.412 194.014L122.503 144.249C122.383 144.249 122.383 144.128 122.264 144.128C122.145 144.128 122.145 144.249 122.025 144.249L63.5484 241.857C63.4291 241.977 63.5484 242.097 63.5484 242.218C63.7871 242.338 63.7871 242.338 63.9065 242.338ZM181.696 194.135L64.5032 241.496L122.383 144.85L181.696 194.135Z" fill="#FFFDFD"/>
<path d="M63.9055 242.338C64.0249 242.338 64.1441 242.338 64.1441 242.218L122.621 144.609C122.621 144.489 122.621 144.489 122.621 144.369C122.621 144.249 122.502 144.249 122.502 144.249L73.4528 122.131C73.3334 122.131 73.3335 122.131 73.2141 122.131C73.0948 122.131 73.0948 122.251 73.0948 122.371L63.7861 242.097C63.6668 242.218 63.6668 242.338 63.9055 242.338ZM121.905 144.609L64.2635 240.895L73.4528 122.732L121.905 144.609Z" fill="#FFFDFD"/>
<path d="M63.9049 242.338C64.0243 242.338 64.1436 242.218 64.1436 242.097L73.4521 122.371C73.4521 122.251 73.4521 122.251 73.3328 122.13C73.3328 122.13 73.2135 122.01 73.0941 122.01L32.1603 121.65C32.1603 121.65 32.0409 121.65 31.9216 121.77C31.9216 121.89 31.8022 121.89 31.9216 122.01L63.4275 242.097C63.6662 242.218 63.7856 242.338 63.9049 242.338ZM72.9748 122.611L63.7855 240.414L32.757 122.251L72.9748 122.611Z" fill="#FFFDFD"/>
<path d="M-33.1187 246.906L27.1484 270.106L63.1894 242.218L-33.1187 231.76V231.159L64.0248 241.617C64.1441 241.617 64.2635 241.737 64.2635 241.857C64.2635 241.977 64.2634 242.098 64.1441 242.098L27.5065 270.466H27.3871H27.2678L-32.88 247.266L-33.1187 246.906Z" fill="#FFFDFD"/>
<path d="M73.2135 122.611C73.3328 122.611 73.4521 122.491 73.4521 122.491C73.4521 122.371 73.4521 122.251 73.3328 122.131L32.757 82.9429C32.6376 82.8227 32.5183 82.8227 32.399 82.9429C32.2796 82.9429 32.2797 83.0631 32.2797 83.1833L32.1603 122.01C32.1603 122.131 32.2796 122.251 32.399 122.251L73.2135 122.611ZM32.757 83.7844L72.4974 122.01L32.6377 121.65L32.757 83.7844Z" fill="#FFFDFD"/>
<path d="M-34.0744 50.3668L32.2792 82.7025L32.3985 -95.8053L-34.4324 -7.57314V-8.53479L32.3985 -96.8871C32.5179 -97.0073 32.6372 -97.0073 32.7565 -97.0073C32.8759 -97.0073 32.9952 -96.8871 32.9952 -96.7669L32.7565 83.0631C32.7565 83.1833 32.7566 83.3036 32.6372 83.3036H32.5178H32.3985L-34.0744 50.8476V50.3668Z" fill="#FFFDFD"/>
<path d="M32.4 122.251H32.5194C32.6387 122.251 32.6387 122.131 32.6387 122.01L32.7581 83.1834C32.7581 83.0632 32.7581 83.0632 32.6387 82.943C32.5194 82.943 32.5194 82.8228 32.4 82.8228L-21.3034 88.9533C-21.4227 88.9533 -21.5421 89.0735 -21.5421 89.1937C-21.5421 89.3139 -21.542 89.4342 -21.4227 89.5544L32.1614 122.251C32.2807 122.251 32.2807 122.251 32.4 122.251ZM32.2807 83.4238L32.1614 121.529L-20.2293 89.5544L32.2807 83.4238Z" fill="#FFFDFD"/>
<path d="M-33.9534 73.5667L-21.0646 88.9532L31.5646 82.9429L-34.0728 50.9677V50.3667L32.6387 82.9429C32.7581 82.9429 32.7581 83.0631 32.7581 83.3035C32.7581 83.4237 32.6387 83.5439 32.5194 83.5439L-21.184 89.6745C-21.3033 89.6745 -21.3033 89.6745 -21.4226 89.5543L-33.9534 74.5284V73.5667Z" fill="#FFFDFD"/>
<path d="M336.479 389.351L274.303 407.622H272.274L335.644 388.99L223.106 330.69L250.315 407.743H249.719L222.39 330.209C222.39 330.089 222.39 329.969 222.509 329.848C222.628 329.728 222.748 329.728 222.867 329.848L336.599 388.87C336.718 388.87 336.718 388.99 336.718 389.111C336.718 389.231 336.599 389.351 336.479 389.351Z" fill="#FFFDFD"/>
<path d="M249.839 407.863L222.629 330.57L148.877 366.632L239.695 407.863H238.382L148.041 366.872C147.922 366.872 147.922 366.752 147.922 366.632C147.922 366.512 148.041 366.392 148.041 366.392L222.629 329.969C222.749 329.969 222.749 329.969 222.868 329.969C222.987 329.969 222.987 330.089 222.987 330.089L250.436 407.863H249.839Z" fill="#FFFDFD"/>
<path d="M217.854 241.496H217.974L250.673 216.734C250.792 216.614 250.792 216.493 250.792 216.373C250.673 216.253 250.554 216.253 250.434 216.253L198.64 235.246C198.521 235.246 198.402 235.366 198.402 235.486C198.402 235.606 198.521 235.727 198.64 235.727L217.854 241.496C217.854 241.496 217.735 241.496 217.854 241.496ZM248.883 217.455L217.854 241.016L199.595 235.486L248.883 217.455Z" fill="#FFFDFD"/>
<path d="M198.64 235.726C198.64 235.726 198.76 235.726 198.64 235.726L250.554 216.734C250.673 216.734 250.792 216.613 250.792 216.493C250.792 216.373 250.673 216.253 250.554 216.253L182.291 194.014C182.171 194.014 182.052 194.014 182.052 194.135C181.933 194.255 181.933 194.375 182.052 194.375L198.402 235.606C198.402 235.726 198.521 235.726 198.64 235.726ZM249.599 216.493L198.76 235.125L182.649 194.615L249.599 216.493Z" fill="#FFFDFD"/>
<path d="M222.749 330.45C222.987 330.45 222.987 330.329 222.987 330.209L218.094 241.376C218.094 241.256 217.975 241.136 217.856 241.136L198.642 235.366C198.522 235.366 198.403 235.366 198.403 235.486C198.284 235.606 198.284 235.606 198.284 235.726L222.391 330.329C222.51 330.329 222.629 330.45 222.749 330.45ZM217.617 241.496L222.271 327.324L199 235.967L217.617 241.496Z" fill="#FFFDFD"/>
<path d="M63.9046 242.338L198.64 235.726C198.76 235.726 198.76 235.726 198.879 235.606C198.879 235.486 198.879 235.486 198.879 235.366L182.41 194.014C182.41 193.894 182.291 193.894 182.291 193.894C182.171 193.894 182.171 193.894 182.052 193.894L63.6659 241.737C63.5465 241.737 63.4272 241.977 63.5465 242.097C63.6658 242.218 63.7852 242.338 63.9046 242.338ZM198.282 235.246L65.5753 241.737L182.171 194.616L198.282 235.246Z" fill="#FFFDFD"/>
<path d="M182.291 194.495C182.53 194.495 182.53 194.375 182.53 194.255L196.373 86.5492C196.373 86.429 196.373 86.3088 196.254 86.3088C196.134 86.3088 196.015 86.3088 195.896 86.3088L122.143 144.249C122.024 144.249 122.024 144.369 122.024 144.489C122.024 144.609 122.024 144.609 122.143 144.73L182.052 194.495C182.172 194.495 182.172 194.495 182.291 194.495ZM195.657 87.1503L181.933 193.654L122.62 144.489L195.657 87.1503Z" fill="#FFFDFD"/>
<path d="M122.382 144.73C122.501 144.73 122.501 144.73 122.501 144.73L196.254 86.7896C196.373 86.6694 196.373 86.6694 196.373 86.5492C196.373 86.429 196.254 86.3088 196.254 86.3088L132.048 57.3389C131.929 57.3389 131.929 57.3389 131.81 57.3389C131.69 57.3389 131.69 57.4591 131.69 57.5793L122.143 144.609C122.143 144.73 122.143 144.85 122.262 144.85C122.262 144.73 122.262 144.73 122.382 144.73ZM195.538 86.5492L122.74 143.768L132.168 57.8197L195.538 86.5492Z" fill="#FFFDFD"/>
<path d="M131.81 57.6993C131.81 57.6993 131.93 57.6993 131.81 57.6993C131.93 57.6993 132.049 57.5791 132.049 57.4589L162.72 -70.682C162.72 -70.8022 162.72 -70.8022 162.72 -70.9224C162.72 -71.0427 162.6 -71.0427 162.481 -71.0427L32.7575 -96.8872C32.6382 -96.8872 32.5188 -96.8872 32.5188 -96.767C32.3995 -96.6468 32.3995 -96.5266 32.5188 -96.4064L131.572 57.5791C131.691 57.6993 131.691 57.6993 131.81 57.6993ZM162.123 -70.5618L131.691 56.7376L33.2349 -96.2862L162.123 -70.5618Z" fill="#FFFDFD"/>
<path d="M122.382 144.729H122.501C122.621 144.729 122.621 144.609 122.621 144.489L132.168 57.4589C132.168 57.3387 132.168 57.2185 132.049 57.2185C131.929 57.2185 131.81 57.2185 131.691 57.3387L73.0942 122.251C72.9749 122.371 72.9749 122.371 72.9749 122.491C72.9749 122.611 73.0942 122.611 73.0942 122.731L122.382 144.729C122.263 144.729 122.263 144.729 122.382 144.729ZM131.452 58.3004L122.143 144.008L73.8103 122.251L131.452 58.3004Z" fill="#FFFDFD"/>
<path d="M73.2141 122.611C73.3335 122.611 73.3334 122.611 73.4528 122.491L132.049 57.5792C132.169 57.459 132.169 57.3388 132.049 57.2186C131.93 57.0984 131.81 57.0984 131.691 57.0984L32.3995 82.8227C32.2802 82.8227 32.2802 82.943 32.1608 83.0632C32.1608 83.1834 32.1609 83.3036 32.2802 83.3036L72.9754 122.491C73.0948 122.611 73.2141 122.611 73.2141 122.611ZM130.975 57.9398L73.2141 121.89L33.1155 83.1834L130.975 57.9398Z" fill="#FFFDFD"/>
<path d="M32.5184 83.4237L131.929 57.6993C132.048 57.6993 132.049 57.5791 132.168 57.5791C132.168 57.4589 132.168 57.4589 132.168 57.3387L32.9957 -96.767C32.8764 -96.8872 32.7571 -96.8872 32.6377 -96.8872C32.5184 -96.8872 32.399 -96.767 32.399 -96.6468L32.1603 83.1832C32.1603 83.3034 32.1604 83.3035 32.2797 83.4237C32.3991 83.4237 32.5184 83.4237 32.5184 83.4237ZM131.332 57.2185L32.757 82.7024L32.9957 -95.8053L131.332 57.2185Z" fill="#FFFDFD"/>
<path d="M222.749 330.45C222.868 330.45 222.868 330.45 222.987 330.329C223.107 330.209 223.107 330.209 223.107 330.089L199 235.486C199 235.366 198.88 235.366 198.88 235.246C198.761 235.246 198.642 235.246 198.642 235.246L96.6052 306.288C96.4859 306.408 96.4859 306.408 96.4859 306.528C96.4859 306.649 96.6052 306.769 96.7246 306.769L222.749 330.45C222.749 330.45 222.629 330.45 222.749 330.45ZM198.522 235.967L222.391 329.849L97.4406 306.408L198.522 235.967Z" fill="#FFFDFD"/>
<path d="M148.161 366.873H148.28L222.868 330.45C222.987 330.45 222.987 330.33 222.987 330.209C222.987 330.089 222.868 329.969 222.749 329.969L96.7246 306.288C96.6053 306.288 96.486 306.288 96.486 306.408C96.486 306.528 96.486 306.649 96.486 306.769L148.041 366.873C147.922 366.873 148.041 366.873 148.161 366.873ZM221.794 330.33L148.161 366.271L97.3213 306.889L221.794 330.33Z" fill="#FFFDFD"/>
<path d="M96.6039 306.769H96.7233L198.76 235.727C198.879 235.606 198.879 235.486 198.879 235.366C198.879 235.246 198.76 235.125 198.64 235.125L63.9046 241.737C63.7853 241.737 63.6659 241.737 63.6659 241.857C63.6659 241.977 63.6659 242.097 63.6659 242.097L96.3653 306.529C96.4846 306.649 96.4846 306.769 96.6039 306.769ZM197.686 235.847L96.7233 306.048L64.3819 242.338L197.686 235.847Z" fill="#FFFDFD"/>
<path d="M113.193 379.374C113.193 379.374 113.312 379.374 113.193 379.374L148.16 366.873C148.279 366.873 148.279 366.752 148.279 366.632C148.279 366.512 148.279 366.392 148.279 366.392L96.724 306.288C96.6047 306.168 96.4853 306.168 96.366 306.168C96.2466 306.168 96.2466 306.408 96.2466 306.529L112.835 379.134C112.835 379.254 112.954 379.254 112.954 379.374C113.074 379.374 113.193 379.374 113.193 379.374ZM147.683 366.512L113.432 378.773L97.2014 307.61L147.683 366.512Z" fill="#FFFDFD"/>
<path d="M113.192 379.374C113.312 379.374 113.312 379.374 113.431 379.254C113.431 379.134 113.55 379.134 113.55 379.014L96.9621 306.408C96.9621 306.288 96.8427 306.288 96.7234 306.168C96.604 306.168 96.4847 306.168 96.4847 306.288L29.4152 371.561C29.2959 371.681 29.2959 371.801 29.2959 371.801C29.2959 371.921 29.4152 371.921 29.5345 372.042L113.192 379.374ZM96.4847 307.009L112.834 378.773L30.1312 371.441L96.4847 307.009Z" fill="#FFFDFD"/>
<path d="M96.6048 306.769C96.7242 306.769 96.7242 306.769 96.8435 306.649C96.9629 306.529 96.9629 306.408 96.8435 306.288L64.1441 241.857C64.1441 241.737 64.0248 241.737 63.9055 241.737C63.7861 241.737 63.7861 241.737 63.6668 241.737L27.0291 270.106C26.9098 270.106 26.9098 270.226 26.9098 270.346C26.9098 270.466 27.0291 270.587 27.0291 270.587L96.4855 306.529C96.6049 306.769 96.6048 306.769 96.6048 306.769ZM63.7861 242.458L96.0081 305.807L27.7451 270.466L63.7861 242.458Z" fill="#FFFDFD"/>
<path d="M29.5355 371.921C29.6549 371.921 29.6549 371.921 29.7742 371.801L96.8438 306.649C96.9631 306.529 96.9631 306.529 96.9631 306.409C96.9631 306.288 96.8438 306.288 96.7244 306.168L0.774394 277.318C0.655053 277.318 0.535697 277.318 0.535697 277.439C0.416356 277.559 0.416386 277.679 0.416386 277.679L29.2969 371.801C29.2969 371.921 29.4162 371.921 29.5355 371.921ZM96.1277 306.649L29.7742 371.2L1.25179 278.04L96.1277 306.649Z" fill="#FFFDFD"/>
<path d="M96.6042 306.769C96.7235 306.769 96.8429 306.649 96.8429 306.649C96.8429 306.529 96.8429 306.408 96.7235 306.288L27.2672 270.346C27.1479 270.346 27.1479 270.346 27.0285 270.346L0.534835 277.438C0.415494 277.438 0.296139 277.559 0.296139 277.679C0.296139 277.799 0.415494 277.919 0.534835 277.919L96.6042 306.769ZM27.1478 270.827L93.8594 305.326L1.84763 277.559L27.1478 270.827Z" fill="#FFFDFD"/>
<path d="M510.837 342.711C510.956 342.711 511.076 342.591 511.076 342.471C511.076 342.35 511.076 342.23 510.956 342.11L431.595 295.229C431.475 295.229 431.475 295.229 431.356 295.229C431.237 295.229 431.236 295.349 431.236 295.349L414.767 324.8C414.767 324.92 414.767 324.92 414.767 325.04C414.767 325.161 414.887 325.161 415.006 325.161L510.837 342.711C510.717 342.711 510.717 342.711 510.837 342.711ZM431.475 295.95L509.285 341.869L415.364 324.8L431.475 295.95Z" fill="#FFFDFD"/>
<path d="M414.887 325.281C415.006 325.281 415.006 325.281 414.887 325.281C415.006 325.281 415.125 325.161 415.125 325.161L431.594 295.71C431.594 295.59 431.594 295.59 431.594 295.469C431.594 295.349 431.475 295.349 431.356 295.349L382.307 285.492C382.187 285.492 382.068 285.492 382.068 285.612C381.949 285.733 382.068 285.853 382.068 285.973L414.648 325.281C414.767 325.161 414.887 325.281 414.887 325.281ZM430.878 295.71L414.887 324.439L383.023 286.093L430.878 295.71Z" fill="#FFFDFD"/>
<path d="M276.212 126.939C276.451 126.939 276.57 126.698 276.451 126.578L261.056 66.8351C261.056 66.7149 260.817 66.5947 260.698 66.5947C260.579 66.5947 260.459 66.8351 260.459 66.9553L275.854 126.698C275.974 126.819 276.093 126.939 276.212 126.939Z" fill="#FFFDFD"/>
<path d="M276.213 126.939C276.332 126.939 276.332 126.939 276.332 126.819C276.451 126.698 276.451 126.578 276.451 126.578L261.056 66.8353C261.056 66.7151 260.937 66.7151 260.937 66.7151C260.818 66.7151 260.818 66.7151 260.698 66.7151L196.016 86.3089C195.896 86.3089 195.777 86.4291 195.777 86.5493C195.777 86.6695 195.777 86.7897 195.896 86.7897L275.974 126.939C276.093 126.939 276.093 126.939 276.213 126.939ZM260.579 67.1959L275.735 126.097L196.851 86.5493L260.579 67.1959Z" fill="#FFFDFD"/>
<path d="M253.419 202.79C253.538 202.79 253.657 202.669 253.657 202.549L276.451 126.698C276.451 126.578 276.451 126.458 276.332 126.338C276.213 126.218 276.093 126.218 275.974 126.338L182.053 193.894C181.934 194.014 181.934 194.135 181.934 194.135C181.934 194.255 182.053 194.375 182.172 194.375L253.419 202.79C253.419 202.79 253.299 202.79 253.419 202.79ZM275.735 127.299L253.18 202.188L183.008 194.014L275.735 127.299Z" fill="#FFFDFD"/>
<path d="M182.291 194.495H182.411L276.332 126.939C276.451 126.939 276.451 126.819 276.451 126.698C276.451 126.578 276.332 126.458 276.332 126.458L196.254 86.3088C196.135 86.3088 196.135 86.3088 196.016 86.3088C195.896 86.3088 195.896 86.429 195.896 86.5492L182.053 194.255C182.053 194.375 182.053 194.495 182.172 194.495C182.172 194.495 182.172 194.495 182.291 194.495ZM275.616 126.698L182.53 193.654L196.254 86.9099L275.616 126.698Z" fill="#FFFDFD"/>
<path d="M302.229 255.921C302.348 255.921 302.348 255.921 302.468 255.801C302.587 255.681 302.587 255.561 302.468 255.44L253.538 202.309C253.419 202.188 253.419 202.188 253.299 202.188C253.18 202.188 253.18 202.309 253.061 202.429L250.196 216.373C250.196 216.493 250.196 216.613 250.316 216.613L302.11 255.921H302.229ZM253.538 203.15L299.962 253.637L250.793 216.373L253.538 203.15Z" fill="#FFFDFD"/>
<path d="M302.23 255.921C302.349 255.921 302.468 255.801 302.468 255.801C302.468 255.681 302.468 255.561 302.349 255.44L250.555 216.253C250.436 216.133 250.316 216.133 250.197 216.253L217.498 241.015C217.378 241.136 217.378 241.256 217.378 241.256C217.378 241.256 217.498 241.496 217.617 241.496L302.23 255.921ZM250.555 216.854L301.275 255.2L218.691 241.136L250.555 216.854Z" fill="#FFFDFD"/>
<path d="M222.747 330.45C222.867 330.45 222.867 330.45 222.986 330.33L302.586 255.801C302.706 255.681 302.706 255.561 302.706 255.561C302.706 255.441 302.586 255.441 302.467 255.32L218.093 240.896C217.974 240.896 217.974 240.896 217.854 241.016C217.735 241.016 217.735 241.136 217.735 241.256L222.628 330.089C222.389 330.33 222.509 330.33 222.747 330.45C222.628 330.45 222.628 330.45 222.747 330.45ZM301.632 255.801L222.986 329.488L218.212 241.497L301.632 255.801Z" fill="#FFFDFD"/>
<path d="M-33.4766 180.07L63.4281 241.496L32.1608 122.491L-33.5959 150.499V149.898L32.2802 121.89C32.3996 121.89 32.3995 121.89 32.5188 121.89C32.6382 121.89 32.6382 122.01 32.6382 122.131L64.1442 242.218C64.1442 242.338 64.1442 242.458 64.0249 242.458H63.9055H63.7862L-33.3573 180.792L-33.4766 180.07Z" fill="#FFFDFD"/>
<path d="M-33.1187 231.279L62.8314 241.617L-33.3574 180.671V179.95L64.1441 241.737C64.2634 241.857 64.2635 241.977 64.2635 242.097C64.2635 242.218 64.1441 242.338 64.0248 242.338L-32.9994 231.88L-33.1187 231.279Z" fill="#FFFDFD"/>
<path d="M-33.5965 149.778L30.7281 122.371L-33.7159 126.218V125.616L32.2796 121.65C32.399 121.65 32.5182 121.77 32.5182 121.89C32.5182 122.01 32.5183 122.13 32.3989 122.251L-33.5965 150.379V149.778Z" fill="#FFFDFD"/>
<path d="M414.886 325.281C415.005 325.281 415.005 325.281 415.125 325.16C415.244 325.04 415.244 324.92 415.125 324.8L382.544 285.492C382.544 285.372 382.425 285.372 382.306 285.372L317.862 285.131C317.742 285.131 317.623 285.252 317.623 285.372C317.623 285.492 317.623 285.612 317.742 285.732L414.886 325.281ZM382.186 285.973L414.05 324.319L319.413 285.853L382.186 285.973Z" fill="#FFFDFD"/>
<path d="M336.481 389.351C336.6 389.351 336.6 389.351 336.6 389.231L415.126 325.04C415.246 324.92 415.246 324.92 415.246 324.8C415.246 324.68 415.126 324.559 415.126 324.559L318.102 285.131C317.983 285.131 317.864 285.131 317.864 285.131C317.744 285.252 317.744 285.252 317.744 285.372L336.361 388.99C336.242 389.231 336.242 389.351 336.481 389.351C336.361 389.351 336.361 389.351 336.481 389.351ZM414.41 325.04L336.6 388.63L318.222 285.973L414.41 325.04Z" fill="#FFFDFD"/>
<path d="M382.306 285.973C382.425 285.973 382.544 285.853 382.544 285.733C382.544 285.612 382.545 285.492 382.425 285.372L302.347 255.32C302.228 255.32 302.109 255.32 301.989 255.441C301.87 255.561 301.87 255.681 301.989 255.801L317.623 285.612C317.623 285.733 317.742 285.733 317.862 285.733L382.306 285.973ZM302.825 256.162L380.754 285.372L317.981 285.132L302.825 256.162Z" fill="#FFFDFD"/>
<path d="M336.479 389.351H336.599C336.718 389.231 336.718 389.231 336.718 389.111L318.101 285.492C318.101 285.372 317.982 285.372 317.982 285.252C317.862 285.252 317.862 285.252 317.743 285.252L222.628 329.969C222.509 329.969 222.509 330.089 222.509 330.209C222.509 330.33 222.509 330.45 222.628 330.45L336.36 389.472C336.36 389.351 336.36 389.351 336.479 389.351ZM317.624 285.853L336.002 388.51L223.225 330.089L317.624 285.853Z" fill="#FFFDFD"/>
<path d="M222.747 330.45L317.981 285.733C318.101 285.733 318.101 285.612 318.101 285.612C318.101 285.492 318.101 285.492 318.101 285.372L302.467 255.561C302.467 255.44 302.348 255.44 302.228 255.44C302.109 255.44 302.109 255.44 301.99 255.561L222.389 330.089C222.27 330.209 222.27 330.33 222.389 330.45C222.509 330.45 222.628 330.45 222.747 330.45ZM317.504 285.372L224.179 329.127L302.109 256.041L317.504 285.372Z" fill="#FFFDFD"/>
<path d="M-32.8797 289.94L0.0582916 277.559L-32.999 258.446V257.845L0.893616 277.438C1.01296 277.438 1.013 277.559 1.013 277.679C1.013 277.799 0.893645 277.919 0.774305 277.919L-32.8797 290.541V289.94Z" fill="#FFFDFD"/>
<path d="M260.818 67.0757C260.937 67.0757 260.937 67.0757 261.057 66.9555C261.176 66.8353 261.057 66.5948 260.937 66.5948L196.255 23.0798C196.135 22.9596 195.897 23.0798 195.897 23.2C195.777 23.3202 195.897 23.5606 196.016 23.5606L260.699 67.0757C260.699 67.0757 260.699 67.0757 260.818 67.0757Z" fill="#FFFDFD"/>
<path d="M196.016 86.7895C196.135 86.7895 196.135 86.7895 196.016 86.7895L260.818 67.1958C260.937 67.1958 261.057 67.0756 261.057 66.9554C261.057 66.8351 261.057 66.7149 260.937 66.7149L196.254 23.1999C196.135 23.1999 196.016 23.0797 196.016 23.1999C195.896 23.1999 195.896 23.3201 195.896 23.4403V86.6693C195.896 86.7895 195.896 86.7896 196.016 86.9098C195.896 86.7896 196.016 86.7895 196.016 86.7895ZM260.102 66.7149L196.254 86.0683V23.8009L260.102 66.7149Z" fill="#FFFDFD"/>
<path d="M196.016 86.7897H196.136C196.255 86.7897 196.255 86.6695 196.255 86.5493V23.3202C196.255 23.2 196.255 23.0798 196.136 23.0798C196.016 23.0798 195.897 23.0798 195.897 23.0798L131.572 57.2187C131.453 57.2187 131.453 57.3389 131.453 57.4591C131.453 57.5793 131.572 57.6995 131.572 57.6995L196.016 86.7897ZM195.897 23.8011V86.0684L132.527 57.4591L195.897 23.8011Z" fill="#FFFDFD"/>
<path d="M131.81 57.6996H131.929L196.254 23.5607C196.373 23.4405 196.493 23.3203 196.373 23.2001L162.719 -70.9222C162.719 -71.0424 162.6 -71.1626 162.48 -71.1626C162.361 -71.1626 162.242 -71.0424 162.242 -70.9222L131.571 57.339C131.571 57.4592 131.571 57.5794 131.691 57.5794C131.691 57.6996 131.81 57.6996 131.81 57.6996ZM195.777 23.2001L132.287 56.9784L162.6 -69.8403L195.777 23.2001Z" fill="#FFFDFD"/>
<path d="M-32.6423 329.007L29.0569 370.96L0.653777 278.159L-32.6423 321.314V320.352L0.534392 277.318C0.653733 277.198 0.653748 277.198 0.773088 277.198C0.892429 277.198 1.01178 277.318 1.01178 277.438L29.8923 371.561C29.8923 371.681 29.8922 371.801 29.7729 371.921H29.6536H29.5342L-32.523 329.728L-32.6423 329.007Z" fill="#FFFDFD"/>
<path d="M-32.4037 386.947L28.8182 371.561L-32.7617 329.729V329.007L29.7729 371.44C29.8922 371.561 29.8923 371.561 29.8923 371.681C29.8923 371.801 29.7729 371.921 29.6536 371.921L-32.4037 387.428V386.947Z" fill="#FFFDFD"/>
<path d="M-32.76 320.472L-0.179888 278.159L-32.9987 290.421V289.82L0.536128 277.198C0.655469 277.198 0.774796 277.198 0.894137 277.318C1.01348 277.438 1.01348 277.558 0.894137 277.679L-32.76 321.314V320.472Z" fill="#FFFDFD"/>
<path d="M122.381 148.216C120.338 148.216 118.682 146.547 118.682 144.489C118.682 142.431 120.338 140.763 122.381 140.763C124.425 140.763 126.081 142.431 126.081 144.489C126.081 146.547 124.425 148.216 122.381 148.216Z" fill="#FFFDFD"/>
<path d="M122.262 140.763C120.233 140.763 118.562 142.446 118.562 144.489C118.562 146.533 120.233 148.215 122.262 148.215C124.291 148.215 125.962 146.533 125.962 144.489C126.081 142.325 124.41 140.763 122.262 140.763ZM122.262 139.561C124.888 139.561 127.155 141.724 127.155 144.369C127.155 147.013 125.007 149.297 122.381 149.297C119.756 149.297 117.488 147.134 117.488 144.489C117.488 141.844 119.636 139.561 122.262 139.561Z" fill="#CCE3FF"/>
<path d="M71.662 122.371C71.662 121.529 72.378 120.808 73.2134 120.808C74.0488 120.808 74.7648 121.529 74.7648 122.371C74.7648 123.212 74.0488 123.933 73.2134 123.933C72.378 123.933 71.662 123.212 71.662 122.371Z" fill="#FFFDFD"/>
<path d="M73.2133 120.688C72.3779 120.688 71.6619 121.409 71.6619 122.251C71.6619 123.092 72.3779 123.813 73.2133 123.813C74.0487 123.813 74.7647 123.092 74.7647 122.251C74.7647 121.409 74.168 120.688 73.2133 120.688ZM73.2133 119.606C74.7647 119.606 75.9581 120.808 75.9581 122.371C75.9581 123.933 74.7647 125.135 73.2133 125.135C71.6619 125.135 70.4685 123.933 70.4685 122.371C70.4685 120.808 71.7812 119.606 73.2133 119.606Z" fill="#CCE3FF"/>
<path d="M32.5172 86.7894C30.4884 86.7894 28.8176 85.1065 28.8176 83.1832C28.8176 81.1397 30.4884 79.4568 32.3978 79.4568C34.4266 79.4568 36.0974 81.1397 36.0974 83.063C36.2167 85.1065 34.5459 86.7894 32.5172 86.7894Z" fill="#FFFDFD"/>
<path d="M32.518 79.4567C30.4892 79.4567 28.8184 81.1396 28.9378 83.1831C28.9378 85.2267 30.6086 86.9096 32.6374 86.7893C34.6662 86.7893 36.3369 85.1064 36.2176 83.0629C36.2176 81.0194 34.5468 79.4567 32.518 79.4567ZM32.518 78.2546C35.1435 78.2546 37.2916 80.4184 37.2916 83.0629C37.2916 85.7075 35.1435 87.8712 32.518 87.8712C29.8925 87.8712 27.7444 85.7075 27.7444 83.0629C27.7444 80.5386 29.8925 78.3748 32.518 78.2546Z" fill="#CCE3FF"/>
<path d="M198.641 232.12C200.431 232.12 201.982 233.563 201.982 235.486C201.982 237.289 200.55 238.852 198.641 238.852C196.731 238.852 195.299 237.409 195.299 235.486C195.299 233.683 196.851 232.12 198.641 232.12Z" fill="#FFFDFD"/>
<path d="M198.641 232.12C196.851 232.12 195.299 233.683 195.299 235.486C195.299 237.289 196.851 238.852 198.641 238.852C200.431 238.852 201.982 237.289 201.982 235.486C201.982 233.683 200.431 232.12 198.641 232.12ZM198.641 231.038C201.027 231.038 203.056 232.961 203.056 235.486C203.056 237.89 201.147 239.933 198.641 239.933C196.254 239.933 194.225 238.01 194.225 235.486C194.225 233.082 196.254 231.038 198.641 231.038Z" fill="#CCE3FF"/>
<path d="M96.6045 304.365C97.7979 304.365 98.6333 305.326 98.6333 306.408C98.6333 307.61 97.6786 308.452 96.6045 308.452C95.4111 308.452 94.5757 307.49 94.5757 306.408C94.5757 305.326 95.5304 304.365 96.6045 304.365Z" fill="#FFFDFD"/>
<path d="M96.6044 304.365C95.411 304.365 94.5756 305.326 94.5756 306.408C94.5756 307.61 95.5303 308.452 96.6044 308.452C97.7978 308.452 98.6332 307.49 98.6332 306.408C98.6332 305.326 97.7978 304.365 96.6044 304.365ZM96.6044 303.283C98.3945 303.283 99.8267 304.725 99.8267 306.528C99.8267 308.331 98.3945 309.774 96.6044 309.774C94.8143 309.774 93.3822 308.331 93.3822 306.528C93.5015 304.725 94.8143 303.283 96.6044 303.283Z" fill="#CCE3FF"/>
<path d="M27.1471 266.5C29.2953 266.5 31.0854 268.303 31.2048 270.466C31.2048 272.63 29.4147 274.433 27.2665 274.553C25.1184 274.553 23.3282 272.75 23.2089 270.587C23.2089 268.303 24.999 266.5 27.1471 266.5Z" fill="#FFFDFD"/>
<path d="M27.1472 266.499C24.999 266.499 23.2089 268.303 23.2089 270.587C23.2089 272.75 24.9991 274.553 27.2666 274.553C29.4147 274.553 31.2048 272.75 31.2048 270.466C31.2048 268.303 29.4147 266.499 27.1472 266.499ZM27.1472 265.297C30.0114 265.297 32.2789 267.581 32.2789 270.466C32.2789 273.351 30.0114 275.635 27.1472 275.635C24.283 275.635 22.0155 273.351 22.0155 270.466C22.1348 267.702 24.4023 265.297 27.1472 265.297Z" fill="#CCE3FF"/>
<path d="M510.717 340.667C511.672 340.667 512.388 341.389 512.388 342.35C512.388 343.312 511.672 344.033 510.717 344.033C509.763 344.033 509.047 343.312 509.047 342.35C509.166 341.509 509.882 340.788 510.717 340.667Z" fill="#FFFDFD"/>
<path d="M510.717 340.667C509.763 340.667 509.047 341.389 509.047 342.35C509.047 343.312 509.763 344.033 510.717 344.033C511.672 344.033 512.388 343.312 512.388 342.35C512.388 341.509 511.672 340.667 510.717 340.667ZM510.717 339.585C512.269 339.585 513.462 340.788 513.462 342.35C513.462 343.913 512.269 345.115 510.717 345.115C509.166 345.115 507.973 343.913 507.973 342.35C507.973 340.908 509.285 339.585 510.717 339.585Z" fill="#CCE3FF"/>
<path d="M431.355 292.825C432.788 292.825 433.981 294.027 433.981 295.469C433.981 296.912 432.788 298.114 431.355 298.114C429.923 298.114 428.73 296.912 428.73 295.469C428.73 294.027 429.923 292.825 431.355 292.825Z" fill="#FFFDFD"/>
<path d="M431.355 292.825C429.923 292.825 428.73 294.027 428.73 295.469C428.73 296.912 429.923 298.114 431.355 298.114C432.787 298.114 433.981 296.912 433.981 295.469C433.981 294.027 432.787 292.825 431.355 292.825ZM431.355 291.743C433.384 291.743 435.174 293.426 435.174 295.469C435.174 297.513 433.503 299.316 431.475 299.316C429.446 299.316 427.656 297.633 427.656 295.589C427.536 293.426 429.207 291.743 431.355 291.743Z" fill="#CCE3FF"/>
<path d="M276.213 125.016C277.048 125.016 277.764 125.737 277.764 126.578C277.764 127.42 277.048 128.141 276.213 128.141C275.377 128.141 274.661 127.42 274.661 126.578C274.542 125.737 275.258 125.016 276.213 125.016Z" fill="#FFFDFD"/>
<path d="M276.213 125.016C275.377 125.016 274.661 125.737 274.661 126.578C274.661 127.42 275.377 128.141 276.213 128.141C277.048 128.141 277.764 127.42 277.764 126.578C277.764 125.737 277.048 125.016 276.213 125.016ZM276.213 123.813C277.764 123.813 278.957 125.016 278.957 126.578C278.957 128.141 277.764 129.343 276.213 129.343C274.661 129.343 273.468 128.141 273.468 126.578C273.468 125.136 274.661 123.934 276.213 123.813Z" fill="#CCE3FF"/>
<path d="M182.292 190.528C184.321 190.528 185.992 192.211 185.992 194.135C185.992 196.178 184.321 197.861 182.412 197.861C180.383 197.861 178.712 196.178 178.712 194.255C178.593 192.211 180.264 190.528 182.292 190.528Z" fill="#FFFDFD"/>
<path d="M182.291 190.528C180.263 190.528 178.592 192.211 178.711 194.255C178.711 196.298 180.382 197.981 182.411 197.861C184.44 197.861 186.11 196.178 185.991 194.135C185.872 192.091 184.201 190.528 182.291 190.528ZM182.172 189.447C184.798 189.447 186.946 191.61 186.946 194.255C186.946 196.899 184.798 199.063 182.172 199.063C179.547 199.063 177.398 196.899 177.398 194.255C177.518 191.61 179.547 189.447 182.172 189.447Z" fill="#CCE3FF"/>
<path d="M253.419 204.352C252.464 204.352 251.629 203.511 251.629 202.549C251.629 201.588 252.464 200.746 253.419 200.746C254.374 200.746 255.209 201.588 255.209 202.549C255.209 203.511 254.374 204.352 253.419 204.352Z" fill="#FFFDFD"/>
<path d="M253.419 200.626C252.464 200.626 251.629 201.467 251.629 202.429C251.629 203.391 252.464 204.232 253.419 204.232C254.374 204.232 255.209 203.391 255.209 202.429C255.209 201.467 254.374 200.626 253.419 200.626ZM253.419 199.544C255.09 199.544 256.402 200.866 256.402 202.549C256.402 204.232 255.09 205.554 253.419 205.554C251.748 205.554 250.436 204.232 250.436 202.549C250.436 200.866 251.748 199.544 253.419 199.544Z" fill="#CCE3FF"/>
<path d="M250.435 214.45C251.628 214.45 252.464 215.411 252.464 216.493C252.464 217.695 251.509 218.537 250.435 218.537C249.241 218.537 248.406 217.575 248.406 216.493C248.406 215.411 249.361 214.45 250.435 214.45Z" fill="#FFFDFD"/>
<path d="M250.435 214.45C249.241 214.45 248.406 215.411 248.406 216.493C248.406 217.695 249.361 218.537 250.435 218.537C251.628 218.537 252.464 217.575 252.464 216.493C252.583 215.291 251.628 214.45 250.435 214.45ZM250.435 213.248C252.225 213.248 253.657 214.69 253.657 216.373C253.657 218.176 252.225 219.619 250.554 219.619C248.764 219.619 247.332 218.176 247.332 216.493C247.332 214.69 248.764 213.248 250.435 213.248Z" fill="#CCE3FF"/>
<path d="M217.856 239.693C218.691 239.693 219.526 240.415 219.526 241.256C219.526 242.098 218.81 242.939 217.975 242.939C217.14 242.939 216.304 242.218 216.304 241.376C216.185 240.415 216.901 239.693 217.856 239.693Z" fill="#FFFDFD"/>
<path d="M217.856 239.693C217.02 239.693 216.304 240.415 216.304 241.376C216.304 242.218 217.02 242.939 217.975 242.939C218.93 242.939 219.526 242.218 219.526 241.256C219.407 240.415 218.691 239.693 217.856 239.693ZM217.856 238.491C219.407 238.491 220.6 239.693 220.6 241.256C220.6 242.819 219.407 244.021 217.856 244.021C216.304 244.021 215.111 242.819 215.111 241.256C215.111 239.813 216.304 238.491 217.856 238.491Z" fill="#CCE3FF"/>
<path d="M63.9052 239.212C65.4566 239.212 66.7693 240.414 66.7693 241.977C66.7693 243.54 65.5759 244.862 64.0245 244.862C62.4731 244.862 61.1604 243.66 61.1604 242.097C61.041 240.535 62.3538 239.212 63.9052 239.212Z" fill="#FFFDFD"/>
<path d="M63.9052 239.212C62.3538 239.212 61.1603 240.535 61.1603 242.097C61.1603 243.66 62.4731 244.862 64.0246 244.862C65.576 244.862 66.7694 243.54 66.7694 241.977C66.6501 240.535 65.4567 239.212 63.9052 239.212ZM63.9052 238.13C66.0534 238.13 67.8435 239.933 67.8435 242.097C67.8435 244.261 66.0534 246.064 63.9052 246.064C61.7571 246.064 59.9669 244.261 59.9669 242.097C59.9669 239.933 61.7571 238.13 63.9052 238.13Z" fill="#CCE3FF"/>
<path d="M32.3994 118.765C34.1895 118.765 35.6216 120.207 35.6216 122.01C35.6216 123.813 34.1895 125.256 32.3994 125.256C30.6092 125.256 29.1771 123.813 29.1771 122.01C29.1771 120.207 30.6092 118.765 32.3994 118.765Z" fill="#FFFDFD"/>
<path d="M32.3993 118.765C30.6091 118.765 29.177 120.207 29.177 122.01C29.177 123.813 30.6091 125.256 32.3993 125.256C34.1894 125.256 35.6215 123.813 35.6215 122.01C35.6215 120.207 34.07 118.765 32.3993 118.765ZM32.2799 117.562C34.6668 117.562 36.5761 119.486 36.6955 121.89C36.8148 124.294 34.7861 126.217 32.3993 126.338C30.0124 126.338 28.103 124.414 27.9836 122.01C27.9836 119.606 29.8931 117.683 32.2799 117.562Z" fill="#CCE3FF"/>
<path d="M414.886 321.434C416.796 321.434 418.347 322.997 418.347 324.92C418.347 326.843 416.796 328.406 414.886 328.406C412.977 328.406 411.426 326.843 411.426 324.92C411.426 322.997 412.977 321.434 414.886 321.434Z" fill="#FFFDFD"/>
<path d="M414.886 321.434C412.977 321.434 411.425 322.997 411.425 324.92C411.425 326.843 412.977 328.406 414.886 328.406C416.796 328.406 418.347 326.843 418.347 324.92C418.467 322.997 416.796 321.434 414.886 321.434ZM414.886 320.352C417.393 320.352 419.541 322.396 419.541 324.92C419.541 327.444 417.512 329.608 415.006 329.608C412.5 329.608 410.351 327.565 410.351 325.04C410.351 322.396 412.38 320.352 414.886 320.352Z" fill="#CCE3FF"/>
<path d="M380.279 285.732C380.279 284.651 381.114 283.689 382.307 283.689C383.382 283.689 384.336 284.53 384.336 285.732C384.336 286.814 383.501 287.776 382.307 287.776C381.233 287.776 380.279 286.814 380.279 285.732Z" fill="#FFFDFD"/>
<path d="M382.308 283.689C381.233 283.689 380.279 284.65 380.279 285.732C380.279 286.814 381.233 287.776 382.308 287.776C383.382 287.776 384.336 286.814 384.336 285.732C384.336 284.53 383.382 283.689 382.308 283.689ZM382.308 282.607C383.978 282.607 385.41 284.049 385.41 285.732C385.41 287.415 383.978 288.858 382.308 288.858C380.637 288.858 379.205 287.415 379.205 285.732C379.205 284.049 380.637 282.607 382.308 282.607Z" fill="#CCE3FF"/>
<path d="M317.862 282.126C319.652 282.126 321.204 283.569 321.204 285.492C321.204 287.295 319.772 288.858 317.862 288.858C316.072 288.858 314.521 287.416 314.521 285.492C314.521 283.689 316.072 282.126 317.862 282.126Z" fill="#FFFDFD"/>
<path d="M317.862 282.126C316.072 282.126 314.521 283.689 314.521 285.492C314.521 287.295 316.072 288.858 317.862 288.858C319.652 288.858 321.204 287.295 321.204 285.492C321.204 283.689 319.652 282.126 317.862 282.126ZM317.862 281.044C320.249 281.044 322.278 282.968 322.278 285.492C322.278 287.896 320.368 289.94 317.862 289.94C315.475 289.94 313.447 288.016 313.447 285.492C313.447 283.088 315.475 281.044 317.862 281.044Z" fill="#CCE3FF"/>
<path d="M222.747 327.204C224.298 327.204 225.611 328.526 225.611 330.089C225.611 331.652 224.298 332.974 222.747 332.974C221.196 332.974 219.883 331.652 219.883 330.089C219.883 328.526 221.076 327.204 222.747 327.204Z" fill="#FFFDFD"/>
<path d="M222.747 327.204C221.195 327.204 219.883 328.526 219.883 330.089C219.883 331.652 221.195 332.974 222.747 332.974C224.298 332.974 225.611 331.652 225.611 330.089C225.611 328.526 224.298 327.204 222.747 327.204ZM222.747 326.122C224.895 326.122 226.805 327.925 226.805 330.089C226.805 332.253 225.014 334.176 222.866 334.176C220.718 334.176 218.809 332.373 218.809 330.209C218.689 327.925 220.479 326.122 222.747 326.122Z" fill="#CCE3FF"/>
<path d="M302.229 253.517C303.423 253.517 304.377 254.479 304.377 255.681C304.377 256.883 303.423 257.845 302.229 257.845C301.036 257.845 300.081 256.883 300.081 255.681C300.081 254.479 301.036 253.517 302.229 253.517Z" fill="#FFFDFD"/>
<path d="M302.229 253.517C301.036 253.517 300.081 254.479 300.081 255.681C300.081 256.883 301.036 257.844 302.229 257.844C303.423 257.844 304.377 256.883 304.377 255.681C304.377 254.479 303.423 253.517 302.229 253.517ZM302.229 252.435C304.019 252.435 305.451 253.878 305.451 255.681C305.451 257.484 304.019 258.926 302.229 258.926C300.439 258.926 299.007 257.484 299.007 255.681C299.007 253.878 300.439 252.435 302.229 252.435Z" fill="#CCE3FF"/>
<path d="M260.818 64.3105C262.25 64.3105 263.324 65.3924 263.324 66.8349C263.324 68.2774 262.25 69.3592 260.818 69.3592C259.386 69.3592 258.311 68.2774 258.311 66.8349C258.311 65.5126 259.386 64.3105 260.818 64.3105Z" fill="#FFFDFD"/>
<path d="M260.818 64.3106C259.385 64.3106 258.311 65.5127 258.311 66.835C258.311 68.2775 259.505 69.3593 260.818 69.3593C262.13 69.3593 263.324 68.1573 263.324 66.835C263.324 65.3925 262.13 64.3106 260.818 64.3106ZM260.818 63.2288C262.846 63.2288 264.517 64.9117 264.517 66.835C264.517 68.8785 262.846 70.5614 260.937 70.5614C258.908 70.5614 257.237 68.8785 257.237 66.9552C257.118 64.7915 258.789 63.2288 260.818 63.2288Z" fill="#CCE3FF"/>
<path d="M196.016 84.626C197.09 84.626 197.925 85.4674 197.925 86.5493C197.925 87.6312 197.09 88.4726 196.016 88.4726C194.942 88.4726 194.106 87.6312 194.106 86.5493C194.226 85.4674 195.061 84.626 196.016 84.626Z" fill="#FFFDFD"/>
<path d="M196.016 84.6259C194.942 84.6259 194.106 85.4674 194.106 86.5492C194.106 87.6311 194.942 88.4725 196.016 88.4725C197.09 88.4725 197.925 87.6311 197.925 86.5492C197.925 85.4674 197.09 84.6259 196.016 84.6259ZM196.016 83.4238C197.687 83.4238 198.999 84.7461 198.999 86.429C198.999 88.1119 197.687 89.4342 196.016 89.4342C194.345 89.4342 193.032 88.1119 193.032 86.429C193.032 84.8663 194.345 83.4238 196.016 83.4238Z" fill="#CCE3FF"/>
<path d="M196.134 27.407C193.867 27.407 192.077 25.6039 192.077 23.32C192.077 21.036 193.867 19.2329 196.134 19.2329C198.402 19.2329 200.192 21.036 200.192 23.32C200.192 25.4837 198.402 27.407 196.134 27.407Z" fill="#FFFDFD"/>
<path d="M196.134 19.2328C193.867 19.2328 192.077 21.0359 192.077 23.3199C192.077 25.6038 193.867 27.4069 196.134 27.4069C198.402 27.4069 200.192 25.6038 200.192 23.3199C200.192 21.0359 198.282 19.2328 196.134 19.2328ZM196.134 18.0308C198.998 18.0308 201.266 20.3147 201.266 23.1997C201.266 26.0846 198.998 28.3686 196.134 28.3686C193.27 28.3686 191.002 26.0846 191.002 23.1997C190.883 20.4349 193.27 18.151 196.134 18.0308Z" fill="#CCE3FF"/>
<path d="M131.81 55.4155C133.004 55.4155 133.839 56.3772 133.839 57.459C133.839 58.6611 132.884 59.5026 131.81 59.5026C130.617 59.5026 129.781 58.5409 129.781 57.459C129.781 56.257 130.736 55.4155 131.81 55.4155Z" fill="#FFFDFD"/>
<path d="M131.81 55.4155C130.617 55.4155 129.781 56.3771 129.781 57.459C129.781 58.6611 130.736 59.5025 131.81 59.5025C133.004 59.5025 133.839 58.5408 133.839 57.459C133.839 56.2569 133.004 55.4155 131.81 55.4155ZM131.81 54.2134C133.6 54.2134 135.032 55.6559 135.032 57.459C135.032 59.2621 133.6 60.7046 131.81 60.7046C130.02 60.7046 128.588 59.2621 128.588 57.459C128.588 55.6559 130.02 54.2134 131.81 54.2134Z" fill="#CCE3FF"/>
<path d="M0.77417 280.203C-0.675839 280.203 -1.85132 279.019 -1.85132 277.559C-1.85132 276.098 -0.675839 274.914 0.77417 274.914C2.22418 274.914 3.39966 276.098 3.39966 277.559C3.39966 279.019 2.22418 280.203 0.77417 280.203Z" fill="#FFFDFD"/>
<path d="M0.774109 274.914C-0.657977 274.914 -1.8514 276.116 -1.8514 277.558C-1.8514 279.001 -0.657977 280.203 0.774109 280.203C2.20619 280.203 3.39961 279.001 3.39961 277.558C3.39961 276.116 2.20619 274.914 0.774109 274.914ZM0.774109 273.832C2.92224 273.832 4.59302 275.515 4.59302 277.679C4.59302 279.842 2.92224 281.525 0.774109 281.525C-1.37402 281.525 -3.0448 279.842 -3.0448 277.679C-3.0448 275.515 -1.37402 273.832 0.774109 273.832Z" fill="#CCE3FF"/>
</svg>
