<svg width="519" height="346" viewBox="0 0 519 346" fill="none" xmlns="http://www.w3.org/2000/svg">
<path d="M548.758 124.895L483.503 121.07L536.209 89.1594L548.878 98.9597V98.2426L536.448 88.5618C536.329 88.4423 536.209 88.4423 536.09 88.5618L482.428 121.07C482.308 121.19 482.308 121.309 482.308 121.429C482.308 121.548 482.428 121.668 482.547 121.668L548.758 125.612V124.895Z" fill="#FFFDFD"/>
<path d="M548.042 256.243L514.22 275.724L488.644 268.912L548.162 246.084V245.487L487.688 268.673C487.568 268.673 487.449 268.792 487.449 268.912C487.449 269.032 487.568 269.151 487.688 269.151L514.22 276.203C514.22 276.203 514.22 276.203 514.339 276.203H514.459L548.162 256.841L548.042 256.243Z" fill="#FFFDFD"/>
<path d="M264.076 215.488H263.956C263.837 215.488 263.837 215.369 263.837 215.249L260.969 201.385C260.969 201.266 260.969 201.266 260.969 201.146C260.969 201.027 261.088 201.027 261.208 201.027L332.438 192.78C332.558 192.78 332.677 192.9 332.797 193.019C332.797 193.139 332.797 193.258 332.558 193.378L264.076 215.488C264.195 215.488 264.195 215.488 264.076 215.488ZM261.566 201.624L264.315 214.891L329.689 193.736L261.566 201.624Z" fill="#FFFDFD"/>
<path d="M75.4824 385.56H75.3629L41.5404 363.927C41.4208 363.927 41.4208 363.808 41.4208 363.688C41.4208 363.569 41.4208 363.449 41.5404 363.449L99.2658 322.933C99.3853 322.814 99.5048 322.814 99.6243 322.933C99.7438 323.053 99.7438 323.172 99.7438 323.292L75.841 385.44C75.7214 385.44 75.7214 385.44 75.4824 385.56C75.6019 385.56 75.6019 385.56 75.4824 385.56ZM42.2575 363.688L75.4824 384.843L98.9072 323.89L42.2575 363.688Z" fill="#FFFDFD"/>
<path d="M178.025 387.114L75.4821 385.441C75.3626 385.441 75.3626 385.441 75.2431 385.321C75.2431 385.202 75.1235 385.202 75.2431 385.082L99.1459 322.933C99.1459 322.814 99.2654 322.814 99.3849 322.814C99.5044 322.814 99.624 322.814 99.624 322.814L178.264 386.636C178.384 386.755 178.384 386.875 178.384 386.994C178.264 387.114 178.145 387.114 178.025 387.114ZM75.9602 384.963L177.308 386.636L99.624 323.651L75.9602 384.963Z" fill="#FFFDFD"/>
<path d="M450.995 240.945C450.995 240.945 450.875 240.945 450.995 240.945L332.317 193.378C332.197 193.378 332.198 193.258 332.198 193.139C332.198 193.019 332.197 192.9 332.317 192.9L392.313 143.42C392.433 143.42 392.433 143.3 392.552 143.3C392.672 143.3 392.672 143.42 392.791 143.42L451.353 240.467C451.473 240.587 451.353 240.706 451.353 240.826C451.114 240.945 451.114 240.945 450.995 240.945ZM333.034 193.019L450.397 240.109L392.433 144.017L333.034 193.019Z" fill="#FFFDFD"/>
<path d="M450.996 240.945C450.876 240.945 450.757 240.945 450.757 240.826L392.195 143.778C392.195 143.659 392.195 143.659 392.195 143.539C392.195 143.42 392.314 143.42 392.314 143.42L441.435 121.429C441.554 121.429 441.554 121.429 441.674 121.429C441.793 121.429 441.793 121.548 441.793 121.668L451.115 240.706C451.235 240.826 451.235 240.945 450.996 240.945ZM392.912 143.778L450.637 239.511L441.435 122.026L392.912 143.778Z" fill="#FFFDFD"/>
<path d="M450.996 240.945C450.877 240.945 450.757 240.826 450.757 240.706L441.435 121.668C441.435 121.548 441.435 121.548 441.555 121.429C441.555 121.429 441.674 121.309 441.794 121.309L482.787 120.951C482.787 120.951 482.907 120.951 483.026 121.07C483.026 121.19 483.146 121.19 483.026 121.309L451.474 240.706C451.235 240.826 451.116 240.945 450.996 240.945ZM441.913 121.907L451.116 239.033L482.189 121.548L441.913 121.907Z" fill="#FFFDFD"/>
<path d="M548.161 245.487L487.806 268.553L451.713 240.826L548.161 230.428V229.83L450.876 240.228C450.757 240.228 450.637 240.348 450.637 240.467C450.637 240.587 450.637 240.706 450.757 240.706L487.448 268.912H487.567H487.687L547.922 245.845L548.161 245.487Z" fill="#FFFDFD"/>
<path d="M441.674 121.907C441.555 121.907 441.435 121.787 441.435 121.787C441.435 121.668 441.435 121.548 441.555 121.429L482.19 82.4663C482.309 82.3468 482.429 82.3468 482.548 82.4663C482.668 82.4663 482.668 82.5859 482.668 82.7054L482.787 121.309C482.787 121.429 482.668 121.548 482.548 121.548L441.674 121.907ZM482.19 83.303L442.391 121.309L482.309 120.951L482.19 83.303Z" fill="#FFFDFD"/>
<path d="M549.118 50.0774L482.668 82.2273L482.548 -95.2545L549.477 -7.52952V-8.48564L482.548 -96.3302C482.429 -96.4497 482.309 -96.4497 482.19 -96.4497C482.07 -96.4497 481.951 -96.3302 481.951 -96.2107L482.19 82.5858C482.19 82.7054 482.19 82.8249 482.309 82.8249H482.429H482.548L549.118 50.5555V50.0774Z" fill="#FFFDFD"/>
<path d="M482.547 121.548H482.428C482.308 121.548 482.308 121.429 482.308 121.309L482.188 82.7055C482.188 82.586 482.188 82.586 482.308 82.4664C482.427 82.4664 482.427 82.3469 482.547 82.3469L536.328 88.4423C536.448 88.4423 536.568 88.5618 536.568 88.6813C536.568 88.8008 536.567 88.9203 536.448 89.0398L482.786 121.548C482.667 121.548 482.667 121.548 482.547 121.548ZM482.666 82.9445L482.786 120.831L535.253 89.0398L482.666 82.9445Z" fill="#FFFDFD"/>
<path d="M548.997 73.1441L536.089 88.4422L483.384 82.4663L549.116 50.675V50.0774L482.308 82.4663C482.188 82.4663 482.188 82.5859 482.188 82.8249C482.188 82.9444 482.308 83.0639 482.428 83.0639L536.209 89.1593C536.328 89.1593 536.328 89.1593 536.448 89.0397L548.997 74.1002V73.1441Z" fill="#FFFDFD"/>
<path d="M178.026 387.113L240.293 405.28H242.324L178.862 386.755L291.564 328.79L264.315 405.4H264.913L292.281 328.311C292.281 328.192 292.281 328.072 292.162 327.953C292.042 327.833 291.923 327.833 291.803 327.953L177.906 386.635C177.787 386.635 177.787 386.755 177.787 386.874C177.787 386.994 177.906 387.113 178.026 387.113Z" fill="#FFFDFD"/>
<path d="M264.792 405.519L292.041 328.67L365.901 364.525L274.951 405.519H276.265L366.738 364.764C366.857 364.764 366.857 364.645 366.857 364.525C366.857 364.406 366.738 364.286 366.738 364.286L292.041 328.073C291.922 328.073 291.922 328.073 291.802 328.073C291.683 328.073 291.683 328.192 291.683 328.192L264.194 405.519H264.792Z" fill="#FFFDFD"/>
<path d="M296.823 240.108H296.704L263.957 215.488C263.837 215.368 263.837 215.249 263.837 215.129C263.957 215.01 264.076 215.01 264.196 215.01L316.065 233.893C316.184 233.893 316.304 234.013 316.304 234.132C316.304 234.252 316.184 234.371 316.065 234.371L296.823 240.108C296.943 240.108 296.823 240.108 296.823 240.108ZM265.749 216.205L296.823 239.63L315.109 234.132L265.749 216.205Z" fill="#FFFDFD"/>
<path d="M316.065 234.372C316.065 234.372 315.945 234.372 316.065 234.372L264.076 215.488C263.957 215.488 263.837 215.369 263.837 215.249C263.837 215.129 263.957 215.01 264.076 215.01L332.438 192.899C332.558 192.899 332.677 192.899 332.677 193.019C332.797 193.138 332.797 193.258 332.677 193.258L316.304 234.252C316.304 234.372 316.184 234.372 316.065 234.372ZM265.032 215.249L315.945 233.774L332.08 193.497L265.032 215.249Z" fill="#FFFDFD"/>
<path d="M291.922 328.551C291.683 328.551 291.683 328.431 291.683 328.312L296.583 239.989C296.583 239.869 296.702 239.75 296.822 239.75L316.064 234.013C316.183 234.013 316.303 234.013 316.303 234.133C316.422 234.252 316.422 234.252 316.422 234.372L292.28 328.431C292.161 328.431 292.041 328.551 291.922 328.551ZM297.061 240.109L292.4 325.443L315.705 234.611L297.061 240.109Z" fill="#FFFDFD"/>
<path d="M450.997 240.945L316.065 234.372C315.945 234.372 315.945 234.372 315.826 234.252C315.826 234.133 315.826 234.133 315.826 234.013L332.319 192.9C332.319 192.78 332.438 192.78 332.438 192.78C332.558 192.78 332.558 192.78 332.677 192.78L451.236 240.348C451.355 240.348 451.475 240.587 451.355 240.706C451.236 240.826 451.116 240.945 450.997 240.945ZM316.423 233.894L449.323 240.348L332.558 193.497L316.423 233.894Z" fill="#FFFDFD"/>
<path d="M332.438 193.378C332.199 193.378 332.199 193.258 332.199 193.139L318.336 86.052C318.336 85.9325 318.336 85.813 318.455 85.813C318.575 85.813 318.694 85.813 318.814 85.813L392.674 143.42C392.793 143.42 392.793 143.539 392.793 143.659C392.793 143.778 392.793 143.778 392.674 143.898L332.677 193.378C332.558 193.378 332.558 193.378 332.438 193.378ZM319.053 86.6496L332.797 192.541L392.195 143.659L319.053 86.6496Z" fill="#FFFDFD"/>
<path d="M392.435 143.898C392.315 143.898 392.315 143.898 392.315 143.898L318.455 86.2908C318.336 86.1713 318.336 86.1713 318.336 86.0518C318.336 85.9323 318.455 85.8127 318.455 85.8127L382.754 57.0093C382.873 57.0093 382.873 57.0093 382.993 57.0093C383.112 57.0093 383.112 57.1288 383.112 57.2483L392.674 143.778C392.674 143.898 392.674 144.017 392.554 144.017C392.554 143.898 392.554 143.898 392.435 143.898ZM319.172 86.0518L392.076 142.942L382.634 57.4873L319.172 86.0518Z" fill="#FFFDFD"/>
<path d="M382.992 57.368C382.992 57.368 382.873 57.368 382.992 57.368C382.873 57.368 382.753 57.2485 382.753 57.129L352.038 -70.2755C352.038 -70.395 352.038 -70.395 352.038 -70.5145C352.038 -70.6341 352.157 -70.6341 352.277 -70.6341L482.189 -96.3301C482.309 -96.3301 482.428 -96.3301 482.428 -96.2106C482.548 -96.091 482.548 -95.9715 482.428 -95.852L383.231 57.2485C383.112 57.368 383.112 57.368 382.992 57.368ZM352.636 -70.156L383.112 56.4119L481.711 -95.7325L352.636 -70.156Z" fill="#FFFDFD"/>
<path d="M392.434 143.898H392.315C392.195 143.898 392.195 143.778 392.195 143.659L382.634 57.1289C382.634 57.0094 382.634 56.8899 382.754 56.8899C382.873 56.8899 382.993 56.8899 383.112 57.0094L441.794 121.548C441.913 121.668 441.913 121.668 441.913 121.787C441.913 121.907 441.794 121.907 441.794 122.026L392.434 143.898C392.554 143.898 392.554 143.898 392.434 143.898ZM383.351 57.9655L392.673 143.181L441.077 121.548L383.351 57.9655Z" fill="#FFFDFD"/>
<path d="M441.674 121.907C441.554 121.907 441.554 121.907 441.435 121.787L382.753 57.2483C382.634 57.1288 382.634 57.0093 382.753 56.8898C382.873 56.7703 382.992 56.7703 383.112 56.7703L482.548 82.3468C482.667 82.3468 482.667 82.4663 482.787 82.5858C482.787 82.7053 482.787 82.8248 482.667 82.8248L441.913 121.787C441.793 121.907 441.674 121.907 441.674 121.907ZM383.829 57.6069L441.674 121.19L481.83 82.7053L383.829 57.6069Z" fill="#FFFDFD"/>
<path d="M482.429 82.9445L382.873 57.368C382.754 57.368 382.754 57.2485 382.634 57.2485C382.634 57.129 382.634 57.129 382.634 57.0095L481.95 -96.2106C482.07 -96.3301 482.189 -96.3301 482.309 -96.3301C482.428 -96.3301 482.548 -96.2106 482.548 -96.091L482.787 82.7055C482.787 82.825 482.787 82.825 482.667 82.9445C482.548 82.9445 482.429 82.9445 482.429 82.9445ZM383.471 56.8899L482.189 82.2274L481.95 -95.2544L383.471 56.8899Z" fill="#FFFDFD"/>
<path d="M291.922 328.55C291.802 328.55 291.802 328.55 291.683 328.431C291.563 328.311 291.563 328.311 291.563 328.192L315.705 234.133C315.705 234.013 315.825 234.013 315.825 233.894C315.944 233.894 316.064 233.894 316.064 233.894L418.248 304.528C418.368 304.647 418.368 304.647 418.368 304.767C418.368 304.886 418.248 305.006 418.129 305.006L291.922 328.55C292.041 328.55 291.922 328.55 291.922 328.55ZM316.183 234.611L292.28 327.953L417.412 304.647L316.183 234.611Z" fill="#FFFDFD"/>
<path d="M366.618 364.764H366.499L291.802 328.551C291.683 328.551 291.683 328.431 291.683 328.312C291.683 328.192 291.802 328.073 291.922 328.073L418.129 304.528C418.248 304.528 418.368 304.528 418.368 304.647C418.368 304.767 418.368 304.886 418.368 305.006L366.738 364.764C366.857 364.764 366.738 364.764 366.618 364.764ZM292.878 328.431L366.618 364.167L417.531 305.125L292.878 328.431Z" fill="#FFFDFD"/>
<path d="M418.25 305.006H418.13L315.945 234.372C315.826 234.252 315.826 234.133 315.826 234.013C315.826 233.894 315.945 233.774 316.065 233.774L450.997 240.348C451.116 240.348 451.236 240.348 451.236 240.467C451.236 240.587 451.236 240.706 451.236 240.706L418.489 304.767C418.369 304.887 418.369 305.006 418.25 305.006ZM317.021 234.492L418.13 304.289L450.519 240.945L317.021 234.492Z" fill="#FFFDFD"/>
<path d="M401.636 377.194C401.636 377.194 401.517 377.194 401.636 377.194L366.619 364.764C366.499 364.764 366.499 364.645 366.499 364.525C366.499 364.406 366.499 364.286 366.499 364.286L418.129 304.528C418.249 304.408 418.369 304.408 418.488 304.408C418.608 304.408 418.608 304.647 418.608 304.767L401.995 376.955C401.995 377.074 401.876 377.074 401.876 377.194C401.756 377.194 401.636 377.194 401.636 377.194ZM367.097 364.406L401.397 376.596L417.651 305.842L367.097 364.406Z" fill="#FFFDFD"/>
<path d="M401.637 377.194C401.518 377.194 401.518 377.194 401.398 377.074C401.398 376.955 401.279 376.955 401.279 376.835L417.891 304.647C417.891 304.528 418.011 304.528 418.13 304.408C418.25 304.408 418.369 304.408 418.369 304.528L485.536 369.425C485.656 369.545 485.656 369.664 485.656 369.664C485.656 369.784 485.536 369.784 485.417 369.903L401.637 377.194ZM418.369 305.245L401.996 376.596L484.819 369.306L418.369 305.245Z" fill="#FFFDFD"/>
<path d="M418.249 305.006C418.129 305.006 418.129 305.006 418.01 304.887C417.89 304.767 417.89 304.647 418.01 304.528L450.757 240.467C450.757 240.348 450.876 240.348 450.996 240.348C451.115 240.348 451.115 240.348 451.235 240.348L487.926 268.554C488.045 268.554 488.045 268.673 488.045 268.793C488.045 268.912 487.926 269.032 487.926 269.032L418.368 304.767C418.249 305.006 418.249 305.006 418.249 305.006ZM451.115 241.065L418.847 304.05L487.209 268.912L451.115 241.065Z" fill="#FFFDFD"/>
<path d="M485.416 369.784C485.296 369.784 485.296 369.784 485.177 369.665L418.01 304.887C417.89 304.767 417.89 304.767 417.89 304.648C417.89 304.528 418.01 304.528 418.129 304.409L514.219 275.725C514.338 275.725 514.458 275.725 514.458 275.844C514.577 275.964 514.577 276.083 514.577 276.083L485.655 369.665C485.655 369.784 485.535 369.784 485.416 369.784ZM418.727 304.887L485.177 369.067L513.741 276.442L418.727 304.887Z" fill="#FFFDFD"/>
<path d="M418.25 305.006C418.13 305.006 418.01 304.886 418.01 304.886C418.01 304.767 418.011 304.647 418.13 304.528L487.687 268.792C487.807 268.792 487.807 268.792 487.926 268.792L514.459 275.844C514.578 275.844 514.698 275.963 514.698 276.083C514.698 276.202 514.578 276.322 514.459 276.322L418.25 305.006ZM487.807 269.271L420.998 303.572L513.144 275.963L487.807 269.271Z" fill="#FFFDFD"/>
<path d="M3.41482 340.741C3.29531 340.741 3.17578 340.622 3.17578 340.502C3.17578 340.383 3.17579 340.263 3.2953 340.144L82.7723 293.532C82.8918 293.532 82.8918 293.532 83.0113 293.532C83.1309 293.532 83.1309 293.652 83.1309 293.652L99.6238 322.933C99.6238 323.053 99.6238 323.053 99.6238 323.172C99.6238 323.292 99.5043 323.292 99.3848 323.292L3.41482 340.741C3.53434 340.741 3.53434 340.741 3.41482 340.741ZM82.8918 294.249L4.9685 339.905L99.0263 322.933L82.8918 294.249Z" fill="#FFFDFD"/>
<path d="M99.5045 323.412C99.385 323.412 99.385 323.412 99.5045 323.412C99.385 323.412 99.2655 323.292 99.2655 323.292L82.7725 294.01C82.7725 293.891 82.7725 293.891 82.7725 293.771C82.7725 293.652 82.892 293.652 83.0115 293.652L132.132 283.852C132.251 283.852 132.371 283.852 132.371 283.971C132.491 284.091 132.371 284.21 132.371 284.33L99.7436 323.412C99.624 323.292 99.5045 323.412 99.5045 323.412ZM83.4896 294.01L99.5045 322.575L131.415 284.449L83.4896 294.01Z" fill="#FFFDFD"/>
<path d="M238.38 126.209C238.141 126.209 238.022 125.97 238.141 125.851L253.559 66.4512C253.559 66.3317 253.798 66.2122 253.917 66.2122C254.037 66.2122 254.156 66.4512 254.156 66.5707L238.739 125.97C238.619 126.09 238.5 126.209 238.38 126.209Z" fill="#FFFDFD"/>
<path d="M238.38 126.209C238.26 126.209 238.26 126.209 238.26 126.09C238.141 125.97 238.141 125.851 238.141 125.851L253.558 66.4511C253.558 66.3315 253.678 66.3315 253.678 66.3315C253.797 66.3315 253.797 66.3315 253.917 66.3315L318.693 85.8127C318.813 85.8127 318.932 85.9322 318.932 86.0517C318.932 86.1713 318.932 86.2908 318.813 86.2908L238.619 126.209C238.499 126.209 238.499 126.209 238.38 126.209ZM254.036 66.8096L238.858 125.373L317.857 86.0517L254.036 66.8096Z" fill="#FFFDFD"/>
<path d="M261.207 201.624C261.088 201.624 260.968 201.505 260.968 201.385L238.141 125.97C238.141 125.851 238.141 125.731 238.26 125.612C238.38 125.492 238.499 125.492 238.619 125.612L332.677 192.78C332.796 192.9 332.796 193.019 332.796 193.019C332.796 193.139 332.677 193.258 332.557 193.258L261.207 201.624C261.327 201.624 261.207 201.624 261.207 201.624ZM238.858 126.568L261.446 201.027L331.721 192.9L238.858 126.568Z" fill="#FFFDFD"/>
<path d="M332.438 193.378H332.318L238.26 126.21C238.141 126.21 238.141 126.09 238.141 125.971C238.141 125.851 238.26 125.731 238.26 125.731L318.454 85.813C318.574 85.813 318.574 85.813 318.693 85.813C318.813 85.813 318.813 85.9325 318.813 86.052L332.677 193.139C332.677 193.258 332.677 193.378 332.557 193.378C332.557 193.378 332.557 193.378 332.438 193.378ZM238.977 125.971L332.199 192.541L318.454 86.4106L238.977 125.971Z" fill="#FFFDFD"/>
<path d="M212.326 254.45C212.206 254.45 212.206 254.45 212.087 254.331C211.967 254.211 211.967 254.092 212.087 253.972L261.088 201.146C261.207 201.027 261.207 201.027 261.327 201.027C261.446 201.027 261.446 201.146 261.566 201.266L264.434 215.13C264.434 215.249 264.434 215.369 264.315 215.369L212.445 254.45H212.326ZM261.088 201.983L214.597 252.18L263.837 215.13L261.088 201.983Z" fill="#FFFDFD"/>
<path d="M212.325 254.45C212.206 254.45 212.086 254.331 212.086 254.331C212.086 254.211 212.086 254.092 212.206 253.972L264.075 215.01C264.194 214.891 264.314 214.891 264.433 215.01L297.18 239.63C297.3 239.75 297.3 239.869 297.3 239.869C297.3 239.869 297.18 240.108 297.061 240.108L212.325 254.45ZM264.075 215.608L213.281 253.733L295.985 239.75L264.075 215.608Z" fill="#FFFDFD"/>
<path d="M291.923 328.55C291.803 328.55 291.803 328.55 291.684 328.431L211.968 254.331C211.848 254.211 211.848 254.092 211.848 254.092C211.848 253.972 211.968 253.972 212.087 253.853L296.584 239.511C296.704 239.511 296.704 239.511 296.823 239.63C296.943 239.63 296.943 239.75 296.943 239.869L292.042 328.192C292.282 328.431 292.162 328.431 291.923 328.55C292.042 328.55 292.042 328.55 291.923 328.55ZM212.924 254.331L291.684 327.594L296.465 240.108L212.924 254.331Z" fill="#FFFDFD"/>
<path d="M548.519 179.036L451.474 240.109L482.787 121.787L548.639 149.635V149.037L482.667 121.19C482.548 121.19 482.548 121.19 482.428 121.19C482.309 121.19 482.309 121.309 482.309 121.429L450.757 240.826C450.757 240.945 450.757 241.065 450.876 241.065H450.996H451.115L548.4 179.753L548.519 179.036Z" fill="#FFFDFD"/>
<path d="M548.161 229.95L452.072 240.228L548.4 179.633V178.916L450.757 240.347C450.637 240.467 450.637 240.587 450.637 240.706C450.637 240.826 450.757 240.945 450.876 240.945L548.041 230.547L548.161 229.95Z" fill="#FFFDFD"/>
<path d="M548.639 148.918L484.221 121.668L548.759 125.492V124.895L482.668 120.951C482.548 120.951 482.429 121.07 482.429 121.19C482.429 121.309 482.429 121.429 482.548 121.548L548.639 149.515V148.918Z" fill="#FFFDFD"/>
<path d="M99.5053 323.411C99.3858 323.411 99.3858 323.411 99.2663 323.292C99.1468 323.172 99.1468 323.053 99.2663 322.933L131.894 283.851C131.894 283.732 132.013 283.732 132.133 283.732L196.67 283.493C196.79 283.493 196.909 283.612 196.909 283.732C196.909 283.851 196.909 283.971 196.79 284.09L99.5053 323.411ZM132.252 284.329L100.342 322.455L195.117 284.21L132.252 284.329Z" fill="#FFFDFD"/>
<path d="M178.024 387.113C177.905 387.113 177.905 387.113 177.905 386.994L99.2645 323.172C99.145 323.053 99.145 323.053 99.145 322.933C99.145 322.814 99.2645 322.694 99.2645 322.694L196.43 283.493C196.549 283.493 196.669 283.493 196.669 283.493C196.788 283.612 196.788 283.612 196.788 283.732L178.144 386.755C178.263 386.994 178.263 387.113 178.024 387.113C178.144 387.113 178.144 387.113 178.024 387.113ZM99.9816 323.172L177.905 386.396L196.31 284.329L99.9816 323.172Z" fill="#FFFDFD"/>
<path d="M132.133 284.33C132.013 284.33 131.894 284.21 131.894 284.091C131.894 283.971 131.894 283.852 132.013 283.732L212.207 253.853C212.327 253.853 212.446 253.853 212.566 253.973C212.685 254.092 212.685 254.212 212.566 254.331L196.909 283.971C196.909 284.091 196.79 284.091 196.67 284.091L132.133 284.33ZM211.729 254.69L133.686 283.732L196.551 283.493L211.729 254.69Z" fill="#FFFDFD"/>
<path d="M178.026 387.114H177.906C177.787 386.994 177.787 386.994 177.787 386.875L196.431 283.851C196.431 283.732 196.55 283.732 196.55 283.612C196.67 283.612 196.67 283.612 196.789 283.612L292.042 328.072C292.162 328.072 292.162 328.192 292.162 328.311C292.162 328.431 292.162 328.55 292.042 328.55L178.145 387.233C178.145 387.114 178.145 387.114 178.026 387.114ZM196.909 284.21L178.504 386.277L291.445 328.192L196.909 284.21Z" fill="#FFFDFD"/>
<path d="M291.923 328.55L196.551 284.09C196.431 284.09 196.431 283.971 196.431 283.971C196.431 283.851 196.431 283.851 196.431 283.732L212.088 254.092C212.088 253.972 212.207 253.972 212.327 253.972C212.446 253.972 212.446 253.972 212.566 254.092L292.282 328.192C292.401 328.311 292.401 328.431 292.282 328.55C292.162 328.55 292.043 328.55 291.923 328.55ZM197.029 283.732L290.489 327.236L212.446 254.57L197.029 283.732Z" fill="#FFFDFD"/>
<path d="M547.922 288.274L514.936 275.963L548.041 256.96V256.363L514.099 275.844C513.98 275.844 513.98 275.963 513.98 276.083C513.98 276.202 514.099 276.322 514.219 276.322L547.922 288.871V288.274Z" fill="#FFFDFD"/>
<path d="M253.797 66.6902C253.678 66.6902 253.678 66.6902 253.558 66.5707C253.439 66.4512 253.558 66.2121 253.678 66.2121L318.454 22.9472C318.574 22.8277 318.813 22.9472 318.813 23.0667C318.932 23.1862 318.813 23.4253 318.693 23.4253L253.917 66.6902C253.917 66.6902 253.917 66.6902 253.797 66.6902Z" fill="#FFFDFD"/>
<path d="M318.693 86.2907C318.574 86.2907 318.574 86.2907 318.693 86.2907L253.797 66.8096C253.678 66.8096 253.558 66.69 253.558 66.5705C253.558 66.451 253.558 66.3315 253.678 66.3315L318.454 23.0665C318.574 23.0665 318.693 22.947 318.693 23.0665C318.813 23.0665 318.813 23.1861 318.813 23.3056V86.1712C318.813 86.2907 318.813 86.2907 318.693 86.4102C318.813 86.2907 318.693 86.2907 318.693 86.2907ZM254.514 66.3315L318.454 85.5736V23.6641L254.514 66.3315Z" fill="#FFFDFD"/>
<path d="M318.693 86.291H318.573C318.454 86.291 318.454 86.1715 318.454 86.0519V23.1863C318.454 23.0668 318.454 22.9473 318.573 22.9473C318.693 22.9473 318.812 22.9473 318.812 22.9473L383.231 56.8899C383.35 56.8899 383.35 57.0094 383.35 57.129C383.35 57.2485 383.231 57.368 383.231 57.368L318.693 86.291ZM318.812 23.6644V85.5739L382.275 57.129L318.812 23.6644Z" fill="#FFFDFD"/>
<path d="M382.993 57.3679H382.873L318.455 23.4253C318.335 23.3058 318.216 23.1862 318.335 23.0667L352.038 -70.5146C352.038 -70.6341 352.158 -70.7537 352.278 -70.7537C352.397 -70.7537 352.517 -70.6341 352.517 -70.5146L383.232 57.0094C383.232 57.1289 383.232 57.2484 383.112 57.2484C383.112 57.368 382.993 57.3679 382.993 57.3679ZM318.933 23.0667L382.515 56.6508L352.158 -69.439L318.933 23.0667Z" fill="#FFFDFD"/>
<path d="M547.684 327.117L485.895 368.828L514.339 276.561L547.684 319.468V318.511L514.459 275.724C514.34 275.605 514.34 275.605 514.22 275.605C514.1 275.605 513.981 275.724 513.981 275.844L485.058 369.425C485.058 369.545 485.059 369.664 485.178 369.784H485.298H485.417L547.565 327.834L547.684 327.117Z" fill="#FFFDFD"/>
<path d="M547.445 384.724L486.134 369.425L547.804 327.834V327.117L485.178 369.306C485.059 369.425 485.058 369.425 485.058 369.545C485.058 369.664 485.178 369.784 485.298 369.784L547.445 385.202V384.724Z" fill="#FFFDFD"/>
<path d="M547.802 318.631L515.174 276.561L548.041 288.752V288.154L514.457 275.605C514.338 275.605 514.218 275.605 514.099 275.724C513.979 275.844 513.979 275.964 514.099 276.083L547.802 319.468V318.631Z" fill="#FFFDFD"/>
<path d="M392.435 147.364C394.481 147.364 396.14 145.705 396.14 143.659C396.14 141.613 394.481 139.954 392.435 139.954C390.389 139.954 388.73 141.613 388.73 143.659C388.73 145.705 390.389 147.364 392.435 147.364Z" fill="#FFFDFD"/>
<path d="M392.554 139.954C394.586 139.954 396.259 141.627 396.259 143.659C396.259 145.691 394.586 147.364 392.554 147.364C390.523 147.364 388.849 145.691 388.849 143.659C388.73 141.507 390.403 139.954 392.554 139.954ZM392.554 138.759C389.925 138.759 387.654 140.91 387.654 143.539C387.654 146.169 389.806 148.439 392.435 148.439C395.064 148.439 397.335 146.288 397.335 143.659C397.335 141.029 395.184 138.759 392.554 138.759Z" fill="#CCE3FF"/>
<path d="M443.228 121.668C443.228 120.831 442.511 120.114 441.674 120.114C440.838 120.114 440.121 120.831 440.121 121.668C440.121 122.504 440.838 123.221 441.674 123.221C442.511 123.221 443.228 122.504 443.228 121.668Z" fill="#FFFDFD"/>
<path d="M441.674 119.994C442.511 119.994 443.228 120.711 443.228 121.548C443.228 122.385 442.511 123.102 441.674 123.102C440.838 123.102 440.121 122.385 440.121 121.548C440.121 120.711 440.718 119.994 441.674 119.994ZM441.674 118.919C440.121 118.919 438.926 120.114 438.926 121.668C438.926 123.221 440.121 124.416 441.674 124.416C443.228 124.416 444.423 123.221 444.423 121.668C444.423 120.114 443.109 118.919 441.674 118.919Z" fill="#CCE3FF"/>
<path d="M482.43 86.291C484.462 86.291 486.135 84.6177 486.135 82.7055C486.135 80.6737 484.462 79.0005 482.549 79.0005C480.518 79.0005 478.844 80.6737 478.844 82.586C478.725 84.6178 480.398 86.291 482.43 86.291Z" fill="#FFFDFD"/>
<path d="M482.429 79.0003C484.461 79.0003 486.134 80.6736 486.014 82.7053C486.014 84.7371 484.341 86.4104 482.309 86.2908C480.278 86.2908 478.604 84.6176 478.724 82.5858C478.724 80.5541 480.397 79.0003 482.429 79.0003ZM482.429 77.8052C479.8 77.8052 477.648 79.9565 477.648 82.5858C477.648 85.2152 479.8 87.3665 482.429 87.3665C485.058 87.3665 487.209 85.2152 487.209 82.5858C487.209 80.076 485.058 77.9247 482.429 77.8052Z" fill="#CCE3FF"/>
<path d="M316.065 230.786C314.272 230.786 312.718 232.22 312.718 234.133C312.718 235.925 314.153 237.479 316.065 237.479C317.977 237.479 319.411 236.045 319.411 234.133C319.411 232.34 317.857 230.786 316.065 230.786Z" fill="#FFFDFD"/>
<path d="M316.065 230.786C317.858 230.786 319.411 232.34 319.411 234.133C319.411 235.925 317.858 237.479 316.065 237.479C314.272 237.479 312.718 235.925 312.718 234.133C312.718 232.34 314.272 230.786 316.065 230.786ZM316.065 229.71C313.674 229.71 311.643 231.623 311.643 234.133C311.643 236.523 313.555 238.555 316.065 238.555C318.455 238.555 320.487 236.642 320.487 234.133C320.487 231.742 318.455 229.71 316.065 229.71Z" fill="#CCE3FF"/>
<path d="M418.249 302.616C417.054 302.616 416.218 303.572 416.218 304.647C416.218 305.843 417.174 306.679 418.249 306.679C419.444 306.679 420.281 305.723 420.281 304.647C420.281 303.572 419.325 302.616 418.249 302.616Z" fill="#FFFDFD"/>
<path d="M418.249 302.616C419.445 302.616 420.281 303.572 420.281 304.647C420.281 305.843 419.325 306.679 418.249 306.679C417.054 306.679 416.218 305.723 416.218 304.647C416.218 303.572 417.054 302.616 418.249 302.616ZM418.249 301.54C416.457 301.54 415.022 302.974 415.022 304.767C415.022 306.56 416.457 307.994 418.249 307.994C420.042 307.994 421.476 306.56 421.476 304.767C421.357 302.974 420.042 301.54 418.249 301.54Z" fill="#CCE3FF"/>
<path d="M487.808 264.968C485.656 264.968 483.864 266.761 483.744 268.912C483.744 271.063 485.537 272.856 487.688 272.975C489.839 272.975 491.632 271.183 491.752 269.031C491.752 266.761 489.959 264.968 487.808 264.968Z" fill="#FFFDFD"/>
<path d="M487.808 264.968C489.959 264.968 491.752 266.76 491.752 269.031C491.752 271.183 489.959 272.975 487.688 272.975C485.537 272.975 483.744 271.182 483.744 268.912C483.744 266.76 485.537 264.968 487.808 264.968ZM487.808 263.772C484.939 263.772 482.668 266.043 482.668 268.912C482.668 271.78 484.939 274.051 487.808 274.051C490.676 274.051 492.947 271.78 492.947 268.912C492.827 266.163 490.556 263.772 487.808 263.772Z" fill="#CCE3FF"/>
<path d="M3.53446 338.709C2.57835 338.709 1.86127 339.427 1.86127 340.383C1.86127 341.339 2.57835 342.056 3.53446 342.056C4.49058 342.056 5.20767 341.339 5.20767 340.383C5.08816 339.546 4.37106 338.829 3.53446 338.709Z" fill="#FFFDFD"/>
<path d="M3.53449 338.709C4.4906 338.709 5.2077 339.427 5.2077 340.383C5.2077 341.339 4.4906 342.056 3.53449 342.056C2.57837 342.056 1.86129 341.339 1.86129 340.383C1.86129 339.546 2.57837 338.709 3.53449 338.709ZM3.53449 337.634C1.98079 337.634 0.785645 338.829 0.785645 340.383C0.785645 341.936 1.98079 343.132 3.53449 343.132C5.08818 343.132 6.28333 341.936 6.28333 340.383C6.28333 338.948 4.96866 337.634 3.53449 337.634Z" fill="#CCE3FF"/>
<path d="M83.0117 291.142C81.5775 291.142 80.3824 292.337 80.3824 293.771C80.3824 295.206 81.5775 296.401 83.0117 296.401C84.4459 296.401 85.6411 295.206 85.6411 293.771C85.6411 292.337 84.4459 291.142 83.0117 291.142Z" fill="#FFFDFD"/>
<path d="M83.0118 291.142C84.446 291.142 85.6411 292.337 85.6411 293.771C85.6411 295.206 84.446 296.401 83.0118 296.401C81.5777 296.401 80.3825 295.206 80.3825 293.771C80.3825 292.337 81.5777 291.142 83.0118 291.142ZM83.0118 290.066C80.9801 290.066 79.1874 291.74 79.1874 293.771C79.1874 295.803 80.8606 297.596 82.8923 297.596C84.9241 297.596 86.7168 295.923 86.7168 293.891C86.8363 291.74 85.1631 290.066 83.0118 290.066Z" fill="#CCE3FF"/>
<path d="M238.38 124.297C237.543 124.297 236.826 125.014 236.826 125.851C236.826 126.687 237.543 127.405 238.38 127.405C239.217 127.405 239.934 126.687 239.934 125.851C240.053 125.014 239.336 124.297 238.38 124.297Z" fill="#FFFDFD"/>
<path d="M238.38 124.297C239.217 124.297 239.934 125.014 239.934 125.851C239.934 126.687 239.217 127.404 238.38 127.404C237.543 127.404 236.826 126.687 236.826 125.851C236.826 125.014 237.543 124.297 238.38 124.297ZM238.38 123.102C236.826 123.102 235.631 124.297 235.631 125.851C235.631 127.404 236.826 128.6 238.38 128.6C239.934 128.6 241.129 127.404 241.129 125.851C241.129 124.416 239.934 123.221 238.38 123.102Z" fill="#CCE3FF"/>
<path d="M332.437 189.434C330.405 189.434 328.732 191.107 328.732 193.019C328.732 195.051 330.405 196.724 332.317 196.724C334.349 196.724 336.022 195.051 336.022 193.139C336.142 191.107 334.469 189.434 332.437 189.434Z" fill="#FFFDFD"/>
<path d="M332.438 189.434C334.47 189.434 336.143 191.107 336.023 193.139C336.023 195.17 334.35 196.844 332.318 196.724C330.287 196.724 328.613 195.051 328.733 193.019C328.852 190.987 330.526 189.434 332.438 189.434ZM332.557 188.358C329.928 188.358 327.777 190.509 327.777 193.139C327.777 195.768 329.928 197.919 332.557 197.919C335.187 197.919 337.338 195.768 337.338 193.139C337.218 190.509 335.187 188.358 332.557 188.358Z" fill="#CCE3FF"/>
<path d="M261.207 203.178C262.163 203.178 263 202.341 263 201.385C263 200.429 262.163 199.593 261.207 199.593C260.251 199.593 259.414 200.429 259.414 201.385C259.414 202.341 260.251 203.178 261.207 203.178Z" fill="#FFFDFD"/>
<path d="M261.207 199.473C262.163 199.473 262.999 200.309 262.999 201.266C262.999 202.222 262.163 203.058 261.207 203.058C260.251 203.058 259.414 202.222 259.414 201.266C259.414 200.309 260.251 199.473 261.207 199.473ZM261.207 198.397C259.534 198.397 258.219 199.712 258.219 201.385C258.219 203.058 259.534 204.373 261.207 204.373C262.88 204.373 264.195 203.058 264.195 201.385C264.195 199.712 262.88 198.397 261.207 198.397Z" fill="#CCE3FF"/>
<path d="M264.195 213.217C263 213.217 262.163 214.173 262.163 215.249C262.163 216.444 263.12 217.281 264.195 217.281C265.39 217.281 266.227 216.325 266.227 215.249C266.227 214.173 265.271 213.217 264.195 213.217Z" fill="#FFFDFD"/>
<path d="M264.195 213.217C265.391 213.217 266.227 214.173 266.227 215.249C266.227 216.444 265.271 217.281 264.195 217.281C263 217.281 262.164 216.325 262.164 215.249C262.044 214.054 263 213.217 264.195 213.217ZM264.195 212.022C262.403 212.022 260.969 213.456 260.969 215.129C260.969 216.922 262.403 218.356 264.076 218.356C265.869 218.356 267.303 216.922 267.303 215.249C267.303 213.456 265.869 212.022 264.195 212.022Z" fill="#CCE3FF"/>
<path d="M296.822 238.316C295.985 238.316 295.149 239.033 295.149 239.87C295.149 240.706 295.866 241.543 296.702 241.543C297.539 241.543 298.376 240.826 298.376 239.989C298.495 239.033 297.778 238.316 296.822 238.316Z" fill="#FFFDFD"/>
<path d="M296.822 238.316C297.658 238.316 298.375 239.033 298.375 239.989C298.375 240.826 297.658 241.543 296.702 241.543C295.746 241.543 295.149 240.826 295.149 239.869C295.268 239.033 295.985 238.316 296.822 238.316ZM296.822 237.121C295.268 237.121 294.073 238.316 294.073 239.869C294.073 241.423 295.268 242.618 296.822 242.618C298.375 242.618 299.571 241.423 299.571 239.869C299.571 238.435 298.375 237.121 296.822 237.121Z" fill="#CCE3FF"/>
<path d="M450.996 237.837C449.442 237.837 448.128 239.033 448.128 240.586C448.128 242.14 449.323 243.455 450.876 243.455C452.43 243.455 453.745 242.259 453.745 240.706C453.864 239.152 452.55 237.837 450.996 237.837Z" fill="#FFFDFD"/>
<path d="M450.996 237.837C452.55 237.837 453.745 239.152 453.745 240.706C453.745 242.259 452.43 243.455 450.877 243.455C449.323 243.455 448.128 242.14 448.128 240.586C448.247 239.152 449.442 237.837 450.996 237.837ZM450.996 236.762C448.845 236.762 447.052 238.554 447.052 240.706C447.052 242.857 448.845 244.65 450.996 244.65C453.147 244.65 454.94 242.857 454.94 240.706C454.94 238.554 453.147 236.762 450.996 236.762Z" fill="#CCE3FF"/>
<path d="M482.548 118.082C480.755 118.082 479.321 119.516 479.321 121.309C479.321 123.102 480.755 124.536 482.548 124.536C484.34 124.536 485.775 123.102 485.775 121.309C485.775 119.516 484.34 118.082 482.548 118.082Z" fill="#FFFDFD"/>
<path d="M482.548 118.082C484.341 118.082 485.775 119.516 485.775 121.309C485.775 123.102 484.341 124.536 482.548 124.536C480.755 124.536 479.321 123.102 479.321 121.309C479.321 119.516 480.875 118.082 482.548 118.082ZM482.667 116.887C480.277 116.887 478.365 118.799 478.245 121.19C478.126 123.58 480.158 125.492 482.548 125.612C484.938 125.612 486.85 123.699 486.97 121.309C486.97 118.919 485.058 117.006 482.667 116.887Z" fill="#CCE3FF"/>
<path d="M99.5047 319.587C97.5925 319.587 96.0388 321.141 96.0388 323.053C96.0388 324.965 97.5925 326.519 99.5047 326.519C101.417 326.519 102.971 324.965 102.971 323.053C102.971 321.141 101.417 319.587 99.5047 319.587Z" fill="#FFFDFD"/>
<path d="M99.5048 319.587C101.417 319.587 102.971 321.141 102.971 323.053C102.971 324.965 101.417 326.519 99.5048 326.519C97.5925 326.519 96.0388 324.965 96.0388 323.053C95.9193 321.141 97.5925 319.587 99.5048 319.587ZM99.5048 318.511C96.9949 318.511 94.8437 320.543 94.8437 323.053C94.8437 325.563 96.8754 327.714 99.3852 327.714C101.895 327.714 104.046 325.682 104.046 323.172C104.046 320.543 102.015 318.511 99.5048 318.511Z" fill="#CCE3FF"/>
<path d="M134.163 284.09C134.163 283.015 133.326 282.059 132.131 282.059C131.055 282.059 130.099 282.895 130.099 284.09C130.099 285.166 130.936 286.122 132.131 286.122C133.207 286.122 134.163 285.166 134.163 284.09Z" fill="#FFFDFD"/>
<path d="M132.131 282.059C133.207 282.059 134.163 283.015 134.163 284.09C134.163 285.166 133.207 286.122 132.131 286.122C131.055 286.122 130.099 285.166 130.099 284.09C130.099 282.895 131.055 282.059 132.131 282.059ZM132.131 280.983C130.458 280.983 129.024 282.417 129.024 284.09C129.024 285.764 130.458 287.198 132.131 287.198C133.804 287.198 135.238 285.764 135.238 284.09C135.238 282.417 133.804 280.983 132.131 280.983Z" fill="#CCE3FF"/>
<path d="M196.67 280.505C194.877 280.505 193.323 281.939 193.323 283.851C193.323 285.644 194.758 287.198 196.67 287.198C198.463 287.198 200.016 285.764 200.016 283.851C200.016 282.059 198.463 280.505 196.67 280.505Z" fill="#FFFDFD"/>
<path d="M196.67 280.505C198.463 280.505 200.016 282.059 200.016 283.851C200.016 285.644 198.463 287.198 196.67 287.198C194.877 287.198 193.324 285.644 193.324 283.851C193.324 282.059 194.877 280.505 196.67 280.505ZM196.67 279.429C194.28 279.429 192.248 281.341 192.248 283.851C192.248 286.242 194.16 288.273 196.67 288.273C199.06 288.273 201.092 286.361 201.092 283.851C201.092 281.461 199.06 279.429 196.67 279.429Z" fill="#CCE3FF"/>
<path d="M291.923 325.324C290.37 325.324 289.055 326.638 289.055 328.192C289.055 329.746 290.37 331.06 291.923 331.06C293.477 331.06 294.792 329.746 294.792 328.192C294.792 326.638 293.597 325.324 291.923 325.324Z" fill="#FFFDFD"/>
<path d="M291.924 325.324C293.477 325.324 294.792 326.638 294.792 328.192C294.792 329.746 293.477 331.061 291.924 331.061C290.37 331.061 289.055 329.746 289.055 328.192C289.055 326.638 290.37 325.324 291.924 325.324ZM291.924 324.248C289.772 324.248 287.86 326.041 287.86 328.192C287.86 330.343 289.653 332.256 291.804 332.256C293.955 332.256 295.868 330.463 295.868 328.312C295.987 326.041 294.194 324.248 291.924 324.248Z" fill="#CCE3FF"/>
<path d="M212.326 252.06C211.131 252.06 210.174 253.016 210.174 254.211C210.174 255.406 211.131 256.363 212.326 256.363C213.521 256.363 214.477 255.406 214.477 254.211C214.477 253.016 213.521 252.06 212.326 252.06Z" fill="#FFFDFD"/>
<path d="M212.326 252.06C213.521 252.06 214.477 253.016 214.477 254.211C214.477 255.406 213.521 256.363 212.326 256.363C211.131 256.363 210.175 255.406 210.175 254.211C210.175 253.016 211.131 252.06 212.326 252.06ZM212.326 250.984C210.533 250.984 209.099 252.419 209.099 254.211C209.099 256.004 210.533 257.438 212.326 257.438C214.118 257.438 215.553 256.004 215.553 254.211C215.553 252.419 214.118 250.984 212.326 250.984Z" fill="#CCE3FF"/>
<path d="M253.798 63.9412C252.363 63.9412 251.288 65.0168 251.288 66.451C251.288 67.8852 252.363 68.9608 253.798 68.9608C255.232 68.9608 256.307 67.8852 256.307 66.451C256.307 65.1363 255.232 63.9412 253.798 63.9412Z" fill="#FFFDFD"/>
<path d="M253.798 63.9411C255.232 63.9411 256.307 65.1363 256.307 66.451C256.307 67.8852 255.112 68.9608 253.798 68.9608C252.483 68.9608 251.288 67.7657 251.288 66.451C251.288 65.0168 252.483 63.9411 253.798 63.9411ZM253.798 62.8655C251.766 62.8655 250.093 64.5387 250.093 66.451C250.093 68.4828 251.766 70.156 253.678 70.156C255.71 70.156 257.383 68.4828 257.383 66.5705C257.502 64.4192 255.829 62.8655 253.798 62.8655Z" fill="#CCE3FF"/>
<path d="M318.693 84.1396C317.618 84.1396 316.781 84.9763 316.781 86.0519C316.781 87.1276 317.618 87.9642 318.693 87.9642C319.769 87.9642 320.606 87.1276 320.606 86.0519C320.486 84.9763 319.649 84.1396 318.693 84.1396Z" fill="#FFFDFD"/>
<path d="M318.693 84.1395C319.769 84.1395 320.606 84.9761 320.606 86.0518C320.606 87.1274 319.769 87.964 318.693 87.964C317.618 87.964 316.781 87.1274 316.781 86.0518C316.781 84.9761 317.618 84.1395 318.693 84.1395ZM318.693 82.9443C317.02 82.9443 315.706 84.259 315.706 85.9323C315.706 87.6055 317.02 88.9202 318.693 88.9202C320.367 88.9202 321.681 87.6055 321.681 85.9323C321.681 84.3785 320.367 82.9443 318.693 82.9443Z" fill="#CCE3FF"/>
<path d="M318.575 27.2497C320.846 27.2497 322.638 25.4569 322.638 23.1861C322.638 20.9153 320.846 19.1226 318.575 19.1226C316.304 19.1226 314.511 20.9153 314.511 23.1861C314.511 25.3374 316.304 27.2497 318.575 27.2497Z" fill="#FFFDFD"/>
<path d="M318.575 19.1224C320.846 19.1224 322.638 20.9152 322.638 23.186C322.638 25.4568 320.846 27.2495 318.575 27.2495C316.304 27.2495 314.511 25.4568 314.511 23.186C314.511 20.9152 316.424 19.1224 318.575 19.1224ZM318.575 17.9272C315.707 17.9272 313.436 20.1981 313.436 23.0665C313.436 25.9348 315.707 28.2057 318.575 28.2057C321.443 28.2057 323.714 25.9348 323.714 23.0665C323.834 20.3176 321.443 18.0468 318.575 17.9272Z" fill="#CCE3FF"/>
<path d="M382.992 55.0972C381.797 55.0972 380.961 56.0533 380.961 57.1289C380.961 58.3241 381.917 59.1607 382.992 59.1607C384.187 59.1607 385.024 58.2046 385.024 57.1289C385.024 55.9338 384.068 55.0972 382.992 55.0972Z" fill="#FFFDFD"/>
<path d="M382.992 55.097C384.188 55.097 385.024 56.0532 385.024 57.1288C385.024 58.324 384.068 59.1606 382.992 59.1606C381.797 59.1606 380.961 58.2044 380.961 57.1288C380.961 55.9336 381.797 55.097 382.992 55.097ZM382.992 53.9019C381.2 53.9019 379.766 55.3361 379.766 57.1288C379.766 58.9215 381.2 60.3557 382.992 60.3557C384.785 60.3557 386.219 58.9215 386.219 57.1288C386.219 55.3361 384.785 53.9019 382.992 53.9019Z" fill="#CCE3FF"/>
<path d="M514.219 278.593C515.671 278.593 516.848 277.416 516.848 275.963C516.848 274.511 515.671 273.334 514.219 273.334C512.767 273.334 511.59 274.511 511.59 275.963C511.59 277.416 512.767 278.593 514.219 278.593Z" fill="#FFFDFD"/>
<path d="M514.219 273.334C515.653 273.334 516.848 274.529 516.848 275.963C516.848 277.397 515.653 278.593 514.219 278.593C512.785 278.593 511.59 277.397 511.59 275.963C511.59 274.529 512.785 273.334 514.219 273.334ZM514.219 272.258C512.068 272.258 510.395 273.932 510.395 276.083C510.395 278.234 512.068 279.907 514.219 279.907C516.37 279.907 518.044 278.234 518.044 276.083C518.044 273.932 516.37 272.258 514.219 272.258Z" fill="#CCE3FF"/>
</svg>
