<svg width="163" height="302" viewBox="0 0 163 302" fill="none" xmlns="http://www.w3.org/2000/svg">
<path opacity="0.15" d="M83.4514 301.42C117.23 301.42 144.614 296.646 144.614 290.756C144.614 284.866 117.23 280.092 83.4514 280.092C49.6724 280.092 22.2892 284.866 22.2892 290.756C22.2892 296.646 49.6724 301.42 83.4514 301.42Z" fill="#183E5E"/>
<path d="M93.1746 50.4982H73.2577V71.6697H93.1746V50.4982Z" fill="#F0B184"/>
<path fill-rule="evenodd" clip-rule="evenodd" d="M80.6284 68.3764H85.9605L87.6856 71.9834L85.49 78.4132H81.0989L78.9033 71.9834L80.6284 68.3764Z" fill="#235278"/>
<path fill-rule="evenodd" clip-rule="evenodd" d="M83.2944 134.243L87.6856 126.716L85.49 78.4132H81.0989L78.9033 126.716L83.2944 134.243Z" fill="#235278"/>
<path fill-rule="evenodd" clip-rule="evenodd" d="M62.1231 274.76C64.6323 278.994 64.4755 285.894 64.1618 289.501C62.7504 290.599 56.4774 290.442 56.4774 290.442L56.1637 288.404C56.1637 288.404 49.577 293.108 42.363 293.579C35.3058 293.892 28.0918 292.951 28.0918 290.285C28.2486 280.092 46.9109 283.856 48.7928 275.857L62.1231 274.76Z" fill="#182530"/>
<path fill-rule="evenodd" clip-rule="evenodd" d="M104.309 274.76C101.8 278.994 101.957 285.894 102.271 289.501C103.682 290.599 109.955 290.442 109.955 290.442L110.269 288.404C110.269 288.404 116.855 293.108 124.069 293.579C131.127 293.892 138.341 292.951 138.341 290.285C138.184 280.092 119.522 283.856 117.64 275.857L104.309 274.76Z" fill="#182530"/>
<path fill-rule="evenodd" clip-rule="evenodd" d="M120.306 278.994L105.721 139.575H59.9274L45.6562 278.994C52.243 281.033 58.516 281.19 64.0049 278.994L82.8241 167.02L101.643 278.994C108.387 280.876 114.817 281.346 120.306 278.994Z" fill="#183E5E"/>
<path d="M105.721 134.243H59.9275V139.575H105.721V134.243Z" fill="#182530"/>
<path d="M67.7688 134.243H65.887V142.085H67.7688V134.243Z" fill="#183E5E"/>
<path d="M99.7614 134.243H97.8795V142.085H99.7614V134.243Z" fill="#183E5E"/>
<path d="M93.0177 51.9096H73.4144V72.6107H93.0177V51.9096Z" fill="#F0B184"/>
<path fill-rule="evenodd" clip-rule="evenodd" d="M22.6029 76.2177L51.7726 70.2583C68.7098 66.8081 68.7098 89.7047 57.5751 90.1752L24.9553 91.273C10.9977 91.5867 8.95899 79.0406 22.6029 76.2177Z" fill="#94CDFC"/>
<path fill-rule="evenodd" clip-rule="evenodd" d="M140.222 76.2177L111.053 70.1015C94.1155 66.6513 94.1155 89.5479 105.25 90.0184L137.87 91.1162C151.828 91.5866 153.866 79.0405 140.222 76.2177Z" fill="#94CDFC"/>
<path fill-rule="evenodd" clip-rule="evenodd" d="M136.772 76.845L148.691 52.8506L162.178 59.5941L150.416 83.4317C144.3 95.9778 130.656 89.3911 136.772 76.845Z" fill="#94CDFC"/>
<path d="M146.652 57.2417L160.139 63.9853" stroke="#81BBEB" stroke-width="1.1999" stroke-miterlimit="22.9256"/>
<path fill-rule="evenodd" clip-rule="evenodd" d="M139.282 37.9521C139.438 44.0683 138.811 55.3598 137.87 59.2805C137.713 61.4761 139.438 66.965 141.477 67.2786C143.516 67.5923 145.084 61.3192 145.398 59.1237C146.025 53.6347 146.025 47.8322 145.868 42.1864C145.711 35.5997 139.282 35.7565 139.282 37.9521Z" fill="#FFC194"/>
<path fill-rule="evenodd" clip-rule="evenodd" d="M148.534 53.6348C140.379 52.0665 137.243 57.7122 138.341 61.3192C139.438 64.9262 138.811 68.5333 138.184 70.4152C137.556 72.2971 136.772 78.2565 148.064 78.2565C159.042 78.2565 157.003 54.8894 148.534 53.6348Z" fill="#FFC194"/>
<path fill-rule="evenodd" clip-rule="evenodd" d="M156.376 53.9484L148.534 53.6347C143.986 53.4779 143.83 60.6919 148.378 60.5351L156.219 60.8487C160.767 61.0056 160.767 54.4189 156.376 53.9484Z" fill="#F0B184"/>
<path fill-rule="evenodd" clip-rule="evenodd" d="M156.062 60.8487L147.593 60.5351C142.575 60.3782 142.418 67.5922 147.437 67.4354L155.905 67.7491C160.924 67.9059 160.924 61.3192 156.062 60.8487Z" fill="#F0B184"/>
<path fill-rule="evenodd" clip-rule="evenodd" d="M156.376 67.4354L148.377 67.1218C143.673 66.965 143.516 73.7085 148.221 73.5517L156.219 73.8653C160.924 74.0221 160.924 67.9059 156.376 67.4354Z" fill="#F0B184"/>
<path fill-rule="evenodd" clip-rule="evenodd" d="M156.376 73.5517L149.632 73.0812C145.711 72.7675 145.555 78.7269 149.475 78.5701L156.219 79.0406C160.139 79.1974 160.139 73.8653 156.376 73.5517Z" fill="#F0B184"/>
<path fill-rule="evenodd" clip-rule="evenodd" d="M158.571 53.9484L151.671 53.7916C147.123 53.6347 146.966 60.8487 151.514 60.6919L158.414 60.8487C162.962 61.0056 163.119 54.4189 158.571 53.9484Z" fill="#FFC194"/>
<path fill-rule="evenodd" clip-rule="evenodd" d="M159.199 60.8487L150.73 60.5351C145.711 60.3782 145.555 67.5922 150.573 67.4354L159.042 67.7491C164.06 67.9059 164.06 61.1624 159.199 60.8487Z" fill="#FFC194"/>
<path fill-rule="evenodd" clip-rule="evenodd" d="M157.944 67.4354L151.357 67.2786C146.652 67.1218 146.496 73.8653 151.2 73.7085L157.787 73.8653C162.492 74.0221 162.492 67.9059 157.944 67.4354Z" fill="#FFC194"/>
<path fill-rule="evenodd" clip-rule="evenodd" d="M157.63 73.5517L153.082 73.3948C149.162 73.238 149.005 79.0406 152.925 78.8838L157.473 79.0406C161.394 79.0406 161.394 73.8653 157.63 73.5517Z" fill="#FFC194"/>
<path fill-rule="evenodd" clip-rule="evenodd" d="M109.328 69.9446H55.2227C56.9477 76.2177 56.9478 84.8432 52.5566 89.8616L59.9274 134.243H105.564L110.426 90.6457C107.132 83.4317 107.916 75.5904 109.328 69.9446Z" fill="#81BBEB"/>
<path fill-rule="evenodd" clip-rule="evenodd" d="M85.8037 69.4742H80.4716L78.9033 73.0812L81.0989 79.3542H85.3332L87.3719 73.0812L85.8037 69.4742Z" fill="#E19017"/>
<path fill-rule="evenodd" clip-rule="evenodd" d="M83.1376 134.243L78.9033 126.716L81.0989 79.3542H85.3332L87.3719 126.716L83.1376 134.243Z" fill="#FFA724"/>
<path fill-rule="evenodd" clip-rule="evenodd" d="M70.9054 6.27319C79.2171 6.27319 87.5289 6.27319 95.8407 6.27319C100.859 6.27319 104.937 10.3507 104.937 15.3691C104.937 26.0333 104.937 36.6975 104.937 47.3617C104.937 61.9465 61.9663 61.9465 61.9663 47.3617C61.9663 36.6975 61.9663 26.0333 61.9663 15.3691C61.8095 10.3507 65.8869 6.27319 70.9054 6.27319Z" fill="#FFC194"/>
<path fill-rule="evenodd" clip-rule="evenodd" d="M75.6101 34.1883C76.551 34.1883 77.1783 32.3063 77.1783 29.7971C77.1783 27.4447 76.3942 25.406 75.6101 25.406C74.6691 25.406 74.0418 27.2879 74.0418 29.7971C73.885 32.1495 74.6691 34.1883 75.6101 34.1883Z" fill="#333333"/>
<path fill-rule="evenodd" clip-rule="evenodd" d="M90.9792 34.1883C91.9201 34.1883 92.5474 32.3063 92.5474 29.7971C92.5474 27.4447 91.7633 25.406 90.9792 25.406C90.0382 25.406 89.4109 27.2879 89.4109 29.7971C89.4109 32.1495 90.195 34.1883 90.9792 34.1883Z" fill="#333333"/>
<path fill-rule="evenodd" clip-rule="evenodd" d="M82.1968 41.2455C85.4901 42.5001 89.4108 41.2455 88.313 36.6975C87.8425 40.4613 85.0196 41.2455 82.1968 41.2455Z" fill="#CF8E5F"/>
<path fill-rule="evenodd" clip-rule="evenodd" d="M71.8463 21.4854C70.278 22.74 68.7098 20.7012 70.278 19.4466C72.6304 17.5647 76.5511 17.0942 79.5308 17.4079C81.5695 17.7215 81.099 20.7012 79.0603 20.5444C77.0216 20.2307 73.4145 20.2307 71.8463 21.4854Z" fill="#44312D"/>
<path fill-rule="evenodd" clip-rule="evenodd" d="M96.468 19.4466C98.0363 20.7012 96.6248 22.4263 95.0565 21.1717C93.3315 19.7602 89.7245 20.2307 87.6857 20.3876C85.647 20.7012 85.1765 17.5647 87.2152 17.251C90.1949 16.9374 94.1156 17.5647 96.468 19.4466Z" fill="#44312D"/>
<path fill-rule="evenodd" clip-rule="evenodd" d="M71.5326 41.7159C76.2374 44.8524 89.8813 45.0093 95.2134 41.0886C93.3314 55.6735 73.4145 55.3598 71.5326 41.7159Z" fill="#B87647"/>
<path fill-rule="evenodd" clip-rule="evenodd" d="M94.2723 42.1864C89.8812 48.6163 77.0215 48.3026 72.4735 42.8137C76.8646 45.4798 89.4107 45.4798 94.2723 42.1864Z" fill="white"/>
<path fill-rule="evenodd" clip-rule="evenodd" d="M59.6138 24.6219C61.6526 24.3082 63.6913 26.8174 64.3186 30.1108C64.9459 33.561 63.8481 36.5406 61.8094 36.8543C59.7706 37.1679 57.7319 34.6587 57.1046 31.3654C56.4773 27.9152 57.5751 24.9355 59.6138 24.6219Z" fill="#FFC194"/>
<path fill-rule="evenodd" clip-rule="evenodd" d="M106.975 24.6219C104.937 24.3082 102.898 26.8174 102.271 30.1108C101.643 33.561 102.741 36.5406 104.78 36.8543C106.819 37.1679 108.857 34.6587 109.485 31.3654C110.112 27.9152 109.014 24.9355 106.975 24.6219Z" fill="#FFC194"/>
<path fill-rule="evenodd" clip-rule="evenodd" d="M105.093 31.0518C106.348 20.7012 109.171 10.5075 106.191 9.09608C103.525 7.84147 101.8 7.99831 100.232 5.33226C93.4883 -6.58653 69.8075 4.86175 61.8094 7.21415C57.8887 8.46876 62.123 23.5241 62.2798 31.9927C62.2798 34.5019 64.1618 34.0314 64.0049 31.679C63.5344 25.406 64.4754 16.1532 64.9459 14.2713C66.0437 9.72337 74.5123 10.978 83.4514 10.978C93.1746 10.978 101.016 7.99829 102.584 13.644C103.055 15.2123 104.466 23.5241 103.682 30.7381C103.211 33.0905 104.78 33.4041 105.093 31.0518Z" fill="#44312D"/>
<path fill-rule="evenodd" clip-rule="evenodd" d="M26.053 76.845L14.1343 52.8506L0.647217 59.5941L12.4092 83.4317C18.5254 95.9778 32.1693 89.3911 26.053 76.845Z" fill="#94CDFC"/>
<path d="M16.173 57.2417L2.68591 63.9853" stroke="#81BBEB" stroke-width="1.1999" stroke-miterlimit="22.9256"/>
<path fill-rule="evenodd" clip-rule="evenodd" d="M23.5437 37.9521C23.3869 44.0684 24.0142 55.3599 24.9551 59.2805C25.112 61.4761 23.3869 66.965 21.3481 67.2787C19.3094 67.5923 17.7411 61.3193 17.4275 59.1237C16.8002 53.6348 16.8002 47.8322 16.957 42.1865C17.1138 35.5998 23.5437 35.7566 23.5437 37.9521Z" fill="#FFC194"/>
<path fill-rule="evenodd" clip-rule="evenodd" d="M14.291 53.6348C22.446 52.0665 25.5825 57.7122 24.4847 61.3192C23.3869 64.9262 24.0142 68.5333 24.6415 70.4152C25.2688 72.2971 26.053 78.2565 14.7615 78.2565C3.78367 78.2565 5.82241 54.8894 14.291 53.6348Z" fill="#FFC194"/>
<path fill-rule="evenodd" clip-rule="evenodd" d="M6.44979 53.9484L14.2911 53.6347C18.8391 53.4779 18.9959 60.6919 14.4479 60.5351L6.60661 60.8487C2.05865 61.0056 2.05866 54.4189 6.44979 53.9484Z" fill="#F0B184"/>
<path fill-rule="evenodd" clip-rule="evenodd" d="M6.76331 60.8487L15.2319 60.5351C20.2504 60.3782 20.4072 67.5922 15.3888 67.4354L6.92015 67.7491C1.90171 67.9059 1.9017 61.3192 6.76331 60.8487Z" fill="#F0B184"/>
<path fill-rule="evenodd" clip-rule="evenodd" d="M6.44973 67.4354L14.4479 67.1218C19.1526 66.965 19.3095 73.7085 14.6047 73.5517L6.60654 73.8653C1.90175 74.0221 1.90177 67.9059 6.44973 67.4354Z" fill="#F0B184"/>
<path fill-rule="evenodd" clip-rule="evenodd" d="M6.44969 73.5517L13.1932 73.0812C17.1139 72.7675 17.2707 78.7269 13.35 78.5701L6.60651 79.0406C2.68585 79.1974 2.68586 73.8653 6.44969 73.5517Z" fill="#F0B184"/>
<path fill-rule="evenodd" clip-rule="evenodd" d="M4.25422 53.9484L11.1546 53.7916C15.7025 53.6347 15.8594 60.8487 11.3114 60.6919L4.41106 60.8487C-0.136904 61.0056 -0.29374 54.4189 4.25422 53.9484Z" fill="#FFC194"/>
<path fill-rule="evenodd" clip-rule="evenodd" d="M3.62683 60.8487L12.0954 60.5351C17.1139 60.3782 17.2707 67.5922 12.2523 67.4354L3.78367 67.7491C-1.23477 67.9059 -1.23478 61.1624 3.62683 60.8487Z" fill="#FFC194"/>
<path fill-rule="evenodd" clip-rule="evenodd" d="M4.88149 67.4354L11.4682 67.2786C16.173 67.1218 16.3298 73.8653 11.625 73.7085L5.0383 73.8653C0.333517 74.0221 0.333531 67.9059 4.88149 67.4354Z" fill="#FFC194"/>
<path fill-rule="evenodd" clip-rule="evenodd" d="M5.19517 73.5517L9.74312 73.3948C13.6638 73.238 13.8206 79.0406 9.89995 78.8838L5.352 79.0406C1.43135 79.0406 1.43134 73.8653 5.19517 73.5517Z" fill="#FFC194"/>
<path fill-rule="evenodd" clip-rule="evenodd" d="M79.3738 133.302H86.5878C87.0583 133.302 87.5288 133.459 87.8425 133.93C88.1561 134.243 88.4698 134.714 88.4698 135.184V138.791C88.4698 139.262 88.313 139.732 87.8425 140.046C87.5288 140.36 87.0583 140.673 86.5878 140.673H79.3738C78.9034 140.673 78.4329 140.516 78.1192 140.046C77.8056 139.732 77.4919 139.262 77.4919 138.791V135.184C77.4919 134.714 77.6488 134.243 78.1192 133.93C78.2761 133.459 78.7465 133.302 79.3738 133.302ZM86.431 135.184H79.3738V138.635H86.431V135.184Z" fill="white"/>
<path fill-rule="evenodd" clip-rule="evenodd" d="M76.3942 137.85C75.9237 137.85 75.4532 137.38 75.4532 136.909C75.4532 136.439 75.9237 135.969 76.3942 135.969H81.5695C82.04 135.969 82.5104 136.439 82.5104 136.909C82.5104 137.38 82.04 137.85 81.5695 137.85H76.3942Z" fill="white"/>
<path fill-rule="evenodd" clip-rule="evenodd" d="M73.1008 63.6716L67.9255 70.1015L76.0805 81.7066L83.2945 69.4742L73.1008 63.6716Z" fill="#94CDFC"/>
<path fill-rule="evenodd" clip-rule="evenodd" d="M93.4883 63.6716L98.6636 70.1015L90.5086 81.7066L83.2946 69.4742L93.4883 63.6716Z" fill="#94CDFC"/>
</svg>
